<?xml version="1.0" encoding="iso-8859-1"?>
<!-- Generator: Adobe Illustrator 19.0.0, SVG Export Plug-In . SVG Version: 6.00 Build 0)  -->
<svg version="1.1" id="Layer_1" xmlns="http://www.w3.org/2000/svg" xmlns:xlink="http://www.w3.org/1999/xlink" x="0px" y="0px"
	 viewBox="0 0 511.999 511.999" style="enable-background:new 0 0 511.999 511.999;" xml:space="preserve">
<g>
	<g>
		<path d="M489.954,60.56l-16.64-16.644C414.793-14.606,319.59-14.638,261.026,43.82l-0.002-0.002l-56.315,56.315l0.001,0.001
			l-51.797,51.796l-28.223,28.222l0.001,0.001l-80.775,80.775c-58.554,58.555-58.554,153.83,0,212.384l16.643,16.642
			c14.215,14.216,33.115,22.044,53.22,22.044s39.005-7.83,53.221-22.044l40.183-40.184l-10.75-10.75l-40.183,40.183
			c-11.345,11.345-26.427,17.592-42.471,17.592c-16.043,0-31.126-6.247-42.47-17.592l-16.643-16.642
			c-52.627-52.627-52.627-138.257,0-190.884l0.757-0.757l60.413,60.412c7.521,7.521,17.521,11.664,28.158,11.664
			c10.636,0,20.637-4.142,28.158-11.664c15.526-15.526,15.526-40.79,0-56.317l-60.411-60.412l23.701-23.701l60.412,60.411
			c7.52,7.52,17.52,11.663,28.157,11.664c0.001,0,0.002,0,0.004,0c10.635,0,20.635-4.142,28.157-11.664
			c15.525-15.527,15.525-40.791-0.001-56.316l-60.411-60.411l23.702-23.702l60.41,60.412c7.521,7.521,17.521,11.664,28.158,11.664
			c0.001,0,0,0,0.001,0c10.636,0,20.637-4.142,28.159-11.665c15.523-15.527,15.523-40.791-0.001-56.316l-60.411-60.409
			c52.635-52.53,138.191-52.499,190.785,0.094l16.641,16.644c11.345,11.344,17.592,26.426,17.592,42.469
			c0,16.043-6.247,31.126-17.593,42.471L210.767,424.685l10.751,10.75l268.435-268.436c14.217-14.216,22.047-33.117,22.047-53.221
			C511.999,93.675,504.169,74.774,489.954,60.56z M161.4,285.765c9.599,9.6,9.599,25.219,0,34.817
			c-4.65,4.65-10.833,7.211-17.409,7.211c-6.576,0-12.758-2.561-17.409-7.211l-60.412-60.411l34.818-34.817L161.4,285.765z
			 M241.419,205.747c9.598,9.598,9.598,25.217,0,34.817c-4.65,4.65-10.832,7.211-17.406,7.211c-0.001,0-0.002,0-0.003,0
			c-6.577-0.001-12.759-2.561-17.409-7.21l-60.412-60.411l24.907-24.907l9.912-9.911L241.419,205.747z M321.436,125.729
			c9.599,9.598,9.599,25.217,0.002,34.817c-4.651,4.65-10.834,7.211-17.41,7.211c-6.577,0-12.759-2.561-17.409-7.211l-60.411-60.411
			l34.815-34.815L321.436,125.729z"/>
	</g>
</g>
<g>
	<g>
		
			<rect x="188.714" y="293.997" transform="matrix(0.7071 -0.7071 0.7071 0.7071 -124.9282 301.5932)" width="225.753" height="15.203"/>
	</g>
</g>
<g>
</g>
<g>
</g>
<g>
</g>
<g>
</g>
<g>
</g>
<g>
</g>
<g>
</g>
<g>
</g>
<g>
</g>
<g>
</g>
<g>
</g>
<g>
</g>
<g>
</g>
<g>
</g>
<g>
</g>
</svg>
