<?xml version="1.0" encoding="iso-8859-1"?>
<!-- Generator: Adobe Illustrator 16.0.0, SVG Export Plug-In . SVG Version: 6.00 Build 0)  -->
<!DOCTYPE svg PUBLIC "-//W3C//DTD SVG 1.1//EN" "http://www.w3.org/Graphics/SVG/1.1/DTD/svg11.dtd">
<svg version="1.1" id="Capa_1" xmlns="http://www.w3.org/2000/svg" xmlns:xlink="http://www.w3.org/1999/xlink" x="0px" y="0px"
	 width="210.601px" height="210.602px" viewBox="0 0 210.601 210.602" style="enable-background:new 0 0 210.601 210.602;"
	 xml:space="preserve">
<g>
	<path d="M195.824,125.507L108.51,23.768c-7.891-7.885-18.362-12.232-29.518-12.232h-0.006c-11.154,0-21.637,4.354-29.524,12.232
		c-7.897,7.888-12.232,18.371-12.232,29.533c0,11.147,4.348,21.63,11.972,29.231l29.061,33.021H41.757
		C18.726,115.553,0,134.302,0,157.312c0,23.034,18.74,41.754,41.757,41.754h127.09c23.028,0,41.754-18.731,41.754-41.754
		C210.601,144.581,204.855,133.167,195.824,125.507z M49.34,53.295c0-7.923,3.083-15.368,8.691-20.969
		c5.606-5.604,13.04-8.691,20.966-8.691h0.006c7.917,0,15.362,3.088,20.646,8.346l71.81,83.696c-0.863-0.047-1.72-0.124-2.612-0.124
		h-65.491c4.985-6.183,13.701-12.992,25.759-7.565l4.953-11.036c-20.188-9.043-35.343,3.546-42.977,14.872L74.204,92.637
		c4.135-6.466,13.802-17.711,28.375-11.18l4.953-11.042c-19.006-8.532-33.55,2.143-41.564,12.868l-7.941-9.029
		C52.429,68.66,49.34,61.209,49.34,53.295z M168.847,186.973H140.96c-1.359-7.761-1.407-21.131,12.459-26.415l-4.32-11.313
		c-19.062,7.271-22.076,24.577-20.374,37.729h-25.304c-1.41-7.838-1.478-21.107,12.465-26.415l-4.317-11.313
		c-19.065,7.271-22.074,24.577-20.369,37.729H65.914c-1.369-7.761-1.418-21.131,12.448-26.415l-4.314-11.313
		c-19.065,7.271-22.068,24.577-20.377,37.729H41.763c-16.349,0-29.651-13.293-29.651-29.643c0-16.349,13.302-29.66,29.651-29.66
		h127.084c7.199,0,13.725,2.684,18.867,6.963l4.717,5.509l0.283-0.248c3.594,4.918,5.781,10.911,5.781,17.437
		C198.496,173.68,185.196,186.973,168.847,186.973z"/>
</g>
<g>
</g>
<g>
</g>
<g>
</g>
<g>
</g>
<g>
</g>
<g>
</g>
<g>
</g>
<g>
</g>
<g>
</g>
<g>
</g>
<g>
</g>
<g>
</g>
<g>
</g>
<g>
</g>
<g>
</g>
</svg>
