<?xml version="1.0" encoding="iso-8859-1"?>
<!-- Generator: Adobe Illustrator 19.0.0, SVG Export Plug-In . SVG Version: 6.00 Build 0)  -->
<svg version="1.1" id="Layer_1" xmlns="http://www.w3.org/2000/svg" xmlns:xlink="http://www.w3.org/1999/xlink" x="0px" y="0px"
	 viewBox="0 0 512 512" style="enable-background:new 0 0 512 512;" xml:space="preserve">
<g>
	<g>
		<g>
			<path d="M132.309,374.741h363.842c-3.625,21.271-22.19,37.516-44.477,37.516H60.326c-22.287,0-40.852-16.244-44.477-37.516
				h96.184v-15.208H0v7.604c0,33.266,27.062,60.328,60.326,60.328h391.349c33.264,0,60.326-27.062,60.326-60.328v-7.604H132.309
				V374.741z"/>
			<rect x="115.752" y="122.555" width="15.208" height="47.134"/>
			<path d="M137.715,265.358c12.676,19.84,30.261,36.305,50.849,47.613l7.321-13.33c-18.362-10.084-34.045-24.771-45.354-42.47
				c-12.804-20.039-19.571-43.277-19.571-67.202h-15.208C115.752,216.801,123.347,242.871,137.715,265.358z"/>
			<path d="M328.9,344.325L328.9,344.325l143.051,0v-15.208H354.813c17.854-12.691,33.191-28.741,45.102-47.383
				c5.771-9.032,10.625-18.545,14.566-28.4h34.153c34.941,0,63.366-28.426,63.366-63.366c0-34.94-28.425-63.364-63.366-63.364
				h-21.97V84.535H235.723v15.208h175.733v15.208H256v15.208h155.456v47.138v12.671c0,6.61-0.44,13.173-1.262,19.666
				c-0.166,1.315-0.346,2.628-0.544,3.938c-0.014,0.092-0.03,0.185-0.045,0.277c-0.617,4-1.396,7.973-2.322,11.908
				c-0.08,0.34-0.156,0.679-0.238,1.018c-0.269,1.108-0.553,2.212-0.846,3.313c-0.122,0.457-0.246,0.914-0.373,1.371
				c-0.296,1.074-0.598,2.145-0.918,3.213c-0.114,0.38-0.236,0.757-0.354,1.137c-0.748,2.431-1.548,4.846-2.415,7.234
				c-0.012,0.034-0.023,0.069-0.036,0.103l-0.463,1.272c-3.792,10.146-8.648,19.91-14.54,29.129
				c-15.209,23.802-36.522,42.986-61.72,55.572H186.619c-25.197-12.585-46.511-31.769-61.72-55.572
				c-15.934-24.938-24.355-53.838-24.355-83.578V99.743h114.901V84.535H85.336v105.433c0,32.647,9.249,64.379,26.749,91.766
				c11.912,18.643,27.248,34.692,45.102,47.383H40.048v15.208H183.1H328.9z M426.664,189.969v-12.671h21.97
				c6.989,0,12.673,5.684,12.673,12.671c0,6.988-5.685,12.673-12.673,12.673h-22.445
				C426.499,198.438,426.664,194.212,426.664,189.969z M421.063,233.374c0.026-0.099,0.055-0.198,0.081-0.297
				c0.367-1.411,0.706-2.829,1.037-4.248c0.084-0.362,0.172-0.723,0.255-1.085c0.311-1.375,0.6-2.756,0.877-4.139
				c0.077-0.387,0.154-0.774,0.229-1.161c0.272-1.41,0.527-2.824,0.764-4.242c0.019-0.118,0.045-0.235,0.064-0.354h24.265
				c15.373,0,27.881-12.507,27.881-27.881c0-15.372-12.508-27.879-27.881-27.879h-21.97v-20.277h21.969v0.001
				c26.554,0,48.158,21.603,48.158,48.156c0,26.554-21.604,48.158-48.158,48.158h-28.877
				C420.22,236.55,420.646,234.964,421.063,233.374z"/>
		</g>
	</g>
</g>
<g>
</g>
<g>
</g>
<g>
</g>
<g>
</g>
<g>
</g>
<g>
</g>
<g>
</g>
<g>
</g>
<g>
</g>
<g>
</g>
<g>
</g>
<g>
</g>
<g>
</g>
<g>
</g>
<g>
</g>
</svg>
