<?xml version="1.0" encoding="iso-8859-1"?>
<!-- Generator: Adobe Illustrator 19.0.0, SVG Export Plug-In . SVG Version: 6.00 Build 0)  -->
<svg version="1.1" id="Layer_1" xmlns="http://www.w3.org/2000/svg" xmlns:xlink="http://www.w3.org/1999/xlink" x="0px" y="0px"
	 viewBox="0 0 407.89 407.89" style="enable-background:new 0 0 407.89 407.89;" xml:space="preserve">
<g>
	<g>
		<g>
			<path d="M317.094,392.53l-105.15-51.57v-54.24c37.1-1.5,71-13.43,96.16-33.99c28.91-23.62,44.9-56.67,46.24-95.56
				c0.08-2.17-0.73-4.28-2.24-5.84s-3.58-2.44-5.75-2.44h-2.71c0.19-2.31,0.3-4.64,0.3-7c0-35.29-22.57-65.29-54.06-76.39
				c-7.24-37.32-40.07-65.5-79.5-65.5c-36.19,0-66.84,23.75-77.22,56.51c-36.11,8.16-63.08,40.42-63.08,78.99
				c0,4.56,0.38,9.03,1.1,13.39h-9.64c-2.17,0-4.25,0.88-5.76,2.44c-1.5,1.56-2.31,3.67-2.24,5.84
				c1.35,38.89,17.34,71.94,46.24,95.56c25.17,20.56,59.07,32.49,96.16,33.99v54.24l-105.5,51.75c-3.34,1.64-5.11,5.36-4.27,8.99
				c0.84,3.62,4.07,6.19,7.8,6.19h219.95c0.01,0,0.01,0,0.02,0c4.42,0,8-3.58,8-8C321.944,396.59,319.944,393.75,317.094,392.53z
				 M327.944,141.89c0,2.37-0.13,4.7-0.38,7h-129.25c-0.24-2.3-0.37-4.64-0.37-7c0-35.9,29.1-65,65-65
				C298.844,76.89,327.944,105.99,327.944,141.89z M210.384,16c29.09,0,53.71,19.11,62.01,45.46c-3.11-0.36-6.25-0.57-9.45-0.57
				c-20.07,0-38.43,7.32-52.58,19.41c-14.79-15.87-35.87-25.8-59.28-25.8h-0.06C161.164,31.81,183.924,16,210.384,16z M151.084,70.5
				c19.1,0,36.28,8.25,48.17,21.37c-10.83,13.78-17.31,31.14-17.31,50.02c0,2.36,0.11,4.69,0.3,7h-94.77
				c-0.91-4.32-1.39-8.8-1.39-13.39C86.084,99.6,115.184,70.5,151.084,70.5z M70.084,164.89h267.72
				c-2.17,22.1-9.93,41.62-22.26,57.68V208.2c0-15.06-12.25-27.31-27.31-27.31h-12.39c-15.05,0-27.3,12.25-27.3,27.31v17.38
				c0,6.24-5.07,11.31-11.31,11.31h-0.39c-6.23,0-11.3-5.07-11.3-11.31V207.2c0-15.06-12.25-27.31-27.31-27.31h-5.39
				c-15.05,0-27.3,12.25-27.3,27.31v4.38c0,6.24-5.07,11.31-11.31,11.31h-7.39c-6.23,0-11.3-5.07-11.3-11.31v-1.38
				c0-15.06-12.25-27.31-27.31-27.31h-35.01C71.754,177.11,70.694,171.1,70.084,164.89z M78.584,198.89h29.65
				c6.24,0,11.31,5.07,11.31,11.31v1.38c0,15.06,12.25,27.31,27.3,27.31h7.39c15.06,0,27.31-12.25,27.31-27.31v-4.38
				c0-6.24,5.07-11.31,11.3-11.31h5.39c6.24,0,11.31,5.07,11.31,11.31v18.38c0,15.06,12.25,27.31,27.3,27.31h0.39
				c15.06,0,27.31-12.25,27.31-27.31V208.2c0-6.24,5.07-11.31,11.3-11.31h12.39c6.24,0,11.31,5.07,11.31,11.31v31.16
				c-23.56,20.04-56.57,31.53-95.6,31.53C143.384,270.89,97.294,243.23,78.584,198.89z M128.444,391.89l75.5-37.04l75.51,37.04
				H128.444z"/>
			<path d="M223.421,126.329c-1.042,4.275,1.569,8.564,5.838,9.631c0.648,0.162,1.296,0.239,1.936,0.239
				c3.573,0,6.833-2.421,7.76-6.036c0.501-1.953,5.394-19.015,22.64-16.054c4.356,0.742,8.489-2.182,9.234-6.537
				c0.745-4.354-2.182-8.489-6.537-9.234C238.436,93.917,226.251,114.715,223.421,126.329z"/>
		</g>
	</g>
</g>
<g>
</g>
<g>
</g>
<g>
</g>
<g>
</g>
<g>
</g>
<g>
</g>
<g>
</g>
<g>
</g>
<g>
</g>
<g>
</g>
<g>
</g>
<g>
</g>
<g>
</g>
<g>
</g>
<g>
</g>
</svg>
