<?xml version="1.0" encoding="iso-8859-1"?>
<!-- Generator: Adobe Illustrator 19.0.0, SVG Export Plug-In . SVG Version: 6.00 Build 0)  -->
<svg version="1.1" id="Layer_1" xmlns="http://www.w3.org/2000/svg" xmlns:xlink="http://www.w3.org/1999/xlink" x="0px" y="0px"
	 viewBox="0 0 512.002 512.002" style="enable-background:new 0 0 512.002 512.002;" xml:space="preserve">
<polyline style="fill:#CEBBA3;" points="201.573,415.717 18.304,415.717 106.283,43.326 153.307,242.357 "/>
<path style="fill:#E6E6E6;" d="M452.685,415.717c0-37.503-10.33-72.581-28.301-102.568l-82.466-76.385
	c-26.821-13.382-57.081-20.91-89.095-20.91c-110.38,0-199.862,89.482-199.862,199.862"/>
<path style="fill:#CCCCCC;" d="M286.959,218.772c-11.094-1.91-22.497-2.917-34.136-2.917c-110.38,0-199.862,89.482-199.862,199.862
	h68.278C121.238,316.979,192.846,234.973,286.959,218.772z"/>
<path style="fill:#E6E6E6;" d="M497.098,415.717H8.542v15.645c0,20.606,16.705,37.311,37.311,37.311h413.933
	c20.606,0,37.311-16.705,37.311-37.311v-15.645H497.098z"/>
<path style="fill:#CCCCCC;" d="M87.121,431.362v-15.645H8.542v15.645c0,20.606,16.705,37.311,37.311,37.311h78.579
	C103.825,468.673,87.121,451.968,87.121,431.362z"/>
<circle style="fill:#E6E6E6;" cx="252.82" cy="185.956" r="29.896"/>
<path style="fill:#EBFBFF;" d="M354.883,153.301c-9.69,16.587-15.416,36.923-15.416,58.918c0,55.784,36.711,101.004,81.995,101.004
	s81.995-45.222,81.995-101.004c0-21.995-5.725-42.332-15.416-58.918L354.883,153.301L354.883,153.301z"/>
<path style="fill:#CADADD;" d="M383.882,212.219c0-21.995,5.725-42.332,15.416-58.918h-44.414
	c-9.69,16.587-15.416,36.923-15.416,58.918c0,55.784,36.711,101.004,81.995,101.004c7.697,0,15.144-1.31,22.207-3.751
	C409.175,297.544,383.882,258.521,383.882,212.219z"/>
<path style="fill:#B73625;" d="M340.204,198.772c-0.477,4.401-0.737,8.886-0.737,13.447c0,55.784,36.711,101.004,81.995,101.004
	s81.995-45.222,81.995-101.004c0-4.561-0.26-9.047-0.737-13.447H340.204z"/>
<path style="fill:#EBFBFF;" d="M438.546,443.049H404.38c-14.152,0-25.624,11.472-25.624,25.624l0,0h85.412l0,0
	C464.169,454.521,452.697,443.049,438.546,443.049z"/>
<path style="fill:#FFFFFF;" d="M457.333,274.236c-1.892,0-3.796-0.625-5.379-1.91c-3.663-2.974-4.222-8.353-1.248-12.015
	c10.15-12.503,15.738-29.581,15.738-48.093c0-9.693-1.533-18.987-4.556-27.625c-1.558-4.453,0.788-9.325,5.241-10.884
	c4.453-1.558,9.325,0.788,10.884,5.24c3.659,10.455,5.514,21.648,5.514,33.268c0,22.42-6.946,43.323-19.559,58.86
	C462.281,273.158,459.818,274.236,457.333,274.236z"/>
<path d="M497.098,407.176h-36.047c-0.738-18.289-3.845-36.305-9.272-53.671c-1.406-4.503-6.197-7.012-10.701-5.604
	c-4.503,1.406-7.012,6.198-5.604,10.701c4.912,15.717,7.749,32.02,8.477,48.576h-13.944v-85.902
	c45.931-5.225,81.996-52.137,81.996-109.055c0-22.795-5.734-44.658-16.582-63.227c-1.532-2.622-4.34-4.233-7.375-4.233H354.882
	c-3.036,0-5.844,1.612-7.375,4.233c-10.848,18.568-16.582,40.431-16.582,63.227c0,23.902,6.23,46.605,18.015,65.658
	c2.483,4.011,7.747,5.253,11.758,2.77c4.011-2.482,5.251-7.746,2.771-11.758c-10.114-16.35-15.46-35.945-15.46-56.67
	c0-1.642,0.046-3.277,0.114-4.905h146.681c0.067,1.629,0.114,3.263,0.114,4.905c0,50.984-32.951,92.464-73.454,92.464
	c-15.079,0-29.581-5.742-41.939-16.607c-3.543-3.115-8.94-2.767-12.055,0.776c-3.115,3.543-2.767,8.94,0.776,12.055
	c13.214,11.617,28.518,18.552,44.677,20.364v85.907H61.698c1.551-35.278,12.694-69.143,32.475-98.422
	c2.641-3.909,1.613-9.218-2.296-11.859c-3.91-2.64-9.219-1.613-11.86,2.296c-21.697,32.114-33.858,69.284-35.419,107.985H8.542
	c-4.717,0-8.542,3.824-8.542,8.542v15.645c0,25.283,20.569,45.852,45.852,45.852h97.64c4.717,0,8.542-3.824,8.542-8.542
	s-3.824-8.542-8.542-8.542h-97.64c-15.863-0.002-28.769-12.908-28.769-28.772v-7.103h395.837v10.249h-8.542
	c-15.89,0-29.281,10.905-33.083,25.624H175.948c-4.717,0-8.542,3.824-8.542,8.542c0,4.717,3.824,8.542,8.542,8.542h202.809h81.029
	h4.382c1.158,0,2.261-0.233,3.267-0.65c21.652-3.654,38.203-22.526,38.203-45.202v-15.645
	C505.639,411,501.815,407.176,497.098,407.176z M350.115,190.23c1.953-10.038,5.243-19.606,9.809-28.388h123.078
	c4.566,8.782,7.855,18.35,9.809,28.388H350.115z M389.592,460.131c2.958-5.101,8.479-8.54,14.788-8.54h34.165
	c6.309,0,11.831,3.438,14.788,8.54H389.592z M488.556,431.362c0,11.906-7.271,22.146-17.604,26.513
	c-4.53-13.562-17.341-23.368-32.406-23.368h-8.542v-10.249h58.551V431.362z"/>
<path d="M105.459,268.354c-3.336,3.336-3.336,8.743,0,12.079c1.667,1.668,3.854,2.502,6.039,2.502s4.372-0.834,6.039-2.502
	c36.136-36.136,84.182-56.036,135.284-56.036c17.837,0,35.493,2.451,52.48,7.285c4.536,1.291,9.261-1.34,10.553-5.878
	c1.292-4.537-1.34-9.263-5.878-10.554c-8.798-2.503-17.762-4.401-26.829-5.724c5.073-6.513,8.107-14.69,8.107-23.567
	c0-21.193-17.243-38.436-38.436-38.436c-21.193,0-38.436,17.243-38.436,38.436c0,8.864,3.025,17.031,8.085,23.54
	C178.321,215.904,137.573,236.24,105.459,268.354z M252.819,164.608c11.774,0,21.353,9.579,21.353,21.353
	c0,11.774-9.579,21.353-21.353,21.353c-11.774,0-21.353-9.579-21.353-21.353C231.467,174.186,241.045,164.608,252.819,164.608z"/>
<path d="M25.136,386.798c0.661,0.156,1.321,0.231,1.971,0.231c3.87,0,7.378-2.649,8.305-6.579l36.282-153.575
	c9.88-4.663,36.346-18.098,60.107-38.389l5.776,24.45c1.085,4.591,5.688,7.433,10.276,6.348c4.591-1.084,7.433-5.685,6.348-10.277
	L114.593,41.362c-0.91-3.855-4.352-6.577-8.313-6.577s-7.403,2.723-8.313,6.578L18.788,376.52
	C17.703,381.111,20.547,385.712,25.136,386.798z M106.284,80.475l21.047,89.081c-16.83,15.863-36.851,28.11-50.48,35.499
	L106.284,80.475z"/>
<g>
</g>
<g>
</g>
<g>
</g>
<g>
</g>
<g>
</g>
<g>
</g>
<g>
</g>
<g>
</g>
<g>
</g>
<g>
</g>
<g>
</g>
<g>
</g>
<g>
</g>
<g>
</g>
<g>
</g>
</svg>
