<svg width="64px" height="64px" viewBox="0 0 64 64" xmlns="http://www.w3.org/2000/svg"><title>tea</title><g id="tea"><circle cx="24.5" cy="25.5" r="21.5" style="fill:#eaeaea"/><path d="M43.632,8.5A1.132,1.132,0,1,1,42.5,7.368,1.132,1.132,0,0,1,43.632,8.5Z" style="fill:#4c241d"/><path d="M33.033,37a18.915,18.915,0,0,0,2.654,25H51.313A18.926,18.926,0,0,0,57.5,48a19.127,19.127,0,0,0-.118-2h.032A5.616,5.616,0,0,0,63,40.366V30.634A5.616,5.616,0,0,0,57.414,25H52V18H30l5,7v9.636A19.207,19.207,0,0,0,33.033,37ZM52,29h5.414A1.612,1.612,0,0,1,59,30.634v9.732A1.612,1.612,0,0,1,57.414,42h-.9A19.585,19.585,0,0,0,52,34.636Z" style="fill:#6b4f5b;stroke:#4c241d;stroke-linecap:round;stroke-linejoin:round;stroke-width:2px"/><path d="M10,40H36a0,0,0,0,1,0,0v9A13,13,0,0,1,23,62h0A13,13,0,0,1,10,49V40A0,0,0,0,1,10,40Z" style="fill:#fff;stroke:#4c241d;stroke-linecap:round;stroke-linejoin:round;stroke-width:2px"/><path d="M10,42h0a0,0,0,0,1,0,0V52a0,0,0,0,1,0,0h0a4.952,4.952,0,0,1-4.952-4.952v-.1A4.952,4.952,0,0,1,10,42Z" style="fill:none;stroke:#4c241d;stroke-linecap:round;stroke-linejoin:round;stroke-width:2px"/><line x1="52" y1="24" x2="52" y2="31" style="fill:none;stroke:#4c241d;stroke-linecap:round;stroke-linejoin:round;stroke-width:2px"/><line x1="35" y1="25" x2="45" y2="25" style="fill:none;stroke:#4c241d;stroke-linecap:round;stroke-linejoin:round;stroke-width:2px"/><line x1="3" y1="62" x2="63" y2="62" style="fill:none;stroke:#4c241d;stroke-linecap:round;stroke-linejoin:round;stroke-width:2px"/><path d="M17,36V34.5A1.5,1.5,0,0,1,18.5,33h7A1.5,1.5,0,0,0,27,31.5v-4A1.5,1.5,0,0,0,25.5,26h-2A1.5,1.5,0,0,1,22,24.5h0A1.5,1.5,0,0,1,23.5,23h1A1.5,1.5,0,0,0,26,21.5V17" style="fill:none;stroke:#b5a19c;stroke-linecap:round;stroke-linejoin:round;stroke-width:2px"/><path d="M22,37V30.5A1.5,1.5,0,0,0,20.5,29h-1A1.5,1.5,0,0,1,18,27.5v-2A1.5,1.5,0,0,0,16.5,24h0A1.5,1.5,0,0,1,15,22.5v-1A1.5,1.5,0,0,1,16.5,20h2A1.5,1.5,0,0,0,20,18.5V13" style="fill:none;stroke:#b5a19c;stroke-linecap:round;stroke-linejoin:round;stroke-width:2px"/><line x1="34.129" y1="3" x2="31.181" y2="5.948" style="fill:none;stroke:#4c241d;stroke-linecap:round;stroke-linejoin:round;stroke-width:2px"/><line x1="31.181" y1="3" x2="34.129" y2="5.948" style="fill:none;stroke:#4c241d;stroke-linecap:round;stroke-linejoin:round;stroke-width:2px"/><path d="M54,47s0,7-4,11" style="fill:none;stroke:#b5a19c;stroke-linecap:round;stroke-linejoin:round;stroke-width:2px"/><line x1="19" y1="40" x2="19" y2="44" style="fill:none;stroke:#4c241d;stroke-linecap:round;stroke-linejoin:round;stroke-width:2px"/><polygon points="23 54 15 54 15 46.627 17 44 21 44 23 46.756 23 54" style="fill:#a9ba5a;stroke:#4c241d;stroke-linecap:round;stroke-linejoin:round;stroke-width:2px"/></g></svg>