<svg width="512" height="516" viewBox="0 0 512 516" fill="none" xmlns="http://www.w3.org/2000/svg">
<path d="M461.693 294.973C461.8 294.766 461.895 294.553 461.98 294.336C475.616 259.387 475.817 220.625 462.544 185.537C449.271 150.448 423.466 121.523 390.113 104.349L298.327 57.0856C264.975 39.9111 226.441 35.7057 190.168 45.2816C153.896 54.8575 122.46 77.5354 101.93 108.935C101.803 109.13 101.686 109.332 101.579 109.539C99.1103 114.347 98.2427 119.818 99.1022 125.154C99.9618 130.49 102.504 135.412 106.357 139.202C102.01 141.694 98.4448 145.349 96.0627 149.757C93.6806 154.165 92.5762 159.15 92.8739 164.151C88.4294 162.644 83.5994 162.727 79.2092 164.386C74.8191 166.045 71.1414 169.177 68.8047 173.247C66.468 177.317 65.6174 182.073 66.3982 186.7C67.179 191.328 69.5428 195.541 73.0856 198.619C70.6453 200.55 68.6466 202.981 67.2238 205.748L61.5731 216.722C58.7359 222.226 57.0245 228.24 56.5387 234.412C56.053 240.585 56.8029 246.793 58.7444 252.672C55.456 251.155 51.8959 250.315 48.2762 250.202C44.6564 250.089 41.051 250.706 37.6745 252.016C34.298 253.325 31.2195 255.301 28.6223 257.824C26.0251 260.348 23.9623 263.369 22.5566 266.706L12.0437 291.661C7.31049 303.03 7.01607 315.762 11.2187 327.338C15.4214 338.914 23.8151 348.492 34.7398 354.177L301.375 491.475C312.348 497.067 325.02 498.337 336.884 495.034C348.749 491.732 358.942 484.097 365.448 473.64L379.655 450.588C381.607 447.42 382.884 443.883 383.404 440.199C383.925 436.515 383.679 432.763 382.681 429.178C381.683 425.594 379.955 422.254 377.605 419.369C375.256 416.484 372.335 414.115 369.027 412.412L364.1 409.874C370.004 408.036 375.484 405.041 380.219 401.063C384.954 397.085 388.849 392.203 391.678 386.704L397.329 375.73C398.658 373.156 399.461 370.343 399.691 367.455L401.192 368.228C405.967 370.687 411.524 371.148 416.64 369.51C421.755 367.872 426.01 364.269 428.469 359.494C430.928 354.718 431.39 349.162 429.752 344.046C428.114 338.931 424.511 334.675 419.735 332.216L416.509 330.555C420.51 327.993 423.76 324.418 425.931 320.193C428.102 315.968 429.116 311.244 428.87 306.5C434.779 309.129 441.469 309.4 447.571 307.257C453.673 305.114 458.725 300.72 461.693 294.973V294.973ZM244.621 211.671L280.274 260.403L113.638 174.597C110.455 172.957 108.053 170.121 106.961 166.71C105.869 163.3 106.176 159.595 107.815 156.412C109.455 153.228 112.292 150.826 115.702 149.734C119.112 148.642 122.817 148.95 126 150.589L244.621 211.671ZM362.846 424.416C364.5 425.267 365.96 426.452 367.135 427.894C368.309 429.337 369.173 431.006 369.672 432.799C370.171 434.591 370.294 436.467 370.034 438.309C369.774 440.151 369.135 441.919 368.159 443.503L353.952 466.555C349.241 474.127 341.86 479.656 333.269 482.048C324.678 484.439 315.502 483.52 307.556 479.472L40.921 342.173C33.0096 338.056 26.9311 331.121 23.8876 322.738C20.8442 314.355 21.0574 305.135 24.4852 296.902L34.9981 271.947C35.7205 270.233 36.7894 268.686 38.1378 267.404C39.4862 266.122 41.085 265.133 42.8338 264.498C44.5826 263.863 46.4438 263.597 48.3005 263.715C50.1572 263.834 51.9694 264.335 53.6233 265.187L362.846 424.416ZM385.325 369.549L379.674 380.523C376.126 387.389 370.299 392.807 363.192 395.845C356.085 398.883 348.143 399.352 340.727 397.172L346.637 385.696L334.633 379.515L328.452 391.518L304.444 379.156L310.626 367.152L298.622 360.971L292.441 372.975L268.433 360.613L277.705 342.607L265.701 336.426L256.429 354.431L226.42 338.979L235.691 320.973L223.688 314.792L214.416 332.797L94.3777 270.986L103.649 252.98L91.6456 246.799L82.6443 264.28C76.5628 259.51 72.3315 252.771 70.6767 245.222C69.0219 237.672 70.0469 229.782 73.5758 222.906L79.2277 211.93C80.2541 209.942 82.0272 208.442 84.1579 207.76C86.2887 207.077 88.6031 207.268 90.5933 208.29L99.0372 212.638L130.446 280.366C130.869 281.278 131.491 282.085 132.266 282.726C133.04 283.367 133.948 283.827 134.924 284.073L335.861 334.587L381.686 358.183C383.674 359.21 385.173 360.983 385.856 363.114C386.538 365.244 386.347 367.559 385.325 369.549ZM118.589 222.706L283.035 307.385L141.341 271.764L118.589 222.706ZM416.466 353.313C415.644 354.903 414.226 356.103 412.521 356.648C410.817 357.194 408.965 357.041 407.373 356.224L83.2701 189.333C81.6783 188.513 80.4773 187.095 79.9313 185.389C79.3854 183.684 79.5391 181.832 80.3588 180.24C81.1785 178.648 82.5969 177.447 84.3021 176.901C86.0073 176.355 87.8595 176.509 89.4513 177.329L413.554 344.22C415.145 345.041 416.344 346.46 416.89 348.164C417.436 349.869 417.283 351.72 416.466 353.313V353.313ZM307.116 274.225L271.463 225.493L408.09 295.846C411.274 297.486 413.676 300.323 414.768 303.733C415.86 307.143 415.552 310.848 413.913 314.031C412.273 317.215 409.437 319.617 406.026 320.709C402.616 321.801 398.911 321.493 395.728 319.854L307.116 274.225ZM433.777 293.887L402.267 277.661L402.798 276.631C405.993 270.467 407.934 263.731 408.509 256.811C409.083 249.892 408.279 242.928 406.143 236.321L393.286 240.439C394.875 245.358 395.474 250.543 395.046 255.694C394.618 260.846 393.173 265.861 390.794 270.45L390.264 271.48L348.25 249.846L348.781 248.816C351.976 242.652 353.917 235.915 354.491 228.996C355.066 222.077 354.262 215.112 352.126 208.506L339.269 212.624C340.858 217.543 341.457 222.728 341.029 227.879C340.601 233.03 339.156 238.046 336.777 242.635L336.246 243.665L282.229 215.85L288.41 203.846L276.407 197.665L270.225 209.669L216.208 181.853L216.739 180.823C219.093 176.221 222.336 172.132 226.281 168.791C230.226 165.451 234.794 162.927 239.721 161.364L235.605 148.505C228.987 150.604 222.851 153.995 217.552 158.481C212.253 162.968 207.897 168.461 204.735 174.642L204.204 175.672L162.191 154.038L162.722 153.008C165.075 148.406 168.319 144.317 172.264 140.976C176.208 137.636 180.777 135.111 185.704 133.548L181.588 120.69C174.97 122.789 168.834 126.18 163.535 130.666C158.236 135.153 153.879 140.646 150.718 146.827L150.187 147.857L118.677 131.632C115.943 130.22 113.866 127.797 112.889 124.879C111.911 121.96 112.11 118.776 113.442 116.002C132.187 87.505 160.81 66.9483 193.801 58.2877C226.792 49.627 261.821 53.4744 292.146 69.0894L383.932 116.353C414.258 131.968 437.736 158.247 449.85 190.134C461.963 222.02 461.854 257.261 449.545 289.072C448.06 291.769 445.583 293.78 442.638 294.679C439.694 295.578 436.515 295.294 433.777 293.887V293.887Z" fill="#E5E5E5"/>
<path d="M358.999 361.688L346.996 355.507L340.814 367.511L352.818 373.692L358.999 361.688Z" fill="#E5E5E5"/>
<path d="M322.988 343.145L310.984 336.963L304.803 348.967L316.807 355.148L322.988 343.145Z" fill="#E5E5E5"/>
<path d="M303.863 173.836L291.859 167.655L282.588 185.661L294.592 191.842L303.863 173.836Z" fill="#E5E5E5"/>
<path d="M243.829 90.5713L234.915 78.3882C234.395 77.665 233.737 77.052 232.978 76.5845C232.22 76.117 231.376 75.8043 230.496 75.6643C229.616 75.5244 228.717 75.56 227.851 75.7691C226.985 75.9782 226.169 76.3567 225.45 76.8827C224.731 77.4088 224.123 78.072 223.661 78.8341C223.2 79.5961 222.894 80.4421 222.761 81.323C222.628 82.204 222.67 83.1026 222.886 83.967C223.102 84.8315 223.487 85.6446 224.018 86.3596L232.932 98.5426C233.994 99.9721 235.579 100.924 237.341 101.19C239.102 101.456 240.897 101.015 242.335 99.9631C243.773 98.9114 244.736 97.3341 245.016 95.5749C245.296 93.8156 244.869 92.0171 243.829 90.5713Z" fill="#E5E5E5"/>
<path d="M423.886 183.289L414.973 171.106C413.91 169.676 412.325 168.725 410.563 168.459C408.802 168.192 407.007 168.633 405.569 169.685C404.132 170.737 403.168 172.314 402.888 174.073C402.608 175.833 403.035 177.631 404.076 179.077L412.989 191.26C413.509 191.983 414.168 192.596 414.926 193.064C415.685 193.531 416.528 193.844 417.408 193.984C418.288 194.124 419.187 194.088 420.053 193.879C420.919 193.67 421.735 193.291 422.454 192.765C423.173 192.239 423.781 191.576 424.243 190.814C424.704 190.052 425.01 189.206 425.143 188.325C425.277 187.444 425.234 186.546 425.018 185.681C424.802 184.817 424.417 184.004 423.886 183.289V183.289Z" fill="#E5E5E5"/>
<path d="M378.468 135.357L363.553 137.695C362.673 137.827 361.827 138.132 361.065 138.593C360.303 139.053 359.639 139.659 359.112 140.377C358.585 141.095 358.206 141.91 357.995 142.775C357.784 143.64 357.747 144.538 357.885 145.418C358.023 146.297 358.333 147.141 358.799 147.9C359.264 148.659 359.875 149.319 360.596 149.841C361.318 150.363 362.135 150.737 363.002 150.942C363.868 151.146 364.767 151.178 365.645 151.034L380.56 148.692C382.313 148.397 383.879 147.423 384.919 145.981C385.958 144.539 386.386 142.745 386.111 140.989C385.836 139.232 384.879 137.656 383.448 136.601C382.017 135.546 380.228 135.098 378.469 135.354L378.468 135.357Z" fill="#E5E5E5"/>
<path d="M325.34 140.107L316.32 128.003C315.25 126.567 313.654 125.615 311.882 125.357C310.111 125.098 308.309 125.554 306.873 126.623C305.437 127.693 304.486 129.289 304.227 131.061C303.968 132.833 304.424 134.635 305.493 136.07L314.513 148.175C315.583 149.611 317.18 150.563 318.951 150.822C320.723 151.08 322.525 150.624 323.961 149.554C325.396 148.484 326.348 146.888 326.607 145.116C326.865 143.345 326.41 141.543 325.34 140.107V140.107Z" fill="#E5E5E5"/>
<path d="M289.606 89.5992L274.693 91.9383C273.81 92.0669 272.96 92.3695 272.195 92.8285C271.429 93.2875 270.762 93.8938 270.232 94.6123C269.702 95.3309 269.32 96.1474 269.108 97.0145C268.896 97.8817 268.858 98.7823 268.996 99.6643C269.134 100.546 269.446 101.392 269.914 102.153C270.381 102.913 270.995 103.574 271.719 104.096C272.443 104.618 273.264 104.991 274.133 105.193C275.003 105.396 275.904 105.424 276.784 105.276L291.7 102.935C293.459 102.647 295.033 101.674 296.078 100.23C297.123 98.7864 297.554 96.9876 297.278 95.2266C297.002 93.4656 296.04 91.8852 294.604 90.8304C293.167 89.7756 291.371 89.3319 289.608 89.5962L289.606 89.5992Z" fill="#E5E5E5"/>
<path d="M222.433 420.452L252.442 435.905C254.034 436.725 255.886 436.879 257.592 436.333C259.297 435.787 260.715 434.586 261.535 432.994C262.355 431.402 262.508 429.55 261.962 427.845C261.416 426.14 260.215 424.721 258.624 423.901L228.614 408.449C227.022 407.629 225.17 407.475 223.465 408.021C221.76 408.567 220.341 409.768 219.522 411.36C218.702 412.952 218.548 414.804 219.094 416.509C219.64 418.214 220.841 419.633 222.433 420.452Z" fill="#E5E5E5"/>
<path d="M132.404 374.094L198.425 408.09C200.017 408.91 201.869 409.064 203.574 408.518C205.28 407.972 206.698 406.771 207.518 405.179C208.337 403.587 208.491 401.735 207.945 400.03C207.399 398.324 206.198 396.906 204.606 396.086L138.585 362.09C136.994 361.27 135.141 361.116 133.436 361.662C131.731 362.208 130.313 363.409 129.493 365.001C128.673 366.593 128.519 368.445 129.065 370.15C129.611 371.856 130.812 373.274 132.404 374.094Z" fill="#E5E5E5"/>
<path d="M276.45 448.268L306.46 463.72C312.828 466.991 320.234 467.601 327.052 465.418C333.871 463.235 339.545 458.436 342.829 452.075C343.649 450.483 343.803 448.631 343.257 446.926C342.711 445.221 341.51 443.802 339.918 442.983C338.326 442.163 336.474 442.009 334.769 442.555C333.064 443.101 331.645 444.302 330.826 445.894C329.183 449.074 326.346 451.474 322.937 452.565C319.528 453.657 315.825 453.352 312.641 451.717L282.631 436.264C281.039 435.444 279.187 435.29 277.482 435.836C275.777 436.382 274.358 437.583 273.539 439.175C272.719 440.767 272.565 442.619 273.111 444.324C273.657 446.029 274.858 447.448 276.45 448.268Z" fill="#E5E5E5"/>
</svg>
