<svg width="512" height="558" viewBox="0 0 512 558" fill="none" xmlns="http://www.w3.org/2000/svg">
<path d="M503.929 282.07C504.026 281.811 504.109 281.547 504.178 281.28C515.333 238.246 510.144 192.605 489.615 153.173C469.086 113.741 434.672 83.3151 393.021 67.7731L278.399 25.0018C236.748 9.45958 190.815 9.90365 149.473 26.2482C108.13 42.5927 74.311 73.6781 54.548 113.5C54.4254 113.747 54.3154 114.001 54.2186 114.26C51.9869 120.263 51.7315 126.823 53.4898 132.982C55.248 139.141 58.9279 144.577 63.9927 148.497C59.2261 152.037 55.5424 156.838 53.3561 162.358C51.1699 167.878 50.568 173.899 51.6183 179.743C46.1773 178.591 40.5052 179.364 35.5714 181.931C30.6375 184.498 26.7482 188.698 24.5681 193.815C22.3881 198.931 22.0526 204.646 23.6191 209.982C25.1855 215.319 28.5567 219.945 33.1563 223.072C30.555 225.685 28.5432 228.825 27.2564 232.281L22.1427 245.985C19.5743 252.858 18.402 260.175 18.6943 267.506C18.9866 274.838 20.7377 282.038 23.8451 288.685C19.7632 287.36 15.4564 286.869 11.1812 287.243C6.9059 287.617 2.74956 288.847 -1.04041 290.861C-4.83038 292.874 -8.17646 295.63 -10.8795 298.963C-13.5825 302.296 -15.5872 306.139 -16.7742 310.264L-25.6528 341.099C-29.6314 355.141 -28.1961 370.164 -21.6307 383.198C-15.0652 396.232 -3.84766 406.327 9.80348 411.488L342.777 535.737C356.472 540.781 371.561 540.503 385.06 534.956C398.56 529.409 409.486 518.998 415.678 505.783L429.17 476.668C431.024 472.668 432.031 468.327 432.128 463.919C432.225 459.511 431.411 455.13 429.735 451.051C428.059 446.973 425.558 443.285 422.389 440.218C419.221 437.152 415.453 434.774 411.321 433.232L405.168 430.936C411.859 427.947 417.888 423.655 422.903 418.311C427.918 412.967 431.819 406.678 434.377 399.811L439.491 386.107C440.695 382.892 441.247 379.469 441.113 376.039L442.987 376.738C448.951 378.963 455.554 378.729 461.344 376.085C467.135 373.442 471.638 368.607 473.863 362.643C476.089 356.68 475.854 350.076 473.21 344.286C470.567 338.496 465.732 333.992 459.768 331.767L455.74 330.264C460.088 326.689 463.413 322.028 465.376 316.752C467.34 311.476 467.872 305.775 466.918 300.227C474.239 302.494 482.15 301.876 489.03 298.501C495.911 295.125 501.241 289.247 503.929 282.07ZM236.835 214.424L285.609 266.779L77.5141 189.128C73.5384 187.645 70.3149 184.643 68.5527 180.782C66.7905 176.922 66.6339 172.52 68.1175 168.544C69.601 164.569 72.6031 161.345 76.4634 159.583C80.3236 157.821 84.7258 157.664 88.7015 159.148L236.835 214.424ZM405.728 448.223C407.793 448.994 409.677 450.183 411.261 451.716C412.845 453.249 414.095 455.093 414.933 457.132C415.771 459.171 416.179 461.362 416.13 463.566C416.082 465.77 415.578 467.94 414.651 469.94L401.159 499.054C396.676 508.624 388.764 516.163 378.989 520.18C369.214 524.197 358.288 524.399 348.37 520.747L15.3972 396.497C5.51142 392.761 -2.61202 385.45 -7.36653 376.011C-12.121 366.573 -13.1604 355.694 -10.279 345.525L-1.40042 314.69C-0.790306 312.571 0.251067 310.601 1.65837 308.904C3.06568 307.207 4.80854 305.819 6.77763 304.827C8.74671 303.836 10.8995 303.262 13.1009 303.141C15.3024 303.021 17.5049 303.357 19.5704 304.128L405.728 448.223ZM424.501 380.513L419.387 394.217C416.173 402.794 410.074 409.984 402.136 414.554C394.199 419.124 384.918 420.787 375.887 419.26L381.235 404.928L366.245 399.334L360.651 414.325L330.67 403.137L336.264 388.147L321.274 382.553L315.68 397.544L285.699 386.356L294.09 363.871L279.099 358.277L270.709 380.763L233.233 366.779L241.624 344.293L226.633 338.699L218.243 361.185L68.3391 305.248L76.7296 282.763L61.7393 277.169L53.5935 298.999C45.7697 294.237 39.8475 286.9 36.8437 278.248C33.8399 269.595 33.9418 260.167 37.132 251.581L42.2467 237.875C43.1763 235.392 45.0529 233.379 47.4648 232.278C49.8766 231.177 52.6267 231.078 55.1117 232.002L65.6565 235.937L112.095 311.238C112.721 312.253 113.565 313.114 114.566 313.761C115.567 314.407 116.7 314.821 117.882 314.973L361.402 346.295L418.628 367.648C421.111 368.578 423.124 370.455 424.225 372.866C425.326 375.278 425.425 378.028 424.501 380.513ZM90.073 245.048L295.433 321.678L123.711 299.591L90.073 245.048ZM458.873 357.049C458.129 359.036 456.628 360.646 454.698 361.527C452.769 362.408 450.569 362.487 448.581 361.748L43.8413 210.719C41.8534 209.977 40.2416 208.476 39.3605 206.546C38.4794 204.615 38.4011 202.414 39.1429 200.426C39.8847 198.439 41.3857 196.827 43.3159 195.946C45.246 195.065 47.4471 194.986 49.4349 195.728L454.175 346.757C456.161 347.501 457.771 349.002 458.652 350.932C459.533 352.861 459.612 355.061 458.873 357.049ZM319.13 279.288L270.356 226.932L440.975 290.599C444.951 292.083 448.174 295.085 449.936 298.945C451.699 302.805 451.855 307.207 450.372 311.183C448.888 315.159 445.886 318.382 442.026 320.144C438.165 321.907 433.763 322.063 429.788 320.58L319.13 279.288ZM470.928 284.698L431.578 270.015L432.058 268.729C434.956 261.028 436.297 252.829 436.004 244.606C435.712 236.384 433.791 228.301 430.354 220.826L415.8 227.471C418.359 233.037 419.789 239.054 420.006 245.176C420.224 251.298 419.225 257.402 417.068 263.135L416.588 264.421L364.122 244.843L364.602 243.557C367.499 235.856 368.84 227.657 368.548 219.435C368.255 211.212 366.335 203.13 362.897 195.654L348.343 202.3C350.902 207.865 352.332 213.883 352.55 220.005C352.767 226.126 351.769 232.23 349.611 237.963L349.131 239.25L281.675 214.078L287.268 199.088L272.278 193.494L266.684 208.485L199.228 183.313L199.708 182.027C201.833 176.282 205.078 171.016 209.252 166.533C213.427 162.05 218.449 158.44 224.028 155.911L217.386 141.357C209.891 144.753 203.145 149.601 197.538 155.622C191.93 161.643 187.573 168.717 184.717 176.433L184.237 177.719L131.771 158.141L132.251 156.855C134.377 151.11 137.621 145.844 141.796 141.361C145.97 136.879 150.993 133.268 156.572 130.74L149.929 116.185C142.435 119.581 135.689 124.43 130.081 130.451C124.474 136.472 120.116 143.545 117.261 151.261L116.781 152.548L77.431 137.864C74.0154 136.585 71.2328 134.026 69.6741 130.728C68.1154 127.431 67.9034 123.656 69.0832 120.205C87.1532 84.0483 117.957 55.8529 155.567 41.0445C193.177 26.2361 234.935 25.8613 272.805 39.9921L387.427 82.7634C425.298 96.894 456.604 124.532 475.321 160.359C494.037 196.186 498.841 237.669 488.808 276.826C487.439 280.207 484.805 282.921 481.466 284.391C478.127 285.861 474.347 285.971 470.928 284.698Z" fill="#E5E5E5"/>
<path d="M392.422 374.947L377.432 369.354L371.838 384.344L386.829 389.938L392.422 374.947Z" fill="#E5E5E5"/>
<path d="M347.451 358.166L332.461 352.573L326.867 367.563L341.858 373.157L347.451 358.166Z" fill="#E5E5E5"/>
<path d="M301.252 161.612L286.262 156.018L277.872 178.504L292.862 184.097L301.252 161.612Z" fill="#E5E5E5"/>
<path d="M218.955 72.0325L206.761 58.9437C206.048 58.1655 205.187 57.5363 204.229 57.0923C203.271 56.6483 202.235 56.3984 201.18 56.3568C200.125 56.3153 199.072 56.483 198.082 56.8503C197.092 57.2176 196.185 57.7772 195.412 58.4968C194.64 59.2165 194.017 60.0819 193.581 61.0433C193.144 62.0047 192.902 63.0429 192.869 64.0982C192.836 65.1535 193.012 66.205 193.387 67.192C193.762 68.179 194.328 69.082 195.054 69.8489L207.247 82.9378C208.698 84.4711 210.696 85.3689 212.806 85.4355C214.916 85.5021 216.967 84.7321 218.511 83.2933C220.056 81.8545 220.969 79.8635 221.052 77.7542C221.135 75.6449 220.381 73.5883 218.955 72.0325Z" fill="#E5E5E5"/>
<path d="M443.81 155.938L431.616 142.849C430.166 141.315 428.168 140.418 426.058 140.351C423.948 140.284 421.897 141.054 420.353 142.493C418.808 143.932 417.895 145.923 417.812 148.032C417.729 150.142 418.482 152.198 419.909 153.754L432.103 166.843C432.816 167.621 433.677 168.25 434.635 168.694C435.593 169.138 436.629 169.388 437.684 169.43C438.739 169.471 439.792 169.304 440.782 168.936C441.772 168.569 442.679 168.009 443.452 167.29C444.224 166.57 444.847 165.705 445.283 164.743C445.72 163.782 445.962 162.744 445.995 161.688C446.028 160.633 445.852 159.582 445.477 158.595C445.102 157.608 444.536 156.705 443.81 155.938Z" fill="#E5E5E5"/>
<path d="M383.657 105.891L366.434 110.73C365.417 111.009 364.464 111.486 363.631 112.134C362.799 112.782 362.103 113.589 361.583 114.507C361.064 115.425 360.731 116.437 360.604 117.485C360.477 118.532 360.559 119.594 360.844 120.61C361.13 121.626 361.613 122.575 362.267 123.403C362.921 124.232 363.732 124.922 364.654 125.436C365.576 125.949 366.59 126.275 367.639 126.394C368.687 126.514 369.748 126.425 370.762 126.133L387.985 121.29C390.007 120.698 391.714 119.332 392.735 117.49C393.756 115.647 394.009 113.476 393.439 111.448C392.87 109.42 391.523 107.699 389.692 106.657C387.86 105.616 385.692 105.339 383.658 105.887L383.657 105.891Z" fill="#E5E5E5"/>
<path d="M321.804 118.916L309.497 105.935C308.037 104.395 306.025 103.498 303.904 103.442C301.783 103.385 299.727 104.174 298.187 105.633C296.647 107.093 295.75 109.105 295.694 111.226C295.637 113.347 296.426 115.403 297.885 116.943L310.194 129.925C311.653 131.465 313.665 132.362 315.786 132.418C317.907 132.474 319.964 131.686 321.504 130.226C323.043 128.766 323.94 126.754 323.996 124.633C324.053 122.512 323.264 120.455 321.804 118.916Z" fill="#E5E5E5"/>
<path d="M272.687 64.4822L255.465 69.3218C254.444 69.5968 253.487 70.0716 252.65 70.7189C251.813 71.3662 251.113 72.173 250.59 73.0927C250.067 74.0124 249.732 75.0266 249.604 76.0767C249.475 77.1269 249.557 78.192 249.843 79.2105C250.129 80.229 250.614 81.1806 251.271 82.0103C251.927 82.84 252.742 83.5313 253.667 84.0441C254.592 84.5569 255.61 84.8811 256.661 84.9979C257.713 85.1147 258.777 85.0218 259.792 84.7245L277.016 79.8815C279.046 79.2964 280.762 77.9322 281.79 76.0867C282.817 74.2412 283.074 72.0641 282.502 70.0305C281.931 67.9969 280.578 66.2718 278.74 65.2316C276.901 64.1915 274.726 63.9207 272.688 64.4784L272.687 64.4822Z" fill="#E5E5E5"/>
<path d="M239.944 463.21L277.42 477.194C279.407 477.936 281.609 477.857 283.539 476.976C285.469 476.095 286.97 474.483 287.712 472.496C288.453 470.508 288.375 468.307 287.494 466.377C286.613 464.446 285.001 462.945 283.013 462.204L245.537 448.219C243.55 447.478 241.348 447.556 239.418 448.437C237.488 449.318 235.987 450.93 235.245 452.918C234.504 454.906 234.582 457.107 235.463 459.037C236.344 460.967 237.956 462.468 239.944 463.21Z" fill="#E5E5E5"/>
<path d="M127.516 421.257L209.963 452.022C211.951 452.764 214.152 452.686 216.082 451.805C218.012 450.924 219.513 449.312 220.255 447.324C220.997 445.336 220.919 443.135 220.037 441.205C219.156 439.275 217.545 437.774 215.557 437.032L133.11 406.267C131.122 405.525 128.921 405.603 126.991 406.484C125.061 407.366 123.559 408.977 122.818 410.965C122.076 412.953 122.154 415.154 123.035 417.084C123.916 419.014 125.528 420.515 127.516 421.257Z" fill="#E5E5E5"/>
<path d="M307.4 488.381L344.876 502.365C352.828 505.323 361.628 505.005 369.346 501.481C377.064 497.958 383.069 491.517 386.044 483.572C386.786 481.584 386.708 479.383 385.827 477.453C384.946 475.523 383.334 474.022 381.346 473.28C379.358 472.538 377.157 472.617 375.227 473.498C373.297 474.379 371.796 475.991 371.054 477.978C369.566 481.951 366.564 485.171 362.705 486.933C358.846 488.694 354.446 488.853 350.47 487.375L312.994 473.391C311.006 472.649 308.805 472.727 306.875 473.609C304.945 474.49 303.444 476.101 302.702 478.089C301.96 480.077 302.038 482.278 302.92 484.208C303.801 486.138 305.412 487.64 307.4 488.381Z" fill="#E5E5E5"/>
</svg>
