<svg width="121" height="62" viewBox="0 0 121 62" fill="none" xmlns="http://www.w3.org/2000/svg">
<path d="M108.636 9.761C100.984 4.848 92.07 2.518 83.307 0.496996C83.1722 0.463458 83.0321 0.456971 82.8948 0.477911C82.7575 0.498852 82.6257 0.546803 82.507 0.618994C67.57 -0.263938 52.5825 0.318173 37.759 2.35699C37.5764 2.36947 37.4029 2.44191 37.2657 2.56307C37.1284 2.68422 37.035 2.84731 37 3.027C21.136 5.327 8 13.414 1.125 28.397C1.02238 28.6234 0.999466 28.8779 1.06 29.119C1.03906 29.1802 1.02366 29.2431 1.014 29.307C0.758001 35.307 3.296 40.426 6.967 45.063C10.724 49.8 15.861 51.8 21.2 54.381C33.493 60.329 45.605 63.348 59.284 61.249C59.4524 61.2251 59.6119 61.1583 59.747 61.055C71.587 60.328 83.369 59.333 94.213 54.132C94.3642 54.068 94.4951 53.9637 94.5913 53.8307C94.6876 53.6976 94.7455 53.5407 94.759 53.377C101.497 50.236 109.386 47.452 114.145 41.577C117.683 37.211 121.998 29.15 120.788 23.277C119.608 17.532 113.272 12.738 108.636 9.761ZM33.106 10.296C32.949 8.043 33.187 6.97899 35.3 5.97299C36.804 5.30132 38.4406 4.97893 40.087 5.02999C41.6 6.07499 43.409 7.408 43.687 9.33C42.0611 10.7205 40.3217 11.9725 38.487 13.073C39.7516 11.4882 40.4524 9.52735 40.479 7.49999C40.4704 7.21282 40.3502 6.94029 40.144 6.74021C39.9378 6.54013 39.6618 6.42823 39.3745 6.42823C39.0872 6.42823 38.8112 6.54013 38.605 6.74021C38.3988 6.94029 38.2786 7.21282 38.27 7.49999C38.2498 9.03365 37.7186 10.5167 36.7604 11.7144C35.8022 12.912 34.4718 13.7558 32.98 14.112C32.8453 14.141 32.7181 14.1981 32.607 14.2796C32.4958 14.3611 32.4032 14.4652 32.335 14.585C32.9495 13.2446 33.2147 11.7705 33.106 10.3V10.296ZM41.431 13.806C42.038 13.391 42.631 12.954 43.223 12.506C43.4685 12.5403 43.7179 12.4822 43.923 12.343C45.623 11.259 46.274 14.173 45.523 15.274C45.2919 15.5474 44.9817 15.7423 44.6351 15.8319C44.2885 15.9215 43.9226 15.9012 43.588 15.774C43.088 15.656 41.526 14.593 41.216 14.929C41.3579 14.7834 41.4538 14.5994 41.4921 14.3998C41.5303 14.2001 41.5091 13.9937 41.431 13.806ZM32.266 14.745C32.2257 14.8553 32.2041 14.9716 32.202 15.089H32.078C32.14 14.977 32.209 14.863 32.266 14.745ZM39.155 15.208C39.706 16.2085 40.5961 16.9795 41.665 17.382C43.394 18.182 45.617 18.491 47.039 16.923C47.1133 16.8331 47.1828 16.7393 47.247 16.642C47.3245 17.0446 47.4281 17.4418 47.557 17.831C47.603 17.9745 47.6777 18.1072 47.7766 18.2209C47.8755 18.3346 47.9965 18.427 48.1322 18.4925C48.268 18.558 48.4156 18.5951 48.5662 18.6018C48.7167 18.6084 48.867 18.5843 49.008 18.531C49.1383 18.5819 49.2771 18.6077 49.417 18.607L56.61 18.483C58.062 18.458 59.91 18.576 60.727 17.089C62.054 14.684 59.234 11.019 56.886 10.632C56.7625 10.616 56.6371 10.6204 56.515 10.645C55.7974 9.63431 54.7215 8.9351 53.5065 8.68968C52.2915 8.44426 51.0287 8.67109 49.975 9.324C48.946 9.95026 48.137 10.8808 47.66 11.987C47.611 11.88 47.569 11.767 47.51 11.666C47.1411 11.0379 46.5832 10.5423 45.916 10.25C46.0009 10.1102 46.0448 9.94922 46.0425 9.78563C46.0402 9.62203 45.9918 9.46239 45.903 9.325C45.8849 9.08247 45.8515 8.84132 45.803 8.60299C53.703 6.87599 62.641 7.39099 71.103 8.79499C71.084 8.79499 71.075 8.80899 71.057 8.81299C70.1816 8.70681 69.2951 8.88059 68.5245 9.30941C67.754 9.73824 67.1391 10.4001 66.768 11.2C66.6474 11.4803 66.567 11.7762 66.529 12.079C66.0097 11.4104 65.417 10.8023 64.762 10.266C64.5793 10.1148 64.3544 10.0235 64.118 10.0046C63.8816 9.98564 63.6451 10.0399 63.4406 10.1601C63.2361 10.2802 63.0736 10.4604 62.9751 10.6762C62.8766 10.8919 62.8469 11.1328 62.89 11.366C62.4733 12.3403 62.3857 13.4239 62.6403 14.4525C62.8949 15.4811 63.4779 16.3986 64.301 17.066C64.3311 17.3241 64.4516 17.5631 64.6411 17.7409C64.8305 17.9186 65.0768 18.0235 65.3363 18.0371C65.5957 18.0506 65.8516 17.9719 66.0586 17.8148C66.2655 17.6578 66.4102 17.4325 66.467 17.179C66.5804 17.0372 66.6555 16.8686 66.6849 16.6895C66.7143 16.5103 66.6971 16.3266 66.635 16.156C66.9105 15.566 67.1444 14.9576 67.335 14.335C67.6108 14.6032 67.9261 14.8275 68.27 15C67.6784 15.6187 67.2833 16.3988 67.1345 17.2419C66.9857 18.0849 67.0899 18.9531 67.434 19.737C65.198 20.489 62.887 19.832 60.599 19.573C58.1655 19.3026 55.7171 19.1894 53.269 19.234C53.0868 19.2365 52.9081 19.2854 52.75 19.376C50.398 19.676 47.03 19.642 45.367 21.56C44.9204 22.1039 44.6266 22.757 44.516 23.452C44.381 23.473 44.254 23.501 44.121 23.524C41.2997 22.1801 38.1724 21.6087 35.0582 21.868C31.9439 22.1273 28.9542 23.2081 26.394 25C25.251 24.7 24.748 26.34 25.664 26.988C25.7573 27.1521 25.899 27.2833 26.0698 27.3637C26.2406 27.4441 26.4321 27.4697 26.618 27.437C29.291 28.622 32.052 30.703 35.055 29.456C36.38 28.907 37.435 27.815 38.734 27.19C40.3442 26.4813 42.0486 26.0098 43.794 25.79C43.825 25.8 43.856 25.812 43.886 25.819C43.2136 27.2596 42.1555 28.4859 40.829 29.362C40.6997 29.4614 40.5918 29.586 40.5119 29.7282C40.432 29.8704 40.3816 30.0273 40.3639 30.1895C40.3461 30.3516 40.3613 30.5157 40.4086 30.6718C40.4559 30.828 40.5343 30.9729 40.639 31.098C39.3628 31.7759 38.3425 32.8517 37.733 34.162C36.08 34.044 34.855 32.628 33.354 32.074C31.5041 31.3781 29.4548 31.4378 27.6485 32.2401C25.8422 33.0424 24.4239 34.5229 23.7 36.362C23.6144 36.8071 23.6253 37.2654 23.732 37.706C24.0004 38.2801 24.3437 38.8161 24.753 39.3C20.026 37.055 15.972 33.745 14.136 28.818C14.1523 28.7647 14.1644 28.7102 14.172 28.655C14.0921 25.9027 14.7808 23.1826 16.161 20.8C16.3304 21.2953 16.5974 21.7516 16.946 22.142C17.1805 22.4022 17.442 22.6369 17.726 22.842C17.5087 23.007 17.3098 23.1951 17.133 23.403C15.579 25.239 15.195 28.26 16.78 30.176C18.38 32.11 21.074 31.835 22.82 30.245C23.6445 29.48 24.2304 28.493 24.5072 27.4028C24.784 26.3126 24.7398 25.1657 24.38 24.1C24.3141 23.9136 24.1986 23.7487 24.046 23.623C24.231 23.59 24.419 23.559 24.6 23.523C24.8361 23.4884 25.0493 23.3632 25.1944 23.1738C25.3395 22.9844 25.405 22.7459 25.377 22.509C25.4342 22.3182 25.4342 22.1148 25.377 21.924C25.3171 21.7531 25.3268 21.5655 25.4041 21.4018C25.4814 21.2381 25.62 21.1113 25.79 21.049C25.9455 20.9724 26.0796 20.8583 26.18 20.717C26.203 20.71 26.223 20.717 26.247 20.708C27.049 20.4136 27.9285 20.4083 28.734 20.693C28.9437 20.7651 29.1717 20.763 29.38 20.687C29.5368 20.6662 29.6879 20.6146 29.8247 20.5352C29.9615 20.4559 30.0812 20.3502 30.177 20.2244C30.2729 20.0985 30.3429 19.955 30.383 19.802C30.4232 19.6491 30.4327 19.4897 30.411 19.333C30.307 18.6072 30.0433 17.9136 29.639 17.302C29.7622 17.3569 29.8963 17.383 30.0311 17.3783C30.1659 17.3736 30.2979 17.3383 30.417 17.275C33.4718 17.4868 36.5189 16.766 39.155 15.208ZM52.708 14.882C53.625 13.7364 54.9573 12.9993 56.415 12.831C56.439 12.831 56.455 12.809 56.478 12.803C56.9438 12.9462 57.3695 13.1968 57.7207 13.5346C58.0719 13.8725 58.3389 14.2881 58.5 14.748C58.74 15.494 58.657 15.911 57.745 16.248C57.119 16.3483 56.482 16.3591 55.853 16.28L49.453 16.39C49.1783 15.5474 49.1475 14.6443 49.3641 13.7849C49.5807 12.9255 50.0358 12.1448 50.677 11.533C51.1225 11.1282 51.6875 10.8791 52.2869 10.8234C52.8863 10.7677 53.4875 10.9082 54 11.224C52.732 11.7822 51.6297 12.6585 50.8 13.768C49.937 14.9 51.855 16 52.708 14.882ZM39 43.029C39.0526 43.111 39.1162 43.1854 39.189 43.25C39.2159 43.3197 39.2494 43.3866 39.289 43.45C38.448 43.312 37.607 43.175 36.771 43.014C34.5754 42.5948 32.4036 42.0591 30.265 41.409C33.465 40.901 34.824 37.602 37.765 36.809C37.9194 37.1988 38.1209 37.5682 38.365 37.909C38.8966 38.6403 39.5999 39.2296 40.413 39.625C38.984 40.36 38.121 41.455 39 43.029ZM33.312 36.884C33.32 36.884 33.324 36.884 33.332 36.884C32.5944 37.8666 31.5929 38.6195 30.444 39.055C29.7661 39.2643 29.0424 39.2748 28.3587 39.0851C27.6751 38.8955 27.0602 38.5137 26.587 37.985C28.7168 37.1189 31.0141 36.7426 33.309 36.884H33.312ZM26.877 35.537C27.6591 34.6707 28.7082 34.0905 29.8578 33.8885C31.0073 33.6864 32.1914 33.8742 33.222 34.422C33.906 34.761 34.488 35.14 35.072 35.477C34.8242 35.6217 34.5854 35.7813 34.357 35.955C34.3799 35.8012 34.3705 35.6443 34.3292 35.4944C34.2879 35.3444 34.2158 35.2048 34.1174 35.0843C34.019 34.9639 33.8966 34.8654 33.7579 34.7951C33.6192 34.7248 33.4673 34.6842 33.312 34.676C31.1309 34.5553 28.9467 34.8474 26.874 35.537H26.877ZM39.777 35.869C39.8701 35.5744 39.8486 35.2555 39.717 34.976C39.723 34.943 39.717 34.913 39.725 34.876C40.019 33.625 41.618 33.011 42.638 32.52C42.7106 32.4784 42.7777 32.428 42.838 32.37C44.5506 32.3488 46.2604 32.5121 47.938 32.857C50.787 33.687 52.387 37.068 48.428 37.948C46.4092 38.4226 44.3088 38.4315 42.286 37.974C41.7357 37.8341 41.2238 37.5723 40.7883 37.208C40.3528 36.8436 40.0048 36.386 39.77 35.869H39.777ZM45.023 28.405C45.5821 27.6892 45.9986 26.8728 46.25 26C46.3561 25.5659 46.4379 25.1262 46.495 24.683C46.5648 24.1046 46.808 23.5608 47.1927 23.1232C47.5773 22.6855 48.0853 22.3745 48.65 22.231C50.2689 21.8273 51.9216 21.5736 53.587 21.473C53.617 21.4641 53.6464 21.4535 53.675 21.441C56.5888 21.4189 59.5002 21.6104 62.386 22.014C64.1394 22.3883 65.9535 22.3743 67.701 21.973C69.355 30.192 57.825 32.303 51.992 30.433C49.4 29.6 47.4 28.516 45.016 28.405H45.023ZM43.43 40.858C43.651 40.801 43.871 40.758 44.092 40.715C43.7836 41.1405 43.404 41.5096 42.97 41.806C42.3226 42.0711 41.6016 42.0952 40.938 41.874C41.7365 41.4613 42.5705 41.1212 43.43 40.858V40.858ZM44.8 43.164C45.86 42.22 46.611 40.574 48.105 40.292C48.1516 40.2765 48.197 40.2578 48.241 40.236C48.503 40.188 48.759 40.136 49.003 40.082C52.149 39.373 54.371 36.668 52.529 33.482C52.3442 33.169 52.1278 32.8757 51.883 32.607C52.7959 32.9438 53.7418 33.1831 54.705 33.321C57.4723 33.6644 60.2815 33.3159 62.881 32.307C67.617 30.472 70.681 26.807 69.954 22.007C70.866 22.476 71.854 22.848 72.68 23.252C74.2269 24.1813 75.959 24.7596 77.754 24.946C78.9906 24.9334 80.2103 24.6568 81.3313 24.1346C82.4523 23.6124 83.4488 22.8566 84.254 21.918C84.466 23.018 83.894 24.562 84.411 25.618C84.8377 26.4037 85.5497 26.9957 86.4 27.272C87.9677 27.8578 89.6572 28.0411 91.314 27.805C93.766 27.511 96.399 25.93 98.744 27.332C98.892 27.4216 99.0594 27.4741 99.232 27.485C99.748 28.367 101.372 28.213 101.284 26.985C101.24 25.5475 100.839 24.1435 100.117 22.8993C99.3959 21.6551 98.3766 20.6096 97.151 19.857C95.8986 19.1342 94.4837 18.7399 93.038 18.711C92.6723 18.7102 92.3074 18.7436 91.948 18.811L91.935 18.794C92.0817 18.3167 92.1036 17.8099 91.9985 17.3218C91.8935 16.8337 91.665 16.3806 91.335 16.006C90.7346 15.3432 89.9708 14.8496 89.1199 14.5743C88.2691 14.299 87.3609 14.2516 86.486 14.437C85.7186 14.5756 85.0175 14.9613 84.4898 15.5355C83.962 16.1096 83.6366 16.8406 83.563 17.617C83.5369 17.9862 83.5676 18.3571 83.654 18.717C82.175 18.741 81.982 15.509 81.292 14.54C80.6702 13.6865 79.7587 13.0888 78.728 12.859C77.9224 12.6897 77.0838 12.7804 76.333 13.118C75.5822 13.4557 74.9579 14.0229 74.55 14.738C74.2886 14.5533 74.0138 14.3882 73.728 14.244C74.2646 13.7201 74.621 13.0394 74.746 12.3C74.8574 11.6935 74.7782 11.0675 74.5192 10.5079C74.2603 9.9483 73.8344 9.48265 73.3 9.17499C76.183 9.70799 79 10.33 81.669 10.991C87.1406 12.2096 92.3524 14.3897 97.062 17.43C104.355 22.399 104.667 31.223 97.075 36.116C96.8746 36.2394 96.7196 36.4242 96.633 36.643C86.133 40.036 75.017 41.058 64.472 44.543C64.3944 44.5217 64.3145 44.5099 64.234 44.508C57.3003 44.9626 50.34 44.805 43.434 44.037C43.9373 43.8289 44.3997 43.5333 44.8 43.164V43.164ZM78.878 21.721C77.7461 20.0997 76.8448 18.3292 76.2 16.46C76.2542 16.1647 76.3827 15.8881 76.5734 15.6563C76.7641 15.4245 77.0108 15.2451 77.2901 15.135C77.5693 15.0249 77.8721 14.9878 78.1697 15.0272C78.4673 15.0666 78.7499 15.1811 78.991 15.36C80.029 16.079 79.999 17.49 80.425 18.575C80.5906 19.044 80.8491 19.4748 81.185 19.8416C81.5209 20.2085 81.9274 20.5038 82.38 20.71C81.4659 21.6359 80.3041 22.2786 79.034 22.561C79.0772 22.4187 79.0856 22.2682 79.0584 22.122C79.0313 21.9758 78.9694 21.8383 78.878 21.721V21.721ZM86.394 22.268C88.176 22.226 89.594 21.461 91.479 21.081C92.9184 20.7591 94.4254 20.9628 95.7276 21.6554C97.0298 22.3479 98.0413 23.4836 98.579 24.857C96.026 24.069 93.605 25.357 90.865 25.606C89.473 25.734 87.704 25.885 86.765 24.686C86.09 23.821 86.377 23.48 86.395 22.436C86.4 22.374 86.394 22.327 86.394 22.268V22.268ZM89.747 18.38C89.5527 18.5249 89.4092 18.7276 89.337 18.959C88.5235 19.2075 87.6597 19.242 86.829 19.059C86.7907 19.057 86.7523 19.057 86.714 19.059C86.6133 18.9825 86.4999 18.9243 86.379 18.887C85.149 18.541 85.879 16.928 86.763 16.647C87.3994 16.4667 88.0782 16.5094 88.687 16.768C89.068 16.921 90.465 17.83 89.747 18.38V18.38ZM74.165 17.334C74.8226 19.2006 75.7176 20.9748 76.828 22.613C75.5837 22.2378 74.3858 21.7232 73.257 21.079C72.2682 20.7194 71.3229 20.2498 70.439 19.679C68.633 17.2557 69.249 16.0223 72.287 15.979C73.0319 16.2375 73.6848 16.7086 74.165 17.334V17.334ZM72.178 12.707C71.8356 13.005 71.4208 13.2076 70.9753 13.2945C70.5298 13.3814 70.0693 13.3495 69.64 13.202C68.653 12.924 68.45 12.162 69.224 11.47C69.5264 11.2188 69.8916 11.0548 70.2803 10.9956C70.669 10.9364 71.0665 10.9842 71.43 11.134C71.5718 11.1901 71.725 11.2109 71.8766 11.1945C72.0282 11.1782 72.1735 11.1251 72.3 11.04C72.71 11.394 72.539 12.326 72.178 12.707V12.707ZM65.084 14.277C65.0667 14.3608 65.0381 14.4419 64.999 14.518C64.7849 14.1187 64.6778 13.6709 64.688 13.218C64.9541 13.5052 65.0964 13.8857 65.084 14.277V14.277ZM40.2 24.415C39.017 24.7641 37.8582 25.1903 36.731 25.691C34.311 26.772 32.596 27.884 29.881 26.58C29.524 26.408 29.181 26.237 28.836 26.065C32.2826 24.108 36.3392 23.519 40.2 24.415V24.415ZM28.94 16.455C28.0549 15.6383 27.0089 15.0156 25.869 14.627C27.3853 14.0087 28.9375 13.4821 30.517 13.05C30.2668 13.9513 29.8089 14.7815 29.18 15.474C29.0608 15.6042 28.976 15.7622 28.9334 15.9335C28.8908 16.1048 28.8917 16.2841 28.936 16.455H28.94ZM27.59 18.28C26.9351 18.2672 26.283 18.3687 25.663 18.58C25.5642 18.6199 25.4719 18.6741 25.389 18.741C24.6165 17.6991 23.678 16.7913 22.611 16.054L22.72 16C22.735 16 22.742 16.014 22.757 16.017C24.468 16.416 26.514 16.9 27.586 18.28H27.59ZM23.636 20.08C23.3385 20.522 23.1657 21.036 23.136 21.568C21.9334 21.8768 20.6642 21.7995 19.508 21.347C18.426 20.818 17.382 19.166 18.741 18.282C18.9095 18.1743 19.0456 18.0229 19.135 17.844C19.3883 17.684 19.653 17.5317 19.929 17.387C20.047 17.326 20.171 17.265 20.29 17.204C20.324 17.227 20.341 17.258 20.379 17.278C21.66 17.9545 22.772 18.9112 23.632 20.077L23.636 20.08ZM18.66 25.057C19.703 23.651 21.313 24.693 22.448 25.497C22.563 26.2978 22.3999 27.1138 21.986 27.809C21.35 28.895 19.786 29.984 18.644 28.944C17.588 27.985 17.88 26.1 18.656 25.054L18.66 25.057ZM23.334 9.18999C23.1891 9.50291 22.9454 9.75958 22.6405 9.92055C22.3355 10.0815 21.9861 10.1379 21.646 10.081C21.5947 10.077 21.5433 10.077 21.492 10.081C22.1 9.768 22.712 9.47499 23.334 9.18999ZM110.666 42.1C105.927 46.723 98.358 49.169 92.479 52.02C92.3314 52.0822 92.2031 52.1826 92.1073 52.3109C92.0115 52.4393 91.9517 52.5908 91.934 52.75C81.728 57.321 70.642 58.176 59.581 58.85C59.3405 58.8644 59.1121 58.9607 58.934 59.123C58.857 59.1107 58.7788 59.107 58.701 59.112C46.492 60.986 35.201 58.606 24.144 53.347C19.727 51.247 14.344 49.406 10.719 46.031C6.227 41.851 2.965 35.439 3.226 29.3C3.22282 29.2555 3.21579 29.2113 3.205 29.168C4.0177 27.4288 4.94439 25.7451 5.979 24.128C5.68925 24.6277 5.56041 25.2045 5.61 25.78C5.61908 26.0697 5.73857 26.345 5.94399 26.5495C6.14942 26.754 6.42525 26.8722 6.715 26.88C7.00577 26.8769 7.28375 26.76 7.48937 26.5544C7.69499 26.3487 7.81188 26.0708 7.815 25.78C7.80267 25.6106 7.82853 25.4407 7.89066 25.2827C7.9528 25.1246 8.04963 24.9826 8.174 24.867C8.162 25.002 8.163 25.139 8.139 25.273C8.06927 25.5551 8.11034 25.8533 8.25376 26.1061C8.39718 26.3589 8.63203 26.5471 8.91 26.632C9.19251 26.7072 9.49323 26.6684 9.74741 26.524C10.0016 26.3796 10.1889 26.1411 10.269 25.86C10.4181 25.1082 10.4518 24.338 10.369 23.576C10.3623 23.3359 10.2805 23.104 10.135 22.9129C9.98948 22.7218 9.78766 22.5813 9.558 22.511C8.97153 22.3846 8.3617 22.4201 7.79391 22.6139C7.22612 22.8077 6.72179 23.1524 6.335 23.611C9.91238 18.2063 14.7539 13.7557 20.44 10.645C20.3422 10.781 20.2801 10.9395 20.2595 11.1057C20.2389 11.272 20.2604 11.4408 20.322 11.5966C20.3836 11.7524 20.4834 11.8902 20.6122 11.9974C20.741 12.1046 20.8946 12.1777 21.059 12.21C22.0497 12.424 23.0849 12.2398 23.941 11.6973C24.7971 11.1547 25.4056 10.2973 25.635 9.31C25.6731 9.13323 25.6655 8.94969 25.613 8.77667C25.5605 8.60364 25.4648 8.44682 25.335 8.32099C27.3107 7.53245 29.3361 6.87438 31.398 6.351C30.9172 7.10478 30.6785 7.98762 30.714 8.88099C30.734 9.53299 30.762 10.141 30.764 10.722C28.3847 11.393 26.0635 12.2552 23.823 13.3C21.398 14.332 18.717 15.174 16.637 16.838C13.323 19.489 12.184 23.678 12.001 27.754C11.865 27.8795 11.7694 28.0427 11.7265 28.2228C11.6836 28.4028 11.6952 28.5916 11.76 28.765C12.5043 31.0791 13.674 33.2341 15.209 35.119C14.7178 34.9388 14.1929 34.869 13.6717 34.9144C13.1505 34.9599 12.6456 35.1195 12.193 35.382C11.9154 35.5255 11.6692 35.7227 11.4686 35.9623C11.268 36.2019 11.1171 36.479 11.0247 36.7775C10.9323 37.076 10.9002 37.3899 10.9303 37.7009C10.9604 38.0119 11.0521 38.3138 11.2 38.589C11.984 39.762 13.888 38.667 13.112 37.489C13.1445 37.4463 13.1807 37.4065 13.22 37.37C13.3233 37.2845 13.4403 37.2169 13.566 37.17C13.8649 37.064 14.1911 37.064 14.49 37.17C14.704 37.256 14.862 37.353 14.838 37.591C14.8212 37.6669 14.79 37.7389 14.746 37.803C14.746 37.813 14.746 37.814 14.752 37.82C14.7249 37.8152 14.6975 37.8122 14.67 37.811C13.249 37.756 13.251 39.965 14.67 40.02C15.213 40.019 15.7388 39.83 16.1582 39.4851C16.5775 39.1401 16.8644 38.6606 16.97 38.128C17.0556 37.7642 17.0573 37.3856 16.975 37.021C27.935 47.552 50.575 47.494 63.722 46.743C63.8482 46.8225 63.9914 46.8712 64.1399 46.8853C64.2884 46.8993 64.4381 46.8783 64.577 46.824C75.53 43.118 87.125 42.172 98.02 38.511C98.2142 38.4502 98.3868 38.3346 98.517 38.1781C98.6471 38.0217 98.7294 37.831 98.754 37.629C102.8 34.794 105.773 30.207 105.154 25.064C104.384 18.685 97.948 14.922 92.692 12.464C85.93 9.30299 78.58 7.84199 71.226 6.85599C62.498 5.68499 53.611 4.55599 44.926 6.52099C44.911 6.52099 44.904 6.53399 44.89 6.53699C44.1938 5.5572 43.3458 4.69471 42.378 3.98199C56.0927 2.35638 69.9273 1.98818 83.709 2.88199C83.7399 2.8792 83.7706 2.87486 83.801 2.86899C95.578 5.60599 111.761 9.83599 117.691 21.492C120.886 27.781 115.2 37.686 110.666 42.1Z" fill="#E5E5E5"/>
<path d="M58.713 43.717C58.861 43.9478 59.09 44.1151 59.3549 44.1859C59.6198 44.2567 59.9016 44.226 60.1451 44.0998C60.3886 43.9737 60.5762 43.7611 60.671 43.5038C60.7659 43.2465 60.7613 42.963 60.658 42.709C60.7425 42.5517 60.7858 42.3755 60.784 42.197C60.772 40.3709 60.9938 38.5508 61.444 36.781C61.3566 36.1097 61.0683 35.4805 60.617 34.976C58.001 33.427 54.271 34.384 53.765 37.693C53.6607 38.3535 53.7331 39.0299 53.9747 39.6534C54.2164 40.2769 54.6188 40.8253 55.141 41.243C56.228 42.153 57.959 42.465 58.713 43.717ZM56.2 37.3C56.5369 36.8454 57.0323 36.534 57.588 36.4277C58.1437 36.3214 58.7191 36.4279 59.2 36.726C58.8889 38.0633 58.6938 39.4251 58.617 40.796C58.068 40.48 57.49 40.188 56.927 39.812C56.7053 39.7043 56.5087 39.5512 56.3498 39.3627C56.191 39.1742 56.0736 38.9544 56.005 38.7176C55.9365 38.4808 55.9184 38.2323 55.952 37.9881C55.9856 37.7439 56.0701 37.5095 56.2 37.3V37.3Z" fill="#E5E5E5"/>
<path d="M63.169 42.941C63.2706 43.0423 63.3949 43.1179 63.5317 43.1613C63.6684 43.2048 63.8135 43.215 63.955 43.191C68.0471 42.7534 71.9654 41.3019 75.355 38.968C75.4636 38.8925 75.5586 38.7992 75.636 38.692C75.667 38.712 75.693 38.738 75.726 38.757C76.477 39.1981 77.3611 39.3554 78.2181 39.2003C79.0751 39.0453 79.8482 38.5882 80.397 37.912C80.64 37.5736 80.8082 37.1873 80.8903 36.7788C80.9724 36.3703 80.9666 35.949 80.8732 35.543C80.7799 35.1369 80.6011 34.7554 80.3488 34.4239C80.0965 34.0923 79.7765 33.8183 79.41 33.62C78.4465 33.0108 77.2823 32.8043 76.168 33.045C79.468 31.545 82.668 32.368 85.822 34.325C86.0297 34.4575 86.2794 34.5074 86.522 34.465C86.652 34.62 86.79 34.771 86.939 34.918C87.951 35.918 89.514 34.357 88.501 33.356C86.561 31.44 86.673 28.338 84.687 26.388C82.626 24.364 80.18 25.169 78.105 26.688C78.0612 26.7221 78.0198 26.7592 77.981 26.799C76.972 24.766 74.02 24.699 72.392 26.122C71.9211 26.5183 71.5844 27.0507 71.4283 27.6461C71.2721 28.2415 71.3042 28.8706 71.52 29.447C71.723 29.8815 72.0257 30.2619 72.4034 30.5573C72.7812 30.8527 73.2234 31.0548 73.694 31.147C73.6039 31.4783 73.5433 31.817 73.513 32.159C73.3943 32.3874 73.3547 32.6488 73.4005 32.9022C73.4462 33.1556 73.5748 33.3866 73.766 33.559C69.413 33.224 63.816 33.71 62.709 38.864C62.6549 39.0892 62.675 39.3259 62.7663 39.5387C62.8577 39.7515 63.0154 39.9291 63.216 40.045C62.8766 40.6317 62.6596 41.2811 62.578 41.954C62.5358 42.1626 62.5731 42.3794 62.6824 42.5619C62.7917 42.7445 62.9652 42.8797 63.169 42.941ZM76.222 35.322C76.6906 35.1208 77.2154 35.0924 77.703 35.242C78.259 35.412 79.058 35.919 78.647 36.564C78.4316 36.8232 78.1292 36.9951 77.7964 37.0477C77.4635 37.1003 77.1229 37.0301 76.838 36.85C76.593 36.6873 76.4031 36.4543 76.2931 36.1815C76.1831 35.9088 76.1584 35.6091 76.222 35.322ZM80.907 29.956C82.083 30.762 83.189 28.848 82.022 28.049C81.7181 27.8438 81.3949 27.6686 81.057 27.526C81.3318 27.4207 81.6263 27.3766 81.9199 27.3968C82.2135 27.417 82.4992 27.501 82.757 27.643C83.757 28.206 84.245 29.629 84.601 30.632C84.6803 30.856 84.7603 31.078 84.841 31.298C82.1882 29.9587 79.1161 29.7128 76.284 30.613C76.5443 30.2661 76.8703 29.9739 77.2436 29.7532C77.6169 29.5324 78.03 29.3873 78.4593 29.3263C78.8887 29.2653 79.3258 29.2895 79.7458 29.3975C80.1658 29.5056 80.5604 29.6954 80.907 29.956ZM73.938 27.7C74.406 27.329 75.8 27.01 76.05 27.81C76.0649 27.841 76.0816 27.871 76.1 27.9C75.5742 28.2263 75.107 28.6387 74.718 29.12C73.918 28.933 72.912 28.514 73.938 27.7ZM74.024 36.035C74.0542 36.3178 74.1152 36.5965 74.206 36.866C73.658 36.816 73.063 36.78 72.438 36.766C72.9493 36.4854 73.4792 36.2402 74.024 36.032V36.035ZM70.03 35.696C69.665 35.952 69.308 36.222 68.96 36.512C68.8094 36.6367 68.6999 36.804 68.646 36.992C67.51 37.1556 66.4083 37.5032 65.384 38.021C66.33 36.441 68.122 35.855 70.03 35.693V35.696ZM70.963 38.957C69.1497 39.8274 67.2259 40.4458 65.245 40.795C66.267 39.414 68.729 39.011 70.963 38.954V38.957Z" fill="#E5E5E5"/>
<path d="M95.659 36.182C97.871 35.911 99.636 33.821 98.475 31.652C98.386 31.4854 98.2523 31.3469 98.089 31.252C95.6 27.942 86.6 28.972 88.915 33.739C90.015 36 93.419 36.456 95.659 36.182ZM90.977 32.254C91.307 31.419 92.663 31.554 93.452 31.554C94.734 31.568 95.982 31.679 96.552 32.985C96.5871 33.0486 96.6294 33.108 96.678 33.162C96.678 34.134 94.159 33.984 93.585 33.919C92.715 33.824 90.462 33.555 90.977 32.254Z" fill="#E5E5E5"/>
<path d="M59.742 28.189C61.324 29.289 63.709 29.542 65.042 27.926C65.3091 27.6165 65.4972 27.2468 65.5902 26.8487C65.6831 26.4506 65.6781 26.0358 65.5757 25.64C65.4733 25.2442 65.2764 24.8792 65.002 24.5761C64.7275 24.2731 64.3837 24.0411 64 23.9C63.9616 23.8404 63.917 23.7851 63.867 23.735C62.423 22.555 60.225 21.657 58.716 23.288C57.274 24.854 58.2 27.12 59.742 28.189ZM60.598 24.634C61.175 24.402 61.911 24.975 62.309 25.3C62.3879 25.484 62.5169 25.6422 62.6813 25.7564C62.8458 25.8706 63.039 25.9363 63.239 25.946C63.629 25.972 63.423 26.426 63.293 26.579C63.1771 26.6863 63.0405 26.7688 62.8916 26.8214C62.7427 26.8741 62.5846 26.8957 62.427 26.885C61.7291 26.8489 61.0718 26.5461 60.591 26.039C60.236 25.65 59.953 24.892 60.6 24.634H60.598Z" fill="#E5E5E5"/>
<path d="M17.575 45.819C17.4166 45.9629 17.2213 46.0599 17.011 46.099C16.591 46.1135 16.1824 45.9614 15.874 45.676C15.387 45.214 15.574 44.235 16.345 44.56C16.6274 44.6357 16.9282 44.5971 17.1824 44.4526C17.4365 44.3081 17.6236 44.0694 17.703 43.788C17.7737 43.5059 17.7331 43.2075 17.5895 42.9546C17.4459 42.7017 17.2104 42.5138 16.932 42.43C16.3407 42.2291 15.6978 42.2414 15.1146 42.4648C14.5314 42.6881 14.0448 43.1085 13.739 43.653C13.4108 44.2304 13.2908 44.9029 13.3989 45.5581C13.507 46.2134 13.8367 46.8117 14.333 47.253C14.7992 47.7007 15.3748 48.018 16.0023 48.1732C16.6297 48.3283 17.2869 48.3158 17.908 48.137C18.5294 47.9854 19.0663 47.5957 19.403 47.0519C19.7397 46.5081 19.8493 45.8538 19.708 45.23C19.6299 44.9471 19.4426 44.7069 19.1874 44.5621C18.9321 44.4173 18.6298 44.3799 18.347 44.458C18.0641 44.5361 17.8239 44.7234 17.6791 44.9786C17.5343 45.2339 17.4969 45.5361 17.575 45.819V45.819Z" fill="#E5E5E5"/>
<path d="M65.333 50.715C65.0402 50.715 64.7594 50.8313 64.5523 51.0384C64.3453 51.2454 64.229 51.5262 64.229 51.819C64.229 52.1118 64.3453 52.3926 64.5523 52.5996C64.7594 52.8067 65.0402 52.923 65.333 52.923C66.004 52.915 66.026 53.706 65.485 53.972C64.805 54.306 64.121 53.661 64.039 52.986C64.0288 52.6975 63.9096 52.4236 63.7055 52.2195C63.5014 52.0154 63.2275 51.8962 62.939 51.886C62.6472 51.8873 62.3676 52.0035 62.1608 52.2093C61.954 52.4152 61.8366 52.6942 61.834 52.986C62.134 55.424 64.71 57.322 66.952 55.646C67.4106 55.3024 67.7499 54.8237 67.9221 54.2772C68.0944 53.7307 68.0909 53.1439 67.9121 52.5995C67.7334 52.0551 67.3884 51.5804 66.9257 51.2423C66.463 50.9043 65.906 50.7199 65.333 50.715Z" fill="#E5E5E5"/>
<path d="M40.683 48.405C40.1236 48.2086 39.5277 48.1387 38.9381 48.2003C38.3484 48.2618 37.7798 48.4533 37.273 48.761C36.9976 48.9285 36.7625 49.1545 36.5844 49.4232C36.4062 49.6918 36.2895 49.9964 36.2424 50.3153C36.1954 50.6341 36.2191 50.9594 36.312 51.2681C36.405 51.5767 36.5647 51.8611 36.78 52.101C37.68 53.134 39.13 51.728 38.415 50.668C38.409 50.651 38.42 50.595 38.587 50.547C38.7531 50.486 38.9236 50.4378 39.097 50.403C39.4203 50.352 39.7514 50.3936 40.052 50.523C40.1425 50.5563 40.2249 50.6084 40.2938 50.6757C40.3627 50.7431 40.4166 50.8243 40.452 50.914C40.4755 51.0491 40.4589 51.1882 40.404 51.314C40.3963 51.3281 40.3853 51.3401 40.372 51.349H40.378C39.055 51.835 39.627 53.97 40.965 53.479C41.4903 53.2985 41.9416 52.9499 42.2489 52.4871C42.5562 52.0243 42.7024 51.4732 42.665 50.919C42.6257 50.3493 42.4156 49.8046 42.062 49.3561C41.7084 48.9076 41.2278 48.5762 40.683 48.405V48.405ZM38.415 50.668C38.3942 50.6231 38.3698 50.58 38.342 50.539C38.44 50.651 38.424 50.678 38.415 50.668Z" fill="#E5E5E5"/>
<path d="M100.709 41.23C99.472 40.404 97.952 40.961 96.837 41.722C95.755 42.461 94.41 43.467 94.175 44.848C94.1163 45.1503 94.1249 45.4618 94.2 45.7605C94.2751 46.0591 94.415 46.3376 94.6098 46.5762C94.8046 46.8147 95.0494 47.0075 95.327 47.1409C95.6045 47.2743 95.9081 47.345 96.216 47.348C96.5032 47.3394 96.7757 47.2192 96.9758 47.013C97.1759 46.8068 97.2878 46.5308 97.2878 46.2435C97.2878 45.9562 97.1759 45.6802 96.9758 45.474C96.7757 45.2678 96.5032 45.1476 96.216 45.139C96.458 45.139 96.677 44.709 96.882 44.507C97.2121 44.1846 97.5702 43.8921 97.952 43.633C98.2717 43.3623 98.6474 43.1656 99.052 43.057C99.241 43.033 99.652 42.999 99.489 43.218C98.639 44.357 100.555 45.46 101.396 44.333C101.556 44.0845 101.665 43.8068 101.717 43.516C101.769 43.2251 101.763 42.9269 101.699 42.6384C101.635 42.3499 101.515 42.0769 101.345 41.8352C101.175 41.5935 100.959 41.3878 100.709 41.23V41.23Z" fill="#E5E5E5"/>
<path d="M79.655 48.808C79.3765 48.892 79.141 49.0801 78.9974 49.3331C78.8539 49.5862 78.8132 49.8848 78.884 50.167C78.9639 50.448 79.151 50.6864 79.4051 50.8306C79.6591 50.9749 79.9597 51.0134 80.242 50.938C80.626 50.803 81.251 51.178 81.13 51.561C81.0329 51.716 80.88 51.8278 80.7029 51.8734C80.5257 51.919 80.3379 51.8949 80.178 51.806C79.134 50.845 77.568 52.406 78.616 53.368C78.9663 53.6782 79.3867 53.8987 79.8412 54.0103C80.2956 54.1219 80.7703 54.1213 81.2245 54.0087C81.6786 53.896 82.0986 53.6746 82.4481 53.3635C82.7977 53.0524 83.0664 52.661 83.231 52.223C83.3495 51.7361 83.3377 51.2266 83.1968 50.7457C83.056 50.2648 82.7911 49.8294 82.4287 49.4833C82.0663 49.1372 81.6192 48.8926 81.1323 48.7741C80.6454 48.6555 80.1359 48.6672 79.655 48.808V48.808Z" fill="#E5E5E5"/>
<path d="M110.024 29.173C109.737 29.1816 109.464 29.3018 109.264 29.508C109.064 29.7142 108.952 29.9902 108.952 30.2775C108.952 30.5648 109.064 30.8408 109.264 31.047C109.464 31.2532 109.737 31.3734 110.024 31.382C110.818 31.382 110.853 32.314 110.281 32.69C110.125 32.7675 109.954 32.8131 109.78 32.824C109.606 32.835 109.431 32.8112 109.267 32.7539C109.102 32.6967 108.95 32.6071 108.82 32.4906C108.69 32.374 108.585 32.2327 108.51 32.075C107.758 30.875 105.846 31.98 106.603 33.19C107.803 35.109 110.538 35.815 112.157 33.953C112.521 33.5391 112.759 33.0293 112.841 32.4843C112.924 31.9393 112.849 31.382 112.624 30.8787C112.399 30.3753 112.035 29.9469 111.574 29.6446C111.113 29.3422 110.575 29.1786 110.024 29.173V29.173Z" fill="#E5E5E5"/>
<path d="M75.626 2.59999C75.0314 2.54167 74.4316 2.63521 73.883 2.87185C73.3343 3.10848 72.8547 3.48047 72.489 3.95299C72.3254 4.22573 72.2351 4.53615 72.2269 4.8541C72.2187 5.17205 72.2929 5.48671 72.4423 5.76751C72.5916 6.04831 72.8111 6.2857 73.0793 6.45663C73.3475 6.62756 73.6554 6.72621 73.973 6.74299C74.1838 6.74213 74.3897 6.68012 74.566 6.5645C74.7422 6.44888 74.8811 6.28461 74.9658 6.09161C75.0504 5.89861 75.0773 5.68519 75.0431 5.47722C75.0089 5.26925 74.9151 5.07568 74.773 4.91999L74.793 4.91099C75.0979 4.8121 75.4202 4.77804 75.739 4.81099C75.8992 4.83593 76.0517 4.89678 76.185 4.98899C76.296 5.06299 76.274 5.11499 76.242 5.14299C76.264 5.13399 76.295 5.12099 76.342 5.10499C75.006 5.56399 75.58 7.69799 76.93 7.23499C77.4636 7.05246 77.9078 6.67366 78.1723 6.17553C78.4368 5.6774 78.5017 5.09729 78.354 4.55299C78.1789 3.97181 77.8163 3.46497 77.3228 3.11164C76.8293 2.75831 76.2326 2.57839 75.626 2.59999Z" fill="#E5E5E5"/>
<path d="M97.489 8.41499C97.2877 8.62516 97.1753 8.90495 97.1753 9.19599C97.1753 9.48703 97.2877 9.76683 97.489 9.97699C97.6148 10.1365 97.6812 10.3349 97.6766 10.538C97.6721 10.7411 97.5969 10.9363 97.464 11.09C97.372 11.167 97.246 11.159 97.059 11.083C97.018 11.067 96.939 11 96.909 10.989C96.944 11.001 96.888 10.935 96.867 10.919V10.879C96.867 10.5862 96.7507 10.3054 96.5436 10.0983C96.3366 9.89131 96.0558 9.77499 95.763 9.77499C95.4702 9.77499 95.1894 9.89131 94.9824 10.0983C94.7753 10.3054 94.659 10.5862 94.659 10.879C94.6873 11.3129 94.8227 11.733 95.053 12.1019C95.2834 12.4707 95.6015 12.7767 95.979 12.9925C96.3565 13.2084 96.7816 13.3273 97.2163 13.3387C97.651 13.3502 98.0817 13.2537 98.47 13.058C100.203 12.121 100.2 9.79099 99.053 8.41499C98.8447 8.20931 98.5637 8.09398 98.271 8.09398C97.9783 8.09398 97.6973 8.20931 97.489 8.41499V8.41499ZM96.867 10.948C96.877 10.997 96.867 11.084 96.867 10.948V10.948Z" fill="#E5E5E5"/>
<path d="M109.507 20.758C109.759 20.6092 109.942 20.3673 110.017 20.0845C110.092 19.8018 110.052 19.5009 109.907 19.247C109.755 18.9985 109.513 18.8181 109.232 18.7436C108.95 18.6691 108.651 18.7061 108.396 18.847C108.299 18.9034 108.19 18.9376 108.078 18.947C107.966 18.9563 107.853 18.9407 107.748 18.9012C107.643 18.8616 107.548 18.7992 107.47 18.7184C107.391 18.6376 107.332 18.5405 107.296 18.434C107.223 18.098 107.517 17.927 107.696 18.024C108.947 18.699 110.064 16.793 108.811 16.117C108.403 15.8969 107.941 15.7934 107.478 15.818C107.015 15.8425 106.567 15.994 106.184 16.256C105.801 16.518 105.498 16.8803 105.307 17.3033C105.116 17.7263 105.046 18.1936 105.103 18.654C105.375 20.831 107.693 21.607 109.507 20.758Z" fill="#E5E5E5"/>
</svg>
