<svg width="121" height="81" viewBox="0 0 121 81" fill="none" xmlns="http://www.w3.org/2000/svg">
<path d="M17.429 58.162C17.447 58.17 17.464 58.162 17.481 58.174C17.6168 58.4454 17.8511 58.6546 18.136 58.759C36.042 65.448 54.359 71.035 72.726 76.3C72.89 76.3485 73.0624 76.3621 73.232 76.34C75.6576 78.0752 78.4423 79.2429 81.38 79.757C86.617 80.709 93.531 81.247 98.455 78.875C103.018 76.675 105.671 71.975 108.006 67.719C108.035 67.6497 108.058 67.5777 108.073 67.504C109.035 66.1248 109.861 64.656 110.541 63.118C114.263 54.753 116.599 45.837 120.373 37.446C120.545 37.3517 120.691 37.2149 120.796 37.0487C120.901 36.8825 120.962 36.6923 120.973 36.496C121.354 31.326 117.63 27.501 114.351 23.927C109.651 18.808 103.885 14.664 98.451 10.348C98.4327 10.2792 98.4079 10.2122 98.377 10.148C95.308 5.22002 89.177 4.21902 83.811 3.38702C76.4102 2.30386 68.8749 2.563 61.566 4.15202C61.543 4.13802 61.534 4.11902 61.51 4.10602C60.416 3.51202 59.888 2.33902 58.848 1.67802C57.9064 1.11062 56.7997 0.880668 55.71 1.02602C53.486 1.26102 51.41 2.78202 49.516 4.13202C49.0958 3.74845 48.599 3.45841 48.0584 3.28103C47.5178 3.10365 46.9458 3.04298 46.38 3.10302C45.9706 3.19511 45.5719 3.32915 45.19 3.50302C43.5117 3.83771 41.7854 3.854 40.101 3.55102C38.3498 3.30932 36.5658 3.51727 34.9172 4.15529C33.2685 4.79331 31.8093 5.84042 30.677 7.19802C30.5863 7.30937 30.5156 7.43556 30.468 7.57102C18.9 7.37702 5.9 12.025 1.648 22.719C1.42735 22.7859 1.23966 22.9328 1.1218 23.131C1.00393 23.3291 0.96442 23.5642 1.011 23.79C2.465 35.4 5.353 52.739 17.429 58.162ZM79.129 5.25102C84.17 5.65902 91.993 6.18202 95.601 10.403C95.551 10.5916 95.5603 10.7911 95.6276 10.9743C95.6949 11.1574 95.8168 11.3155 95.977 11.427C100.349 14.936 104.907 18.304 109.077 22.051C112.832 25.424 118.442 30.356 118.583 35.73C118.531 35.7876 118.485 35.8507 118.446 35.918C115.743 41.8148 113.34 47.8445 111.246 53.984C108.884 60.968 106.729 69.149 98.937 71.584C98.7294 71.5088 98.5046 71.4942 98.289 71.542C93.489 72.633 88.995 73.408 84.644 70.573C80.921 68.148 77.223 64.537 75.744 60.312C75.7717 60.1479 75.7666 59.9801 75.729 59.818C72.865 47.569 69.48 35.8 60.615 26.458C56.779 22.415 52.707 18.075 48.126 14.64C52.5219 16.5633 56.4445 19.424 59.619 23.022C63.847 27.722 68.77 31.513 71.47 37.399C71.5253 37.5338 71.61 37.6545 71.7177 37.7526C71.8254 37.8507 71.9536 37.9236 72.093 37.966C74.693 46.081 77.685 54.045 80.761 61.992C80.8688 62.2802 81.0838 62.5156 81.361 62.649C81.1756 63.2308 81.1411 63.8502 81.261 64.449C81.3481 64.7537 81.5514 65.0121 81.827 65.1684C82.1027 65.3248 82.4288 65.3667 82.735 65.285C83.0377 65.195 83.2937 64.9914 83.4496 64.7168C83.6054 64.4422 83.6489 64.118 83.571 63.812C83.571 63.791 83.571 63.766 83.571 63.744C84.7129 63.8751 85.796 64.3202 86.7 65.03C86.8821 65.1804 87.1036 65.2754 87.3381 65.3037C87.5726 65.3321 87.8103 65.2926 88.023 65.19C88.283 65.96 88.5433 66.7293 88.804 67.498C89.296 68.951 91.61 68.328 91.114 66.862L90.437 64.862L92.126 64.536C92.5218 65.0701 92.8622 65.643 93.142 66.246C93.3041 66.5184 93.5669 66.7161 93.8736 66.7964C94.1803 66.8766 94.5062 66.833 94.781 66.675C95.0498 66.5099 95.2445 66.2474 95.3246 65.9423C95.4047 65.6371 95.364 65.3129 95.211 65.037C95.0074 64.5998 94.7735 64.1775 94.511 63.773C94.7109 63.7138 94.894 63.6082 95.0453 63.4648C95.1967 63.3214 95.312 63.1444 95.382 62.948C95.5427 62.5545 95.8033 62.2099 96.138 61.948C96.2503 62.1479 96.3213 62.3682 96.347 62.596C96.3551 62.9117 96.4841 63.2122 96.7074 63.4356C96.9308 63.6589 97.2313 63.7879 97.547 63.796C97.8648 63.7944 98.1691 63.6675 98.3938 63.4428C98.6185 63.2181 98.7454 62.9138 98.747 62.596C98.6617 61.5673 98.2339 60.5969 97.532 59.84C98.0868 59.0475 98.8999 58.4727 99.832 58.214C100.056 58.1607 100.257 58.0376 100.407 57.8626C100.556 57.6875 100.646 57.4695 100.664 57.24C101.605 57.2485 102.519 57.5544 103.275 58.114C104.53 59.014 105.728 56.937 104.484 56.046C103.55 55.3845 102.459 54.9806 101.319 54.875C101.397 54.5925 101.366 54.2909 101.23 54.031C100.873 53.331 101.472 52.183 101.938 51.675C102.281 51.301 102.684 50.975 103.051 50.631C103.666 50.0799 104.195 49.4394 104.62 48.731C104.939 48.1557 105.156 47.5299 105.263 46.881C105.669 46.8645 106.066 47.004 106.373 47.271C107.523 48.29 109.224 46.602 108.067 45.577C107.333 44.9098 106.383 44.5296 105.392 44.506C105.892 43.106 106.55 42.373 106.292 40.797C106.144 40.0229 105.914 39.2666 105.606 38.541C105.694 38.5215 105.777 38.4877 105.854 38.441L105.881 38.423C106.174 38.452 106.468 38.371 106.705 38.1958C106.942 38.0205 107.106 37.7635 107.165 37.4745C107.223 37.1854 107.172 36.885 107.021 36.6314C106.871 36.3779 106.632 36.1892 106.35 36.102C105.943 35.9874 105.511 35.9982 105.111 36.133C105.111 36.108 105.111 36.088 105.111 36.062C105.072 34.868 105.343 33.672 105.327 32.474C105.27 28.152 102.277 25.113 99.819 21.815C99.6375 21.5649 99.3682 21.3927 99.065 21.333C99.049 21.308 99.04 21.284 99.022 21.259C98.246 20.179 98.099 19.175 97.043 18.329C96.043 17.529 94.622 17.629 93.359 16.639C92.366 15.859 91.512 14.839 90.53 14.039C87.1723 11.326 83.2814 9.34989 79.11 8.23902C79.0059 8.10108 78.8713 7.98905 78.7167 7.91169C78.5622 7.83433 78.3918 7.79371 78.219 7.79302C76.8349 7.89288 75.4468 7.66398 74.168 7.12502C73.441 6.70002 72.949 5.94702 72.24 5.45902C72.086 5.35302 71.918 5.28002 71.759 5.18802C74.2129 5.03883 76.6741 5.05988 79.125 5.25102H79.129ZM65.527 16.62C65.5599 16.7743 65.624 16.9202 65.7153 17.0489C65.8067 17.1775 65.9234 17.2861 66.0583 17.3679C66.1932 17.4498 66.3433 17.5032 66.4996 17.5249C66.6559 17.5466 66.8149 17.536 66.967 17.494C68.767 17.036 72.099 25.406 73.367 26.774C74.1036 27.4639 74.9076 28.078 75.767 28.607C77.867 30.169 77.739 32.385 77.934 34.94C77.9458 34.997 77.9615 35.0531 77.981 35.108C77.9623 35.178 77.9506 35.2497 77.946 35.322C77.9761 36.0012 77.8605 36.6791 77.607 37.31C77.5497 37.4918 77.5424 37.6857 77.5858 37.8714C77.6293 38.057 77.7219 38.2275 77.854 38.365C77.9048 38.625 78.0392 38.8612 78.2367 39.0378C78.4342 39.2144 78.684 39.3215 78.948 39.343C81.257 39.557 82.342 41.871 81.811 43.961C81.574 44.895 80.693 45.848 80.863 46.866C81.243 49.129 85.996 48.448 86.263 49.872C86.1856 50.0046 86.1381 50.1525 86.1237 50.3053C86.1094 50.4582 86.1286 50.6123 86.18 50.757C86.4223 51.4953 86.8983 52.1346 87.536 52.5786C88.1737 53.0226 88.9385 53.247 89.715 53.218C91.651 53.218 93.137 51.818 94.388 50.508C94.5466 50.3514 94.6543 50.1507 94.6969 49.9319C94.7396 49.7132 94.7152 49.4867 94.627 49.282C94.6628 49.2203 94.6926 49.1554 94.716 49.088C95.3818 46.2945 95.3343 43.3784 94.578 40.608C94.5592 40.5612 94.5364 40.516 94.51 40.473C95.3844 40.1291 96.1824 39.616 96.858 38.963C97.6806 38.1028 98.1558 36.9686 98.192 35.779C98.149 34.434 97.165 33.586 96.753 32.364C96.234 30.824 96.27 29.706 94.998 28.533C94.074 27.679 93.169 27.624 92.092 27.133C91.38 26.811 91.71 27.524 91.555 27.101C91.547 27.077 91.766 25.694 91.778 25.789C91.588 24.254 89.856 23.351 88.045 22.767C88.4143 21.6088 88.3141 20.352 87.766 19.267C87.1334 18.3156 86.2531 17.555 85.22 17.067C85.2704 16.9453 85.3008 16.8163 85.31 16.685C85.4073 15.4607 85.2194 14.2304 84.761 13.091C86.7686 14.1767 88.6335 15.5076 90.313 17.053C92.431 19.009 95.333 20.246 96.935 22.476C97.1131 22.7362 97.3865 22.9158 97.696 22.976C97.709 22.997 97.717 23.016 97.732 23.037C98.915 24.624 100.252 26.175 101.307 27.851C102.788 30.204 102.814 31.921 102.79 34.642C102.762 37.811 103.801 40.678 103.069 43.722C102.962 43.8586 102.886 44.0176 102.849 44.1873C102.812 44.357 102.813 44.5329 102.853 44.702C103.779 49.064 96.863 50.641 99.133 55.196C98.9928 55.2977 98.879 55.4314 98.801 55.5861C98.7231 55.7407 98.6833 55.9118 98.685 56.085V56.105C97.1832 56.6387 95.9258 57.6989 95.146 59.089C95.0187 59.317 94.9752 59.5823 95.023 59.839C94.149 60.421 93.4771 61.2599 93.1 62.24C92.9367 62.1981 92.7665 62.1903 92.6 62.217C92.3669 62.1302 92.1149 62.1074 91.87 62.151L88.616 62.779C88.4042 62.8295 88.2153 62.9491 88.079 63.119C86.6626 62.0378 84.9574 61.4009 83.179 61.289C83.1361 61.2928 83.0933 61.2988 83.051 61.307C79.904 53.175 76.843 45.028 74.198 36.716C74.1444 36.5329 74.0448 36.3666 73.9086 36.233C73.7724 36.0994 73.6041 36.003 73.42 35.953C70.24 29.214 64.134 24.33 59.233 18.862C56.4037 15.9484 52.9909 13.6652 49.218 12.162L51.681 12.268C51.9097 12.2783 52.1357 12.2152 52.326 12.088C52.4365 12.3201 52.6306 12.5018 52.8694 12.597C53.1083 12.6921 53.3742 12.6935 53.614 12.601C55.494 11.983 57.157 13.728 58.958 13.987C59.713 14.095 65.624 13.344 64.994 15.325C64.9047 15.5684 64.9099 15.8364 65.0086 16.0762C65.1072 16.3159 65.2922 16.51 65.527 16.62ZM41.783 6.22902C41.9583 6.23826 42.134 6.23626 42.309 6.22302C42.2167 6.56801 42.1912 6.92747 42.234 7.28202C42.2433 7.59734 42.3727 7.89719 42.5958 8.12025C42.8188 8.34331 43.1187 8.47272 43.434 8.48202C43.7523 8.48202 44.0575 8.35559 44.2825 8.13055C44.5076 7.9055 44.634 7.60028 44.634 7.28202C44.5772 7.06781 44.6029 6.84009 44.7061 6.64396C44.8093 6.44783 44.9823 6.29759 45.191 6.22302C45.3608 6.13804 45.5005 6.00295 45.591 5.83602C46.2744 5.73772 46.9684 5.74042 47.651 5.84402C47.488 6.74402 48.411 7.77802 49.389 7.13602C51.205 5.94702 53.264 4.09302 55.384 3.52802C57.768 2.89202 58.555 5.22802 60.307 6.18002C60.5232 6.29745 60.7718 6.341 61.015 6.30402C61.1515 6.40784 61.3092 6.48022 61.4769 6.51601C61.6445 6.55179 61.8181 6.55009 61.985 6.51102C63.433 6.20702 64.8857 5.94802 66.343 5.73402C66.3758 5.99629 66.511 6.23492 66.7192 6.39776C66.9274 6.5606 67.1916 6.6344 67.454 6.60302C68.6619 6.47626 69.8758 6.77974 70.882 7.46002C71.597 7.95302 72.051 8.74802 72.795 9.20002C74.1792 9.86831 75.7035 10.1951 77.24 10.153C77.317 10.202 77.3996 10.2416 77.486 10.271C77.5298 10.4644 77.6232 10.6431 77.757 10.7895C77.8908 10.9359 78.0603 11.045 78.249 11.106C79.214 11.437 79.706 12.741 80.716 13.169C81.364 13.444 82.079 13.346 82.527 13.969C82.9435 14.8102 83.0835 15.7615 82.927 16.687C82.9175 16.9219 82.986 17.1533 83.122 17.345C83.0392 17.4716 82.9845 17.6145 82.9616 17.764C82.9387 17.9135 82.9482 18.0662 82.9893 18.2118C83.0304 18.3574 83.1023 18.4924 83.2001 18.6079C83.2978 18.7233 83.4192 18.8164 83.556 18.881C84.3141 19.1858 84.9966 19.6523 85.556 20.248C85.7352 20.5305 85.8465 20.8507 85.8812 21.1835C85.9159 21.5163 85.8731 21.8526 85.756 22.166C85.234 22.047 84.771 21.948 84.419 21.857C84.1196 21.793 83.807 21.8459 83.5453 22.0048C83.2836 22.1637 83.0925 22.4167 83.0112 22.7119C82.9299 23.0072 82.9646 23.3223 83.1081 23.5928C83.2515 23.8633 83.493 24.0687 83.783 24.167C84.883 24.45 88.752 25.048 89.265 26.161C89.1172 26.6411 89.0086 27.1324 88.94 27.63C89.22 29.269 91.71 29.799 92.777 30.63C94.0205 31.6715 94.8604 33.1152 95.151 34.711C95.61 36.322 95.738 36.511 94.351 37.567C94.038 37.806 93.01 38.201 92.604 38.555C91.578 39.455 91.041 40.339 91.975 41.593C92.0935 41.7538 92.2488 41.8838 92.428 41.972C92.9157 44.1056 92.9113 46.3223 92.415 48.454C92.3673 48.6636 92.3783 48.8823 92.447 49.086C91.8868 49.776 91.1736 50.3262 90.364 50.693C90.0721 50.8292 89.7443 50.8687 89.4284 50.806C89.1124 50.7432 88.8247 50.5814 88.607 50.344C88.6441 50.258 88.6713 50.1681 88.688 50.076C88.7487 49.4053 88.5863 48.7334 88.2262 48.1644C87.866 47.5954 87.3281 47.1611 86.696 46.929C86.076 46.655 83.837 46.529 83.682 46.157C83.47 45.646 84.259 44.094 84.322 43.512C84.5044 42.1327 84.1843 40.7338 83.4203 39.571C82.6563 38.4082 81.4994 37.5591 80.161 37.179C80.3108 36.5729 80.3744 35.9488 80.35 35.325C80.3407 35.2694 80.3273 35.2146 80.31 35.161C80.3263 35.0894 80.3357 35.0164 80.338 34.943C80.331 34.859 80.331 34.758 80.327 34.668C80.9382 35.6333 81.7143 36.4836 82.62 37.18C82.6532 37.3871 82.7499 37.5789 82.8968 37.7286C83.0437 37.8784 83.2335 37.9788 83.44 38.016C83.7711 38.0913 84.0982 38.1835 84.42 38.292C84.8282 38.4938 85.2491 38.6689 85.68 38.816C85.9593 38.8892 86.2556 38.8593 86.5146 38.7317C86.7736 38.6042 86.9779 38.3875 87.0901 38.1215C87.2023 37.8554 87.2148 37.5579 87.1253 37.2834C87.0358 37.0089 86.8504 36.7758 86.603 36.627C86.1806 36.417 85.7466 36.2314 85.303 36.071C83.6991 35.2436 82.4338 33.8828 81.725 32.223C81.6739 32.0882 81.5934 31.9664 81.4893 31.8666C81.3852 31.7668 81.2602 31.6914 81.1234 31.6459C80.9866 31.6004 80.8413 31.586 80.6982 31.6036C80.5551 31.6213 80.4177 31.6706 80.296 31.748C80.3802 30.3725 80.0645 29.002 79.387 27.802C79.0052 27.4057 78.5492 27.0884 78.045 26.868C76.417 25.852 75.161 25.401 74.045 23.697C73.5792 22.9304 73.19 22.1198 72.883 21.277C73.1992 21.2771 73.5045 21.1621 73.742 20.9534C73.9794 20.7446 74.1326 20.4565 74.173 20.143C74.243 19.562 75.928 19.636 76.301 19.662C77.144 19.722 77.656 19.831 77.792 20.716C77.964 21.837 78.342 22.929 79.608 23.143C81.116 23.398 81.765 21.09 80.245 20.833C80.167 20.82 80.045 19.597 79.96 19.382C79.8123 18.9793 79.5754 18.6152 79.267 18.317C78.5634 17.713 77.6783 17.3611 76.752 17.317C76.7236 17.2905 76.6935 17.2658 76.662 17.243C76.3155 16.9851 76.083 16.6024 76.0139 16.176C75.9448 15.7496 76.0446 15.3131 76.292 14.959C77.137 13.659 75.063 12.459 74.223 13.75C73.8644 14.311 73.6534 14.9535 73.6097 15.6179C73.566 16.2822 73.691 16.9469 73.973 17.55C73.5548 17.6696 73.167 17.8774 72.8359 18.1595C72.5047 18.4415 72.2377 18.7912 72.053 19.185C71.117 16.943 69.924 14.962 67.489 15.037C67.489 15.012 67.489 14.985 67.495 14.961C68.4545 15.037 69.409 14.7623 70.1813 14.188C70.9537 13.6137 71.4915 12.7787 71.695 11.838C71.961 10.33 69.653 9.68302 69.385 11.201C69.3474 11.4492 69.2542 11.6857 69.1124 11.8929C68.9707 12.1 68.7839 12.2725 68.5661 12.3974C68.3484 12.5223 68.1052 12.5963 67.8548 12.6141C67.6044 12.6319 67.3532 12.5929 67.12 12.5C66.9469 12.4098 66.7537 12.3652 66.5586 12.3705C66.3635 12.3757 66.173 12.4306 66.005 12.53C65.1102 12.0267 64.1246 11.7059 63.105 11.586C62.1012 11.5452 61.0958 11.5626 60.094 11.638C58.9635 11.5181 57.8688 11.1708 56.876 10.617C55.884 10.1321 54.7668 9.96417 53.676 10.136C53.676 10.094 53.686 10.059 53.676 10.015C53.576 9.44402 53.36 8.62302 54.076 8.67402C54.961 8.89386 55.8809 8.93499 56.782 8.79502C57.0725 8.69706 57.3146 8.4916 57.4584 8.22083C57.6022 7.95005 57.6369 7.63449 57.5554 7.33892C57.4739 7.04334 57.2824 6.79018 57.0201 6.63139C56.7578 6.4726 56.4447 6.42023 56.145 6.48502C55.5238 6.54404 54.8971 6.48119 54.3 6.30002C53.6039 6.19296 52.8932 6.35376 52.311 6.75002C51.87 7.12195 51.539 7.60731 51.3538 8.15366C51.1686 8.70001 51.1361 9.28658 51.26 9.85002C50.045 9.79002 48.826 9.70402 47.612 9.69702C47.1907 9.65846 46.7664 9.72623 46.378 9.89412C45.9896 10.062 45.6496 10.3246 45.389 10.658C43.35 9.93702 41.319 9.32602 39.413 8.80202C37.4806 8.28112 35.5064 7.92945 33.513 7.75102C35.961 5.65102 38.392 5.96702 41.783 6.22902ZM3.939 23.4C8.2 12.6 21.07 9.46902 32.555 10.425C32.7412 10.5936 32.9762 10.6987 33.226 10.725C44 11.754 53.532 21.931 60.4 29.749C67.943 38.344 70.8 49.28 73.348 60.162C73.2918 60.3689 73.2984 60.5879 73.367 60.791C75.048 65.818 79.06 69.761 83.431 72.646C88.098 75.726 93.109 75.136 98.277 73.999C98.5188 74.1165 98.7952 74.1414 99.054 74.069C99.9328 73.8238 100.788 73.5012 101.61 73.105C99.4426 75.7747 96.3057 77.4769 92.886 77.839C88.0392 78.4207 83.1245 77.9913 78.452 76.578C68.383 73.143 64.418 59.8 60.592 50.756C57.182 30.705 38.539 10.093 16.8 14.212C15.287 14.499 15.928 16.812 17.437 16.522C37.623 12.7 54.608 32.2 58.143 50.59C58.1076 50.8149 58.1357 51.0452 58.224 51.255L58.281 51.389C58.328 51.658 58.381 51.928 58.421 52.196C58.4358 52.3583 58.4923 52.514 58.585 52.648C58.6777 52.782 58.8034 52.8898 58.95 52.961C61.833 59.825 64.614 67.426 69.39 72.844C52.483 67.944 35.641 62.731 19.144 56.584C19.0413 56.364 18.8611 56.1896 18.638 56.094C7.51 51.1 4.8 34.838 3.432 23.988C3.66149 23.8536 3.83983 23.6468 3.939 23.4Z" fill="white" fill-opacity="0.03"/>
<path d="M19.17 52.378C18.319 50.578 17.323 48.878 16.35 47.178C17.93 47.691 19.478 48.297 21.012 48.942C21.9495 51.3677 23.0178 53.7408 24.212 56.051C24.921 57.421 26.989 56.21 26.28 54.842C25.503 53.342 24.792 51.823 24.135 50.293C25.435 50.863 26.735 51.431 28.051 51.967C28.7311 53.9717 29.6604 55.883 30.817 57.656C31.662 58.939 33.737 57.74 32.886 56.447C32.1905 55.3879 31.5844 54.2727 31.074 53.113C31.635 53.306 32.198 53.493 32.767 53.663C34.105 54.063 35.429 54.421 36.745 54.763C37.345 56.725 38.007 58.675 38.763 60.604C39.32 62.024 41.637 61.404 41.073 59.968C40.489 58.4773 39.9557 56.9773 39.473 55.468C40.641 55.768 41.8 56.061 42.952 56.368C43.845 59.6051 45.481 62.5893 47.73 65.083C48.77 66.225 50.46 64.527 49.424 63.389C47.7598 61.5527 46.4567 59.4191 45.583 57.1C47.228 57.582 48.856 58.117 50.469 58.74C51.192 60.9998 52.2001 63.1582 53.469 65.163C54.311 66.448 56.386 65.249 55.538 63.954C54.771 62.7538 54.144 61.4698 53.669 60.127C54.939 60.7338 56.1743 61.4109 57.369 62.155C57.369 62.155 57.38 62.155 57.386 62.161C58.339 63.826 59.374 65.461 60.448 67.072C61.299 68.349 63.375 67.151 62.517 65.863C58.525 59.863 54.94 53.602 54.651 46.229C54.591 44.71 52.256 44.691 52.263 46.184C51.6518 45.8976 51.0584 45.5746 50.486 45.217C49.859 41.634 49.279 38.044 48.776 34.44C48.564 32.92 46.255 33.567 46.466 35.077C46.808 37.525 47.092 40.219 47.419 43.003C46.385 42.194 45.353 41.372 44.244 40.627C43.876 40.381 43.507 40.153 43.135 39.937C43.0094 37.2476 42.7041 34.5696 42.221 31.921C42.595 32.045 42.971 32.164 43.345 32.288C44.812 32.775 45.445 30.462 43.982 29.978C43.176 29.71 42.366 29.452 41.559 29.187C41.374 28.558 41.159 27.937 40.93 27.323C41.096 27.457 41.264 27.589 41.43 27.723C42.613 28.693 44.317 27.008 43.124 26.029C36.44 20.55 28.9 16.115 19.954 17.2C18.443 17.384 18.425 19.782 19.954 19.6C21.1321 19.4593 22.32 19.4188 23.505 19.479C23.6557 20.863 23.8053 22.247 23.954 23.631C22.224 23.107 20.4927 22.588 18.76 22.074C18.76 21.874 18.76 21.674 18.77 21.481C18.821 19.981 16.558 19.953 16.398 21.381C15.342 21.072 14.287 20.756 13.229 20.451C12.9293 20.3862 12.6162 20.4386 12.3539 20.5974C12.0916 20.7562 11.9001 21.0093 11.8186 21.3049C11.7371 21.6005 11.7718 21.916 11.9156 22.1868C12.0595 22.4576 12.3015 22.663 12.592 22.761C13.842 23.121 15.092 23.494 16.336 23.861C16.3332 26.7874 16.5139 29.7112 16.877 32.615C15.135 32.229 13.394 31.8443 11.654 31.461C11.5195 28.8631 11.1693 26.2809 10.607 23.741C10.509 23.4505 10.3036 23.2084 10.0328 23.0646C9.76203 22.9208 9.44647 22.8861 9.1509 22.9676C8.85533 23.0491 8.60216 23.2406 8.44337 23.5029C8.28458 23.7652 8.23221 24.0783 8.297 24.378C8.79388 26.5855 9.10265 28.8313 9.22 31.091C8.196 31.403 7.92 33.091 9.198 33.37L9.398 33.414C9.51774 35.8972 9.89919 38.3608 10.536 40.764C10.8274 41.7339 11.188 42.6817 11.615 43.6C11.571 43.594 11.529 43.585 11.485 43.579C9.977 43.373 9.325 45.679 10.848 45.889C11.57 45.989 12.278 46.123 12.98 46.275C14.35 48.714 15.91 51.068 17.101 53.592C17.759 54.981 19.825 53.766 19.17 52.378ZM51.458 48.449C51.5233 48.4688 51.5902 48.4828 51.658 48.491C51.7627 48.5958 51.8876 48.6782 52.0251 48.7332C52.1626 48.7882 52.3099 48.8147 52.458 48.811C52.473 48.811 52.483 48.803 52.497 48.803C52.973 52.0895 53.9447 55.2849 55.379 58.28C54.5063 57.8367 53.6283 57.4267 52.745 57.05C52.092 54.443 51.69 51.744 51.203 49.209C51.142 48.888 51.093 48.565 51.033 48.244C51.169 48.312 51.308 48.384 51.458 48.449ZM44.268 43.67C45.511 44.609 46.647 45.532 47.842 46.37C48.2408 49.5573 48.8312 52.7177 49.61 55.834C47.991 55.262 46.353 54.759 44.692 54.295C43.8639 50.5841 43.4007 46.8011 43.309 43C43.63 43.217 43.951 43.431 44.268 43.67ZM42.29 53.652C41.084 53.337 39.867 53.031 38.635 52.721C37.4256 48.4158 36.4788 44.041 35.8 39.621C37.6524 40.1458 39.4495 40.8491 41.166 41.721C41.2782 45.7184 41.6536 49.704 42.29 53.652ZM40.961 38.835C39.217 38.0956 37.417 37.496 35.578 37.042L35.405 37C35.048 34.479 34.744 31.947 34.474 29.408C36.2213 29.9653 37.9657 30.53 39.707 31.102C40.3568 33.6367 40.7765 36.2249 40.961 38.835ZM37.389 24.682C37.346 24.8283 37.3334 24.9818 37.352 25.1332C37.3705 25.2845 37.4199 25.4305 37.497 25.562C37.9822 26.4385 38.4088 27.3461 38.774 28.279C37.254 27.7863 35.7323 27.2973 34.209 26.812C34.0697 25.374 33.9333 23.9347 33.8 22.494C35.0351 23.1578 36.2332 23.8882 37.389 24.682ZM35.959 52.039L35.397 51.894C33.5494 51.3956 31.7332 50.7876 29.958 50.073C28.8891 46.0087 28.2002 41.8538 27.9 37.662C29.53 38.05 31.163 38.424 32.791 38.822C32.953 38.861 33.111 38.904 33.272 38.944C33.9158 43.3569 34.813 47.7291 35.959 52.039ZM32.9 36.371C31.14 35.9263 29.377 35.493 27.611 35.071C27.3143 32.3737 27.018 29.6767 26.722 26.98C28.48 27.5207 30.2363 28.0697 31.991 28.627C32.261 31.214 32.556 33.8 32.9 36.371ZM31.585 21.42C31.5027 21.5231 31.4415 21.6415 31.4051 21.7683C31.3688 21.8951 31.3578 22.0279 31.373 22.159C31.491 23.451 31.6123 24.7423 31.737 26.033C29.973 25.479 28.2063 24.9303 26.437 24.387L25.924 19.723C27.8736 20.0538 29.775 20.6237 31.585 21.42ZM25.935 41.548C26.2012 44.0315 26.617 46.4966 27.18 48.93C25.731 48.311 24.289 47.678 22.841 47.064C21.4836 43.3915 20.4569 39.6051 19.773 35.75C21.662 36.183 23.547 36.634 25.434 37.078C25.6 38.568 25.76 40.059 25.935 41.548ZM24.235 26.219C24.535 28.977 24.841 31.733 25.146 34.49C23.2213 34.0427 21.2953 33.603 19.368 33.171C18.9775 30.3185 18.7687 27.444 18.743 24.565C20.5757 25.109 22.406 25.6603 24.234 26.219H24.235ZM12.3 37.434C12.1 36.28 11.973 35.124 11.865 33.968C13.665 34.368 15.4607 34.7727 17.252 35.182C17.8474 38.8107 18.7329 42.3859 19.9 45.873C18.2092 45.2107 16.4797 44.652 14.721 44.2C13.5652 42.0851 12.7483 39.802 12.3 37.434Z" fill="white" fill-opacity="0.03"/>
<path d="M109.381 29.123C110.688 30.501 112.113 31.828 112.635 33.713C112.733 34.003 112.939 34.2444 113.209 34.3879C113.48 34.5314 113.795 34.5661 114.09 34.4848C114.385 34.4035 114.638 34.2124 114.797 33.9507C114.956 33.689 115.009 33.3764 114.945 33.077C114.367 31.3021 113.356 29.6988 112.005 28.411C110.332 26.62 108.631 24.853 106.944 23.075C105.88 21.954 104.188 23.65 105.25 24.769L109.381 29.123Z" fill="white" fill-opacity="0.03"/>
<path d="M83.132 31.582C83.474 31.847 85.367 32.735 85.09 33.274C84.39 34.643 86.453 35.856 87.158 34.483C87.4446 33.9356 87.5461 33.3101 87.4473 32.7002C87.3485 32.0903 87.0547 31.5289 86.61 31.1C85.746 30.2 82.965 29.34 84.386 27.69C85.386 26.527 83.7 24.826 82.692 25.996C82.2063 26.5171 81.8734 27.162 81.7298 27.8597C81.5863 28.5575 81.6375 29.2814 81.878 29.952C82.1332 30.6031 82.5681 31.1683 83.132 31.582Z" fill="white" fill-opacity="0.03"/>
<path d="M87.718 36.541C88.0917 36.9014 88.5357 37.1807 89.0224 37.3615C89.509 37.5424 90.0277 37.6208 90.546 37.592C90.8708 37.5728 91.176 37.4303 91.3991 37.1934C91.6222 36.9566 91.7463 36.6434 91.746 36.318C91.825 36.318 91.904 36.304 91.983 36.308C92.365 36.2992 92.7459 36.2637 93.123 36.202C94.639 35.937 93.996 33.628 92.486 33.892C91.519 34.061 90.645 33.819 89.863 34.592C89.7548 34.7076 89.6595 34.8347 89.579 34.971C89.5197 34.9339 89.4632 34.8925 89.41 34.847C88.277 33.808 86.578 35.5 87.718 36.541Z" fill="white" fill-opacity="0.03"/>
<path d="M89.709 43.216C89.173 42.871 87.869 42.476 87.909 41.842C87.996 40.302 85.6 40.307 85.509 41.842C85.5086 42.3608 85.6433 42.8708 85.9001 43.3216C86.1568 43.7725 86.5266 44.1486 86.973 44.413C87.381 44.702 88.901 45.232 88.95 45.705C88.9581 46.0207 89.0871 46.3212 89.3104 46.5446C89.5338 46.7679 89.8343 46.8969 90.15 46.905C90.4677 46.9032 90.7719 46.7761 90.9965 46.5515C91.2211 46.3268 91.3482 46.0227 91.35 45.705C91.2961 45.1889 91.1189 44.6934 90.8333 44.2602C90.5477 43.827 90.1621 43.4689 89.709 43.216Z" fill="white" fill-opacity="0.03"/>
<path d="M64.693 20.727C64.693 21.0453 64.8194 21.3505 65.0445 21.5755C65.2695 21.8006 65.5747 21.927 65.893 21.927C66.2113 21.927 66.5165 21.8006 66.7415 21.5755C66.9666 21.3505 67.093 21.0453 67.093 20.727V19.959C67.093 19.6407 66.9666 19.3355 66.7415 19.1105C66.5165 18.8854 66.2113 18.759 65.893 18.759C65.5747 18.759 65.2695 18.8854 65.0445 19.1105C64.8194 19.3355 64.693 19.6407 64.693 19.959V20.727Z" fill="white" fill-opacity="0.03"/>
<path d="M66.806 23.415C66.806 23.7332 66.9324 24.0385 67.1575 24.2635C67.3825 24.4886 67.6877 24.615 68.006 24.615C68.3243 24.615 68.6295 24.4886 68.8545 24.2635C69.0796 24.0385 69.206 23.7332 69.206 23.415V22.263C69.206 21.9447 69.0796 21.6395 68.8545 21.4145C68.6295 21.1894 68.3243 21.063 68.006 21.063C67.6877 21.063 67.3825 21.1894 67.1575 21.4145C66.9324 21.6395 66.806 21.9447 66.806 22.263V23.415Z" fill="white" fill-opacity="0.03"/>
<path d="M73.335 32.323V32.823C73.335 33.1413 73.4614 33.4465 73.6865 33.6715C73.9115 33.8966 74.2168 34.023 74.535 34.023C74.8533 34.023 75.1585 33.8966 75.3835 33.6715C75.6086 33.4465 75.735 33.1413 75.735 32.823V32.055C75.7324 31.8525 75.6778 31.654 75.5765 31.4786C75.4752 31.3032 75.3306 31.1567 75.1564 31.0533C74.9823 30.9498 74.7845 30.8928 74.582 30.8876C74.3796 30.8825 74.1791 30.9295 74 31.024V30.524C74 30.2057 73.8736 29.9005 73.6485 29.6755C73.4235 29.4504 73.1183 29.324 72.8 29.324C72.4818 29.324 72.1765 29.4504 71.9515 29.6755C71.7264 29.9005 71.6 30.2057 71.6 30.524V31.292C71.6026 31.4945 71.6572 31.693 71.7585 31.8684C71.8598 32.0438 72.0044 32.1902 72.1786 32.2937C72.3527 32.3972 72.5505 32.4542 72.753 32.4593C72.9555 32.4645 73.1559 32.4175 73.335 32.323Z" fill="white" fill-opacity="0.03"/>
<path d="M95.09 24.1C95.1682 23.7939 95.1246 23.4694 94.9685 23.1947C94.8125 22.92 94.556 22.7165 94.253 22.627L93.109 22.22C92.9546 22.1693 92.7916 22.1504 92.6297 22.1646C92.4679 22.1788 92.3106 22.2257 92.1674 22.3025C92.0242 22.3793 91.8981 22.4843 91.7967 22.6113C91.6953 22.7383 91.6208 22.8845 91.5776 23.0412C91.5344 23.1978 91.5235 23.3616 91.5455 23.5226C91.5675 23.6835 91.622 23.8384 91.7056 23.9777C91.7893 24.117 91.9003 24.2379 92.0321 24.333C92.1638 24.4281 92.3135 24.4954 92.472 24.531L93.616 24.937C93.9224 25.0183 94.2484 24.9762 94.5241 24.8197C94.7997 24.6632 95.0029 24.4048 95.09 24.1Z" fill="white" fill-opacity="0.03"/>
<path d="M95.744 25.112C95.4988 24.9408 95.1981 24.8685 94.9019 24.9095C94.6057 24.9505 94.3359 25.1018 94.1464 25.3331C93.9569 25.5644 93.8617 25.8587 93.8798 26.1572C93.8979 26.4556 94.028 26.7363 94.244 26.943C94.4167 27.1441 94.6355 27.3004 94.8817 27.3984C95.128 27.4965 95.3944 27.5334 95.658 27.506C95.9733 27.4967 96.2732 27.3673 96.4962 27.1442C96.7193 26.9212 96.8487 26.6213 96.858 26.306C96.8523 26.0046 96.7354 25.716 96.5297 25.4956C96.3241 25.2752 96.0443 25.1386 95.744 25.112Z" fill="white" fill-opacity="0.03"/>
<path d="M97.764 46.971C97.8504 47.276 98.0534 47.5347 98.329 47.6914C98.6046 47.848 98.9308 47.8899 99.237 47.808C99.5394 47.7172 99.7951 47.5133 99.9509 47.2388C100.107 46.9642 100.151 46.6402 100.074 46.334C100.021 46.0644 99.9105 45.8094 99.7496 45.5867C99.5887 45.364 99.3814 45.1788 99.142 45.044C97.905 44.275 96.791 46.06 97.76 46.95L97.764 46.971Z" fill="white" fill-opacity="0.03"/>
<path d="M98.819 49.058C98.743 48.987 98.771 49.048 98.773 48.958C98.7533 48.6538 98.6186 48.3684 98.3962 48.16C98.1738 47.9515 97.8804 47.8354 97.5755 47.8354C97.2706 47.8354 96.9772 47.9515 96.7548 48.16C96.5324 48.3684 96.3977 48.6538 96.378 48.958C96.3664 49.294 96.4272 49.6286 96.556 49.9391C96.6849 50.2497 96.8789 50.5289 97.125 50.758C98.247 51.808 99.945 50.117 98.819 49.058Z" fill="white" fill-opacity="0.03"/>
<path d="M99.1 35C99.0236 35.3062 99.0679 35.63 99.2237 35.9044C99.3796 36.1788 99.6349 36.3827 99.937 36.474C100.243 36.5553 100.569 36.5132 100.845 36.3567C101.12 36.2001 101.323 35.9417 101.41 35.637C101.564 34.9941 101.459 34.3163 101.118 33.75C100.318 32.438 98.241 33.64 99.05 34.959C99.061 34.976 99.108 34.968 99.1 35Z" fill="white" fill-opacity="0.03"/>
<path d="M84.837 58.75C85.1404 58.6392 85.4142 58.4599 85.637 58.226C85.6522 58.4217 85.7121 58.6113 85.8119 58.7803C85.9118 58.9493 86.049 59.0932 86.213 59.201C86.4888 59.3541 86.8129 59.395 87.1181 59.3151C87.4232 59.2352 87.6857 59.0406 87.851 58.772L88.426 58.002C88.5855 57.7276 88.6298 57.4012 88.5493 57.0942C88.4687 56.7872 88.2697 56.5247 87.996 56.364C87.7203 56.2109 87.3961 56.17 87.091 56.2499C86.7858 56.3299 86.5233 56.5244 86.358 56.793L86.087 57.155C86.087 57.109 86.106 57.071 86.105 57.023C86.0943 56.7407 85.9842 56.4712 85.7943 56.262C85.6044 56.0529 85.3467 55.9174 85.0668 55.8796C84.7868 55.8417 84.5024 55.9038 84.2638 56.055C84.0251 56.2061 83.8474 56.4367 83.762 56.706C83.5855 56.8469 83.4542 57.0363 83.3842 57.251C83.3141 57.4657 83.3085 57.6962 83.368 57.914C83.4547 58.2179 83.6571 58.4757 83.9318 58.6321C84.2064 58.7884 84.5315 58.8307 84.837 58.75Z" fill="white" fill-opacity="0.03"/>
<path d="M91.82 55.1349L92.584 55.7169C92.8584 55.8768 93.1849 55.9215 93.4922 55.8411C93.7994 55.7606 94.0622 55.5617 94.223 55.2879C94.3756 55.0118 94.4161 54.6875 94.336 54.3824C94.2559 54.0772 94.0615 53.8146 93.793 53.6489L93.029 53.0669C92.7546 52.907 92.4281 52.8623 92.1209 52.9428C91.8137 53.0232 91.5508 53.2221 91.39 53.4959C91.2374 53.772 91.197 54.0963 91.277 54.4015C91.3571 54.7066 91.5515 54.9692 91.82 55.1349Z" fill="white" fill-opacity="0.03"/>
</svg>
