<svg width="121" height="53" viewBox="0 0 121 53" fill="none" xmlns="http://www.w3.org/2000/svg">
<path d="M66.328 30.7879C66.2666 30.6481 66.165 30.5298 66.036 30.448C65.9071 30.3662 65.7567 30.3248 65.604 30.3289C65.8229 30.2465 66.003 30.0852 66.1089 29.8766C66.2148 29.6681 66.2387 29.4274 66.176 29.2021C66.1133 28.9768 65.9686 28.7831 65.7702 28.6591C65.5719 28.5352 65.3343 28.49 65.1043 28.5325C64.8743 28.5749 64.6686 28.702 64.5275 28.8886C64.3865 29.0751 64.3205 29.3078 64.3424 29.5406C64.3643 29.7735 64.4726 29.9897 64.6459 30.1467C64.8193 30.3037 65.0451 30.3901 65.279 30.3889C65.1469 30.4311 65.0254 30.5013 64.9229 30.5948C64.8204 30.6883 64.7393 30.8028 64.6852 30.9305C64.6311 31.0583 64.6052 31.1962 64.6093 31.3348C64.6134 31.4735 64.6474 31.6096 64.709 31.7339L64.935 32.1859C65.475 33.2649 67.093 32.3169 66.554 31.2389C66.479 31.0889 66.4 30.9379 66.328 30.7879Z" fill="white" fill-opacity="0.03"/>
<path d="M97.824 37.321C97.5758 37.3228 97.3383 37.4223 97.1628 37.5978C96.9872 37.7733 96.8878 38.0108 96.886 38.259C96.9321 38.4924 96.8855 38.7346 96.7562 38.9343C96.6268 39.1341 96.4249 39.2756 96.193 39.329C95.9559 39.3977 95.7555 39.557 95.6351 39.7724C95.5147 39.9879 95.484 40.2421 95.5498 40.48C95.6156 40.7179 95.7725 40.9203 95.9865 41.0433C96.2005 41.1662 96.4543 41.1999 96.693 41.137C97.3206 40.976 97.8716 40.5996 98.2498 40.0735C98.628 39.5474 98.8093 38.9052 98.762 38.259C98.7552 38.0124 98.6542 37.7777 98.4797 37.6033C98.3053 37.4288 98.0706 37.3278 97.824 37.321Z" fill="white" fill-opacity="0.03"/>
<path d="M20.912 8.70007L27.279 11.4081C28.379 11.8741 29.334 10.2601 28.226 9.78807L21.859 7.08107C20.761 6.61507 19.8 8.23007 20.912 8.70007Z" fill="white" fill-opacity="0.03"/>
<path d="M15.846 11.689C18.6207 12.4666 21.327 13.4699 23.938 14.689C25.024 15.197 25.977 13.581 24.884 13.07C22.129 11.7768 19.2728 10.7112 16.344 9.88403C16.1103 9.83482 15.8667 9.87657 15.6628 10.0007C15.4589 10.1249 15.31 10.3222 15.2465 10.5524C15.183 10.7826 15.2096 11.0283 15.321 11.2395C15.4324 11.4507 15.6202 11.6114 15.846 11.689Z" fill="white" fill-opacity="0.03"/>
<path d="M82.862 9.65694C85.7837 11.8264 89.0639 13.4657 92.553 14.4999C92.7917 14.5628 93.0455 14.5291 93.2595 14.4061C93.4735 14.2832 93.6304 14.0808 93.6962 13.8429C93.7619 13.605 93.7313 13.3508 93.6109 13.1353C93.4905 12.9199 93.2901 12.7606 93.053 12.6919C89.7217 11.6951 86.5923 10.1182 83.809 8.03394C82.84 7.31794 81.9 8.94494 82.862 9.65694Z" fill="white" fill-opacity="0.03"/>
<path d="M72.969 10.9L78.144 13.2C79.237 13.686 80.192 12.071 79.091 11.581L73.916 9.28101C72.822 8.79001 71.867 10.405 72.969 10.9Z" fill="white" fill-opacity="0.03"/>
<path d="M117.227 29.553C120.851 25.474 113.881 21.611 111.269 19.353C104.694 13.6329 98.4471 7.54693 92.557 1.12404C92.4769 1.0315 92.3776 0.957478 92.2661 0.907085C92.1545 0.856693 92.0334 0.831138 91.911 0.832184C91.7886 0.83323 91.6679 0.860851 91.5572 0.913143C91.4465 0.965435 91.3485 1.04115 91.27 1.13504C87.741 0.160036 82.886 1.87404 79.482 2.35804L61.839 4.86404C61.645 4.74212 61.4132 4.69519 61.187 4.73204C52.0922 6.18824 42.8875 6.84675 33.678 6.70004C33.5007 6.68981 33.3247 6.73674 33.176 6.83395C33.0274 6.93115 32.9138 7.07349 32.852 7.24004C30.7639 5.08713 28.4166 3.20172 25.864 1.62704C25.7017 1.52571 25.5103 1.48132 25.32 1.50088C25.1297 1.52044 24.9513 1.60283 24.813 1.73504C24.6642 1.70383 24.5098 1.71175 24.365 1.75804C19.247 3.35804 13.931 4.68604 8.94901 6.66804C6.63801 7.58604 4.049 8.86804 2.849 11.125C2.72407 11.1112 2.59763 11.1244 2.47824 11.1637C2.35885 11.203 2.24931 11.2675 2.15704 11.3529C2.06476 11.4382 1.99191 11.5424 1.94343 11.6584C1.89494 11.7743 1.87195 11.8994 1.876 12.025C1.902 15.525 2.135 19.007 4.149 21.925C4.14595 22.0284 4.16426 22.1314 4.20281 22.2274C4.24135 22.3234 4.29929 22.4104 4.373 22.483C4.33289 22.539 4.29934 22.5994 4.273 22.663C4.179 22.95 4.067 23.451 3.807 23.64C3.494 23.869 3.236 23.64 2.925 23.477C2.27923 23.0462 1.50075 22.8603 0.730004 22.953C0.533289 23.0084 0.359816 23.126 0.235594 23.2882C0.111373 23.4505 0.0430972 23.6487 0.0410044 23.853C0.029671 24.291 0.0180045 24.729 0.00600451 25.167C-0.00295094 25.3106 0.026293 25.4539 0.0907594 25.5825C0.155226 25.7111 0.252613 25.8203 0.373005 25.899C0.35104 26.6705 0.501497 27.4372 0.81341 28.1432C1.12532 28.8492 1.59083 29.4767 2.176 29.98C1.248 31.567 0.976005 33.567 2.276 34.969C2.31002 35.1717 2.41715 35.3548 2.5771 35.4838C2.73706 35.6128 2.93875 35.6787 3.144 35.669C3.244 35.669 3.344 35.655 3.444 35.649C3.16649 36.345 3.0919 37.1053 3.22889 37.842C3.36588 38.5786 3.70884 39.2613 4.218 39.811C4.55678 40.1906 4.95704 40.5104 5.402 40.757C6.686 43.349 8.989 44.727 11.716 45.726C16.5692 47.36 21.5409 48.6184 26.587 49.49C36.568 51.461 46.707 51.967 56.505 48.858C56.514 48.858 56.518 48.849 56.527 48.846C56.7562 48.904 56.9989 48.8724 57.2056 48.7575C57.4122 48.6427 57.5673 48.4533 57.639 48.228C58.392 45.994 58.321 43.5643 57.439 41.378C57.3584 41.1766 57.2132 41.0077 57.0263 40.8977C56.8394 40.7876 56.6212 40.7427 56.406 40.77L54.941 40.512C54.7514 39.6997 54.4783 38.9091 54.126 38.153C64.2 41.0557 74.2797 43.9403 84.365 46.807C93.106 49.275 103.048 53.674 112.277 52.595C112.455 52.5751 112.625 52.5058 112.766 52.3951C112.907 52.2844 113.015 52.1365 113.077 51.968C113.267 51.9169 113.436 51.8081 113.561 51.6568C113.687 51.5055 113.762 51.319 113.777 51.123C114.01 48.5737 114.298 46.031 114.643 43.495C114.663 43.3487 114.65 43.1998 114.605 43.059C114.897 42.7818 115.127 42.4463 115.28 42.0743C115.433 41.7023 115.507 41.3022 115.495 40.9C115.432 40.2894 115.218 39.7041 114.871 39.1976C114.525 38.6911 114.057 38.2794 113.51 38C113.874 37.6746 114.177 37.2868 114.404 36.855C114.434 36.8732 114.465 36.8899 114.496 36.905C114.987 37.1222 115.516 37.2368 116.053 37.2415C116.589 37.2463 117.121 37.1413 117.615 36.9328C118.11 36.7243 118.556 36.4169 118.927 36.0294C119.298 35.642 119.586 35.1826 119.773 34.6798C119.96 34.1769 120.041 33.6411 120.013 33.1053C119.985 32.5696 119.848 32.0453 119.61 31.5646C119.371 31.084 119.037 30.6572 118.628 30.3106C118.218 29.9639 117.742 29.7048 117.229 29.549L117.227 29.553ZM61.111 6.62604C61.2995 6.74035 61.5215 6.78658 61.74 6.75704L76.332 4.68404L83.632 3.64804C86.072 3.30104 89.186 2.21204 91.54 3.20304C91.6835 3.26731 91.8425 3.28917 91.998 3.26604C95.76 7.31904 99.639 11.257 103.68 15.035C104.615 15.908 109.572 19.689 112.927 23.068C99.805 20.78 86.792 17.9657 73.888 14.625C67.854 13.05 61.841 11.011 55.635 10.225C50.373 9.55704 45.015 9.80304 39.924 8.53904C47.0207 8.36713 54.0983 7.72808 61.111 6.62604ZM34.539 8.57504C39.309 10.89 44.303 11.293 49.531 11.611C57.218 12.077 64.272 14.021 71.676 15.983C85.642 19.6837 99.7533 22.7413 114.01 25.156C114.248 25.1985 114.494 25.1477 114.696 25.014C115.858 26.452 116.429 27.659 115.839 28.301C115.71 28.4331 115.625 28.6019 115.596 28.7842C115.567 28.9666 115.595 29.1534 115.677 29.319C115.669 29.319 115.665 29.319 115.657 29.314C109.003 28.858 102.395 26.227 95.957 24.58C89.8237 23.0113 83.657 21.578 77.457 20.28C65.573 17.8 53.582 15.853 41.53 14.359C41.4185 14.34 41.304 14.3465 41.1954 14.3782C41.0868 14.4099 40.9868 14.4659 40.903 14.542C39.369 13.254 37.85 11.947 36.369 10.596C35.645 9.93704 34.939 9.25604 34.234 8.57304C34.336 8.57504 34.437 8.57404 34.539 8.57504ZM74.02 27.92C73.8218 27.8906 73.6196 27.9332 73.45 28.04C72.9926 28.3478 72.4578 28.5206 71.9068 28.5388C71.3558 28.5569 70.8108 28.4197 70.3341 28.1428C69.8574 27.8658 69.4682 27.4603 69.2111 26.9727C68.9539 26.485 68.8392 25.9348 68.88 25.385C68.8871 25.2535 68.8638 25.1221 68.8119 25.001C68.76 24.88 68.6808 24.7726 68.5805 24.6871C68.4803 24.6017 68.3617 24.5405 68.2339 24.5084C68.1062 24.4763 67.9727 24.4741 67.844 24.502C67.755 24.3878 67.6384 24.2981 67.5053 24.2412C67.3721 24.1842 67.2267 24.1621 67.0827 24.1766C66.9386 24.1912 66.8006 24.2421 66.6816 24.3246C66.5625 24.407 66.4663 24.5183 66.402 24.648C65.058 27.34 61.695 27.432 59.622 25.491C59.097 25.0597 58.6771 24.5145 58.394 23.8969C58.1109 23.2792 57.9721 22.6053 57.988 21.926C58.088 20.767 58.622 19.865 58.546 18.681C60.5693 19.0143 62.5897 19.3583 64.607 19.713C64.3878 19.7226 64.1791 19.8093 64.0175 19.9577C63.8559 20.1061 63.7519 20.3068 63.7237 20.5243C63.6955 20.7419 63.7449 20.9624 63.8634 21.1471C63.9818 21.3318 64.1615 21.4688 64.371 21.534C64.7936 21.6254 65.1628 21.8803 65.398 22.243C66.05 23.254 67.674 22.315 67.017 21.297C66.5612 20.577 65.8639 20.0427 65.05 19.79C67.1073 20.158 69.1623 20.5403 71.215 20.937C70.8254 21.7026 70.6236 22.5499 70.6264 23.4089C70.6291 24.268 70.8364 25.114 71.231 25.877C71.771 26.957 73.389 26.008 72.851 24.931C72.5699 24.3589 72.4513 23.7206 72.5083 23.0858C72.5653 22.4509 72.7955 21.8439 73.174 21.331C74.26 21.548 75.346 21.765 76.431 21.989C75.513 22.6517 74.8001 23.5594 74.3737 24.6082C73.9473 25.6571 73.8248 26.8048 74.02 27.92ZM56.392 24.069C55.7634 24.2794 55.0945 24.3407 54.4382 24.2482C53.7818 24.1557 53.156 23.9119 52.61 23.536C52.499 23.4547 52.3688 23.4035 52.2322 23.3872C52.0956 23.3709 51.957 23.3901 51.83 23.443C51.818 23.401 51.811 23.359 51.798 23.317C51.7364 23.1027 51.5968 22.9191 51.4068 22.8024C51.2168 22.6857 50.99 22.6441 50.771 22.686C50.7694 22.5364 50.7323 22.3893 50.6628 22.2568C50.5932 22.1244 50.4932 22.0103 50.371 21.924C50.102 21.724 49.84 21.524 49.571 21.331C49.6763 21.2494 49.7625 21.1459 49.8236 21.0276C49.8847 20.9093 49.9193 20.7791 49.925 20.646C49.9893 20.0454 50.2844 19.4933 50.748 19.1061C51.2117 18.719 51.8076 18.5271 52.41 18.571C52.5147 18.5823 52.6206 18.5727 52.7215 18.5426C52.8225 18.5126 52.9164 18.4627 52.9978 18.396C53.0793 18.3292 53.1466 18.2469 53.1959 18.1539C53.2452 18.0608 53.2755 17.9589 53.285 17.854C54.424 18.026 55.563 18.198 56.7 18.379C56.6795 18.456 56.6701 18.5354 56.672 18.615C56.834 20.594 55.593 22.074 56.392 24.069ZM24.7 33.62C25.378 33.725 26.0642 33.7678 26.75 33.748C27.0491 34.5383 27.393 35.3108 27.78 36.062C27.738 36.1047 27.7005 36.1517 27.668 36.202C27.5432 36.4537 27.4508 36.7201 27.393 36.995C26.68 36.7543 25.9229 36.673 25.1751 36.7568C24.4273 36.8406 23.707 37.0875 23.065 37.48C23.0047 37.5239 22.9499 37.5749 22.902 37.632C22.8389 37.5409 22.7616 37.4606 22.673 37.394C22.7232 37.3169 22.7613 37.2326 22.786 37.144C23.0176 36.0846 23.5983 35.1338 24.435 34.444C24.5587 34.3507 24.6505 34.2215 24.6979 34.074C24.7454 33.9265 24.7461 33.7679 24.7 33.62ZM23.075 31.381C22.8976 31.3375 22.7112 31.3497 22.541 31.416C21.8585 30.6479 21.365 29.7308 21.1 28.738C21.0673 28.61 21.0064 28.4909 20.9217 28.3894C20.837 28.288 20.7307 28.2069 20.6105 28.1519C20.4903 28.0969 20.3594 28.0696 20.2273 28.0719C20.0952 28.0741 19.9652 28.106 19.847 28.165C19.7377 28.0393 19.5966 27.9453 19.4386 27.8928C19.2805 27.8403 19.1113 27.8312 18.9485 27.8665C18.7857 27.9017 18.6354 27.98 18.5132 28.0932C18.3911 28.2064 18.3015 28.3504 18.254 28.51C18.1664 28.8445 17.9715 29.1411 17.699 29.3541C17.4266 29.5671 17.0918 29.6847 16.746 29.689C16.559 29.6843 16.3754 29.7401 16.2228 29.8483C16.0701 29.9564 15.9566 30.111 15.899 30.289C15.5072 30.2944 15.1224 30.3938 14.777 30.579C14.5023 29.8639 14.0651 29.2225 13.4998 28.7054C12.9345 28.1884 12.2567 27.81 11.52 27.6C11.492 27.4395 11.4209 27.2896 11.3143 27.1663C11.2078 27.043 11.0698 26.951 10.915 26.9C10.6468 26.8088 10.3733 26.734 10.096 26.676C10.065 26.648 10.042 26.614 10.009 26.589C9.79713 26.4147 9.62413 26.1979 9.50115 25.9526C9.37817 25.7074 9.30795 25.4391 9.295 25.165C9.28364 24.9566 9.20022 24.7587 9.059 24.605C14.559 26.639 20.525 27.659 26.182 28.826C31.9695 30.0724 37.8453 30.8662 43.756 31.2C40.029 32.962 34.132 32.783 31.189 30.138C31.0743 30.0375 30.9376 29.9653 30.7899 29.9271C30.6422 29.8889 30.4877 29.8859 30.3386 29.9183C30.1896 29.9507 30.0502 30.0176 29.9316 30.1135C29.8131 30.2095 29.7187 30.332 29.656 30.471C29.638 30.489 29.617 30.494 29.6 30.515C27.934 32.529 25.3 31.928 23.075 31.381ZM21.075 37.305C19.671 37.3769 18.2776 37.0261 17.075 36.298C16.3377 35.8918 15.7177 35.3021 15.275 34.586C14.922 33.921 14.791 31.455 16.365 32.253C16.5127 32.3237 16.6758 32.3561 16.8393 32.3474C17.0028 32.3387 17.1615 32.2891 17.3008 32.2031C17.4401 32.1171 17.5557 31.9975 17.6368 31.8553C17.7179 31.713 17.762 31.5527 17.765 31.389C18.4902 31.1545 19.1191 30.6896 19.556 30.065C20.1329 31.5576 21.1198 32.8569 22.403 33.813C21.6997 34.6246 21.2078 35.5975 20.971 36.645C20.9203 36.8705 20.9583 37.1068 21.077 37.305H21.075ZM30.669 32.118C32.3982 33.3721 34.4684 34.0697 36.604 34.118C38.0944 34.1737 39.5867 34.0849 41.06 33.853C40.2503 35.0993 39.1122 36.0978 37.7712 36.7385C36.4302 37.3792 34.9383 37.6372 33.46 37.484C33.2682 37.4541 33.0722 37.4993 32.9128 37.6101C32.7534 37.7209 32.6428 37.8888 32.604 38.079C30.434 37.722 29.372 35.35 28.625 33.432C29.4049 33.1694 30.1078 32.718 30.671 32.118H30.669ZM34.134 39.392C35.858 39.4276 37.5614 39.0128 39.076 38.1885C40.5905 37.3643 41.8638 36.159 42.77 34.692C42.9163 35.3852 43.2149 36.0372 43.6442 36.6009C44.0734 37.1645 44.6226 37.6257 45.252 37.951C46.835 38.851 49.164 39.87 50.984 39.199C51.4315 39.038 51.8422 38.7891 52.192 38.467C52.4992 39.046 52.75 39.6531 52.941 40.28C50.4517 39.9051 47.932 39.7711 45.417 39.88C43.034 40.008 35.096 42.263 34.098 39.458C34.11 39.434 34.128 39.415 34.136 39.392H34.134ZM49.134 37.458C48.1004 37.2451 47.1091 36.863 46.2 36.327C45.6377 36.0383 45.1731 35.5903 44.8641 35.0389C44.5552 34.4875 44.4156 33.8573 44.463 33.227C44.4545 33.1293 44.4309 33.0335 44.393 32.943C44.8362 32.7639 45.2635 32.5475 45.67 32.296C45.8396 32.1937 45.9708 32.0383 46.0431 31.8539C46.1154 31.6695 46.1249 31.4663 46.07 31.276C46.9727 31.2927 47.8767 31.2927 48.782 31.276C48.7646 31.4402 48.7991 31.6057 48.8808 31.7492C48.9624 31.8927 49.087 32.007 49.237 32.076C49.7153 32.3054 50.1389 32.6347 50.4792 33.0416C50.8195 33.4486 51.0687 33.9237 51.21 34.435C51.606 35.9 50.952 37.787 49.133 37.458H49.134ZM48.114 20.251C46.455 19.01 44.814 17.751 43.199 16.451C45.4603 16.7397 47.719 17.0453 49.975 17.368C49.484 17.6956 49.0654 18.1204 48.7453 18.6164C48.4252 19.1123 48.2103 19.6687 48.114 20.251ZM4.255 12.54C5.45 8.82504 11.829 7.62704 14.973 6.64704L24.864 3.56204C24.9729 3.52547 25.0744 3.46995 25.164 3.39804C29.823 6.15404 33.464 10.59 37.521 14.132C40.869 17.055 44.354 19.804 47.928 22.441C40.3601 22.6676 32.7918 22.001 25.38 20.455C21.796 19.749 18.238 18.922 14.688 18.062C11.355 17.254 5.352 16.688 4.17 12.691C4.20286 12.6434 4.23132 12.5928 4.255 12.54ZM3.927 15.922C7.467 19.652 15.27 20.165 19.527 21.122C29.392 23.347 39.345 24.87 49.481 24.251C49.6911 24.2381 49.8901 24.1525 50.044 24.009C50.5589 25.7435 50.7324 27.5614 50.555 29.362C42.5324 29.5571 34.516 28.7689 26.685 27.015C19.773 25.591 12.25 24.421 5.898 21.206C5.89 21.195 5.885 21.183 5.877 21.172C4.7419 19.6426 4.06555 17.8216 3.927 15.922ZM2.241 25.85C2.25194 25.7064 2.2239 25.5625 2.15983 25.4334C2.09576 25.3044 1.99805 25.1951 1.877 25.117V24.987C2.092 25.12 2.301 25.271 2.457 25.343C2.9596 25.6061 3.53862 25.6843 4.093 25.564C4.57439 25.3823 5.00235 25.0825 5.33751 24.6921C5.67268 24.3017 5.90428 23.8333 6.011 23.33C6.73434 23.6673 7.46767 23.983 8.21101 24.277C8.09909 24.2787 7.98874 24.3036 7.88692 24.35C7.7851 24.3965 7.69401 24.4636 7.61941 24.547C7.5448 24.6304 7.4883 24.7284 7.45346 24.8348C7.41863 24.9412 7.40621 25.0536 7.417 25.165C7.44711 25.6381 7.56122 26.102 7.754 26.535C6.11265 26.6962 4.56829 27.387 3.354 28.503C2.98507 28.1696 2.69408 27.7591 2.50172 27.3006C2.30936 26.8421 2.22035 26.3468 2.241 25.85ZM3.7 33.733C2.348 32.288 4.21 30.033 5.478 29.233C6.13512 28.8174 6.87189 28.5438 7.64101 28.4298C8.41012 28.3158 9.19458 28.3639 9.94401 28.571C9.94797 28.7547 10.0185 28.9306 10.1425 29.0662C10.2664 29.2018 10.4354 29.2877 10.618 29.308C11.204 29.3974 11.7521 29.6529 12.1973 30.0442C12.6425 30.4355 12.9662 30.9463 13.13 31.516C13.1851 31.714 13.3093 31.8857 13.48 32C13.1335 32.7367 13.0366 33.5663 13.204 34.363C13.0946 34.3603 12.9857 34.3782 12.883 34.416C12.1742 34.6919 11.4225 34.8412 10.662 34.857C10.5622 34.2687 10.2732 33.7291 9.83873 33.3201C9.40429 32.9111 8.84822 32.6551 8.255 32.591C6.6 32.348 5.245 33.48 3.7 33.733ZM6.8 39.358L6.794 39.346C6.73816 39.1786 6.62277 39.0375 6.46976 38.9496C6.31675 38.8616 6.13677 38.833 5.964 38.869C5.164 38.192 4.569 36.936 5.332 36.052C5.44105 35.9303 5.51524 35.7815 5.54674 35.6211C5.57825 35.4608 5.5659 35.2949 5.511 35.141C5.539 35.13 5.566 35.122 5.594 35.11C6.226 34.85 8.719 33.622 8.835 35.183C8.85046 35.39 8.9362 35.5855 9.078 35.737C9.07507 35.9828 9.16604 36.2205 9.33237 36.4015C9.4987 36.5825 9.72783 36.6932 9.973 36.711C11.1308 36.8039 12.2946 36.6362 13.379 36.22C13.5733 36.1437 13.7366 36.0046 13.843 35.825C15.604 38.565 19.381 39.525 22.443 39.031C22.5899 39.0088 22.7281 38.9473 22.843 38.853C22.9033 38.9466 22.9815 39.0272 23.0732 39.0903C23.1648 39.1535 23.2681 39.1978 23.377 39.2208C23.4859 39.2437 23.5982 39.2449 23.7076 39.2242C23.8169 39.2034 23.9211 39.1612 24.014 39.1C24.5407 38.7648 25.1526 38.5878 25.7769 38.5901C26.4012 38.5924 27.0118 38.7739 27.536 39.113C27.6325 39.1765 27.7411 39.2196 27.8549 39.2396C27.9687 39.2596 28.0854 39.2561 28.1978 39.2293C28.3102 39.2025 28.4159 39.153 28.5085 39.0838C28.6011 39.0146 28.6785 38.9272 28.736 38.827C28.8587 38.7556 28.963 38.6565 29.0404 38.5375C29.1179 38.4186 29.1664 38.2831 29.182 38.142C29.9677 39.0779 31.0564 39.7092 32.259 39.926C32.751 42.169 34.752 42.863 36.973 42.836C39.0659 42.6517 41.1479 42.3603 43.211 41.963C46.4673 41.5998 49.7573 41.667 52.996 42.163C52.9997 42.1967 53.0057 42.2301 53.014 42.263C53.1101 42.5569 53.146 42.8672 53.1194 43.1753C53.0929 43.4834 53.0045 43.783 52.8595 44.0561C52.7145 44.3293 52.5159 44.5704 52.2757 44.765C52.0354 44.9597 51.7583 45.1039 51.461 45.189C50.3132 45.5329 49.0886 45.5238 47.946 45.163C47.9103 45.0246 47.8439 44.896 47.7516 44.7869C47.6594 44.6777 47.5437 44.5907 47.4132 44.5324C47.2827 44.474 47.1408 44.4459 46.9979 44.45C46.855 44.4541 46.7149 44.4903 46.588 44.556C45.4303 45.1694 44.1279 45.4574 42.8195 45.3893C41.5111 45.3211 40.2457 44.8994 39.158 44.169C39.0468 44.0896 38.9174 44.0397 38.7817 44.0238C38.646 44.0078 38.5085 44.0265 38.382 44.078C38.2535 44.0141 38.1111 43.9834 37.9677 43.9886C37.8243 43.9939 37.6845 44.0349 37.561 44.108C36.0435 44.9676 34.3233 45.4047 32.5795 45.3737C30.8357 45.3428 29.1321 44.8449 27.646 43.932C27.636 43.926 27.626 43.927 27.616 43.921V43.453C27.6049 43.2117 27.5012 42.984 27.3265 42.8172C27.1518 42.6504 26.9195 42.5573 26.678 42.5573C26.4365 42.5573 26.2042 42.6504 26.0295 42.8172C25.8548 42.984 25.7511 43.2117 25.74 43.453V44.653C24.7616 44.5214 23.8265 44.1667 23.0069 43.6164C22.1873 43.0661 21.5052 42.3348 21.013 41.479C20.8836 41.2724 20.6789 41.1242 20.4421 41.066C20.2054 41.0077 19.9553 41.0439 19.7448 41.1669C19.5343 41.2899 19.3799 41.49 19.3145 41.7249C19.249 41.9597 19.2775 42.2108 19.394 42.425C19.504 42.614 19.634 42.786 19.757 42.963C18.7499 42.7676 17.8104 42.3149 17.03 41.6491C16.2495 40.9832 15.6546 40.1268 15.303 39.163C14.903 38.035 13.087 38.521 13.495 39.663C13.6196 40.0058 13.767 40.3398 13.936 40.663C13.1172 40.5687 12.3389 40.2555 11.6829 39.7565C11.0269 39.2574 10.5174 38.591 10.208 37.827C9.734 36.721 8.118 37.675 8.589 38.773C8.74538 39.1288 8.93629 39.4685 9.15901 39.787C8.35381 39.7812 7.55569 39.6361 6.8 39.358ZM55.025 42.567C55.0572 42.5268 55.0851 42.4832 55.108 42.437L55.882 42.573C56.3482 44.0217 56.3988 45.572 56.028 47.048C56.021 47.048 56.016 47.048 56.009 47.048C47.075 49.882 37.933 49.657 28.788 48.003C24.815 47.284 20.888 46.331 16.988 45.293C13.973 44.493 10.503 43.802 8.30301 41.586C9.03001 41.663 9.763 41.686 10.457 41.693C10.6321 41.6949 10.8036 41.6436 10.949 41.546C12.0032 42.2248 13.2312 42.5843 14.485 42.581C14.5986 42.5828 14.7113 42.5619 14.8167 42.5197C14.9221 42.4775 15.0181 42.4147 15.099 42.335C16.4555 43.845 18.3404 44.7759 20.364 44.935C20.5214 44.957 20.6818 44.9286 20.8221 44.8538C20.9623 44.7791 21.0754 44.6619 21.145 44.519C22.6738 45.8642 24.6416 46.6043 26.678 46.6C26.8692 46.6068 27.0571 46.5494 27.2117 46.4368C27.3664 46.3242 27.4788 46.163 27.531 45.979C29.2036 46.8228 31.0552 47.2501 32.9284 47.2247C34.8016 47.1993 36.6409 46.7219 38.29 45.833C39.4753 46.591 40.8204 47.0635 42.2194 47.2135C43.6183 47.3634 45.033 47.1866 46.352 46.697C48.574 47.257 51.172 47.797 53.191 46.374C53.8105 45.9628 54.3076 45.3922 54.6301 44.7222C54.9525 44.0522 55.0882 43.3077 55.023 42.567H55.025ZM111.941 50.746C102.549 51.705 92 47.02 83.092 44.5C73.35 41.7427 63.6167 38.9547 53.892 36.136C53.7846 36.1025 53.6715 36.0909 53.5595 36.1019C53.4475 36.1129 53.3389 36.1463 53.24 36.2C53.2652 35.2606 53.0925 34.3264 52.7331 33.4581C52.3737 32.5898 51.8357 31.8068 51.154 31.16C51.305 31.103 51.508 31.06 51.701 31.007C51.7212 31.0778 51.7519 31.1452 51.792 31.207C51.801 31.222 51.811 31.236 51.821 31.251C51.8723 31.3248 51.9343 31.3906 52.005 31.446C52.5758 31.9117 53.2397 32.2498 53.9521 32.4375C54.6645 32.6251 55.4088 32.658 56.135 32.534C56.2074 32.7032 56.3281 32.8472 56.482 32.948C57.0493 33.3288 57.694 33.5787 58.3697 33.6799C59.0454 33.7811 59.7351 33.7309 60.389 33.533C60.4672 33.6876 60.5907 33.8146 60.743 33.897C61.8892 34.5166 63.192 34.7864 64.49 34.673C65.1309 35.2662 65.9296 35.6615 66.79 35.811C66.8624 35.9506 66.9729 36.0669 67.1086 36.1463C67.2444 36.2258 67.3998 36.2652 67.557 36.26C67.7333 36.2665 67.9072 36.2177 68.0543 36.1203C68.2013 36.0229 68.3142 35.8819 68.377 35.717C68.426 35.717 68.461 35.707 68.516 35.705C70.682 35.65 69.709 35.923 70.893 36.097C71.37 36.167 71.963 36.175 72.416 36.264C73.2887 36.5235 74.1111 36.9292 74.848 37.464C75.1954 37.7195 75.5941 37.8965 76.0166 37.9828C76.4391 38.0692 76.8752 38.0627 77.295 37.964C78.648 39.713 79.92 39.319 81.84 39.925C82.577 40.159 83.14 40.751 83.904 40.925C85.104 41.199 86.018 40.385 87.104 40.48C87.855 40.546 88.522 41.334 89.212 41.68C90.1783 42.1188 91.2277 42.3445 92.289 42.342C94.459 42.454 95.826 43.697 98.067 43.275C98.078 43.275 98.084 43.265 98.095 43.263C98.3588 43.4238 98.6449 43.5447 98.944 43.622C99.9 43.857 100.766 43.411 101.679 43.507C102.65 43.607 103.268 44.984 104.219 45.333C104.467 45.4227 104.728 45.469 104.991 45.47C105.131 45.5956 105.309 45.6712 105.497 45.685C105.483 45.7851 105.488 45.8871 105.514 45.985C105.54 46.0829 105.584 46.1747 105.646 46.2551C105.707 46.3354 105.784 46.4027 105.872 46.453C105.96 46.5033 106.057 46.5356 106.157 46.548C108.189 46.9236 110.251 47.1121 112.317 47.111C112.176 48.321 112.05 49.5327 111.939 50.746H111.941ZM113.578 40.727C113.622 40.8437 113.639 40.969 113.628 41.0934C113.617 41.2177 113.577 41.3378 113.513 41.4446C113.448 41.5514 113.36 41.6421 113.255 41.7097C113.15 41.7774 113.031 41.8202 112.907 41.835C112.793 41.8443 112.683 41.8796 112.585 41.9381C112.487 41.9966 112.404 42.0768 112.342 42.1725C112.28 42.2681 112.24 42.3768 112.227 42.4901C112.213 42.6034 112.225 42.7183 112.263 42.826C112.141 42.8772 112.034 42.9596 111.954 43.0648C111.873 43.1701 111.821 43.2946 111.804 43.426C111.551 44.0927 111.26 44.168 110.93 43.652C110.754 43.4772 110.515 43.3792 110.267 43.3792C110.019 43.3792 109.78 43.4772 109.604 43.652C109.471 43.8244 109.3 43.9638 109.104 44.0593C108.908 44.1548 108.693 44.2039 108.476 44.2028C108.258 44.2016 108.043 44.1502 107.848 44.0526C107.654 43.955 107.484 43.8138 107.353 43.64C107.234 43.4794 107.057 43.372 106.86 43.3411C106.663 43.3102 106.461 43.3583 106.299 43.475C106.111 43.3793 105.9 43.3385 105.69 43.3572C105.48 43.376 105.28 43.4535 105.112 43.581C104.952 43.715 102.772 41.788 102.262 41.681C101.155 41.455 99.28 42.509 98.653 41.159C98.253 40.29 97.163 40.717 96.98 41.473C95.928 41.351 95.153 40.415 94.163 40.185C91.989 39.685 90.082 40.585 88.301 38.511C88.153 38.367 87.9623 38.2748 87.7575 38.2483C87.5527 38.2218 87.3448 38.2624 87.165 38.364C85.065 39.414 84.831 38.702 82.555 37.953C81.386 37.568 79.649 38.047 78.79 36.859C78.6923 36.7187 78.5584 36.6075 78.4026 36.5371C78.2468 36.4667 78.0749 36.4397 77.905 36.459C77.8019 36.305 77.6516 36.1887 77.4766 36.1275C77.3017 36.0664 77.1116 36.0638 76.935 36.12C76.097 36.349 74.956 34.914 74.175 34.601C73.3893 34.422 72.5903 34.307 71.786 34.257C71.1138 34.0043 70.423 33.8037 69.72 33.657C68.273 33.552 67.288 34.595 65.759 33.3C65.3911 33.0914 64.9988 32.9292 64.591 32.817C63.5913 32.9594 62.5725 32.7697 61.691 32.277C61.5178 32.1822 61.3176 32.1487 61.123 32.182C61.0904 32.0769 61.0364 31.9797 60.9645 31.8965C60.8925 31.8132 60.8042 31.7457 60.705 31.6981C60.6058 31.6505 60.4979 31.6239 60.3879 31.6199C60.278 31.616 60.1684 31.6347 60.066 31.675C59.368 31.9319 58.5965 31.9013 57.921 31.59C57.9402 31.4119 57.9127 31.232 57.8413 31.0677C57.7698 30.9035 57.6569 30.7607 57.5135 30.6534C57.3701 30.546 57.2013 30.4778 57.0236 30.4555C56.8459 30.4332 56.6655 30.4575 56.5 30.526C55.9829 30.744 55.4175 30.8219 54.8608 30.7516C54.3041 30.6814 53.7757 30.4656 53.329 30.126C53.2671 30.0774 53.2 30.0359 53.129 30.002C53.109 29.993 53.089 29.987 53.069 29.979C53.0186 29.9596 52.9668 29.9442 52.914 29.933L52.854 29.923C52.7997 29.9154 52.7448 29.9127 52.69 29.915H52.646C52.5783 29.9205 52.5113 29.9325 52.446 29.951C52.423 29.7854 52.4163 29.6179 52.426 29.451C52.5527 28.1402 52.509 26.8186 52.296 25.519C53.0144 25.8811 53.7973 26.0974 54.5997 26.1555C55.4021 26.2135 56.208 26.112 56.971 25.857C57.0896 25.8168 57.1993 25.754 57.294 25.672C57.9997 26.6495 58.919 27.4532 59.982 28.022C61.1432 28.6447 62.4777 28.8661 63.7778 28.652C65.0779 28.4379 66.2708 27.8002 67.171 26.838C67.3523 27.5101 67.6771 28.1349 68.123 28.6694C68.5689 29.204 69.1253 29.6355 69.754 29.9344C70.3827 30.2333 71.0686 30.3924 71.7647 30.4008C72.4607 30.4092 73.1503 30.2667 73.786 29.983L73.234 30.983C72.651 32.04 74.269 32.983 74.854 31.929L75.525 30.713C76.116 31.2795 76.8146 31.7219 77.5794 32.0139C78.3442 32.3059 79.1598 32.4416 79.978 32.413C80.0041 32.5322 80.0547 32.6446 80.1267 32.7431C80.1987 32.8416 80.2904 32.924 80.396 32.985C81.8675 33.8796 83.5833 34.2883 85.3 34.153C85.2185 34.3224 85.1006 34.4718 84.9547 34.5904C84.8088 34.7089 84.6385 34.7938 84.456 34.839C84.2189 34.9077 84.0185 35.067 83.8981 35.2824C83.7777 35.4979 83.7471 35.7521 83.8128 35.99C83.8786 36.2279 84.0355 36.4303 84.2495 36.5532C84.4635 36.6762 84.7173 36.7099 84.956 36.647C85.5256 36.496 86.0422 36.19 86.4483 35.7629C86.8543 35.3359 87.1339 34.8045 87.256 34.228C87.2832 34.0752 87.2771 33.9183 87.238 33.768C87.8783 33.5485 88.4879 33.2481 89.052 32.874C89.9004 33.9628 91.1034 34.72 92.452 35.014C93.179 35.1365 93.926 35.0359 94.5947 34.7255C95.2634 34.415 95.8224 33.9094 96.198 33.275C96.8181 34.388 97.809 35.2483 98.998 35.706C100.177 36.1542 101.483 36.1399 102.652 35.666C104.607 37.6452 107.223 38.8325 110 39C110.564 39.052 111.132 39.021 111.687 38.908C111.722 39.0112 111.777 39.1061 111.85 39.1866C111.924 39.2672 112.013 39.3317 112.112 39.376C112.436 39.4888 112.733 39.667 112.984 39.8994C113.236 40.1318 113.438 40.4135 113.576 40.727H113.578ZM105.523 32.297C106.303 31.735 108.573 32.261 109.136 32.397C110.459 32.6537 111.652 33.3633 112.509 34.404C112.581 34.5057 112.678 34.588 112.789 34.6438C112.901 34.6996 113.024 34.7271 113.149 34.724C112.749 37.367 110.322 37.331 108.026 36.647C106.615 36.3408 105.309 35.6682 104.241 34.697C104.75 34.2569 105.178 33.7313 105.506 33.144C105.581 33.0166 105.622 32.8719 105.625 32.724C105.627 32.5761 105.592 32.43 105.521 32.3L105.523 32.297ZM118.044 33.942C117.926 34.2236 117.753 34.4783 117.533 34.6906C117.314 34.9028 117.054 35.0682 116.769 35.1767C116.483 35.2851 116.179 35.3343 115.874 35.3213C115.569 35.3083 115.27 35.2333 114.995 35.101H114.979C115.03 34.8009 115.063 34.498 115.079 34.194C115.087 34.0566 115.062 33.9193 115.006 33.7938C114.949 33.6682 114.863 33.558 114.755 33.4727C114.648 33.3873 114.521 33.3292 114.385 33.3033C114.25 33.2775 114.111 33.2845 113.979 33.324C113.944 33.2359 113.896 33.1533 113.837 33.079C112.154 30.979 104.474 27.97 103.469 32.155C103.422 32.3489 103.442 32.5531 103.526 32.734C103.232 33.1454 102.848 33.4847 102.404 33.7264C101.959 33.9681 101.466 34.1058 100.961 34.1293C100.455 34.1528 99.9514 34.0614 99.4866 33.862C99.0217 33.6626 98.6082 33.3603 98.277 32.978C97.7576 32.3027 97.436 31.4964 97.348 30.649C97.395 30.471 97.439 30.294 97.477 30.119C97.5247 29.9217 97.5049 29.7142 97.4208 29.5295C97.3367 29.3448 97.1931 29.1936 97.013 29.1C96.9152 28.7448 96.7691 28.4046 96.579 28.089C95.939 27.07 94.316 28.01 94.96 29.036C95.2064 29.4534 95.3757 29.9117 95.46 30.389C94.81 32.429 93.321 34.348 91.106 32.256C89.6838 30.6652 88.4217 28.9382 87.338 27.1C86.652 26.118 85.025 27.054 85.719 28.046C86.381 28.995 87.086 30.227 87.898 31.395C87.0062 31.9401 85.9912 32.2513 84.947 32.2997C83.9029 32.3481 82.8635 32.1322 81.925 31.672C81.9764 31.512 81.9847 31.3413 81.9489 31.1772C81.9132 31.013 81.8347 30.8612 81.7215 30.7371C81.6082 30.6129 81.4642 30.5209 81.304 30.4704C81.1437 30.4198 80.973 30.4124 80.809 30.449C79.8839 30.6952 78.9007 30.5935 78.0456 30.1632C77.1905 29.7328 76.523 29.0038 76.1695 28.1141C75.8161 27.2244 75.8014 26.236 76.128 25.3362C76.4547 24.4364 77.1002 23.6877 77.942 23.232C78.0902 23.1535 78.2113 23.032 78.2894 22.8836C78.3676 22.7352 78.3991 22.5667 78.38 22.4C79.074 22.548 79.77 22.69 80.463 22.841C80.3712 23.0453 80.3559 23.2758 80.42 23.4905C80.484 23.7051 80.6232 23.8895 80.812 24.01C81.3966 24.4042 81.8586 24.9548 82.1454 25.5989C82.4322 26.243 82.5322 26.9548 82.434 27.653C82.303 28.853 84.179 28.841 84.309 27.653C84.3885 26.8871 84.3063 26.1131 84.0677 25.381C83.8292 24.6489 83.4395 23.975 82.924 23.403C87.999 24.539 93.058 25.749 98.087 27.071C103.872 28.591 109.66 30.781 115.657 31.192C115.798 31.2035 115.94 31.1809 116.071 31.126C116.134 31.1641 116.201 31.194 116.271 31.215C116.571 31.2681 116.857 31.3824 117.112 31.5508C117.366 31.7191 117.583 31.938 117.749 32.1937C117.915 32.4495 118.027 32.7367 118.077 33.0374C118.128 33.3382 118.116 33.6461 118.042 33.942H118.044Z" fill="white" fill-opacity="0.03"/>
</svg>
