<?xml version="1.0" encoding="iso-8859-1"?>
<!-- Generator: Adobe Illustrator 19.0.0, SVG Export Plug-In . SVG Version: 6.00 Build 0)  -->
<svg version="1.1" id="Layer_1" xmlns="http://www.w3.org/2000/svg" xmlns:xlink="http://www.w3.org/1999/xlink" x="0px" y="0px"
	 viewBox="0 0 511.999 511.999" style="enable-background:new 0 0 511.999 511.999;" xml:space="preserve">
<g>
	<polygon style="fill:#BD9F79;" points="389.98,433.021 383.999,503.83 127.999,503.83 122.019,433.021 	"/>
	<polygon style="fill:#BD9F79;" points="416.68,117.106 410.7,187.915 101.299,187.915 95.319,117.106 	"/>
</g>
<path style="fill:#F9EBDB;" d="M410.7,187.915l-20.72,245.106H122.019l-20.72-245.106H410.7z M311.393,365.862
	c21.079-21.079,13.366-62.965-17.223-93.565c-30.589-30.589-72.486-38.302-93.565-17.223s-13.366,62.965,17.223,93.565
	C248.428,379.229,290.314,386.941,311.393,365.862z"/>
<path style="fill:#B75548;" d="M200.605,255.074l110.788,110.788c-21.079,21.079-62.965,13.366-93.565-17.223
	C187.239,318.039,179.526,276.153,200.605,255.074z"/>
<path style="fill:#8E4238;" d="M294.171,272.297c30.589,30.6,38.302,72.486,17.223,93.565L200.605,255.074
	C221.685,233.995,263.581,241.708,294.171,272.297z"/>
<polygon style="fill:#E8D6BD;" points="383.999,8.17 400.34,73.532 111.659,73.532 127.999,8.17 "/>
<rect x="78.978" y="73.532" style="fill:#F9EBDB;" width="354.043" height="43.574"/>
<g>
	<path style="fill:#700D00;" d="M280.013,385.913c14.956,0,27.797-4.93,37.134-14.255c12.182-12.207,16.797-30.115,13.046-50.49
		c-3.55-19.284-14.291-38.691-30.247-54.646c-19.724-19.724-45.13-31.5-67.961-31.5c-14.968,0-27.816,4.936-37.156,14.276
		c-12.152,12.153-16.776,30.076-13.023,50.47c3.55,19.284,14.292,38.691,30.247,54.646
		C231.777,374.138,257.184,385.913,280.013,385.913z M201.426,267.448l21.288,21.288c1.596,1.596,3.686,2.393,5.778,2.393
		c2.09,0,4.182-0.797,5.778-2.393c3.191-3.191,3.191-8.364,0-11.554l-21.294-21.294c5.336-2.978,11.775-4.525,19.01-4.525
		c18.592,0,39.679,9.986,56.405,26.713c13.638,13.637,22.775,29.991,25.732,46.049c2.1,11.408,0.828,21.538-3.548,29.362
		l-53.197-53.197c-3.191-3.191-8.363-3.192-11.555,0c-3.191,3.191-3.191,8.364,0,11.554l53.202,53.202
		c-5.336,2.978-11.776,4.525-19.012,4.525c-18.592,0-39.679-9.986-56.405-26.713c-13.638-13.637-22.775-29.99-25.731-46.049
		C195.777,285.403,197.049,275.272,201.426,267.448z"/>
	<path style="fill:#700D00;" d="M433.021,65.362h-26.303L391.926,6.189C391.016,2.551,387.748,0,383.999,0h-256
		c-3.748,0-7.017,2.551-7.926,6.189l-14.792,59.173H78.978c-4.513,0-8.17,3.658-8.17,8.17v43.574c0,4.512,3.657,8.17,8.17,8.17
		h8.831l14.332,169.597c0.361,4.263,3.93,7.483,8.132,7.483c0.231,0,0.464-0.01,0.698-0.029c4.496-0.38,7.833-4.332,7.453-8.828
		l-8.232-97.414h291.614l-19.333,228.766h-252.95l-8.348-98.789c-0.381-4.497-4.34-7.846-8.829-7.453
		c-4.496,0.38-7.833,4.332-7.453,8.828l14.963,177.079c0.357,4.231,3.896,7.483,8.142,7.483h256c4.245,0,7.785-3.252,8.142-7.483
		l32.048-379.24h8.831c4.513,0,8.17-3.658,8.17-8.17V73.532C441.191,69.02,437.534,65.362,433.021,65.362z M135.508,495.66
		l-4.603-54.468h250.188l-4.603,54.468H135.508z M403.187,179.745H108.811l-4.603-54.468H407.79L403.187,179.745z M424.85,108.936
		h-8.313c-0.007,0-329.389,0-329.389,0V81.702h24.341c0.115,0.002,0.235,0.002,0.353,0h255.817c4.513,0,8.17-3.658,8.17-8.17
		c0-4.512-3.657-8.17-8.17-8.17H122.122l12.255-49.021H377.62l14.792,59.173c0.911,3.637,4.179,6.189,7.927,6.189h24.511V108.936z"
		/>
</g>
<g>
</g>
<g>
</g>
<g>
</g>
<g>
</g>
<g>
</g>
<g>
</g>
<g>
</g>
<g>
</g>
<g>
</g>
<g>
</g>
<g>
</g>
<g>
</g>
<g>
</g>
<g>
</g>
<g>
</g>
</svg>
