<?xml version="1.0" encoding="iso-8859-1"?>
<!-- Generator: Adobe Illustrator 19.0.0, SVG Export Plug-In . SVG Version: 6.00 Build 0)  -->
<svg xmlns="http://www.w3.org/2000/svg" xmlns:xlink="http://www.w3.org/1999/xlink" version="1.1" id="Capa_1" x="0px" y="0px" viewBox="0 0 470 470" style="enable-background:new 0 0 470 470;" xml:space="preserve" width="512" height="512">
<g>
	<path style="fill:#FFFFFF;" d="M147.368,309.008l-50,0.094l-17.19-17.094c-9.763-9.764-25.592-9.763-35.355,0   c-9.763,9.763-9.763,25.592,0,35.355l11.643,11.636l90.902,20.009V309.008z"/>
	<path style="fill:#FD7555;" d="M245.37,191.01c-64.9,0-118,53.1-118,118v30l187.13,20V191L245.37,191.01z"/>
	<path style="fill:#FDFA7B;" d="M314.5,191l-30,168.01L428.61,339c2.54-9.59,3.89-19.64,3.89-30C432.5,244.1,379.4,191,314.5,191z"/>
	<path style="fill:#FEFDCA;" d="M196.5,309c0,10.36,1.35,20.41,3.89,30c0,0.01,114.11,20.01,114.11,20.01V191   C249.6,191,196.5,244.1,196.5,309z"/>
	<path style="fill:#FE9F88;" d="M314.5,221v138.01L397.23,339c3.41-9.37,5.27-19.47,5.27-30C402.5,260.48,363.02,221,314.5,221z"/>
	<path style="fill:#FEC8BB;" d="M372.5,309c0,10.53-1.23,20.63-3.47,30l-54.53,20.004l-82.73-19.994   c-3.41-9.38-5.27-19.48-5.27-30.01c0-48.52,39.48-88,88-88C346.48,221,372.5,260.48,372.5,309z"/>
	<path style="fill:#FFFFFF;" d="M314.5,279c-16.542,0-30,13.458-30,30c0,16.542,13.458,30,30,30c16.542,0,30-13.458,30-30   C344.5,292.457,331.042,279,314.5,279z"/>
	<path style="fill:#FDCE6E;" d="M407.5,354l-51.667,65h30c16.5,0,34.269-12.807,39.487-28.46L437.5,354H407.5z"/>
	<path style="fill:#FDFA7B;" d="M32.5,354l12.18,36.54C49.898,406.193,67.667,419,84.167,419h271.667   c16.5,0,34.269-12.807,39.487-28.46L407.5,354H32.5z"/>
	<path style="fill:#FEFDCA;" d="M447.5,339h-425c-8.284,0-15,6.716-15,15s6.716,15,15,15h425c8.284,0,15-6.716,15-15   S455.784,339,447.5,339z"/>
	<path d="M447.5,331.5h-9.551c1.353-7.403,2.051-14.935,2.051-22.5c0-69.199-56.299-125.497-125.5-125.497h-69.133   c-66.69,0-121.389,52.292-125.271,118.028l-19.644,0.061l-14.971-14.887c-6.139-6.139-14.3-9.52-22.981-9.52   c-8.682,0-16.843,3.381-22.981,9.52C33.381,292.843,30,301.004,30,309.685c0,8.142,2.973,15.826,8.408,21.814H22.5   C10.094,331.5,0,341.593,0,354s10.094,22.5,22.5,22.5h9.594l5.47,16.411c6.278,18.835,26.749,33.589,46.603,33.589h301.666   c19.854,0,40.324-14.754,46.603-33.589l5.47-16.411h9.594c12.406,0,22.5-10.093,22.5-22.5S459.906,331.5,447.5,331.5z M425,309   c0,7.581-0.792,15.124-2.333,22.5H407.3c1.78-7.334,2.7-14.863,2.7-22.5c0-52.659-42.841-95.5-95.5-95.5   c-19.818,0-38.842,6.044-55.015,17.478c-3.382,2.391-4.186,7.072-1.794,10.454c2.391,3.382,7.069,4.187,10.454,1.794   c13.626-9.634,29.655-14.726,46.354-14.726c44.388,0,80.5,36.112,80.5,80.5c0,7.675-1.093,15.218-3.218,22.5H237.218   C235.093,324.218,234,316.675,234,309c0-16.7,5.092-32.729,14.726-46.355c2.392-3.382,1.588-8.062-1.794-10.454   c-3.385-2.392-8.062-1.588-10.454,1.794C225.044,270.157,219,289.181,219,309c0,7.637,0.92,15.166,2.7,22.5h-15.367   C204.792,324.124,204,316.581,204,309c0-60.928,49.57-110.497,110.5-110.497S425,248.072,425,309z M245.367,198.503h9.681   C215.756,219.727,189,261.296,189,309c0,7.565,0.699,15.097,2.051,22.5h-56.184v-22.492   C134.867,248.075,184.438,198.503,245.367,198.503z M50.125,322.06C46.82,318.755,45,314.36,45,309.685   c0-4.674,1.82-9.069,5.126-12.374c3.305-3.305,7.699-5.126,12.374-5.126s9.069,1.82,12.39,5.141l17.189,17.094   c1.41,1.404,3.32,2.217,5.312,2.182l22.477-0.07V331.5H59.571L50.125,322.06z M447.5,361.5h-14.844c-0.024,0-335.156,0-335.156,0   c-4.143,0-7.5,3.358-7.5,7.5s3.357,7.5,7.5,7.5h324.594l-3.889,11.668c-4.216,12.647-19.04,23.332-32.372,23.332H84.167   c-13.332,0-28.156-10.685-32.372-23.332L47.906,376.5H67.5c4.143,0,7.5-3.358,7.5-7.5s-3.357-7.5-7.5-7.5H37.37   c-0.027,0-14.87,0-14.87,0c-4.136,0-7.5-3.364-7.5-7.5s3.364-7.5,7.5-7.5h425c4.136,0,7.5,3.364,7.5,7.5S451.636,361.5,447.5,361.5   z"/>
	<path d="M284.5,316.5c4.143,0,7.5-3.358,7.5-7.5c0-12.407,10.094-22.5,22.5-22.5S337,296.593,337,309c0,4.142,3.357,7.5,7.5,7.5   s7.5-3.358,7.5-7.5c0-20.678-16.822-37.5-37.5-37.5S277,288.322,277,309C277,313.142,280.357,316.5,284.5,316.5z"/>
	<path style="fill:#FEC8BB;" d="M210.001,133.501c0-11.837,3.051-17.432,6.584-23.909c3.944-7.232,8.416-15.429,8.416-31.091   c0-15.631-4.454-23.825-8.394-31.046c-1.265-2.354-3.75-3.955-6.609-3.955c-4.142,0-7.5,3.358-7.5,7.5   c0,1.307,0.336,2.535,0.924,3.605c3.531,6.473,6.579,12.066,6.579,23.896c0,11.837-3.051,17.432-6.584,23.909   c-3.944,7.232-8.416,15.429-8.416,31.091c0,15.662,4.471,23.858,8.415,31.09c1.361,2.496,3.935,3.91,6.591,3.91   c1.213,0,2.444-0.295,3.584-0.917c3.637-1.983,4.977-6.539,2.993-10.175C213.052,150.931,210.001,145.338,210.001,133.501z"/>
	<path style="fill:#FEC8BB;" d="M260.001,133.501c0-11.837,3.051-17.432,6.584-23.909c3.944-7.232,8.416-15.429,8.416-31.091   c0-15.631-4.454-23.825-8.394-31.046c-1.265-2.354-3.75-3.955-6.609-3.955c-4.142,0-7.5,3.358-7.5,7.5   c0,1.307,0.336,2.535,0.924,3.605c3.531,6.473,6.579,12.066,6.579,23.896c0,11.837-3.051,17.432-6.584,23.909   c-3.944,7.232-8.416,15.429-8.416,31.091c0,15.662,4.471,23.858,8.415,31.09c1.361,2.496,3.935,3.91,6.591,3.91   c1.213,0,2.444-0.295,3.584-0.917c3.637-1.983,4.977-6.539,2.993-10.175C263.052,150.931,260.001,145.338,260.001,133.501z"/>
</g>















</svg>
