<svg width="392" height="363" viewBox="0 0 392 363" fill="none" xmlns="http://www.w3.org/2000/svg">
<g clip-path="url(#clip0)">
<path d="M150.147 212.508H57.476L56.4936 182.998C56.4511 181.718 56.6767 180.445 57.155 179.264C57.6333 178.084 58.3528 177.025 59.264 176.16C60.1753 175.296 61.2566 174.646 62.4336 174.255C63.6106 173.865 64.8553 173.743 66.0821 173.899L120.011 180.738H120.017C128.012 180.761 135.673 184.064 141.32 189.926C146.968 195.787 150.142 203.728 150.147 212.008V212.508Z" fill="#FF514E"/>
<path d="M337.216 363.329C367.211 363.329 391.527 338.145 391.527 307.079C391.527 276.013 367.211 250.829 337.216 250.829C307.222 250.829 282.906 276.013 282.906 307.079C282.906 338.145 307.222 363.329 337.216 363.329Z" fill="#3F3D56"/>
<path d="M63.0094 363.329C97.5368 363.329 125.527 334.339 125.527 298.579C125.527 262.819 97.5368 233.829 63.0094 233.829C28.4821 233.829 0.492188 262.819 0.492188 298.579C0.492188 334.339 28.4821 363.329 63.0094 363.329Z" fill="#3F3D56"/>
<path d="M108.844 107.829H44.2098C43.3502 107.829 42.499 108.004 41.7048 108.345C40.9106 108.685 40.189 109.184 39.5811 109.814C38.9733 110.444 38.4912 111.191 38.1624 112.013C37.8335 112.836 37.6644 113.718 37.6646 114.608V181.55C37.6644 182.44 37.8335 183.322 38.1624 184.145C38.4912 184.967 38.9733 185.715 39.5811 186.344C40.189 186.974 40.9106 187.473 41.7048 187.813C42.499 188.154 43.3502 188.329 44.2098 188.329H108.844C109.703 188.329 110.554 188.154 111.349 187.814C112.143 187.473 112.864 186.974 113.472 186.344C114.08 185.715 114.562 184.967 114.891 184.145C115.22 183.322 115.389 182.44 115.389 181.55V114.608C115.389 113.718 115.22 112.836 114.891 112.013C114.562 111.191 114.08 110.443 113.472 109.814C112.864 109.184 112.143 108.685 111.349 108.345C110.554 108.004 109.703 107.829 108.844 107.829V107.829Z" fill="#CCCCCC"/>
<path d="M94.2871 157.886L63.7706 164.041C61.9605 164.404 60.0853 164.008 58.5564 162.941C57.0275 161.873 55.9698 160.222 55.6153 158.348L53.2695 145.871C52.9191 143.997 53.3011 142.054 54.3315 140.471C55.362 138.887 56.9569 137.792 58.7663 137.425L89.2827 131.27C91.0929 130.907 92.9681 131.303 94.497 132.37C96.0259 133.437 97.0836 135.089 97.4381 136.963L99.7838 149.439C100.134 151.314 99.7523 153.256 98.7218 154.84C97.6913 156.423 96.0965 157.519 94.2871 157.886Z" fill="#3F3D56"/>
<path d="M88.1817 143.146L64.8928 147.844C64.4669 147.929 64.0254 147.837 63.6655 147.585C63.3056 147.334 63.0569 146.945 62.9739 146.504C62.8909 146.063 62.9806 145.606 63.2232 145.233C63.4657 144.86 63.8413 144.602 64.2673 144.517L87.5561 139.819C87.9821 139.733 88.4236 139.826 88.7835 140.078C89.1433 140.329 89.3921 140.718 89.475 141.159C89.558 141.6 89.4683 142.057 89.2258 142.43C88.9832 142.803 88.6076 143.06 88.1817 143.146V143.146Z" fill="white"/>
<path d="M83.6549 150.102L71.609 152.532C71.183 152.618 70.7415 152.525 70.3816 152.274C70.0218 152.023 69.773 151.634 69.6901 151.192C69.6071 150.751 69.6968 150.294 69.9393 149.921C70.1819 149.549 70.5575 149.291 70.9834 149.205L83.0294 146.775C83.2403 146.733 83.4572 146.734 83.6678 146.778C83.8784 146.822 84.0785 146.909 84.2567 147.034C84.4349 147.158 84.5877 147.318 84.7063 147.503C84.825 147.689 84.9072 147.897 84.9483 148.115C84.9894 148.333 84.9885 148.558 84.9457 148.776C84.9029 148.994 84.8191 149.202 84.699 149.386C84.5789 149.571 84.4249 149.729 84.2457 149.852C84.0666 149.975 83.8658 150.06 83.6549 150.102Z" fill="white"/>
<path d="M115.389 114.608V123.505H37.6646V114.608C37.6644 113.718 37.8335 112.836 38.1624 112.013C38.4912 111.191 38.9733 110.444 39.5811 109.814C40.189 109.184 40.9106 108.685 41.7048 108.345C42.499 108.004 43.3502 107.829 44.2098 107.829H108.844C109.703 107.829 110.554 108.004 111.349 108.345C112.143 108.685 112.864 109.184 113.472 109.814C114.08 110.444 114.562 111.191 114.891 112.013C115.22 112.836 115.389 113.718 115.389 114.608Z" fill="#B3B3B3"/>
<path d="M270.596 126.292C270.148 124.791 269.387 123.411 268.367 122.249C267.348 121.086 266.095 120.169 264.696 119.562C263.298 118.955 261.788 118.673 260.273 118.736C258.757 118.799 257.274 119.206 255.927 119.927L167.006 86.884L163.09 109.891L251.727 135.137C253.047 137.4 255.122 139.084 257.56 139.869C259.998 140.653 262.629 140.485 264.955 139.394C267.281 138.304 269.14 136.368 270.18 133.953C271.219 131.538 271.368 128.812 270.596 126.292V126.292Z" fill="#FFB8B8"/>
<path opacity="0.2" d="M270.596 126.292C270.148 124.791 269.387 123.411 268.367 122.249C267.348 121.086 266.095 120.169 264.696 119.562C263.298 118.955 261.788 118.673 260.273 118.736C258.757 118.799 257.274 119.206 255.927 119.927L167.006 86.884L163.09 109.891L251.727 135.137C253.047 137.4 255.122 139.084 257.56 139.869C259.998 140.653 262.629 140.485 264.955 139.394C267.281 138.304 269.14 136.368 270.18 133.953C271.219 131.538 271.368 128.812 270.596 126.292V126.292Z" fill="black"/>
<path d="M182.789 91.0764L174.392 113.797C174.153 114.443 173.783 115.029 173.306 115.513C172.829 115.998 172.256 116.371 171.627 116.606C170.999 116.84 170.329 116.932 169.663 116.875C168.997 116.817 168.35 116.612 167.768 116.272L147.361 104.376C144.174 103.091 141.61 100.55 140.23 97.3101C138.85 94.07 138.767 90.3954 139.998 87.0918C141.23 83.7882 143.676 81.1253 146.8 79.6867C149.925 78.2481 153.473 78.1514 156.666 79.4176L179.454 84.6523C180.106 84.8024 180.72 85.0963 181.253 85.5141C181.786 85.9319 182.225 86.4638 182.542 87.0734C182.858 87.6831 183.044 88.3562 183.087 89.047C183.13 89.7378 183.028 90.4299 182.789 91.0764V91.0764Z" fill="#FF514E"/>
<path d="M277.596 147.329L245.734 162.329L249.917 178.64C257.995 210.138 260.139 242.952 256.231 275.29V275.29L279.527 280.329L298.837 229.329L292.078 171.329L277.596 147.329Z" fill="#FF514E"/>
<path d="M340.113 222.829C319.178 222.829 302.118 238.591 301.29 258.329H378.935C378.107 238.591 361.047 222.829 340.113 222.829Z" fill="#3F3D56"/>
<path d="M323.816 226.231C322.727 137.132 273.734 145.329 273.734 145.329C273.734 145.329 274.65 173.062 275.09 173.925C306.311 235.104 254.785 306.829 189.198 293.634C187.961 293.385 186.773 293.133 185.634 292.877C177.323 291.08 169.986 286.071 165.114 278.871C160.242 271.67 158.202 262.817 159.407 254.114C165.868 200.378 133.734 201.329 133.734 201.329H86.7452L62.3434 178.583C61.4821 177.78 60.4439 177.208 59.3198 176.917C58.1956 176.626 57.0196 176.624 55.8947 176.912C54.7698 177.2 53.7302 177.77 52.8668 178.57C52.0034 179.371 51.3425 180.378 50.9419 181.504L47.8026 190.329C47.8026 190.329 1.45772 195.329 5.31979 242.329H19.6479C19.6133 243.665 19.665 245.001 19.8025 246.329L126.734 245.429C133.002 245.376 138.535 250.636 138.561 257.128C138.568 258.709 138.266 260.275 137.675 261.732C137.084 263.189 136.215 264.507 135.12 265.609C134.025 266.71 132.727 267.571 131.304 268.141C129.88 268.71 128.361 268.977 126.835 268.924L109.596 268.329C104.285 292.829 117.32 309.329 131.682 319.704C145.204 329.331 161.249 334.435 177.658 334.329H224.492C285.32 334.329 295.941 281.329 295.941 281.329C327.803 267.329 323.816 226.231 323.816 226.231Z" fill="#3F3D56"/>
<path d="M337.216 320.866C344.568 320.866 350.528 314.693 350.528 307.079C350.528 299.465 344.568 293.292 337.216 293.292C329.865 293.292 323.905 299.465 323.905 307.079C323.905 314.693 329.865 320.866 337.216 320.866Z" fill="white"/>
<path d="M63.0094 314.449C71.472 314.449 78.3323 307.344 78.3323 298.579C78.3323 289.814 71.472 282.709 63.0094 282.709C54.5468 282.709 47.6866 289.814 47.6866 298.579C47.6866 307.344 54.5468 314.449 63.0094 314.449Z" fill="white"/>
<path d="M245.824 166.761L234.36 134.512C233.763 132.831 233.491 131.045 233.56 129.255C233.629 127.465 234.037 125.707 234.762 124.081C235.487 122.455 236.515 120.993 237.785 119.778C239.056 118.563 240.545 117.62 242.168 117.001L275.034 104.47C277.89 103.381 280.924 102.885 283.964 103.01C287.005 103.136 289.991 103.881 292.754 105.202C295.516 106.523 298.001 108.395 300.065 110.71C302.129 113.025 303.732 115.739 304.784 118.697C305.732 121.351 306.216 124.159 306.214 126.989C306.201 130.583 305.416 134.128 303.915 137.368C302.414 140.608 300.235 143.461 297.536 145.719C295.586 147.339 293.395 148.619 291.047 149.508L245.824 166.761Z" fill="#3F3D56"/>
<path d="M305.731 126.989C305.728 130.509 304.964 133.984 303.493 137.158C302.023 140.332 299.884 143.124 297.234 145.329C293.169 144.218 289.386 142.204 286.148 139.426C282.91 136.648 280.295 133.173 278.485 129.243C276.675 125.313 275.713 121.021 275.666 116.667C275.62 112.313 276.489 108 278.214 104.029C281.525 103.283 284.956 103.315 288.255 104.122C291.553 104.929 294.635 106.491 297.274 108.693C299.913 110.895 302.043 113.682 303.506 116.848C304.97 120.014 305.73 123.479 305.731 126.989V126.989Z" fill="#FF514E"/>
<path d="M13.527 248.829C20.9924 248.829 27.0443 241.218 27.0443 231.829C27.0443 222.44 20.9924 214.829 13.527 214.829C6.06164 214.829 0.00976562 222.44 0.00976562 231.829C0.00976562 241.218 6.06164 248.829 13.527 248.829Z" fill="#FF514E"/>
<path d="M192.206 292.005H204.044L209.676 260.208L192.205 260.209L192.206 292.005Z" fill="#FFB8B8"/>
<path d="M189.187 288.002L212.498 288.001H212.499C214.45 288.001 216.382 288.399 218.184 289.173C219.987 289.946 221.624 291.079 223.004 292.508C224.383 293.937 225.478 295.633 226.224 297.5C226.971 299.366 227.355 301.367 227.355 303.388V303.888L189.188 303.889L189.187 288.002Z" fill="#2F2E41"/>
<path d="M205.946 278.955C205.808 278.955 205.67 278.948 205.531 278.934L189.149 277.699C188.487 277.635 187.847 277.415 187.28 277.055C186.713 276.694 186.233 276.204 185.878 275.622C185.522 275.039 185.301 274.38 185.23 273.694C185.16 273.009 185.242 272.316 185.471 271.669L207.395 220.655C207.552 220.2 207.616 219.716 207.583 219.235C207.55 218.753 207.422 218.284 207.205 217.856C206.99 217.423 206.688 217.043 206.32 216.739C205.952 216.436 205.526 216.217 205.07 216.096C194.761 213.305 168.311 205.874 145.415 197.178C135.605 193.453 129.427 188.069 127.052 181.176C123.92 172.089 128.553 163.802 128.751 163.455L128.907 163.182L150.452 165.21L173.809 167.268L224.994 195.696C229.283 198.098 232.541 202.085 234.119 206.864C235.697 211.642 235.479 216.861 233.509 221.48L209.911 276.288C209.569 277.081 209.013 277.756 208.31 278.229C207.606 278.702 206.785 278.954 205.946 278.955Z" fill="#2F2E41"/>
<path d="M154.198 64.2812C167.295 64.2812 177.912 53.2849 177.912 39.7202C177.912 26.1555 167.295 15.1592 154.198 15.1592C141.101 15.1592 130.484 26.1555 130.484 39.7202C130.484 53.2849 141.101 64.2812 154.198 64.2812Z" fill="#FFB8B8"/>
<path d="M185.448 295.005H197.285L202.917 263.208L185.446 263.209L185.448 295.005Z" fill="#FFB8B8"/>
<path d="M182.428 291.002L205.74 291.001H205.741C207.691 291.001 209.623 291.399 211.426 292.173C213.228 292.946 214.866 294.079 216.245 295.508C217.625 296.937 218.719 298.633 219.466 300.5C220.212 302.366 220.597 304.367 220.596 306.388V306.888L182.429 306.889L182.428 291.002Z" fill="#2F2E41"/>
<path d="M199.188 281.955C199.05 281.955 198.911 281.948 198.772 281.934L182.391 280.699C181.728 280.635 181.089 280.415 180.521 280.055C179.954 279.694 179.474 279.204 179.119 278.622C178.764 278.039 178.542 277.38 178.472 276.694C178.401 276.009 178.484 275.316 178.713 274.669L200.636 223.655C200.793 223.2 200.857 222.716 200.824 222.235C200.792 221.753 200.663 221.284 200.447 220.856C200.231 220.423 199.929 220.043 199.561 219.739C199.193 219.436 198.767 219.217 198.312 219.096C188.003 216.305 161.553 208.874 138.656 200.178C128.846 196.453 122.668 191.069 120.293 184.176C117.162 175.089 121.794 166.802 121.993 166.455L122.148 166.182L143.693 168.21L167.05 170.268L218.236 198.696C222.525 201.098 225.783 205.085 227.36 209.864C228.938 214.642 228.72 219.861 226.75 224.48L203.152 279.288C202.811 280.081 202.255 280.756 201.551 281.229C200.847 281.702 200.026 281.954 199.188 281.955Z" fill="#2F2E41"/>
<path d="M161.512 78.2084L136.408 69.2084C136.408 69.2084 120.649 81.7484 128.22 112.857C132.172 128.91 131.021 145.855 124.937 161.177C124.204 163.073 123.36 164.92 122.408 166.708C122.408 166.708 150.408 201.708 176.477 175.708L166.339 125.208C166.339 125.208 182.27 91.7084 161.512 78.2084Z" fill="#FF514E"/>
<path d="M157.143 65.1165C153.767 59.8842 151.104 52.629 154.82 47.6506C158.488 42.7365 165.723 43.4605 171.34 41.286C179.165 38.2573 183.703 28.7367 182.288 20.2103C180.872 11.684 174.264 4.61591 166.391 1.72388C158.519 -1.16815 149.641 -0.227596 141.932 3.10275C132.441 7.20245 124.3 15.133 120.887 25.179C117.473 35.225 119.298 47.2871 126.38 55.0086C133.972 63.287 145.888 65.4932 156.912 65.3593" fill="#2F2E41"/>
<path d="M135.083 20.4839C130.83 24.0698 124.342 22.4771 119.777 19.3301C115.211 16.183 111.507 11.7018 106.567 9.23439C97.859 4.88444 87.3305 7.77616 78.8553 12.5945C70.3801 17.4128 62.8671 24.0695 53.9148 27.8507C44.9624 31.6318 33.5386 31.8187 26.7598 24.679C25.0916 29.6849 24.9552 35.1019 26.3693 40.1909C27.7833 45.28 30.6789 49.7933 34.661 53.1149C38.6431 56.4366 43.5177 58.405 48.6198 58.7514C53.7218 59.0978 58.8028 57.8054 63.1695 55.0505C72.9786 48.8621 78.3967 35.8868 89.3987 32.4712C95.4868 30.5811 102.024 32.1034 108.177 33.7522C114.33 35.401 120.746 37.1827 126.956 35.779C133.165 34.3753 138.973 28.5959 138.183 22.0642L135.083 20.4839Z" fill="#2F2E41"/>
<path d="M269.416 125.291C268.792 123.86 267.873 122.588 266.723 121.564C265.573 120.54 264.22 119.791 262.76 119.367C261.3 118.944 259.767 118.857 258.271 119.113C256.775 119.369 255.352 119.962 254.101 120.85L161.923 99.4225L160.777 122.754L251.745 136.48C253.324 138.558 255.584 139.963 258.097 140.43C260.61 140.898 263.201 140.394 265.379 139.015C267.557 137.636 269.171 135.477 269.916 132.948C270.66 130.418 270.482 127.694 269.416 125.291V125.291Z" fill="#FFB8B8"/>
<path d="M258.768 143.829C262.501 143.829 265.527 140.695 265.527 136.829C265.527 132.963 262.501 129.829 258.768 129.829C255.035 129.829 252.009 132.963 252.009 136.829C252.009 140.695 255.035 143.829 258.768 143.829Z" fill="#FF514E"/>
<path d="M178.085 101.566L172.459 125.186C172.299 125.858 172.001 126.486 171.585 127.028C171.169 127.57 170.646 128.013 170.05 128.326C169.454 128.64 168.8 128.817 168.132 128.845C167.464 128.873 166.799 128.751 166.18 128.489L144.512 119.291C141.194 118.425 138.345 116.232 136.587 113.192C134.83 110.153 134.308 106.515 135.137 103.078C135.967 99.6402 138.078 96.6839 141.01 94.8573C143.941 93.0307 147.452 92.483 150.772 93.3344L174.01 95.6169C174.675 95.6825 175.319 95.8958 175.898 96.2423C176.476 96.5889 176.976 97.0604 177.363 97.625C177.749 98.1895 178.014 98.8338 178.139 99.5138C178.263 100.194 178.245 100.894 178.085 101.566V101.566Z" fill="#FF514E"/>
</g>
<defs>
<clipPath id="clip0">
<rect width="392" height="363" fill="white"/>
</clipPath>
</defs>
</svg>
