<svg width="54" height="87" viewBox="0 0 54 87" fill="none" xmlns="http://www.w3.org/2000/svg">
<path d="M29.959 38.8525C38.6341 39.4027 46.611 40.5664 53.8896 42.3438L48.9385 85.3809C45.7646 85.8464 42.5908 86.0791 39.417 86.0791C36.2855 86.0791 33.027 85.8675 29.6416 85.4443C26.2562 85.0635 23.1035 84.5768 20.1836 83.9844C14.2591 82.7995 10.4505 81.7415 8.75781 80.8105C7.10742 79.8796 5.94368 79.0544 5.2666 78.335C4.63184 77.5732 4.14518 76.4095 3.80664 74.8438C3.4681 73.2357 3.1084 71.3314 2.72754 69.1309C2.34668 66.888 2.00814 64.4548 1.71191 61.8311C1.03483 55.8219 0.696289 50.9766 0.696289 47.2949C0.696289 43.571 0.717448 40.7145 0.759766 38.7256C0.802083 36.6943 0.886719 34.7054 1.01367 32.7588C1.43685 24.93 1.94466 20.1058 2.53711 18.2861C3.12956 16.4665 3.67969 15.07 4.1875 14.0967C4.69531 13.0811 5.41471 12.2982 6.3457 11.748C9.94271 9.67448 16.5443 7.4528 26.1504 5.08301L32.8154 3.49609C38.613 2.14193 43.9027 1.10514 48.6846 0.385742L52.0488 15.6836C50.8216 15.9375 49.2559 16.2337 47.3516 16.5723L34.3389 18.7305C26.0446 20.0846 20.8184 21.1214 18.6602 21.8408C17.4329 26.665 16.8193 33.6475 16.8193 42.7881C16.8193 54.8486 17.5599 63.7565 19.041 69.5117C24.0345 71.3314 29.1761 72.2412 34.4658 72.2412H35.6719C36.0527 72.2412 36.3913 72.1989 36.6875 72.1143L38.5283 53.0078L28.3721 52.5L29.959 38.8525Z" fill="#FBB403"/>
</svg>
