<?xml version="1.0" encoding="iso-8859-1"?>
<!-- Generator: Adobe Illustrator 19.0.0, SVG Export Plug-In . SVG Version: 6.00 Build 0)  -->
<svg version="1.1" id="Layer_1" xmlns="http://www.w3.org/2000/svg" xmlns:xlink="http://www.w3.org/1999/xlink" x="0px" y="0px"
	 viewBox="0 0 512.001 512.001" style="enable-background:new 0 0 512.001 512.001;" xml:space="preserve">
<circle style="fill:#F2F2F2;" cx="256.001" cy="256.024" r="247.111"/>
<circle style="fill:#E6E6E6;" cx="256.001" cy="256.024" r="159.581"/>
<path style="fill:#F97E62;" d="M401.496,332.503c66.214-53.654,70.933-161.578-8.543-213.064
	c-15.486-10.032-33.868-19.933-56.831-27.507c-134.583-44.389-233.809,32.976-253.199,92.584s30.794,60.876,52.465,62.145
	c21.671,1.268,59.864,0.741,96.946,57.072c43.131,65.521,124.318,62.145,165.377,31.706
	C398.994,334.489,400.255,333.508,401.496,332.503z"/>
<circle style="fill:#F2F2F2;" cx="346.376" cy="235.093" r="38.479"/>
<path d="M437.021,74.981C388.669,26.629,324.383,0,256.001,0S123.335,26.629,74.983,74.981
	C26.629,123.333,0.001,187.62,0.001,256.001s26.629,132.668,74.982,181.02c48.352,48.352,112.638,74.981,181.02,74.981
	c38.878,0,76.222-8.495,110.992-25.249c4.422-2.131,6.281-7.445,4.15-11.867c-2.132-4.422-7.445-6.278-11.868-4.148
	c-32.343,15.585-67.089,23.487-103.274,23.487C124.645,494.221,17.779,387.356,17.779,256.001S124.645,17.779,256.001,17.779
	s238.221,106.866,238.221,238.221c0,79.262-39.266,153.108-105.035,197.542c-4.069,2.749-5.138,8.274-2.391,12.343
	c2.747,4.067,8.275,5.137,12.342,2.389c70.671-47.744,112.862-127.098,112.862-212.275
	C512.001,187.62,485.373,123.333,437.021,74.981z"/>
<path d="M337.852,382.067c-24.353,15.847-52.657,24.223-81.85,24.223c-75.596,0-139.699-56.469-149.108-131.351
	c-0.613-4.871-5.079-8.324-9.928-7.711c-4.871,0.612-8.324,5.057-7.712,9.928c10.524,83.754,82.21,146.913,166.748,146.913
	c32.645,0,64.301-9.371,91.547-27.099c4.115-2.677,5.28-8.184,2.602-12.298C347.472,380.552,341.966,379.389,337.852,382.067z"/>
<path d="M407.092,339.385c35.928-29.113,55.917-74.031,53.465-120.156c-2.329-43.84-25.209-82.941-62.772-107.275
	c-19.19-12.431-38.45-21.75-58.88-28.488c-51.334-16.931-102.97-18.003-149.324-3.101c-4.673,1.503-7.245,6.509-5.743,11.184
	c1.502,4.675,6.512,7.244,11.183,5.743c42.753-13.744,90.582-12.686,138.314,3.059c19.231,6.343,36.638,14.772,54.783,26.526
	c33.212,21.515,52.632,54.648,54.686,93.296c2.149,40.457-15.384,79.859-46.906,105.401c-1.153,0.935-2.324,1.843-3.482,2.701
	c-21.52,15.953-53.066,22.649-82.326,17.461c-20.372-3.609-49.113-14.678-70.332-46.914
	c-37.887-57.558-78.868-59.729-100.885-60.897c-1.019-0.055-2.008-0.107-2.964-0.162l-1.713-0.098
	c-12.834-0.727-34.316-1.944-42.746-14.268c-5.321-7.78-5.344-19.944-0.072-36.155c8.805-27.066,34.693-55.475,67.565-74.14
	c4.27-2.424,5.765-7.85,3.341-12.119c-2.425-4.269-7.851-5.766-12.12-3.341c-37.123,21.08-65.419,52.519-75.692,84.101
	c-7.069,21.729-6.294,39.12,2.303,51.691c13.366,19.543,41.371,21.129,56.416,21.982l1.678,0.096
	c0.987,0.058,2.009,0.111,3.063,0.168c21.515,1.14,54.028,2.865,86.977,52.918c24.699,37.521,58.269,50.426,82.08,54.644
	c7.494,1.329,15.13,1.976,22.75,1.976c26.861,0,53.546-8.041,73.263-22.658C404.364,341.548,405.74,340.48,407.092,339.385z"/>
<path d="M299.011,235.068c0,26.119,21.249,47.368,47.368,47.368c26.119,0,47.368-21.249,47.368-47.368S372.499,187.7,346.38,187.7
	C320.26,187.7,299.011,208.95,299.011,235.068z M375.969,235.068c0,16.316-13.274,29.59-29.59,29.59
	c-16.316,0-29.59-13.274-29.59-29.59s13.274-29.59,29.59-29.59C362.696,205.478,375.969,218.753,375.969,235.068z"/>
<path d="M211.724,117.862c-4.247-2.463-9.687-1.017-12.149,3.23l-42.919,73.998c-2.464,4.247-1.017,9.686,3.23,12.149
	c1.405,0.814,2.938,1.202,4.452,1.202c3.066,0,6.049-1.588,7.697-4.432l42.919-73.998
	C217.418,125.765,215.971,120.325,211.724,117.862z"/>
<path d="M274.241,119.342c-4.246-2.463-9.686-1.017-12.149,3.23l-56.629,97.636c-2.463,4.247-1.017,9.686,3.23,12.149
	c1.405,0.814,2.938,1.202,4.452,1.202c3.066,0,6.049-1.588,7.697-4.432l56.629-97.636
	C279.934,127.245,278.488,121.805,274.241,119.342z"/>
<path d="M336.78,133.276c-4.234-2.477-9.682-1.051-12.161,3.187l-74.388,127.236c-2.478,4.238-1.051,9.682,3.187,12.161
	c1.409,0.825,2.954,1.216,4.478,1.216c3.054,0,6.029-1.576,7.682-4.404l74.388-127.235
	C342.446,141.198,341.019,135.753,336.78,133.276z"/>
<path d="M314.028,286.775l-7.313,12.509c-2.478,4.238-1.051,9.682,3.187,12.161c1.41,0.825,2.954,1.216,4.478,1.216
	c3.054,0,6.029-1.576,7.682-4.404l7.313-12.509c2.478-4.238,1.051-9.682-3.187-12.161
	C321.952,281.111,316.507,282.537,314.028,286.775z"/>
<path d="M382.925,195.092c3.054,0,6.028-1.576,7.682-4.403l9.168-15.68c2.478-4.238,1.051-9.682-3.186-12.161
	c-4.238-2.477-9.682-1.052-12.162,3.187l-9.168,15.68c-2.478,4.238-1.051,9.682,3.186,12.161
	C379.857,194.7,381.401,195.092,382.925,195.092z"/>
<g>
</g>
<g>
</g>
<g>
</g>
<g>
</g>
<g>
</g>
<g>
</g>
<g>
</g>
<g>
</g>
<g>
</g>
<g>
</g>
<g>
</g>
<g>
</g>
<g>
</g>
<g>
</g>
<g>
</g>
</svg>
