<svg width="121" height="113" viewBox="0 0 121 113" fill="none" xmlns="http://www.w3.org/2000/svg">
<path d="M48.7332 46.77C49.9952 46.118 48.8802 44.214 47.6202 44.865C46.9204 45.1802 46.1448 45.2877 45.3857 45.1747C44.6266 45.0618 43.9159 44.7332 43.3382 44.228C42.3752 43.54 40.8382 42.289 41.0582 40.951C41.2922 39.562 39.1672 38.965 38.9322 40.364C38.1322 45.129 44.8082 48.798 48.7332 46.77Z" fill="#E5E5E5"/>
<path d="M62.4012 45.636C67.8012 29.764 40.0172 23.919 36.3332 39.617C36.2898 39.8035 36.297 39.9982 36.3542 40.181C32.9562 55.421 57.6652 59.547 62.4012 45.636ZM38.6012 40.215C38.6465 40.0461 38.6503 39.8687 38.6122 39.698C42.3342 26.598 66.0682 33.014 59.8932 45.958C56.7932 52.465 47.6932 53.476 42.3292 50.115C45.8842 51.634 50.2022 52.772 53.5292 50.168C56.6192 47.747 56.5132 43.883 53.9142 41.19C53.8186 41.0845 53.7014 41.0009 53.5706 40.9448C53.4398 40.8887 53.2985 40.8615 53.1562 40.865C52.9896 40.681 52.7668 40.5574 52.5225 40.5133C52.2783 40.4693 52.0263 40.5073 51.806 40.6215C51.5856 40.7357 51.4092 40.9196 51.3043 41.1445C51.1994 41.3695 51.172 41.6228 51.2262 41.865C51.2785 42.0829 51.3159 42.304 51.3382 42.527C51.2892 42.3737 51.2069 42.233 51.0972 42.1152C50.9876 41.9974 50.8532 41.9052 50.7038 41.8453C50.5544 41.7854 50.3936 41.7592 50.2329 41.7687C50.0722 41.7781 49.9155 41.823 49.7742 41.9C48.6132 42.526 46.7222 42.564 46.3252 40.957C45.8732 39.128 47.9162 38.934 49.1802 38.947C51.2591 39.0925 53.3405 38.7006 55.2242 37.809C56.4902 37.165 55.3752 35.261 54.1112 35.904C51.9382 37.011 49.9112 36.499 47.6262 36.817C46.7995 36.8667 46.0115 37.1843 45.3814 37.7218C44.7513 38.2593 44.3135 38.9874 44.1342 39.796C43.3842 43.78 47.8872 45.423 50.8872 43.804C51.1043 43.6911 51.2707 43.5003 51.3532 43.27C51.2992 44.2693 50.9087 45.2208 50.2452 45.97C49.3092 47.03 50.8632 48.596 51.8052 47.529C52.5928 46.6455 53.1415 45.5753 53.3992 44.42C54.1162 46.52 52.8052 48.671 50.2802 49.32C47.6362 50.003 44.9322 48.903 42.5682 47.82C42.3775 47.7389 42.1692 47.7086 41.9633 47.732C41.7575 47.7553 41.5612 47.8316 41.3935 47.9533C41.2259 48.075 41.0926 48.2381 41.0067 48.4266C40.9208 48.6151 40.8851 48.8226 40.9032 49.029C38.7082 47.03 37.5852 44.054 38.5972 40.215H38.6012Z" fill="#E5E5E5"/>
<path d="M119.562 63.124C117.621 59.908 115.619 56.7303 113.556 53.591C114.259 52.0853 114.648 50.452 114.699 48.791C114.648 46.773 112.842 45.091 111.573 43.613C111.603 43.5157 111.617 43.4146 111.617 43.313C111.578 42.461 111.368 41.6255 111 40.8559C110.632 40.0862 110.114 39.3981 109.476 38.832C107.752 37.008 107.306 35.682 104.825 34.772C104.366 34.6051 103.896 34.4691 103.418 34.365C103.428 34.1682 103.382 33.9727 103.285 33.801L99.0502 26.247C99.5422 26.066 100.03 25.872 100.528 25.703C100.702 25.646 100.858 25.5445 100.981 25.4086C101.104 25.2727 101.189 25.107 101.228 24.928C101.409 24.8901 101.576 24.8001 101.706 24.6689C101.837 24.5378 101.927 24.3714 101.964 24.19C101.964 24.175 101.964 24.16 101.973 24.144C103.894 23.576 105.812 23.4 107.773 23.023C108.468 22.9481 109.123 22.6616 109.649 22.2023C110.175 21.743 110.548 21.133 110.716 20.455C111.303 17.561 108.154 16.066 105.981 17.425C105.602 16.5805 104.979 15.8689 104.191 15.3818C103.404 14.8947 102.489 14.6545 101.564 14.692C101.896 14.2121 102.091 13.6515 102.13 13.0695C102.169 12.4874 102.05 11.9057 101.785 11.386C101.543 10.948 101.191 10.5799 100.765 10.317C101.897 8.923 102.348 6.723 100.465 5.683C98.7172 4.716 96.3652 6.002 94.8022 7.183C94.6592 6.88398 94.4581 6.61638 94.2107 6.39578C93.9633 6.17517 93.6746 6.00597 93.3612 5.898C92.8636 5.76947 92.345 5.74442 91.8374 5.8244C91.3298 5.90438 90.8441 6.0877 90.4102 6.363C90.4512 6.22 90.4982 6.078 90.5422 5.935C90.7135 5.79946 90.8357 5.61156 90.8902 5.4C91.4782 3.147 91.2472 0.079 88.2492 0C87.19 0.0199845 86.1584 0.340881 85.2749 0.925216C84.3913 1.50955 83.6922 2.33321 83.2592 3.3C82.8831 2.87328 82.3977 2.55739 81.8552 2.38644C81.3128 2.21549 80.7339 2.19598 80.1812 2.33C79.5065 2.52434 78.9093 2.92457 78.4731 3.47479C78.0369 4.02501 77.7835 4.69774 77.7482 5.399C77.6552 5.49707 77.5845 5.61403 77.5408 5.7419C77.4972 5.86978 77.4816 6.00556 77.4952 6.14C77.5338 6.728 77.5725 7.31567 77.6112 7.903C77.0452 6.185 76.1542 4.722 74.1322 4.23C73.4673 4.03647 72.7609 4.0372 72.0965 4.23211C71.432 4.42702 70.8371 4.80798 70.3822 5.33C69.9967 5.89809 69.7583 6.55304 69.6885 7.23603C69.6186 7.91902 69.7196 8.60866 69.9822 9.243C69.0904 9.20663 68.2198 9.52029 67.5562 10.117C67.3014 10.399 67.1103 10.7325 66.9958 11.0948C66.8812 11.4571 66.8459 11.8398 66.8922 12.217C66.2975 11.383 65.6912 10.5567 65.0732 9.738C65.1224 9.56442 65.1238 9.38076 65.0771 9.20647C65.0305 9.03218 64.9375 8.87376 64.8082 8.748C64.1589 8.04525 63.3256 7.53857 62.403 7.28545C61.4803 7.03233 60.5051 7.04291 59.5882 7.316C57.7212 8.044 58.1412 10.829 58.7522 12.293C58.7528 12.3664 58.7615 12.4395 58.7782 12.511C59.212 13.8161 59.7818 15.072 60.4782 16.258C59.1925 15.4892 57.9533 14.645 56.7672 13.73C56.5406 13.5561 56.2594 13.4688 55.9742 13.4836C55.689 13.4985 55.4185 13.6145 55.2112 13.811C53.7192 13.664 52.1352 13.859 51.3112 15.301C51.1546 15.5731 51.0556 15.8745 51.0204 16.1865C50.9852 16.4984 51.0146 16.8143 51.1067 17.1144C51.1988 17.4145 51.3517 17.6925 51.5558 17.9311C51.7599 18.1696 52.0109 18.3636 52.2932 18.501C52.3012 18.512 52.3042 18.523 52.3122 18.534C53.8512 20.709 56.2682 21.55 58.3652 23.07C58.6182 23.254 58.8652 23.44 59.1122 23.627L55.6082 23.477C55.4787 23.4688 55.3489 23.4868 55.2266 23.5299C55.1042 23.573 54.9919 23.6404 54.8962 23.728C54.7217 23.7325 54.5508 23.7785 54.3976 23.8622C54.2444 23.9458 54.1133 24.0647 54.0152 24.209C53.6585 24.735 53.4331 25.3388 53.3578 25.9699C53.2824 26.6009 53.3594 27.2408 53.5822 27.836C51.6856 27.4784 49.7547 27.3362 47.8262 27.412C47.5724 27.4192 47.3301 27.5191 47.1452 27.693C45.0032 27.329 43.2872 28.231 41.2802 29.305C38.9662 30.544 36.2802 31.751 34.8202 34.037C34.0373 35.2862 33.4725 36.6594 33.1502 38.098L22.8532 42.175L22.8422 42.182C22.4161 41.8644 21.9006 41.6894 21.3692 41.682C20.1772 41.657 19.5692 42.414 18.7452 43.082C18.7452 43.082 18.3222 44.12 18.0812 44.256C17.6812 44.479 16.8382 44.116 16.3192 44.314C15.9634 44.4434 15.627 44.6207 15.3192 44.841C15.2257 44.5358 15.0387 44.2677 14.7846 44.0744C14.5306 43.8812 14.2223 43.7726 13.9032 43.764C12.9032 43.632 12.0552 44.476 11.3722 45.453C10.0957 45.886 8.88184 46.4855 7.76217 47.236C7.38507 46.8403 6.91875 46.5406 6.40217 46.362C5.09417 46 4.29117 46.83 3.74617 47.911C3.64617 48.111 3.53417 48.332 3.42117 48.561C2.51225 48.8333 1.65346 49.251 0.87817 49.798C0.733994 49.9041 0.612594 50.0381 0.52117 50.192C0.346984 50.2715 0.203028 50.4049 0.110629 50.5726C0.0182306 50.7403 -0.0176967 50.9333 0.00817046 51.123C0.401504 56.069 0.79417 61.015 1.18617 65.961C1.14324 66.1427 1.15828 66.3333 1.22917 66.506L1.23717 66.606C1.249 66.7896 1.30783 66.967 1.40799 67.1213C1.50816 67.2756 1.64631 67.4015 1.80917 67.487C4.26117 71.496 5.56017 76.07 7.86917 80.163C7.90104 80.206 7.93614 80.2464 7.97417 80.284C7.79823 80.6642 7.72883 81.085 7.77339 81.5015C7.81795 81.918 7.97479 82.3147 8.22717 82.649C8.87237 83.4768 9.46103 84.3471 9.98917 85.254C10.0312 85.349 10.0622 85.425 10.0962 85.507C10.0648 85.7169 10.0943 85.9314 10.1812 86.125L21.5812 110.953C21.6162 111.013 21.6574 111.069 21.7042 111.12C21.719 111.37 21.8259 111.606 22.0043 111.782C22.1826 111.958 22.4199 112.062 22.6702 112.073C22.7307 112.215 22.8194 112.343 22.931 112.449C23.0426 112.555 23.1747 112.637 23.3192 112.691C23.4638 112.744 23.6177 112.768 23.7715 112.76C23.9254 112.752 24.076 112.712 24.2142 112.644C29.0822 110.244 34.4202 108.553 39.4752 106.604C49.5312 102.728 59.6018 98.8897 69.6872 95.089C79.5492 91.361 89.4222 87.6627 99.3062 83.994C104.289 82.151 109.359 79.858 114.527 78.552C114.692 78.5456 114.851 78.4913 114.985 78.396C115.119 78.3006 115.223 78.1682 115.283 78.015C115.292 77.997 115.297 77.977 115.305 77.958C115.337 77.8942 115.363 77.8271 115.381 77.758C116.115 73.207 118.381 68.598 119.931 64.268C120.019 64.0651 120.03 63.837 119.962 63.6264C119.895 63.4158 119.752 63.2372 119.562 63.124V63.124ZM106.341 19.579C106.62 19.5902 106.893 19.4923 107.101 19.306C107.179 19.2213 107.273 19.154 107.379 19.1088C107.484 19.0636 107.598 19.0414 107.713 19.0437C107.828 19.046 107.941 19.0728 108.045 19.1223C108.148 19.1718 108.24 19.2428 108.314 19.3306C108.388 19.4185 108.442 19.5211 108.473 19.6316C108.505 19.7421 108.512 19.858 108.495 19.9715C108.477 20.085 108.436 20.1936 108.374 20.2899C108.311 20.3862 108.229 20.4681 108.132 20.53C107.464 20.8988 106.708 21.0786 105.945 21.05C106.161 20.5863 106.295 20.0886 106.341 19.579ZM113.217 64.518C113.12 64.6585 113.058 64.8204 113.036 64.99C112.55 65.182 112.062 65.372 111.575 65.564C111.528 65.4794 111.47 65.402 111.401 65.334C110 64.1294 108.436 63.1273 106.756 62.357C106.688 62.1497 106.555 61.9703 106.375 61.8461C106.196 61.7219 105.981 61.6597 105.763 61.669C105.615 61.6693 105.469 61.6992 105.332 61.757C104.567 61.46 103.786 61.2037 102.993 60.989C103.02 60.8374 103.013 60.6818 102.972 60.5332C102.932 60.3847 102.859 60.2469 102.759 60.1297C102.659 60.0125 102.535 59.9188 102.395 59.8552C102.255 59.7917 102.102 59.7598 101.948 59.762C101.716 59.7535 101.488 59.8261 101.304 59.9673C101.119 60.1085 100.99 60.3096 100.937 60.536C98.9146 60.1718 96.848 60.1219 94.8102 60.388C94.8284 60.3472 94.8435 60.3051 94.8552 60.262C96.7612 57.414 99.8482 56.188 103.379 55.792C107.794 55.297 117.631 57.987 113.217 64.518ZM90.0932 73.693C87.0152 74.811 83.9372 75.927 80.8472 77.011C80.8098 76.7689 80.685 76.5489 80.4962 76.3928C80.3075 76.2367 80.068 76.1553 79.8232 76.164C79.6424 76.166 79.4649 76.2129 79.3068 76.3006C79.1486 76.3882 79.0148 76.5139 78.9173 76.6661C78.8197 76.8184 78.7616 76.9925 78.7482 77.1728C78.7347 77.3531 78.7663 77.534 78.8402 77.699C78.0192 77.984 77.1952 78.261 76.3742 78.544C76.4652 78.3793 76.512 78.1939 76.5101 78.0057C76.5081 77.8176 76.4575 77.6332 76.3632 77.4704C76.2689 77.3076 76.134 77.172 75.9717 77.0768C75.8095 76.9815 75.6253 76.9299 75.4372 76.927C75.1928 76.9378 74.9588 77.0286 74.771 77.1853C74.5831 77.342 74.452 77.556 74.3976 77.7945C74.3432 78.033 74.3686 78.2827 74.4698 78.5054C74.5711 78.728 74.7427 78.9113 74.9582 79.027C72.9582 79.713 70.9582 80.414 68.9522 81.086C68.7841 81.1377 68.6319 81.2309 68.5095 81.3572C68.3871 81.4834 68.2986 81.6385 68.2522 81.808L68.1672 81.839C68.1201 81.597 68.0566 81.3584 67.9772 81.125C68.1901 81.1656 68.4101 81.1447 68.6115 81.0646C68.8129 80.9846 68.9873 80.8487 69.1142 80.673C70.5262 78.773 71.9032 76.549 73.4992 74.598C73.598 74.7085 73.7199 74.7959 73.8562 74.8542C73.9926 74.9124 74.14 74.94 74.2882 74.935C74.5122 74.9271 74.7286 74.8514 74.9087 74.718C75.0888 74.5845 75.2242 74.3996 75.297 74.1875C75.3698 73.9755 75.3766 73.7464 75.3164 73.5305C75.2563 73.3145 75.1321 73.1219 74.9602 72.978C76.0356 71.8576 77.3201 70.9586 78.7412 70.332C83.1792 68.483 89.8082 68.911 93.1082 72.609C92.7702 72.733 92.4292 72.85 92.0922 72.974C92.048 72.7387 91.9209 72.527 91.7339 72.3774C91.5469 72.2278 91.3125 72.1504 91.0732 72.159C90.8927 72.1613 90.7156 72.2084 90.5578 72.2962C90.4 72.3839 90.2665 72.5095 90.1693 72.6616C90.0722 72.8138 90.0143 72.9877 90.001 73.1677C89.9877 73.3477 90.0194 73.5282 90.0932 73.693ZM64.5732 63.941C64.2182 63.119 62.2832 62.741 62.1582 62.135C62.1305 62.0191 62.0831 61.9089 62.0182 61.809C62.4072 61.5337 62.6821 61.1255 62.791 60.6615C62.8999 60.1975 62.8352 59.7096 62.6092 59.29C62.3581 58.823 61.9627 58.4496 61.4821 58.2256C61.0015 58.0016 60.4613 57.9389 59.9422 58.047C59.3422 57.034 58.1422 56.841 56.8702 56.812C56.1322 56.795 56.4362 56.901 55.8122 56.496C55.5912 56.3568 55.3567 56.2406 55.1122 56.149C56.6643 55.6757 58.1484 55.0027 59.5272 54.147C59.6163 54.1864 59.71 54.2143 59.8062 54.23C60.9412 54.336 62.4532 54.33 63.9562 54.472C64.1061 54.5675 64.2755 54.6283 64.452 54.65C64.6285 54.6716 64.8076 54.6535 64.9762 54.597C66.5311 54.6868 67.9908 55.3753 69.0492 56.518C69.1391 56.6424 69.2534 56.7472 69.385 56.8261C69.5167 56.9051 69.6631 56.9564 69.8152 56.977C68.2222 61.807 69.8782 67.977 72.9592 71.919C72.7418 72.153 72.5282 72.3923 72.3182 72.637C71.4929 71.0978 70.1283 69.9176 68.4862 69.323C68.2785 69.2429 68.0492 69.2393 67.8392 69.313C67.6348 69.1434 67.4682 68.9329 67.3502 68.695C66.9842 67.826 67.4022 67.364 66.7082 66.487C66.1251 65.8187 65.3339 65.3664 64.4622 65.203C64.5924 65.0221 64.6715 64.8093 64.691 64.5872C64.7105 64.3652 64.6698 64.1419 64.5732 63.941V63.941ZM64.0602 34.388C64.0462 34.367 64.0302 34.348 64.0162 34.327C64.8566 33.9763 65.7532 33.7795 66.6632 33.746C66.8461 33.7387 67.0243 33.6854 67.1812 33.591C68.972 35.4432 71.1399 36.8888 73.5382 37.83C73.5174 37.9896 73.5306 38.1517 73.577 38.3058C73.6233 38.4599 73.7018 38.6024 73.8072 38.724C74.1192 39.7144 74.2297 40.7572 74.1322 41.791C74.1213 41.957 74.1595 42.1226 74.2422 42.267C71.6558 42.6133 69.2466 43.7731 67.3629 45.5789C65.4791 47.3846 64.2185 49.7426 63.7632 52.312C63.1912 52.26 62.6182 52.22 62.0542 52.185C62.1062 52.135 62.1642 52.09 62.2142 52.039C62.2561 51.9863 62.293 51.9297 62.3242 51.87C62.5044 51.7793 62.6532 51.6364 62.7512 51.46C65.8172 45.976 67.8202 40.088 64.0602 34.388V34.388ZM62.6232 32.535C62.6232 32.535 62.6152 32.544 62.6102 32.547C61.7978 31.6793 60.88 30.9167 59.8782 30.277C61.798 30.5596 63.6875 31.0199 65.5222 31.652C64.5182 31.8046 63.5417 32.102 62.6232 32.535V32.535ZM92.4392 28.055C92.6472 28.691 92.8562 29.327 93.0452 29.971C92.972 30.176 92.8865 30.3764 92.7892 30.571C92.3985 31.2938 91.8654 31.9299 91.2222 32.441C91.2492 31.856 91.2502 31.268 91.2222 30.677C91.5021 30.6239 91.752 30.4676 91.9222 30.239C92.1567 29.9316 92.3239 29.5783 92.413 29.202C92.502 28.8257 92.511 28.4349 92.4392 28.055V28.055ZM95.3392 30.032C95.956 31.8689 96.3672 33.7685 96.5652 35.696C96.5819 35.7996 96.6125 35.9005 96.6562 35.996C96.1572 36.6539 95.8359 37.4291 95.7232 38.247C95.7119 38.3571 95.7169 38.4683 95.7382 38.577C91.1028 39.3676 86.8321 41.5919 83.5272 44.937C82.2756 43.55 80.6182 42.5932 78.7912 42.203C78.5413 42.1506 78.281 42.1893 78.0572 42.312C77.4579 42.2205 76.8533 42.1684 76.2472 42.156C76.2935 42.039 76.3238 41.9162 76.3372 41.791C76.3752 41.3222 76.3772 40.8511 76.3432 40.382C79.5322 42.05 83.3042 42.625 86.2932 39.991C86.9416 39.2802 87.5531 38.5366 88.1252 37.763C89.9032 35.883 90.9462 35.925 92.7012 34.57C93.7819 33.6632 94.5397 32.4306 94.8612 31.057C95.0374 30.9568 95.1781 30.8044 95.2639 30.6208C95.3497 30.4372 95.3764 30.2314 95.3402 30.032H95.3392ZM104.046 51.747C103.851 51.7525 103.66 51.8099 103.494 51.9134C103.329 52.0169 103.193 52.1628 103.103 52.3359C103.012 52.5091 102.969 52.7033 102.978 52.8986C102.987 53.0939 103.048 53.2832 103.155 53.447C102.249 53.5593 101.353 53.7375 100.473 53.98C100.536 53.8166 100.558 53.6403 100.538 53.4664C100.518 53.2925 100.455 53.1261 100.356 52.9816C100.258 52.8371 100.125 52.7188 99.9703 52.6368C99.8156 52.5548 99.6433 52.5116 99.4682 52.511C99.2365 52.5203 99.0136 52.6019 98.8307 52.7444C98.6479 52.8869 98.5143 53.0832 98.4487 53.3055C98.3832 53.5279 98.389 53.7652 98.4653 53.9842C98.5416 54.2031 98.6846 54.3926 98.8742 54.526C97.0866 55.1976 95.4697 56.2562 94.1392 57.626C93.4748 55.8594 92.4877 54.2317 91.2282 52.826C91.3273 52.6618 91.3814 52.4744 91.385 52.2826C91.3887 52.0909 91.3418 51.9016 91.249 51.7337C91.1563 51.5658 91.0209 51.4254 90.8567 51.3264C90.6924 51.2275 90.5049 51.1735 90.3132 51.17C90.0561 51.1665 89.8076 51.2621 89.6192 51.437C89.0536 51.0289 88.449 50.6779 87.8142 50.389C87.0532 50.0618 86.2603 49.8145 85.4482 49.651C85.5468 49.5245 85.614 49.3765 85.6443 49.219C85.6745 49.0615 85.667 48.899 85.6222 48.745C85.4371 48.0485 85.1685 47.377 84.8222 46.745C87.9942 43.473 92.5922 40.655 97.3352 40.839C103.321 41.073 108.16 47.734 106.587 53.281C106.069 53.261 105.546 53.268 105.023 53.287C105.098 53.1222 105.131 52.9413 105.118 52.7607C105.106 52.5801 105.049 52.4054 104.952 52.2525C104.855 52.0996 104.721 51.9734 104.563 51.8851C104.405 51.7968 104.227 51.7494 104.046 51.747V51.747ZM88.2872 62.991C86.8455 64.0941 85.6725 65.5096 84.8562 67.131C83.3709 67.1396 81.8893 67.2781 80.4282 67.545C78.2446 67.9469 76.2112 68.9344 74.5452 70.402L74.5322 70.381C72.1705 67.3329 71.0836 63.4874 71.5002 59.654C71.5404 59.6644 71.5811 59.6728 71.6222 59.679C71.871 59.6683 72.1091 59.5744 72.2983 59.4124C72.4875 59.2504 72.6169 59.0296 72.6657 58.7853C72.7146 58.5411 72.6801 58.2875 72.5677 58.0652C72.4554 57.8428 72.2718 57.6646 72.0462 57.559C72.4333 56.5113 73.0328 55.555 73.8073 54.7501C74.5817 53.9452 75.5142 53.3092 76.5462 52.882C83.8872 49.699 89.9742 52.544 92.5852 59.76C92.4422 60.016 92.2962 60.271 92.1712 60.544C92.102 60.6937 92.0648 60.8561 92.0622 61.021C91.2974 61.2725 90.5571 61.5928 89.8502 61.978C89.8553 61.8369 89.8314 61.6962 89.7801 61.5646C89.7288 61.4331 89.6511 61.3134 89.5518 61.213C89.4525 61.1125 89.3337 61.0335 89.2027 60.9807C89.0718 60.9279 88.9313 60.9025 88.7902 60.906C88.5479 60.9158 88.3154 61.0044 88.128 61.1582C87.9405 61.3121 87.8084 61.5229 87.7515 61.7586C87.6946 61.9943 87.7161 62.2422 87.8128 62.4646C87.9095 62.687 88.076 62.8718 88.2872 62.991ZM69.5242 53.086C69.3591 53.0808 69.1954 53.1171 69.0479 53.1915C68.9005 53.2659 68.774 53.3761 68.6802 53.512C67.8093 53.0824 66.8821 52.7778 65.9262 52.607C66.1742 51.2744 66.6862 50.0048 67.4319 48.8729C68.1777 47.741 69.1422 46.7696 70.2688 46.0158C71.3953 45.262 72.6612 44.741 73.992 44.4834C75.3228 44.2259 76.6917 44.2369 78.0182 44.516C78.2256 44.5535 78.4394 44.5306 78.6342 44.45C79.8075 44.7562 80.8773 45.3714 81.7322 46.2314C82.5872 47.0914 83.1959 48.1649 83.4952 49.34C83.5002 49.36 83.5132 49.37 83.5192 49.389C81.9088 49.2916 80.2929 49.4358 78.7252 49.817C78.7926 49.6523 78.8185 49.4736 78.8008 49.2966C78.7831 49.1195 78.7222 48.9495 78.6235 48.8015C78.5248 48.6534 78.3913 48.5318 78.2347 48.4474C78.078 48.3629 77.9031 48.3181 77.7252 48.317C77.499 48.3254 77.2809 48.4029 77.1001 48.5389C76.9193 48.675 76.7845 48.8632 76.7138 49.0782C76.6431 49.2932 76.64 49.5246 76.7048 49.7414C76.7695 49.9582 76.8991 50.15 77.0762 50.291C76.3036 50.5466 75.5487 50.8526 74.8162 51.207C74.4098 51.4117 74.0173 51.6429 73.6412 51.899C73.6494 51.7554 73.6277 51.6116 73.5776 51.4768C73.5274 51.3419 73.4498 51.2189 73.3498 51.1156C73.2497 51.0122 73.1293 50.9307 72.9961 50.8762C72.863 50.8218 72.72 50.7954 72.5762 50.799C72.3189 50.8133 72.0748 50.9174 71.8864 51.0932C71.6981 51.2691 71.5774 51.5054 71.5455 51.7611C71.5136 52.0168 71.5725 52.2756 71.7119 52.4923C71.8512 52.709 72.0623 52.87 72.3082 52.947C71.6611 53.5696 71.1067 54.2818 70.6622 55.062C70.5802 54.968 70.5012 54.869 70.4162 54.781C70.5216 54.6172 70.5817 54.4283 70.5902 54.2337C70.5988 54.039 70.5555 53.8456 70.4647 53.6732C70.374 53.5008 70.2391 53.3556 70.0739 53.2524C69.9086 53.1493 69.7189 53.0918 69.5242 53.086V53.086ZM78.2542 37.279C78.0691 37.6582 77.9133 38.051 77.7882 38.454C77.773 38.5267 77.766 38.6008 77.7672 38.675C77.1055 38.347 76.4703 37.9682 75.8672 37.542C75.9527 37.288 75.9527 37.013 75.8672 36.759C76.6404 37.0229 77.4413 37.1974 78.2542 37.279ZM74.2082 33.469C74.1902 33.3789 74.1606 33.2915 74.1202 33.209C74.0412 33.0921 74.0023 32.9527 74.0093 32.8117C74.0162 32.6708 74.0688 32.5359 74.1589 32.4274C74.2491 32.3189 74.3721 32.2425 74.5093 32.2098C74.6466 32.1771 74.7907 32.1898 74.9202 32.246C75.1285 32.3198 75.3557 32.3203 75.5644 32.2476C75.7731 32.1749 75.9508 32.0332 76.0682 31.846L78.6732 31.646C78.941 31.6262 79.1955 31.5211 79.3992 31.346C80.1174 31.8024 80.8602 32.2191 81.6242 32.594C80.9182 33.473 80.1782 34.33 79.5082 35.234C79.3659 35.1673 79.2112 35.1312 79.0542 35.128C77.3059 35.0911 75.6123 34.5113 74.2082 33.469V33.469ZM89.8952 25.332C89.2692 25.1763 88.6149 25.1746 87.9882 25.327L87.4622 24.442C87.4402 24.407 87.4102 24.391 87.3862 24.359C87.3888 24.274 87.3807 24.189 87.3622 24.106C87.0622 23.137 86.5442 21.619 87.8182 21.185C88.4432 20.973 88.9722 20.791 89.3422 21.406C89.7473 22.1179 90.1035 22.8566 90.4082 23.617C90.4569 23.7522 90.5378 23.8735 90.6439 23.9704C90.75 24.0672 90.8781 24.1368 91.0172 24.173C91.4332 25.188 91.8282 26.211 92.1842 27.247C91.9693 26.7782 91.6528 26.3632 91.2575 26.0319C90.8623 25.7007 90.3983 25.4616 89.8992 25.332H89.8952ZM88.3512 27.532C89.3642 27.259 90.8882 27.971 90.0072 29.132C89.9172 29.2474 89.8522 29.3802 89.8162 29.522C89.5751 29.5523 89.3556 29.6759 89.2045 29.8662C89.0535 30.0565 88.983 30.2984 89.0082 30.54C89.0832 31.7107 89.0363 32.886 88.8682 34.047C88.415 34.3404 87.9857 34.6691 87.5842 35.03C85.8592 36.616 85.0482 38.582 82.6302 39.253C81.6908 39.5152 80.7024 39.5494 79.7472 39.353C79.8198 39.2594 79.8763 39.1543 79.9142 39.042C80.9912 35.489 84.4742 33.312 85.8302 29.847C85.8306 29.8373 85.8306 29.8277 85.8302 29.818C86.3686 28.7757 87.2652 27.9629 88.3552 27.529L88.3512 27.532ZM83.7132 29.032C83.6012 29.1986 83.5403 29.3943 83.5382 29.595C83.3564 30.0088 83.1466 30.4098 82.9102 30.795C82.8862 30.781 82.8752 30.76 82.8482 30.747C81.385 30.0483 80.0019 29.193 78.7232 28.196C78.5304 28.0407 78.2926 27.9519 78.0452 27.943C77.6066 27.6363 77.1878 27.3023 76.7912 26.943C76.6502 26.814 76.3062 26.598 76.2612 26.428C76.2162 26.258 76.2612 26.26 76.5032 26.091C76.9195 25.8127 77.3979 25.6412 77.8961 25.5917C78.3944 25.5421 78.8972 25.6161 79.3602 25.807C79.5374 25.8817 79.734 25.8976 79.921 25.8524C80.108 25.8073 80.2755 25.7034 80.3992 25.556L81.4372 25.867C81.4736 25.8727 81.5103 25.8761 81.5472 25.877C82.1802 26.744 82.7642 27.689 83.4062 28.689C83.4877 28.8183 83.5945 28.9299 83.7202 29.017L83.7132 29.032ZM76.5692 29.606L75.6272 29.679C75.34 29.6986 75.0681 29.8153 74.8562 30.01C74.4881 29.9837 74.1184 30.0268 73.7662 30.137C72.7401 29.667 71.7678 29.0877 70.8662 28.409C70.7065 28.2975 70.512 28.2471 70.3182 28.267C70.2723 28.2372 70.2245 28.2105 70.1752 28.187C69.5695 27.9769 68.9141 27.9577 68.2972 28.132C68.319 27.9336 68.281 27.7332 68.1879 27.5566C68.0949 27.3799 67.9511 27.2352 67.7752 27.141C66.6302 26.641 66.8942 24.934 68.2302 25.259C68.4763 25.3206 68.7364 25.2896 68.9612 25.172C70.7724 26.1626 72.6406 27.0452 74.5562 27.815C75.1369 28.5072 75.8166 29.11 76.5732 29.604L76.5692 29.606ZM72.1592 34.206C72.1545 34.3231 72.1746 34.4398 72.2182 34.5486C72.2618 34.6573 72.3279 34.7556 72.4122 34.837C70.911 34.002 69.5532 32.9321 68.3902 31.668C68.3743 31.589 68.3519 31.5114 68.3232 31.436C68.2565 31.2739 68.2382 31.096 68.2703 30.9238C68.3024 30.7515 68.3836 30.5922 68.5042 30.465C68.649 30.3336 68.83 30.2488 69.0237 30.2215C69.2173 30.1943 69.4147 30.2258 69.5902 30.312C69.6538 30.3263 69.719 30.3327 69.7842 30.331C70.4914 30.8581 71.2417 31.3248 72.0272 31.726C71.8677 32.1243 71.7972 32.5527 71.8207 32.9811C71.8442 33.4094 71.9611 33.8275 72.1632 34.206H72.1592ZM67.0152 78.936C68.9082 77.03 68.9292 75.314 68.6092 73.022C68.5767 72.6222 68.5844 72.2202 68.6322 71.822C69.6659 72.4531 70.4204 73.4543 70.7422 74.622C69.5332 76.246 68.4012 77.962 67.2092 79.57C67.1872 79.6021 67.1671 79.6355 67.1492 79.67C67.027 79.4966 66.8958 79.3297 66.7562 79.17C66.8462 79.089 66.9352 79.02 67.0192 78.936H67.0152ZM87.3492 67.287C87.4282 67.165 87.4972 67.029 87.5802 66.912C87.7071 67.0211 87.8596 67.0963 88.0235 67.1304C88.1874 67.1645 88.3573 67.1565 88.5172 67.107C90.7238 66.4967 92.9874 66.1153 95.2722 65.969C96.6822 65.881 96.6922 63.674 95.2722 63.769C93.5025 63.8794 91.7433 64.118 90.0082 64.483C95.4612 60.666 104.271 62.469 109.297 66.461C104.618 68.2863 99.9252 70.073 95.2192 71.821C95.1755 71.6847 95.1077 71.5574 95.0192 71.445C94.0821 70.276 92.9209 69.3061 91.6037 68.5921C90.2866 67.878 88.8401 67.4343 87.3492 67.287V67.287ZM105.449 37.408C106.424 38.108 106.314 38.775 106.943 39.521C108.048 40.832 109.298 41.296 109.41 43.307C109.418 43.4762 109.465 43.6414 109.546 43.79C109.485 43.9698 109.471 44.1625 109.506 44.3494C109.541 44.5362 109.624 44.7107 109.746 44.856C110.969 46.351 112.683 47.741 112.373 49.811C112.191 50.8627 111.889 51.8901 111.473 52.873C111.357 52.9709 111.265 53.0952 111.206 53.2355C111.147 53.3759 111.122 53.5282 111.134 53.68C111.082 53.799 111.034 53.923 110.979 54.04C110.97 54.0729 110.963 54.1063 110.957 54.14C110.335 53.8445 109.675 53.6378 108.996 53.526C108.942 53.518 108.885 53.513 108.831 53.505C109.638 50.648 109.531 48.713 108.117 46.323C108.249 46.1625 108.334 45.9683 108.361 45.7622C108.388 45.5562 108.357 45.3467 108.271 45.1574C108.186 44.9681 108.048 44.8067 107.876 44.6914C107.703 44.576 107.501 44.5115 107.293 44.505C107.18 44.51 107.068 44.5329 106.961 44.573C106.192 43.3532 105.328 42.1965 104.375 41.114C104.619 41.0304 104.825 40.864 104.959 40.6438C105.092 40.4236 105.144 40.1635 105.106 39.9088C105.067 39.6542 104.941 39.4212 104.748 39.2503C104.555 39.0795 104.309 38.9817 104.051 38.974C103.788 38.9668 103.532 39.0621 103.338 39.24C103.144 39.4178 103.026 39.6641 103.01 39.927C102.538 39.5844 102.022 39.3079 101.475 39.105C100.34 38.7083 99.1501 38.4917 97.9482 38.463C98.7632 35.447 103.299 35.871 105.451 37.408H105.449ZM100.937 34.121C100.142 34.1325 99.3548 34.2796 98.6092 34.556C98.257 32.029 97.5804 29.5579 96.5962 27.204C96.7202 27.152 96.8432 27.096 96.9682 27.045L100.937 34.121ZM99.8372 23.6V23.609C97.8672 24.284 95.9372 25.059 94.0372 25.909C93.7372 25.086 93.4222 24.27 93.0922 23.457C94.5399 22.7563 96.055 22.2041 97.6142 21.809C97.868 21.9263 98.1514 21.9643 98.4272 21.918C98.643 21.8951 98.8611 21.9256 99.0623 22.0066C99.2636 22.0877 99.4419 22.2169 99.5816 22.383C99.7213 22.549 99.8181 22.7468 99.8636 22.959C99.909 23.1712 99.9016 23.3913 99.8422 23.6H99.8372ZM103.742 17.911C103.957 18.2348 104.088 18.6067 104.123 18.9934C104.159 19.3802 104.098 19.7698 103.947 20.1274C103.795 20.485 103.558 20.7995 103.255 21.0429C102.952 21.2862 102.594 21.4508 102.212 21.522C102.038 21.5673 101.878 21.6565 101.747 21.781C101.494 21.2576 101.118 20.8038 100.649 20.4592C100.181 20.1147 99.6361 19.8897 99.0612 19.804C98.9365 19.6521 98.7718 19.5381 98.5857 19.475C98.3996 19.4119 98.1995 19.4022 98.0082 19.447C95.9024 19.9075 93.8611 20.6248 91.9302 21.583C91.7652 21.1813 91.5755 20.7902 91.3622 20.412L99.1472 17.005C99.2273 17.0163 99.3084 17.0189 99.3892 17.013C100.849 16.771 102.789 16.485 103.747 17.911H103.742ZM99.8762 12.495C99.9492 12.7773 99.9345 13.0752 99.8339 13.3489C99.7333 13.6226 99.5517 13.8592 99.3132 14.027C99.1735 14.1276 99.0558 14.2557 98.9674 14.4034C98.879 14.5511 98.8218 14.7153 98.7992 14.886V14.886C98.7362 14.9029 98.6752 14.9264 98.6172 14.956C98.4495 14.954 98.2834 14.9881 98.1302 15.056L96.9882 15.556C97.6362 14.456 98.2492 13.33 98.8052 12.172C98.8162 12.149 98.8132 12.126 98.8232 12.102C98.918 12.0557 99.0213 12.0291 99.1267 12.0239C99.2321 12.0186 99.3375 12.0349 99.4364 12.0717C99.5354 12.1084 99.6258 12.1649 99.7023 12.2377C99.7787 12.3104 99.8396 12.398 99.8812 12.495H99.8762ZM93.6082 14.779C93.728 14.7766 93.846 14.7498 93.9552 14.7004C94.0643 14.6509 94.1623 14.5798 94.2431 14.4913C94.3239 14.4029 94.3859 14.2989 94.4253 14.1857C94.4646 14.0725 94.4806 13.9525 94.4722 13.833C94.5209 13.667 94.5156 13.4898 94.4572 13.327C94.4108 12.4903 94.5048 11.6517 94.7352 10.846C94.8602 10.402 95.0022 9.955 95.0932 9.5C95.3256 9.48607 95.5473 9.39732 95.7252 9.247C96.5376 8.52524 97.5016 7.99489 98.5462 7.695C100.161 7.286 99.3762 8.705 98.6592 9.317C98.473 9.46989 98.3529 9.68878 98.3242 9.928C98.0884 9.99258 97.8629 10.0899 97.6542 10.217C97.4881 10.3217 97.3544 10.4706 97.2682 10.647C97.1102 10.7466 96.9839 10.8891 96.9042 11.058C95.9028 13.1425 94.7452 15.1482 93.4412 17.058C93.4272 17.078 93.4202 17.099 93.4072 17.119L91.1322 18.119C91.7066 16.8399 92.5513 15.7004 93.6082 14.779V14.779ZM90.0972 10.13C90.1118 9.7997 90.2178 9.47995 90.4034 9.2063C90.5889 8.93265 90.8467 8.71585 91.1482 8.58C91.9062 8.098 93.0902 7.715 92.9272 9.042C92.6268 10.3638 92.3998 11.7012 92.2472 13.048C90.5685 14.4635 89.3188 16.32 88.6392 18.408C88.6044 18.525 88.5902 18.6471 88.5972 18.769C88.0311 18.822 87.4752 18.9533 86.9452 19.159C86.9202 19.168 86.9052 19.183 86.8812 19.192C86.8622 19.176 86.8492 19.159 86.8292 19.144C86.6502 19.009 86.4682 18.88 86.2892 18.744C86.3012 17.976 86.2682 17.212 86.2042 16.452C86.3783 16.4492 86.5484 16.3991 86.6964 16.3072C86.8443 16.2153 86.9645 16.0849 87.0442 15.93C87.9031 14.4006 88.6387 12.8053 89.2442 11.159C89.4919 11.1312 89.7192 11.0085 89.8783 10.8166C90.0373 10.6247 90.1158 10.3786 90.0972 10.13V10.13ZM87.5612 2.272C89.0942 1.906 89.1112 3.134 88.8962 4.232C88.7731 4.35501 88.6803 4.50496 88.6252 4.67C88.1272 6.18124 87.7641 7.73365 87.5402 9.309C87.0784 10.7405 86.5102 12.1354 85.8402 13.482C85.3049 10.7966 85.0104 8.06877 84.9602 5.331C84.9552 5.26326 84.9431 5.19622 84.9242 5.131C85.0519 4.45535 85.3668 3.82914 85.8331 3.32369C86.2993 2.81824 86.898 2.45384 87.5612 2.272V2.272ZM80.0462 6.057C79.9241 5.78003 79.9103 5.4674 80.0072 5.1807C80.1042 4.894 80.3051 4.65401 80.5702 4.508C80.7231 4.45963 80.8844 4.44394 81.0438 4.46195C81.2031 4.47996 81.3569 4.53127 81.4951 4.61255C81.6334 4.69383 81.753 4.80327 81.8462 4.93376C81.9394 5.06425 82.0041 5.21288 82.0362 5.37C82.0508 5.59323 82.128 5.80783 82.2588 5.98926C82.3897 6.1707 82.569 6.31165 82.7762 6.396C82.8762 9.996 83.8332 13.506 84.0492 17.096C82.7905 16.176 81.5208 15.2713 80.2402 14.382C80.2402 14.366 80.2472 14.355 80.2462 14.339L79.7692 7.128C79.928 7.0058 80.0415 6.83409 80.0916 6.64008C80.1418 6.44608 80.1258 6.24088 80.0462 6.057V6.057ZM78.1902 15.622C80.5702 17.2573 82.9128 18.9437 85.2182 20.681C84.7429 21.9771 84.7503 23.401 85.2392 24.692C85.279 24.8087 85.3381 24.9179 85.4142 25.015C85.413 25.2054 85.4638 25.3924 85.5612 25.556C85.7172 25.818 85.8728 26.0797 86.0282 26.341C85.6934 26.6109 85.3801 26.9065 85.0912 27.225C83.4912 24.697 82.1362 22.291 79.4332 20.806C78.3701 20.2327 77.2757 19.7196 76.1552 19.269C76.1486 19.0612 76.0753 18.861 75.9462 18.698C74.7242 17.068 76.4252 15.366 78.1902 15.622ZM72.7312 6.322C74.0532 5.906 75.0642 7.346 75.4782 8.347C76.1712 10.024 76.3062 11.822 76.9282 13.503C76.1972 13.6176 75.5055 13.9102 74.9142 14.355C74.456 12.9609 73.8671 11.6132 73.1552 10.33C73.0883 10.1985 72.9929 10.0835 72.876 9.99356C72.759 9.9036 72.6235 9.84088 72.4792 9.81C72.4747 9.74571 72.4636 9.68205 72.4462 9.62C72.0592 8.647 71.2712 6.784 72.7312 6.324V6.322ZM69.0852 15.288L69.0972 12.339C69.0972 11.801 69.1262 11.578 69.6972 11.463C70.1604 11.3709 70.641 11.4324 71.0662 11.638C71.1708 11.6817 71.2813 11.7093 71.3942 11.72C72.0871 13.004 72.6419 14.3579 73.0492 15.759C73.1188 16.0103 73.2824 16.2251 73.5062 16.359C73.3175 16.971 73.2761 17.6189 73.3852 18.25C72.4302 17.939 71.4682 17.656 70.4992 17.409C70.4491 17.2612 70.3695 17.1251 70.2652 17.009C69.8052 16.4834 69.4088 15.9054 69.0842 15.287L69.0852 15.288ZM68.7272 19.613C68.9045 19.6969 69.1009 19.7319 69.2963 19.7143C69.4916 19.6967 69.6787 19.6272 69.8382 19.513C72.4598 20.1541 75.0055 21.073 77.4322 22.254C78.1343 22.6011 78.7937 23.0286 79.3972 23.528C78.5044 23.2918 77.5631 23.3114 76.681 23.5845C75.7988 23.8577 75.0112 24.3735 74.4082 25.073C74.3522 25.149 74.3132 25.224 74.2672 25.299C72.7107 24.6384 71.19 23.8968 69.7112 23.077C69.6028 23.0212 69.4859 22.984 69.3652 22.967C69.268 22.8018 69.1248 22.6684 68.9532 22.583C68.5524 22.4328 68.2006 22.1754 67.9361 21.839C67.6716 21.5025 67.5045 21.0999 67.4532 20.675C67.4612 20.121 68.1082 19.333 68.7272 19.615V19.613ZM60.4982 9.379C60.5125 9.33631 60.5213 9.29194 60.5242 9.247C60.5242 9.273 60.5512 9.309 60.6472 9.312C61.3584 9.2891 62.0616 9.46725 62.6762 9.826C62.6654 10.0574 62.7414 10.2846 62.8892 10.463C64.1292 12.0943 65.3252 13.7563 66.4772 15.449C66.575 15.5946 66.705 15.7157 66.8572 15.803C66.859 15.8118 66.8614 15.8205 66.8642 15.829C67.1421 16.407 67.4714 16.9589 67.8482 17.478C67.3757 17.5793 66.9317 17.7844 66.5483 18.0784C66.1648 18.3724 65.8516 18.748 65.6312 19.178C65.5192 19.078 65.4112 18.972 65.3022 18.868C65.2802 18.84 65.2482 18.819 65.2232 18.793C63.2684 16.9057 61.7975 14.5748 60.9352 11.998C60.9368 11.8992 60.9191 11.801 60.8832 11.709C60.6774 11.2542 60.5425 10.7706 60.4832 10.275C60.4426 9.97731 60.4477 9.67517 60.4982 9.379V9.379ZM54.2182 17.419C54.2022 17.398 54.1852 17.382 54.1692 17.363C54.0959 17.1405 53.9573 16.9451 53.7714 16.8025C53.5856 16.6598 53.3611 16.5763 53.1272 16.563C53.3762 16.591 53.1352 16.592 53.2002 16.51C53.2922 16.395 53.3002 16.266 53.4542 16.153C54.0376 15.8804 54.7015 15.8341 55.3172 16.023C55.5775 16.0646 55.8442 16.0298 56.0852 15.923C58.4848 17.7122 61.0708 19.2367 63.7982 20.47C63.8132 20.477 63.8272 20.47 63.8422 20.48C64.3566 20.9696 64.896 21.4322 65.4582 21.866C65.6764 22.4481 66.0124 22.9788 66.4452 23.425C65.7716 23.769 65.2511 24.3526 64.9862 25.061C63.2406 24.0744 61.596 22.9189 60.0762 21.611C58.2272 20.208 55.5752 19.337 54.2182 17.419V17.419ZM55.7082 25.688L61.7032 25.94C61.8435 25.9449 61.9834 25.9225 62.1152 25.874C63.0513 26.5343 64.0615 27.0827 65.1252 27.508C65.4351 28.1914 65.9832 28.7384 66.6672 29.047C66.7102 29.066 66.7552 29.069 66.7992 29.084C66.6595 29.2544 66.5381 29.4391 66.4372 29.635C63.4378 28.5741 60.3013 27.9507 57.1242 27.784C56.9786 27.7706 56.832 27.7906 56.6954 27.8426C56.5588 27.8946 56.4359 27.9772 56.3362 28.084C56.2937 28.0071 56.2412 27.9362 56.1802 27.873C55.8703 27.6128 55.6557 27.2568 55.5702 26.8613C55.4848 26.4657 55.5333 26.053 55.7082 25.688V25.688ZM35.9082 37.104C37.0082 33.847 43.6672 28.847 47.4082 30.023C47.6196 30.1016 47.852 30.1027 48.0642 30.0262C48.2764 29.9497 48.4546 29.8004 48.5672 29.605C53.7402 29.561 59.0802 30.959 62.1512 35.505C65.5312 40.505 63.4892 45.618 60.8432 50.351C60.7751 50.3871 60.7111 50.4304 60.6522 50.48C56.3082 54.9 47.1182 56.385 41.8652 52.837C41.8194 52.8085 41.772 52.7828 41.7232 52.76C41.6284 52.5623 41.4669 52.4044 41.2672 52.314C40.0126 51.735 38.8634 50.9505 37.8672 49.993C37.7692 49.8951 37.6524 49.818 37.5239 49.7665C37.3953 49.7149 37.2576 49.6899 37.1192 49.693C37.0242 49.562 36.9192 49.44 36.8252 49.308C36.725 49.1654 36.5937 49.0474 36.4412 48.963C34.7091 45.2343 34.5176 40.973 35.9082 37.104ZM23.9282 44.109L32.7672 40.609C32.6402 42.3212 32.7445 44.0427 33.0772 45.727C30.5332 45.948 27.1332 46.242 25.1072 45.139C24.5952 44.861 24.3672 45.082 24.0162 44.766C23.9082 44.671 23.9172 44.401 23.9262 44.109H23.9282ZM7.99817 74.095C7.91017 74.632 8.19117 74.673 8.21417 75.226C8.22459 75.4387 8.21622 75.6518 8.18917 75.863C6.66017 72.479 5.41617 68.963 3.38917 65.828L2.68117 56.915C2.7096 57.0074 2.74538 57.0973 2.78817 57.184C2.96334 57.4502 3.19956 57.6706 3.47717 57.827C3.53985 57.9576 3.63108 58.0723 3.74411 58.1629C3.85715 58.2534 3.98908 58.3173 4.13017 58.35C4.16635 58.3833 4.19979 58.4194 4.23017 58.458C4.59817 59.104 4.15617 60.198 4.45617 60.983C4.64917 61.483 5.31217 61.769 5.48217 62.201C5.73817 62.853 5.40017 63.168 5.50317 63.85C5.55898 64.3911 5.79379 64.8981 6.17039 65.2907C6.54699 65.6832 7.04384 65.9388 7.58217 66.017C7.29736 66.6647 7.16716 67.3699 7.20188 68.0766C7.23659 68.7833 7.43526 69.4723 7.78217 70.089C7.7986 70.2002 7.83234 70.3082 7.88217 70.409L9.16617 72.747C8.85492 72.8212 8.57479 72.9912 8.36525 73.233C8.15571 73.4749 8.02732 73.7764 7.99817 74.095V74.095ZM9.64717 66.769C9.78105 66.5244 9.81234 66.2367 9.73417 65.969C10.7772 65.523 10.6882 63.724 9.40417 63.869C7.33217 64.103 8.43717 63.14 8.04117 62.043C7.63417 60.915 6.91117 60.63 6.69617 59.315C6.59017 58.661 6.85017 58.098 6.51617 57.474C5.84717 56.225 4.47317 56.274 4.69417 54.506C4.69337 54.3135 4.64252 54.1245 4.54662 53.9576C4.45072 53.7907 4.31307 53.6516 4.14717 53.554C3.89217 53.363 5.10817 50.669 5.29617 50.322L5.30717 50.299C5.44733 50.1906 5.56047 50.0513 5.63768 49.8918C5.71489 49.7323 5.75408 49.5572 5.75217 49.38C5.94117 48.939 5.80017 49.313 6.65217 49.734C6.81017 49.811 9.42117 50.812 9.33617 50.484C9.41401 50.7661 9.60071 51.0056 9.8552 51.15C10.1097 51.2945 10.4111 51.3318 10.6932 51.254C10.9752 51.1762 11.2148 50.9895 11.3592 50.735C11.5036 50.4805 11.541 50.1791 11.4632 49.897C11.4402 49.81 11.4132 49.748 11.3882 49.67C11.5784 49.6744 11.7662 49.6272 11.9318 49.5334C12.0973 49.4396 12.2343 49.3027 12.3283 49.1373C12.4222 48.9718 12.4696 48.784 12.4653 48.5938C12.4611 48.4036 12.4054 48.2181 12.3042 48.057C12.5372 48.412 12.9512 47.98 13.2792 47.507C13.3692 47.718 13.4792 47.955 13.5792 48.207C14.2222 49.998 16.2572 51.726 17.9642 50.419C18.2099 50.2654 18.3877 50.0238 18.4611 49.7434C18.5346 49.4631 18.4981 49.1653 18.3592 48.911C17.4542 47.223 18.0592 46.866 19.5392 46.064C20.3822 45.607 20.6162 44.958 21.5092 45.577C21.8012 45.777 21.9422 46.744 22.3662 47.059C23.2662 47.727 26.2432 48.296 27.1662 48.433C29.3542 48.756 31.5102 48.088 33.6342 47.882C33.929 48.8061 34.3052 49.7023 34.7582 50.56C34.8226 50.6928 34.9163 50.8093 35.0321 50.9007C35.148 50.9921 35.283 51.0562 35.4272 51.088C37.2572 53.5695 39.3608 55.8371 41.6982 57.848C41.5293 57.9829 41.3721 58.1318 41.2282 58.293C39.9812 57.699 38.5472 57.712 38.0582 59.277C37.4806 59.3656 36.9255 59.5646 36.4232 59.863C36.3144 59.6391 36.1343 59.4576 35.9113 59.3469C35.6883 59.2362 35.4348 59.2027 35.1907 59.2515C34.9465 59.3004 34.7255 59.4288 34.5622 59.6167C34.3989 59.8047 34.3025 60.0414 34.2882 60.29C34.3349 60.846 34.3523 61.4041 34.3402 61.962C34.2972 61.998 33.6712 61.697 33.5072 61.703C32.6711 61.6768 31.8406 61.8481 31.0832 62.203C30.2932 62.589 30.1422 62.878 29.1722 62.781C27.6172 62.626 28.7672 62.681 27.9722 62.04C27.4502 61.619 27.3372 61.36 26.6882 61.183C23.3292 60.267 22.2552 62.751 21.7762 65.391C21.7482 65.391 21.7262 65.384 21.6982 65.391C20.2948 65.5686 18.9495 66.0601 17.7622 66.829C17.6915 66.7845 17.6164 66.7473 17.5382 66.718C17.5282 66.656 17.5172 66.576 17.5052 66.458C17.4759 66.1913 17.3926 65.9334 17.2602 65.7C17.0558 65.3903 16.8214 65.1015 16.5602 64.838C16.1542 64.5077 15.652 64.3182 15.129 64.2978C14.6061 64.2774 14.0906 64.4273 13.6602 64.725C13.4545 64.8781 13.2819 65.0712 13.1529 65.2927C13.0238 65.5142 12.9409 65.7596 12.9092 66.014C12.8772 66.205 13.0092 67 12.9402 67.082C12.7632 67.296 12.2862 67.154 12.0712 67.143C11.7728 67.0733 11.4635 67.0639 11.1614 67.1155C10.8593 67.167 10.5706 67.2783 10.3122 67.443C9.99751 67.6568 9.69689 67.8907 9.41217 68.143C9.34301 67.6717 9.4253 67.1906 9.64717 66.769ZM15.9352 68.563C15.8592 68.654 15.7842 68.734 15.7072 68.83C15.2672 69.377 15.3702 69.221 14.6732 69.63C14.4539 69.7116 14.2421 69.8119 14.0402 69.93C13.3052 70.53 13.6172 71.458 13.1402 72.011C12.9302 72.2053 12.6832 72.3552 12.414 72.452C12.1447 72.5487 11.8588 72.5902 11.5732 72.574C11.5622 72.55 11.5652 72.528 11.5522 72.505L10.3112 70.264C10.7967 69.7559 11.4502 69.4414 12.1502 69.379C12.7203 69.4154 13.292 69.34 13.8332 69.157C14.272 68.9791 14.638 68.6585 14.8722 68.247C15.0362 67.947 15.0722 67.106 15.2252 66.747C15.2556 66.7959 15.283 66.8467 15.3072 66.899C15.5202 67.419 15.3072 67.818 15.6932 68.316C15.7659 68.4058 15.8469 68.4885 15.9352 68.563V68.563ZM21.6932 105.919L13.1852 87.396C14.0092 87.452 14.8692 87.414 15.6852 87.507C17.1417 89.7467 18.4701 92.0671 19.6642 94.457C19.6852 94.498 19.7162 94.516 19.7392 94.557C19.3286 95.7648 19.1863 97.0476 19.3222 98.316C19.343 98.4387 19.3884 98.556 19.4556 98.6608C19.5228 98.7656 19.6104 98.8558 19.7132 98.926C19.8999 99.2868 20.1849 99.5875 20.5353 99.7931C20.8857 99.9987 21.2871 100.101 21.6932 100.088V105.919ZM21.2082 90.185C21.0773 90.519 20.8451 90.8037 20.5442 90.999C20.5142 91.099 20.4892 91.18 20.4612 91.269C19.9492 90.321 19.4158 89.3843 18.8612 88.459C19.5839 88.6452 20.3268 88.7423 21.0732 88.748C21.0557 88.9571 21.0199 89.1642 20.9662 89.367L21.2082 90.185ZM22.4242 96.185C22.0972 96.411 21.3582 97.307 21.5472 97.769C21.5201 97.7026 21.4866 97.6389 21.4472 97.579C21.3472 96.491 22.5042 95.326 22.6532 94.25C22.7382 93.634 22.3282 92.976 22.4652 92.435C22.5782 91.988 23.2512 91.565 23.4552 91.123C23.7282 90.528 22.8872 89.29 23.8672 89.183C24.4152 89.123 25.0302 88.725 24.9672 88.083C24.9112 87.483 28.5672 86.532 29.1842 85.745C29.5556 85.0758 29.7537 84.3243 29.7602 83.559C30.1313 81.3943 31.1656 79.3984 32.7202 77.847C32.8044 77.7531 32.8721 77.6456 32.9202 77.529C32.9793 77.5159 33.0371 77.4978 33.0932 77.475C34.2502 76.838 35.2332 77.112 36.3242 76.221C37.4441 75.2085 38.4172 74.0446 39.2152 72.763C39.8152 71.797 39.7212 71.001 40.4932 70.121C40.9792 69.568 44.7452 66.659 44.3162 66.705C44.6049 66.6955 44.8792 66.5766 45.0835 66.3723C45.2877 66.168 45.4067 65.8937 45.4162 65.605L47.4422 65.587C47.4829 65.5965 47.5244 65.6025 47.5662 65.605C47.0112 67.439 47.4422 69.34 49.9352 69.589C51.2022 69.715 52.2672 69.352 53.5272 69.703C54.6842 70.025 54.9762 70.678 55.9162 71.303C56.339 71.6056 56.8383 71.7833 57.3572 71.816C57.5742 71.83 59.3372 71.394 59.2942 71.739C59.1172 73.144 61.3252 73.131 61.5002 71.739C61.6123 71.2689 61.5784 70.7758 61.4029 70.3256C61.2274 69.8753 60.9188 69.4893 60.5182 69.219C59.2462 68.519 58.1832 69.854 56.9072 69.281C55.6072 68.695 55.2882 67.539 53.6512 67.29C53.0417 67.228 52.4276 67.228 51.8182 67.29C51.2995 67.3487 50.7788 67.3863 50.2562 67.403C49.9484 67.0625 49.7841 66.6162 49.7977 66.1573C49.8113 65.6985 50.0017 65.2627 50.3292 64.941C50.39 64.8516 50.4378 64.7539 50.4712 64.651L52.8042 64.095C54.1922 64.33 54.7892 62.205 53.3902 61.968C51.8792 61.711 50.2662 61.368 48.8012 62.034C47.9292 62.429 47.5892 62.865 46.8012 63.015C45.1802 63.323 43.8472 63.161 43.3772 64.623C42.3378 64.7453 41.3662 65.2015 40.6082 65.923C39.9402 66.565 39.3392 67.801 38.7082 68.458C38.2782 68.903 37.9202 68.858 37.6082 69.423C37.3142 69.946 37.5982 70.504 37.3962 70.923C37.1172 71.506 36.7732 71.623 36.3532 72.179C36.1992 72.379 35.2332 73.932 35.0642 74.085C34.3172 74.76 32.9132 75.054 31.9822 75.567C31.7975 75.6681 31.6495 75.8249 31.5592 76.015C31.4076 76.074 31.271 76.1659 31.1592 76.284C30.1248 77.2907 29.2629 78.4606 28.6082 79.747C27.5262 81.989 28.2082 83.5 25.7262 84.64C24.5512 85.18 23.5192 85.524 23.0352 86.402C22.9896 86.399 22.9438 86.399 22.8982 86.402C20.5202 86.824 19.1482 86.187 17.0392 85.302C15.7942 84.781 14.7182 85.182 13.4332 85.126C11.9452 85.06 12.6112 84.6 12.2162 83.526C12.0922 83.187 10.0902 81.136 10.1942 81.047C10.3123 80.9517 10.4061 80.8297 10.4679 80.6911C10.5297 80.5524 10.5576 80.4011 10.5494 80.2495C10.5412 80.0979 10.4971 79.9505 10.4207 79.8193C10.3444 79.6881 10.2379 79.577 10.1102 79.495C10.175 79.3468 10.2041 79.1854 10.1951 79.0238C10.186 78.8623 10.1391 78.7051 10.0582 78.565C9.68017 77.865 10.3772 76.856 10.4512 76.146C10.4468 75.8669 10.4578 75.5879 10.4842 75.31C10.6692 74.535 10.0222 75.088 10.7652 74.675C12.1912 73.883 14.0422 75.357 15.0352 73.468C15.2542 73.053 15.1352 72.194 15.4282 71.879C15.7692 71.509 16.4902 71.631 16.9342 71.256C17.4282 70.839 17.4342 70.156 17.7412 69.647C18.5282 68.347 20.0412 67.947 21.4702 67.676C21.4262 68.068 21.3852 68.443 21.3392 68.782C21.1522 70.17 23.2772 70.77 23.4662 69.368C23.6552 67.966 23.8262 66.578 24.0302 65.187C24.1692 64.238 24.0152 64.165 25.0302 63.715C26.1822 63.205 25.9042 63.385 26.5702 64.143C26.9253 64.6882 27.4567 65.0952 28.0756 65.2961C28.6944 65.497 29.3635 65.4796 29.9712 65.247C30.8804 64.8147 31.8257 64.4627 32.7962 64.195C33.5851 64.2436 34.3771 64.2037 35.1572 64.076C35.4386 63.9734 35.6906 63.8035 35.8913 63.5811C36.0919 63.3586 36.235 63.0905 36.3082 62.8C36.5355 62.7093 36.7315 62.5543 36.8722 62.354C37.0715 62.0716 37.3329 61.8385 37.6362 61.6726C37.9395 61.5067 38.2768 61.4125 38.6222 61.397C38.7909 61.393 38.9561 61.3479 39.1035 61.2656C39.251 61.1834 39.3761 61.0665 39.4682 60.925C39.6306 60.8754 39.7757 60.7807 39.8867 60.6521C39.9977 60.5234 40.0699 60.366 40.0952 60.198L40.7562 60.569C40.8766 60.6859 41.0218 60.7741 41.1811 60.8271C41.3403 60.8801 41.5095 60.8965 41.6759 60.875C41.8424 60.8536 42.0019 60.7949 42.1425 60.7033C42.2831 60.6117 42.4013 60.4896 42.4882 60.346C42.5542 60.1179 42.6708 59.9076 42.8293 59.7307C42.9878 59.5539 43.1841 59.415 43.4036 59.3244C43.6232 59.2338 43.8603 59.1938 44.0974 59.2074C44.3345 59.221 44.5655 59.2879 44.7732 59.403C44.9371 59.4478 45.1091 59.4543 45.2759 59.422C45.4427 59.3896 45.5999 59.3194 45.7352 59.2166C45.8705 59.1139 45.9804 58.9814 46.0564 58.8294C46.1323 58.6774 46.1723 58.5099 46.1732 58.34L46.1352 58.05C46.8612 58.124 47.5412 58.699 48.2552 58.706C49.5552 58.719 49.9552 57.356 51.4552 57.806C51.5237 57.8195 51.5934 57.8259 51.6632 57.825C51.8175 58.0472 52.0436 58.2095 52.3035 58.2845C52.5634 58.3596 52.8412 58.3428 53.0902 58.237C54.3142 57.715 54.7982 58.88 55.7632 59.18C56.4992 59.409 57.9902 58.395 58.1752 59.664C58.2133 59.8038 58.2787 59.9347 58.3676 60.0491C58.4565 60.1635 58.5672 60.2592 58.6932 60.3308C58.8192 60.4023 58.9581 60.4483 59.1019 60.466C59.2457 60.4837 59.3916 60.4728 59.5312 60.434C59.7162 60.35 59.9092 60.29 60.0992 60.222C59.9675 60.3277 59.8621 60.4625 59.7914 60.6158C59.7207 60.7691 59.6865 60.9367 59.6915 61.1055C59.6965 61.2742 59.7407 61.4395 59.8204 61.5883C59.9002 61.7371 60.0134 61.8654 60.1512 61.963C60.0198 62.1914 59.9774 62.4603 60.0322 62.718C60.2532 63.783 60.6992 63.799 61.4502 64.464L62.1222 64.707C62.4822 64.7223 62.4702 64.867 62.0862 65.141C62.1322 65.278 61.9522 65.836 61.9772 66.041C61.9826 66.2811 62.0639 66.5134 62.2094 66.7045C62.3549 66.8957 62.5571 67.0358 62.7872 67.105C64.4362 67.397 64.4382 68.376 65.0962 69.538C65.4784 70.0646 65.8131 70.6241 66.0962 71.21C66.5782 72.622 66.5652 79.757 63.5382 77.734C62.3552 76.943 61.2492 78.852 62.4252 79.634C63.0792 80.0934 63.8815 80.2914 64.6742 80.189C64.7085 80.227 64.7449 80.263 64.7832 80.297C65.4978 80.8643 65.9671 81.6845 66.0942 82.588C56.1548 86.2133 46.1215 89.554 35.9942 92.61C35.789 92.6725 35.6081 92.7968 35.4762 92.966C35.3511 93.0053 35.2354 93.0699 35.1365 93.156C35.0375 93.242 34.9574 93.3476 34.9012 93.466C35.0072 93.259 33.2012 93.166 32.8642 93.266C32.0442 93.52 31.5562 94.29 30.7152 94.309C30.6585 94.0055 30.4869 93.7355 30.2362 93.5552C29.9855 93.3749 29.675 93.2982 29.3692 93.341L28.7442 93.434C28.4632 93.5132 28.2248 93.7 28.0806 93.9538C27.9364 94.2077 27.8982 94.5081 27.9742 94.79C28.1932 95.453 27.3742 95.318 26.8402 95.658C25.7682 96.344 25.2832 96 24.1192 95.847C23.5303 95.7455 22.9247 95.8667 22.4202 96.187L22.4242 96.185ZM113.385 76.577C108.276 77.939 103.252 80.191 98.3182 82.017C88.2115 85.7557 78.1202 89.5377 68.0442 93.363C53.4762 98.872 37.9502 103.55 23.9032 110.363V98.813C23.9028 98.6113 23.8434 98.4142 23.7322 98.246C23.7527 98.2057 23.7817 98.1705 23.8173 98.1426C23.8529 98.1148 23.8942 98.0951 23.9382 98.085C24.2382 97.995 25.0202 98.466 25.2842 98.514C26.6162 98.756 27.9632 97.754 29.0842 97.195C29.4457 97.0246 29.7561 96.7622 29.9842 96.434C30.5792 96.5635 31.1966 96.5477 31.7842 96.388C32.4572 96.188 33.0432 95.429 33.7272 95.379C34.3552 95.332 34.8892 95.736 35.5702 95.567C35.8148 95.5069 36.0448 95.3984 36.2466 95.2477C36.4485 95.0971 36.618 94.9074 36.7452 94.69C47.8538 91.3473 58.8542 87.6537 69.7462 83.609C69.905 83.5526 70.0485 83.46 70.1654 83.3385C70.2822 83.217 70.3691 83.0699 70.4192 82.909C86.1132 77.639 101.647 71.9287 117.019 65.778C115.649 69.296 114.068 72.947 113.381 76.579L113.385 76.577ZM115.952 63.847C116.132 63.199 116.211 62.5271 116.186 61.855C116.5 62.365 116.818 62.873 117.129 63.385C116.738 63.539 116.344 63.688 115.952 63.847Z" fill="#E5E5E5"/>
<path d="M75.2462 58.153C75.5387 58.153 75.8193 58.0368 76.0261 57.8299C76.233 57.6231 76.3492 57.3425 76.3492 57.05C76.3492 56.7575 76.233 56.4769 76.0261 56.2701C75.8193 56.0632 75.5387 55.947 75.2462 55.947C74.9537 55.947 74.6731 56.0632 74.4662 56.2701C74.2594 56.4769 74.1432 56.7575 74.1432 57.05C74.1432 57.3425 74.2594 57.6231 74.4662 57.8299C74.6731 58.0368 74.9537 58.153 75.2462 58.153Z" fill="#E5E5E5"/>
<path d="M79.6332 54.231C79.3414 54.231 79.0616 54.3469 78.8554 54.5532C78.6491 54.7595 78.5332 55.0393 78.5332 55.331C78.5332 55.6227 78.6491 55.9025 78.8554 56.1088C79.0616 56.3151 79.3414 56.431 79.6332 56.431C79.9249 56.431 80.2047 56.3151 80.411 56.1088C80.6173 55.9025 80.7332 55.6227 80.7332 55.331C80.7332 55.0393 80.6173 54.7595 80.411 54.5532C80.2047 54.3469 79.9249 54.231 79.6332 54.231V54.231Z" fill="#E5E5E5"/>
<path d="M84.2082 52.514C83.9156 52.514 83.6351 52.6302 83.4282 52.8371C83.2214 53.0439 83.1052 53.3245 83.1052 53.617C83.1052 53.9095 83.2214 54.1901 83.4282 54.3969C83.6351 54.6038 83.9156 54.72 84.2082 54.72C84.5007 54.72 84.7813 54.6038 84.9881 54.3969C85.195 54.1901 85.3112 53.9095 85.3112 53.617C85.3112 53.3245 85.195 53.0439 84.9881 52.8371C84.7813 52.6302 84.5007 52.514 84.2082 52.514Z" fill="#E5E5E5"/>
<path d="M73.1482 61.288C72.8564 61.288 72.5766 61.4039 72.3703 61.6102C72.164 61.8165 72.0482 62.0963 72.0482 62.388C72.0482 62.6797 72.164 62.9595 72.3703 63.1658C72.5766 63.3721 72.8564 63.488 73.1482 63.488C73.4399 63.488 73.7197 63.3721 73.926 63.1658C74.1323 62.9595 74.2482 62.6797 74.2482 62.388C74.2482 62.0963 74.1323 61.8165 73.926 61.6102C73.7197 61.4039 73.4399 61.288 73.1482 61.288Z" fill="#E5E5E5"/>
<path d="M75.4372 66.437H75.2462C74.9537 66.437 74.6731 66.5532 74.4662 66.7601C74.2594 66.9669 74.1432 67.2475 74.1432 67.54C74.1432 67.8325 74.2594 68.1131 74.4662 68.3199C74.6731 68.5268 74.9537 68.643 75.2462 68.643H75.4372C75.7297 68.643 76.0103 68.5268 76.2171 68.3199C76.424 68.1131 76.5402 67.8325 76.5402 67.54C76.5402 67.2475 76.424 66.9669 76.2171 66.7601C76.0103 66.5532 75.7297 66.437 75.4372 66.437V66.437Z" fill="#E5E5E5"/>
<path d="M78.1082 59.762H77.9172C77.6254 59.762 77.3456 59.8779 77.1394 60.0842C76.9331 60.2905 76.8172 60.5703 76.8172 60.862C76.8172 61.1537 76.9331 61.4335 77.1394 61.6398C77.3456 61.8461 77.6254 61.962 77.9172 61.962H78.1082C78.3999 61.962 78.6797 61.8461 78.886 61.6398C79.0923 61.4335 79.2082 61.1537 79.2082 60.862C79.2082 60.5703 79.0923 60.2905 78.886 60.0842C78.6797 59.8779 78.3999 59.762 78.1082 59.762V59.762Z" fill="#E5E5E5"/>
<path d="M79.6332 64.53C79.3406 64.53 79.0601 64.6462 78.8532 64.8531C78.6464 65.0599 78.5302 65.3405 78.5302 65.633C78.5302 65.9255 78.6464 66.2061 78.8532 66.4129C79.0601 66.6198 79.3406 66.736 79.6332 66.736C79.9257 66.736 80.2063 66.6198 80.4131 66.4129C80.62 66.2061 80.7362 65.9255 80.7362 65.633C80.7362 65.3405 80.62 65.0599 80.4131 64.8531C80.2063 64.6462 79.9257 64.53 79.6332 64.53Z" fill="#E5E5E5"/>
<path d="M82.1082 58.427C81.8164 58.427 81.5367 58.5429 81.3304 58.7492C81.1241 58.9555 81.0082 59.2353 81.0082 59.527C81.0082 59.8187 81.1241 60.0985 81.3304 60.3048C81.5367 60.5111 81.8164 60.627 82.1082 60.627C82.3999 60.627 82.6797 60.5111 82.886 60.3048C83.0923 60.0985 83.2082 59.8187 83.2082 59.527C83.2082 59.2353 83.0923 58.9555 82.886 58.7492C82.6797 58.5429 82.3999 58.427 82.1082 58.427V58.427Z" fill="#E5E5E5"/>
<path d="M83.8292 63.004C83.5366 63.004 83.2561 63.1202 83.0492 63.3271C82.8424 63.5339 82.7262 63.8145 82.7262 64.107C82.7262 64.3995 82.8424 64.6801 83.0492 64.8869C83.2561 65.0938 83.5366 65.21 83.8292 65.21C84.1217 65.21 84.4022 65.0938 84.6091 64.8869C84.816 64.6801 84.9322 64.3995 84.9322 64.107C84.9322 63.8145 84.816 63.5339 84.6091 63.3271C84.4022 63.1202 84.1217 63.004 83.8292 63.004Z" fill="#E5E5E5"/>
<path d="M86.6902 56.901C86.3976 56.901 86.1171 57.0172 85.9102 57.2241C85.7034 57.4309 85.5872 57.7115 85.5872 58.004C85.5872 58.2965 85.7034 58.5771 85.9102 58.7839C86.1171 58.9908 86.3976 59.107 86.6902 59.107C86.9827 59.107 87.2632 58.9908 87.4701 58.7839C87.6769 58.5771 87.7932 58.2965 87.7932 58.004C87.7932 57.7115 87.6769 57.4309 87.4701 57.2241C87.2632 57.0172 86.9827 56.901 86.6902 56.901V56.901Z" fill="#E5E5E5"/>
<path d="M78.6792 71.778C78.3874 71.778 78.1076 71.8939 77.9013 72.1002C77.6951 72.3065 77.5792 72.5863 77.5792 72.878C77.5792 73.1697 77.6951 73.4495 77.9013 73.6558C78.1076 73.8621 78.3874 73.978 78.6792 73.978C78.9709 73.978 79.2507 73.8621 79.457 73.6558C79.6633 73.4495 79.7792 73.1697 79.7792 72.878C79.7792 72.5863 79.6633 72.3065 79.457 72.1002C79.2507 71.8939 78.9709 71.778 78.6792 71.778V71.778Z" fill="#E5E5E5"/>
<path d="M83.0662 72.159C82.7736 72.159 82.4931 72.2752 82.2862 72.4821C82.0794 72.6889 81.9632 72.9695 81.9632 73.262C81.9632 73.5545 82.0794 73.8351 82.2862 74.0419C82.4931 74.2488 82.7736 74.365 83.0662 74.365C83.3587 74.365 83.6392 74.2488 83.8461 74.0419C84.053 73.8351 84.1692 73.5545 84.1692 73.262C84.1692 72.9695 84.053 72.6889 83.8461 72.4821C83.6392 72.2752 83.3587 72.159 83.0662 72.159Z" fill="#E5E5E5"/>
<path d="M87.0712 71.778C86.7794 71.778 86.4996 71.8939 86.2933 72.1002C86.0871 72.3065 85.9712 72.5863 85.9712 72.878C85.9712 73.1697 86.0871 73.4495 86.2933 73.6558C86.4996 73.8621 86.7794 73.978 87.0712 73.978C87.3629 73.978 87.6427 73.8621 87.849 73.6558C88.0553 73.4495 88.1712 73.1697 88.1712 72.878C88.1712 72.5863 88.0553 72.3065 87.849 72.1002C87.6427 71.8939 87.3629 71.778 87.0712 71.778Z" fill="#E5E5E5"/>
<path d="M102.838 66.975C103.12 66.8972 103.36 66.7105 103.504 66.456C103.649 66.2015 103.686 65.9001 103.608 65.618C103.53 65.3359 103.344 65.0964 103.089 64.952C102.835 64.8076 102.533 64.7702 102.251 64.848L93.9952 67.129C93.8555 67.1675 93.7248 67.2332 93.6105 67.3223C93.4963 67.4113 93.4006 67.522 93.3291 67.648C93.2576 67.774 93.2117 67.9129 93.1938 68.0567C93.176 68.2005 93.1866 68.3463 93.2252 68.486C93.2637 68.6257 93.3294 68.7564 93.4184 68.8706C93.5075 68.9849 93.6182 69.0805 93.7442 69.152C93.8702 69.2235 94.0091 69.2695 94.1529 69.2874C94.2966 69.3052 94.4425 69.2945 94.5822 69.256L102.838 66.975Z" fill="#E5E5E5"/>
<path d="M104.237 59.297C104.529 59.297 104.809 59.1811 105.015 58.9748C105.221 58.7685 105.337 58.4887 105.337 58.197C105.337 57.9053 105.221 57.6255 105.015 57.4192C104.809 57.2129 104.529 57.097 104.237 57.097C103.945 57.097 103.666 57.2129 103.459 57.4192C103.253 57.6255 103.137 57.9053 103.137 58.197C103.137 58.4887 103.253 58.7685 103.459 58.9748C103.666 59.1811 103.945 59.297 104.237 59.297Z" fill="#E5E5E5"/>
<path d="M108.051 61.205C108.344 61.205 108.624 61.0888 108.831 60.8819C109.038 60.6751 109.154 60.3945 109.154 60.102C109.154 59.8095 109.038 59.5289 108.831 59.3221C108.624 59.1152 108.344 58.999 108.051 58.999C107.759 58.999 107.478 59.1152 107.271 59.3221C107.064 59.5289 106.948 59.8095 106.948 60.102C106.948 60.3945 107.064 60.6751 107.271 60.8819C107.478 61.0888 107.759 61.205 108.051 61.205Z" fill="#E5E5E5"/>
<path d="M112.247 63.875C112.54 63.875 112.82 63.7588 113.027 63.5519C113.234 63.3451 113.35 63.0645 113.35 62.772C113.35 62.4795 113.234 62.1989 113.027 61.9921C112.82 61.7852 112.54 61.669 112.247 61.669C111.955 61.669 111.674 61.7852 111.467 61.9921C111.26 62.1989 111.144 62.4795 111.144 62.772C111.144 63.0645 111.26 63.3451 111.467 63.5519C111.674 63.7588 111.955 63.875 112.247 63.875Z" fill="#E5E5E5"/>
<path d="M99.4682 42.978C99.1764 42.978 98.8966 43.0939 98.6903 43.3002C98.4841 43.5065 98.3682 43.7863 98.3682 44.078C98.3682 44.3697 98.4841 44.6495 98.6903 44.8558C98.8966 45.0621 99.1764 45.178 99.4682 45.178C99.7599 45.178 100.04 45.0621 100.246 44.8558C100.452 44.6495 100.568 44.3697 100.568 44.078C100.568 43.7863 100.452 43.5065 100.246 43.3002C100.04 43.0939 99.7599 42.978 99.4682 42.978V42.978Z" fill="#E5E5E5"/>
<path d="M102.139 47.747C101.847 47.747 101.566 47.8632 101.359 48.0701C101.152 48.2769 101.036 48.5575 101.036 48.85C101.036 49.1425 101.152 49.4231 101.359 49.6299C101.566 49.8368 101.847 49.953 102.139 49.953C102.432 49.953 102.712 49.8368 102.919 49.6299C103.126 49.4231 103.242 49.1425 103.242 48.85C103.242 48.5575 103.126 48.2769 102.919 48.0701C102.712 47.8632 102.432 47.747 102.139 47.747Z" fill="#E5E5E5"/>
<path d="M95.2722 46.518C95.5639 46.518 95.8437 46.4021 96.05 46.1958C96.2563 45.9895 96.3722 45.7097 96.3722 45.418C96.3722 45.1263 96.2563 44.8465 96.05 44.6402C95.8437 44.4339 95.5639 44.318 95.2722 44.318C94.9804 44.318 94.7007 44.4339 94.4944 44.6402C94.2881 44.8465 94.1722 45.1263 94.1722 45.418C94.1722 45.7097 94.2881 45.9895 94.4944 46.1958C94.7007 46.4021 94.9804 46.518 95.2722 46.518V46.518Z" fill="#E5E5E5"/>
<path d="M96.9892 48.89C96.6966 48.89 96.4161 49.0062 96.2092 49.2131C96.0024 49.4199 95.8862 49.7005 95.8862 49.993C95.8862 50.2855 96.0024 50.5661 96.2092 50.7729C96.4161 50.9798 96.6966 51.096 96.9892 51.096C97.2817 51.096 97.5623 50.9798 97.7691 50.7729C97.976 50.5661 98.0922 50.2855 98.0922 49.993C98.0922 49.7005 97.976 49.4199 97.7691 49.2131C97.5623 49.0062 97.2817 48.89 96.9892 48.89Z" fill="#E5E5E5"/>
<path d="M90.6952 45.647C90.4026 45.647 90.1221 45.7632 89.9152 45.9701C89.7084 46.1769 89.5922 46.4575 89.5922 46.75C89.5922 47.0425 89.7084 47.3231 89.9152 47.5299C90.1221 47.7368 90.4026 47.853 90.6952 47.853C90.9877 47.853 91.2683 47.7368 91.4751 47.5299C91.682 47.3231 91.7982 47.0425 91.7982 46.75C91.7982 46.4575 91.682 46.1769 91.4751 45.9701C91.2683 45.7632 90.9877 45.647 90.6952 45.647Z" fill="#E5E5E5"/>
<path d="M93.5562 49.462C93.2636 49.462 92.9831 49.5782 92.7762 49.7851C92.5694 49.9919 92.4532 50.2725 92.4532 50.565C92.4532 50.8575 92.5694 51.1381 92.7762 51.3449C92.9831 51.5518 93.2636 51.668 93.5562 51.668C93.8487 51.668 94.1293 51.5518 94.3361 51.3449C94.543 51.1381 94.6592 50.8575 94.6592 50.565C94.6592 50.2725 94.543 49.9919 94.3361 49.7851C94.1293 49.5782 93.8487 49.462 93.5562 49.462Z" fill="#E5E5E5"/>
<path d="M96.2432 53.6C96.0363 53.3931 95.7557 53.2769 95.4632 53.2769C95.1706 53.2769 94.89 53.3931 94.6832 53.6C94.4763 53.8069 94.3601 54.0874 94.3601 54.38C94.3601 54.6726 94.4763 54.9531 94.6832 55.16L94.8742 55.35C95.0809 55.5569 95.3613 55.6731 95.6538 55.6732C95.9463 55.6733 96.2268 55.5572 96.4337 55.3505C96.6405 55.1438 96.7568 54.8633 96.7569 54.5709C96.757 54.2784 96.6409 53.9979 96.4342 53.791L96.2432 53.6Z" fill="#E5E5E5"/>
<path d="M86.8802 47.174C86.5884 47.174 86.3087 47.2899 86.1024 47.4962C85.8961 47.7025 85.7802 47.9823 85.7802 48.274C85.7802 48.5657 85.8961 48.8455 86.1024 49.0518C86.3087 49.2581 86.5884 49.374 86.8802 49.374C87.1719 49.374 87.4517 49.2581 87.658 49.0518C87.8643 48.8455 87.9802 48.5657 87.9802 48.274C87.9802 47.9823 87.8643 47.7025 87.658 47.4962C87.4517 47.2899 87.1719 47.174 86.8802 47.174V47.174Z" fill="#E5E5E5"/>
<path d="M68.3802 49.272C68.0884 49.272 67.8087 49.3879 67.6024 49.5942C67.3961 49.8005 67.2802 50.0803 67.2802 50.372C67.2802 50.6637 67.3961 50.9435 67.6024 51.1498C67.8087 51.3561 68.0884 51.472 68.3802 51.472C68.6719 51.472 68.9517 51.3561 69.158 51.1498C69.3643 50.9435 69.4802 50.6637 69.4802 50.372C69.4802 50.0803 69.3643 49.8005 69.158 49.5942C68.9517 49.3879 68.6719 49.272 68.3802 49.272Z" fill="#E5E5E5"/>
<path d="M60.9412 55.375C60.6486 55.375 60.3681 55.4912 60.1612 55.6981C59.9544 55.9049 59.8382 56.1855 59.8382 56.478C59.8382 56.7705 59.9544 57.0511 60.1612 57.2579C60.3681 57.4648 60.6486 57.581 60.9412 57.581C61.2337 57.581 61.5142 57.4648 61.7211 57.2579C61.928 57.0511 62.0442 56.7705 62.0442 56.478C62.0442 56.1855 61.928 55.9049 61.7211 55.6981C61.5142 55.4912 61.2337 55.375 60.9412 55.375V55.375Z" fill="#E5E5E5"/>
<path d="M65.7082 59.107H65.8982C66.1907 59.107 66.4712 58.9908 66.6781 58.7839C66.885 58.5771 67.0012 58.2965 67.0012 58.004C67.0012 57.7115 66.885 57.4309 66.6781 57.2241C66.4712 57.0172 66.1907 56.901 65.8982 56.901H65.7082C65.4156 56.901 65.1351 57.0172 64.9282 57.2241C64.7214 57.4309 64.6052 57.7115 64.6052 58.004C64.6052 58.2965 64.7214 58.5771 64.9282 58.7839C65.1351 58.9908 65.4156 59.107 65.7082 59.107Z" fill="#E5E5E5"/>
</svg>
