<svg width="120" height="93" viewBox="0 0 120 93" fill="none" xmlns="http://www.w3.org/2000/svg">
<path d="M4.522 30.221C4.31754 30.1725 4.10381 30.1798 3.90311 30.242C3.70241 30.3043 3.5221 30.4193 3.381 30.575C1.3 32.717 -0.299997 35.5 0.048003 38.585C0.155521 39.6423 0.508624 40.6598 1.07915 41.5564C1.64967 42.4529 2.42182 43.2038 3.334 43.749C3.36321 43.9261 3.42974 44.0949 3.52916 44.2443C3.62859 44.3937 3.75864 44.5203 3.9107 44.6156C4.06276 44.7109 4.23335 44.7728 4.41115 44.7972C4.58895 44.8216 4.7699 44.8079 4.942 44.757H4.95C4.184 48.369 4.414 52.446 8.521 53.821C8.67819 53.8802 8.84623 53.905 9.0138 53.8938C9.18138 53.8825 9.34461 53.8356 9.49251 53.756C9.64041 53.6764 9.76955 53.566 9.87123 53.4324C9.97291 53.2987 10.0448 53.1448 10.082 52.981C10.6584 52.7372 11.1833 52.3864 11.629 51.947C12.1263 51.3886 12.5718 50.7861 12.96 50.147C13.0556 50.5753 13.1802 50.9966 13.333 51.408C13.254 51.4461 13.1789 51.492 13.109 51.545C10.7549 53.7486 7.99971 55.4799 4.993 56.645C4.67758 56.7652 4.4193 57.0003 4.27 57.303C4.127 57.303 3.985 57.303 3.842 57.297C3.61716 57.2929 3.39519 57.3479 3.19828 57.4565C3.00138 57.5651 2.83645 57.7236 2.72001 57.9159C2.60357 58.1083 2.5397 58.3279 2.53478 58.5527C2.52986 58.7776 2.58408 58.9997 2.692 59.197C2.77667 61.797 2.862 64.3993 2.948 67.004C2.95932 67.1313 2.98896 67.2562 3.036 67.375C2.83283 67.5125 2.67425 67.7064 2.57976 67.9328C2.48527 68.1592 2.45899 68.4082 2.50413 68.6494C2.54928 68.8905 2.66389 69.1132 2.83389 69.2901C3.00388 69.467 3.22185 69.5903 3.461 69.645C4.361 69.81 5.268 69.95 6.172 70.105C6.13 73.191 5.495 77.113 6.901 79.92C7.955 82.02 9.99 83.294 12.057 84.296C12.2136 84.5098 12.4321 84.6704 12.683 84.756C30.9354 90.9207 50.2152 93.4653 69.442 92.247C78.2971 91.6641 87.0807 90.276 95.684 88.1C100.871 86.783 106.897 85.505 109.284 80.423C114.05 74.913 112.664 66.864 111.719 60.202C112.153 60.192 112.592 60.164 113.038 60.115C113.3 60.0895 113.55 59.9889 113.757 59.8255C113.963 59.662 114.119 59.4424 114.204 59.193C114.891 58.7765 115.452 58.1825 115.83 57.4737C116.207 56.7648 116.387 55.9672 116.349 55.165C116.306 54.4943 116.105 53.8433 115.762 53.265C115.762 53.233 115.762 53.202 115.762 53.165C115.679 52.5852 115.535 52.0155 115.335 51.465C116.086 51.5449 116.844 51.4137 117.524 51.0862C118.204 50.7586 118.779 50.2477 119.184 49.611C119.46 49.4488 119.663 49.1862 119.751 48.878L119.937 48.255C120.004 48.0552 120.016 47.8408 119.971 47.6347C119.927 47.4286 119.827 47.2386 119.682 47.085C119.76 46.8952 119.789 46.6888 119.765 46.485C119.479 43.4306 118.436 40.4958 116.73 37.946C117.279 37.6637 117.805 37.3376 118.302 36.971C118.458 36.8588 118.588 36.715 118.684 36.5491C118.781 36.3832 118.841 36.1988 118.862 36.008C119.009 35.8776 119.122 35.7125 119.19 35.5277C119.258 35.343 119.279 35.1442 119.251 34.9493C119.223 34.7544 119.147 34.5695 119.031 34.4111C118.914 34.2528 118.759 34.1259 118.581 34.042C115.924 32.7436 113.397 31.1956 111.033 29.419C111.548 29.381 112.064 29.341 112.579 29.304C112.877 29.2792 113.159 29.1585 113.382 28.9601C113.606 28.7617 113.759 28.4963 113.819 28.2035C113.879 27.9108 113.842 27.6065 113.715 27.3361C113.588 27.0658 113.376 26.844 113.112 26.704C114.993 20.9246 114.661 14.6528 112.181 9.10401C112.181 8.90811 112.135 8.71496 112.047 8.53984C111.959 8.36472 111.832 8.21243 111.675 8.09501C111.604 7.99791 111.517 7.91313 111.418 7.84401C109.318 2.41301 101.599 3.08501 96.796 2.64401C86.068 1.64401 75.3117 1.09634 64.527 1.00101C53.755 0.90501 42.991 1.26101 32.235 2.06901C25.042 2.61401 17.105 2.45301 11.354 7.36901C11.1945 7.49283 11.0726 7.65859 11.002 7.84774C10.9314 8.03688 10.9147 8.24196 10.954 8.44001C10.911 8.50631 10.8732 8.57585 10.841 8.64801C8.28141 14.675 8.06212 21.44 10.226 27.62C10.2519 27.6723 10.2813 27.7227 10.314 27.771C9.90149 28.3618 9.35266 28.8444 8.714 29.178C8.63338 29.2305 8.5592 29.2922 8.493 29.362C8.27127 29.4168 8.06837 29.5303 7.90562 29.6905C7.74287 29.8508 7.62627 30.0519 7.56806 30.2727C7.50986 30.4936 7.51219 30.726 7.57482 30.9457C7.63745 31.1653 7.75807 31.3641 7.924 31.521C8.296 31.862 8.668 32.221 9.041 32.577C7.906 31.8 6.9 31.035 6.1 30.361C5.88528 30.1744 5.61708 30.0604 5.3337 30.0352C5.05031 30.0101 4.76623 30.0751 4.522 30.221V30.221ZM12.687 46.71C11.8695 47.2464 11.1816 47.9579 10.673 48.793C10.184 49.518 9.473 50.888 8.418 50.474C8.26299 50.4134 8.09739 50.3845 7.931 50.389C6.47 48.695 7.442 45.434 8.031 43.55C8.043 43.513 8.031 43.484 8.042 43.45C9.69203 42.4226 11.5221 41.7178 13.435 41.373C13.483 41.368 13.535 41.373 13.579 41.364C13.1081 43.1127 12.8094 44.9032 12.687 46.71V46.71ZM14.624 53.748C14.796 53.975 14.976 54.2 15.174 54.42C15.192 54.439 15.212 54.443 15.229 54.46C15.3421 54.6275 15.4942 54.7651 15.6722 54.8609C15.8503 54.9567 16.0489 55.0079 16.251 55.01C16.284 55.01 16.314 55.01 16.346 55.01C16.41 55.61 16.468 56.217 16.528 56.82C15.496 56.928 14.4627 57.0197 13.428 57.095C13.5343 56.9385 13.6077 56.7621 13.6439 56.5764C13.6801 56.3907 13.6782 56.1996 13.6385 56.0147C13.5988 55.8297 13.522 55.6547 13.4128 55.5003C13.3036 55.3458 13.1642 55.2151 13.003 55.116C13.562 54.684 14.1 54.222 14.624 53.748V53.748ZM32.567 40.786C27.403 44.761 24.039 52.126 16.893 52.313C14.338 49.24 15.379 45.066 16.293 41.53C16.3007 41.47 16.3041 41.4095 16.303 41.349C18.803 41.522 21.394 42.049 23.878 41.832C26.7952 41.6861 29.6986 41.3366 32.567 40.786V40.786ZM24.056 38.237C25.9127 36.9982 27.4956 35.3918 28.707 33.517C28.72 33.498 28.725 33.48 28.736 33.461C28.9061 33.4097 29.0621 33.3199 29.1919 33.1985C29.3216 33.0771 29.4216 32.9274 29.484 32.761C29.934 32.822 30.384 32.88 30.837 32.935C30.4534 34.4449 29.5795 35.7848 28.3522 36.7443C27.1249 37.7039 25.6138 38.2289 24.056 38.237ZM86.214 37.752C87.656 41.252 91.035 42.872 94.681 43.996C96.952 44.5183 99.2857 44.7149 101.612 44.58C101.638 44.6328 101.668 44.6839 101.701 44.733C104.352 47.7719 107.861 49.9368 111.766 50.943C105.944 50.987 100.953 52.01 95.166 49.395C92.56 48.217 87.13 44.814 84.63 41.129C84.6288 40.9227 84.5725 40.7204 84.4671 40.543C84.3616 40.3656 84.2107 40.2196 84.03 40.12C82.73 37.603 83.008 35.039 86.655 33.029C86.8766 32.9068 87.0548 32.7188 87.165 32.491C87.8828 32.0564 88.6373 31.6856 89.42 31.383C89.5092 31.5191 89.6208 31.6391 89.75 31.738C90.636 32.4047 91.5217 33.074 92.407 33.746C89.66 33.187 87.556 33.431 85.615 35.954C85.4955 36.1005 85.415 36.2749 85.3809 36.4608C85.3468 36.6468 85.3603 36.8384 85.42 37.0177C85.4798 37.1971 85.5839 37.3585 85.7227 37.4868C85.8615 37.6152 86.0305 37.7064 86.214 37.752V37.752ZM92.427 67.422V67.228C92.427 67.192 92.41 67.169 92.408 67.135C93.502 67.255 94.598 67.36 95.692 67.493C92.4034 69.2685 88.9446 70.709 85.368 71.793C84.8359 70.0021 84.4039 68.1829 84.074 66.344C85.993 66.499 87.911 66.667 89.827 66.86C89.784 66.9794 89.7588 67.1043 89.752 67.231V67.425C89.7619 67.7734 89.9074 68.1042 90.1574 68.347C90.4075 68.5897 90.7424 68.7254 91.091 68.725C91.4395 68.7246 91.7741 68.5882 92.0236 68.3449C92.2732 68.1015 92.4179 67.7704 92.427 67.422ZM73.054 62.951C72.9257 62.9523 72.7982 62.9728 72.676 63.012C55.117 59.553 37.215 63.784 19.57 61.125C19.498 60.068 19.417 59.013 19.317 57.959C19.379 57.7311 19.3936 57.4928 19.36 57.259C19.2481 56.5162 19.1779 55.7677 19.15 55.017C32.2423 56.2024 45.4068 56.3696 58.525 55.517C58.6699 55.5024 58.8114 55.4642 58.944 55.404L61.082 55.059C64.5291 55.9036 67.7913 57.3751 70.706 59.4C70.4966 59.413 70.2935 59.4765 70.114 59.585L69.514 59.939C69.2237 60.1258 69.0167 60.4175 68.9362 60.7532C68.8558 61.0889 68.9081 61.4427 69.0823 61.7408C69.2565 62.0388 69.5391 62.2581 69.8711 62.3528C70.2031 62.4475 70.5588 62.4103 70.864 62.249L71.464 61.894C71.7255 61.7492 71.9251 61.514 72.0255 61.2325C72.1258 60.951 72.12 60.6425 72.009 60.365C72.109 60.44 72.203 60.508 72.298 60.584C72.4184 60.6799 72.5535 60.7559 72.698 60.809C72.7432 60.8585 72.792 60.9046 72.844 60.947C75.906 62.865 77.308 59.185 78.771 57.184C79.2903 56.4875 79.8738 55.8413 80.514 55.254C87.5947 57.2272 94.8879 58.3372 102.235 58.56C102.24 58.6275 102.252 58.6945 102.269 58.76C102.031 60.5295 101.936 62.3153 101.985 64.1C101.836 64.2456 101.737 64.4352 101.704 64.641C101.659 64.9642 101.633 65.2898 101.625 65.616C92.141 64.282 82.627 63.377 73.054 62.951ZM29.059 66.4C29.1674 66.2667 29.2476 66.1127 29.2949 65.9474C29.3421 65.7822 29.3553 65.6091 29.3337 65.4386C29.3121 65.2681 29.2561 65.1037 29.1692 64.9555C29.0823 64.8072 28.9662 64.6781 28.828 64.576C43.886 65.064 59.063 62.547 73.928 65.983C74.1198 66.0323 74.3205 66.0357 74.5139 65.9929C74.7073 65.9502 74.8878 65.8625 75.041 65.737C77.141 65.844 79.235 65.963 81.328 66.113C81.633 68.0052 82.0454 69.8786 82.563 71.724L52.971 70.642C52.815 70.6398 52.6599 70.6656 52.513 70.718C45.88 69.618 38.966 70.431 32.271 70.192C30.815 70.139 29.364 70.036 27.911 69.949C28.2299 69.9401 28.5328 69.807 28.755 69.578L29.718 68.614C29.8813 68.4449 29.9967 68.2355 30.0524 68.0072C30.1081 67.7789 30.1022 67.5398 30.0351 67.3145C29.9681 67.0893 29.8423 66.8859 29.6708 66.7252C29.4993 66.5645 29.2882 66.4523 29.059 66.4V66.4ZM53.335 73.56C53.5124 73.6025 53.6968 73.6072 53.8762 73.5738C54.0555 73.5404 54.2258 73.4696 54.376 73.366L82.682 74.403C76.2834 75.774 69.7392 76.344 63.2 76.1C52.983 75.827 41.777 75.261 31.516 72.743C38.786 72.774 46.356 72.061 53.335 73.562V73.56ZM36.018 45.839C36.1094 45.9447 36.2214 46.0308 36.347 46.092C36.4727 46.1531 36.6094 46.1882 36.749 46.195C38.126 47.219 40.235 47.082 41.933 47.137C45.7338 47.161 49.5311 46.9006 53.293 46.358C53.5753 46.3263 53.8413 46.2095 54.0557 46.023C54.27 45.8365 54.4225 45.5892 54.493 45.314C54.666 45.355 54.829 45.392 54.993 45.428C54.4654 46.1644 54.0979 47.003 53.914 47.89C52.201 47.742 50.528 47.067 48.833 47.783C48.2109 48.0474 47.6786 48.486 47.3 49.046C47.1488 49.0603 47.0011 49.0998 46.863 49.163C45.0784 50.0409 43.2326 50.7886 41.34 51.4C41.346 50.7613 41.1808 50.1327 40.8616 49.5794C40.5425 49.0262 40.0809 48.5685 39.525 48.254C38.2642 47.7 36.9022 47.4133 35.525 47.412C33.731 47.238 31.936 47.073 30.142 46.906C31.8081 45.2065 33.6475 43.6858 35.63 42.369C35.603 42.448 35.575 42.525 35.553 42.608C35.4087 42.7275 35.2959 42.8804 35.2243 43.0535C35.1526 43.2266 35.1244 43.4145 35.142 43.601C35.1798 44.4231 35.4877 45.2097 36.018 45.839V45.839ZM74.195 58.639C74.145 58.6162 74.0936 58.5968 74.041 58.581C71.2688 56.3502 68.1462 54.5941 64.8 53.384C68.167 52.415 71.493 50.866 74.889 50.116C74.909 50.116 74.919 50.099 74.938 50.094C77.0846 50.7251 79.2976 51.1027 81.532 51.219C81.132 51.543 80.602 52 80.017 52.519C79.826 52.5703 79.6498 52.666 79.5029 52.7985C79.3561 52.9309 79.2426 53.0963 79.172 53.281C76.731 55.514 73.829 58.406 74.195 58.635V58.639ZM66.547 49.697C64.347 50.483 60.861 52.341 58.612 51.081C58.4732 50.8666 58.2626 50.7085 58.018 50.635C57.7108 50.3442 57.4558 50.003 57.264 49.626C57.1633 49.4299 57.0121 49.2642 56.826 49.146L56.563 48.421C56.7405 47.5036 57.2527 46.685 58 46.124C58.1452 46.2819 58.328 46.4005 58.5313 46.4689C58.7346 46.5372 58.9519 46.5531 59.163 46.515C59.3495 46.6111 59.5607 46.6484 59.7688 46.6222C59.9769 46.596 60.1722 46.5074 60.329 46.368C61.642 45.362 62.997 44.383 64.329 43.377C66.1578 45.4124 68.3315 47.1091 70.75 48.389C69.338 48.776 67.933 49.2 66.547 49.693V49.697ZM56.474 43.321C56.105 43.513 52.874 42.173 52.509 42.054C51.126 41.595 49.755 41.094 48.356 40.683C46.3761 40.0623 44.3274 39.6875 42.256 39.567C44.4063 39.1151 46.6126 38.9914 48.8 39.2C49.0636 39.2261 49.3279 39.1589 49.547 39.01C51.002 39.0568 52.4216 39.4699 53.6746 40.2111C54.9275 40.9522 55.9733 41.9974 56.715 43.25C56.6324 43.2652 56.5516 43.289 56.474 43.321V43.321ZM49.893 44.067C48.505 44.213 47.115 44.34 45.721 44.411C44.68 44.464 38.953 45.086 38.289 44.051C38.2316 43.9603 38.1646 43.8762 38.089 43.8C38.24 40.933 44.438 42.54 49.893 44.067V44.067ZM54.84 51.493C52.973 52.035 51.003 52.207 49.477 50.813C49.463 50.8 49.447 50.799 49.433 50.786C49.465 49.706 52.888 50.367 54.203 50.549C54.3171 50.6724 54.4526 50.7741 54.603 50.849C54.6843 51.065 54.7633 51.2797 54.84 51.493V51.493ZM48.34 53.301C46.8147 53.3377 45.29 53.3623 43.766 53.375C44.874 52.9657 45.9653 52.513 47.04 52.017C47.1133 52.1408 47.2073 52.2511 47.318 52.343C47.3844 52.478 47.4737 52.6005 47.582 52.705C47.8222 52.9205 48.0768 53.1192 48.344 53.3L48.34 53.301ZM38.511 51.492C38.4304 51.4679 38.3471 51.4545 38.263 51.452C38.2253 51.4374 38.187 51.4247 38.148 51.414C35.978 51.1422 33.8546 50.5792 31.835 49.74L33.847 49.929C34.684 50.008 35.525 50.069 36.361 50.166C36.692 50.2 39.36 50.629 38.515 51.492H38.511ZM33.832 53.248C30.536 53.1413 27.2397 52.9703 23.943 52.735C25.0128 51.9957 26.0117 51.1587 26.927 50.235C26.99 50.3055 27.0608 50.3686 27.138 50.423C29.2367 51.6553 31.4888 52.6051 33.836 53.248H33.832ZM83.253 53.215C86.1147 51.6414 89.4002 51.0115 92.641 51.415C92.8006 51.4317 92.9618 51.4175 93.116 51.373C93.857 51.726 94.603 52.042 95.358 52.34C95.3921 52.3892 95.4295 52.436 95.47 52.48C96.831 53.612 98.223 54.737 99.665 55.768C94.1277 55.4338 88.6341 54.579 83.257 53.215H83.253ZM81.203 38.285C78.855 36.5717 76.8087 34.4795 75.148 32.094C78.162 31.878 81.176 31.6587 84.19 31.436C83.1196 32.2009 82.2768 33.2419 81.7515 34.4481C81.2262 35.6542 81.038 36.9803 81.207 38.285H81.203ZM77.037 38.451C77.079 38.451 77.108 38.425 77.147 38.419C78.7503 39.8902 80.5133 41.1772 82.403 42.256C83.2354 43.9125 84.3765 45.3947 85.765 46.623C86.465 47.243 87.226 47.823 87.999 48.374C79.716 49.227 72.24 47.903 66.43 41.722C66.93 41.314 67.423 40.905 67.897 40.476C69.183 39.314 70.048 38.098 72.003 38.069C73.741 38.044 75.268 38.6 77.041 38.451H77.037ZM67.698 36.351C66.56 37.222 66.017 38.558 64.912 39.515C63.295 40.915 61.512 42.168 59.79 43.454C58.8206 41.1225 57.11 39.1753 54.9228 37.9136C52.7356 36.6519 50.1936 36.146 47.69 36.474C45.2787 36.3388 42.8603 36.5479 40.508 37.095L40.036 36.681C39.9312 36.5958 39.8155 36.5248 39.692 36.47C38.4861 35.2723 37.1265 34.24 35.649 33.4C43.0772 33.8477 50.527 33.8006 57.949 33.259C62.3803 32.9863 66.81 32.693 71.238 32.379C71.6409 32.6271 71.9827 32.9627 72.238 33.361C72.3382 33.5327 72.4784 33.6778 72.6465 33.784C72.8146 33.8902 73.0059 33.9543 73.204 33.971C73.625 34.55 74.061 35.115 74.517 35.659C72.163 35.361 69.689 34.827 67.7 36.347L67.698 36.351ZM35.651 36.541C35.6102 36.6021 35.5732 36.6655 35.54 36.731C34.1816 37.6003 32.6362 38.1346 31.031 38.29C31.8273 37.2889 32.4654 36.1716 32.923 34.977C33.8825 35.4064 34.7976 35.9289 35.655 36.537L35.651 36.541ZM11.118 56.441C11.1346 56.7235 11.2375 56.994 11.413 57.216C10.8483 57.244 10.2837 57.2673 9.719 57.286C10.2 57.007 10.665 56.73 11.122 56.433L11.118 56.441ZM5.573 67.289C5.60116 67.195 5.61794 67.098 5.623 67C5.54634 64.6667 5.46967 62.33 5.393 59.99C9.16645 60.0477 12.94 59.8781 16.693 59.482V61.35C16.6889 61.6604 16.8038 61.9606 17.014 62.189C17.0254 62.2483 17.0408 62.3068 17.06 62.364C17.0374 62.5065 17.044 62.6522 17.0796 62.792C17.1152 62.9319 17.1789 63.063 17.2669 63.1774C17.3549 63.2918 17.4653 63.387 17.5913 63.4573C17.7174 63.5275 17.8564 63.5713 18 63.586C21.0713 64.0721 24.1681 64.3799 27.275 64.508C27.2084 64.5444 27.1452 64.5866 27.086 64.634L26.703 65.022C26.5444 65.1892 26.4319 65.3947 26.3766 65.6184C26.3213 65.8422 26.3251 66.0764 26.3877 66.2982C26.4502 66.5201 26.5692 66.7218 26.7332 66.8838C26.8972 67.0457 27.1004 67.1623 27.323 67.222L26.862 67.683C26.6929 67.8616 26.5762 68.0833 26.5247 68.3238C26.4733 68.5643 26.4891 68.8143 26.5704 69.0465C26.6517 69.2786 26.7953 69.4839 26.9856 69.6397C27.1759 69.7956 27.4054 69.896 27.649 69.93C20.2466 69.4649 12.8762 68.5832 5.573 67.289V67.289ZM108.114 77.579C107.901 77.6304 107.705 77.7374 107.547 77.8892C107.389 78.0411 107.274 78.2322 107.214 78.443C105.006 85.5 90.594 86.693 84.48 87.762C76.363 89.1745 68.139 89.8825 59.9 89.878C44.5103 89.8346 29.2239 87.3608 14.606 82.548C14.591 82.541 14.586 82.53 14.571 82.523C12.51 81.598 9.871 80.517 9.071 78.194C8.321 76.007 8.743 72.973 8.83 70.547C13.1807 71.237 17.5497 71.7877 21.937 72.199C22.0877 72.4653 22.3258 72.6712 22.611 72.782C35.677 77.846 51.895 78.757 65.772 78.818C78.905 78.875 91.92 76.26 102.721 68.502C102.843 68.5439 102.971 68.5681 103.1 68.574C103.035 68.6642 102.98 68.7615 102.937 68.864C100.529 74.629 91.287 75.297 86.017 76.611C85.6827 76.712 85.4011 76.9396 85.2323 77.2454C85.0636 77.5512 85.0211 77.9108 85.1139 78.2475C85.2067 78.5842 85.4275 78.8712 85.7291 79.0473C86.0307 79.2234 86.3892 79.2746 86.728 79.19C93.428 77.519 102.49 76.82 105.516 69.575C105.585 69.4365 105.622 69.2845 105.626 69.1299C105.63 68.9753 105.599 68.8217 105.537 68.68C105.475 68.5383 105.383 68.412 105.267 68.3099C105.151 68.2078 105.013 68.1324 104.865 68.089C104.965 68.0311 105.056 67.9594 105.136 67.876C106.619 66.116 108.013 64.287 109.359 62.423C110.083 67.35 110.87 73.405 108.114 77.579V77.579ZM105.494 61.115C105.645 61.2871 105.839 61.4157 106.056 61.4874C106.273 61.5592 106.505 61.5715 106.729 61.523C106.058 62.4383 105.368 63.3383 104.659 64.223C104.607 62.9833 104.632 61.7416 104.733 60.505C104.805 60.658 104.911 60.7924 105.043 60.8982C105.175 61.0039 105.329 61.0781 105.494 61.115V61.115ZM104.894 58.797L105.028 58.852C104.984 58.8829 104.942 58.9162 104.902 58.952C104.91 58.9 104.9 58.85 104.9 58.8L104.894 58.797ZM107.662 59.734C107.762 59.759 107.862 59.79 107.962 59.813C107.894 59.913 107.821 60.005 107.752 60.103C107.754 60.0257 107.746 59.9484 107.729 59.873C107.717 59.822 107.685 59.783 107.664 59.734H107.662ZM112.441 57.119C112.25 57.2066 112.086 57.342 111.963 57.512C108.049 57.633 104.696 56.039 101.601 53.883C105.121 54.165 108.516 53.625 112.26 53.619C112.348 53.692 112.445 53.7535 112.549 53.802C114.249 54.455 113.835 56.462 112.443 57.119H112.441ZM117.031 47.991C116.991 48.0513 116.955 48.1149 116.925 48.181C116.287 50.169 110.411 47.781 109.299 47.252C107.843 46.5412 106.497 45.6267 105.299 44.536C110.119 44.516 114.846 44.891 117.033 47.991H117.031ZM110.831 42.271C104.809 41.682 91.561 44.471 88.665 36.681C91.11 35.288 96.082 37.656 98.215 38.158C100.889 38.7788 103.61 39.1801 106.349 39.358C108.964 39.6419 111.607 39.5 114.176 38.938C115.251 40.4443 116.06 42.1236 116.569 43.903C114.798 42.9497 112.841 42.3928 110.834 42.271H110.831ZM92.893 30.781C97.6683 30.419 102.443 30.0607 107.218 29.706C107.277 29.8069 107.35 29.8989 107.435 29.979C108.472 30.841 109.548 31.642 110.641 32.415C106.241 32.584 101.854 32.868 97.475 33.331C97.194 33.3627 96.9303 33.4828 96.722 33.674L92.893 30.781ZM112.893 34.981C113.081 34.9813 113.267 34.9394 113.437 34.8584C113.606 34.7774 113.756 34.6594 113.874 34.513C114.449 34.855 115.032 35.1843 115.625 35.501C111.172 37.913 105.419 37.069 100.162 35.77C104.4 35.385 108.642 35.1 112.9 34.985L112.893 34.981ZM37.4 4.38001C45.142 3.90401 52.8937 3.66034 60.655 3.64901C61.409 3.64901 62.163 3.65901 62.916 3.66301C62.6307 3.73382 62.3762 3.8956 62.1911 4.12389C62.0059 4.35219 61.9002 4.63457 61.8898 4.92832C61.8794 5.22208 61.9649 5.51123 62.1335 5.75204C62.302 5.99285 62.5444 6.17222 62.824 6.26301L81.974 11.571C82.3128 11.6556 82.6713 11.6044 82.9729 11.4283C83.2745 11.2522 83.4953 10.9652 83.5881 10.6285C83.6809 10.2918 83.6384 9.93218 83.4697 9.62641C83.3009 9.32064 83.0193 9.09297 82.685 8.99201L63.535 3.68401C63.4336 3.66454 63.3302 3.65716 63.227 3.66201C69.6937 3.69801 76.1583 3.89434 82.621 4.25101C87.367 4.51701 107.068 3.65101 108.898 8.66401C108.996 8.92662 109.175 9.15093 109.41 9.30401C107.028 14.804 89.681 13.329 84.989 13.497C77.289 13.772 69.582 13.985 61.875 14.02C56.259 14.045 14.797 15.084 14.221 8.51301C20.391 4.15301 30.271 4.81901 37.4 4.38001ZM12.559 11.741C15.197 15.119 22.229 14.834 26.015 15.21C37.5072 16.2884 49.0466 16.7857 60.589 16.7C72.142 16.677 83.712 16.335 95.251 15.773C99.545 15.564 107.164 15.884 110.596 12.359C112.123 17.0676 112.016 22.1541 110.291 26.794V26.8C93.628 28.02 76.967 29.312 60.297 30.427C44.097 31.512 27.744 31.775 12.432 25.627C11.093 21.0886 11.1372 16.2541 12.559 11.741V11.741ZM12.907 28.653C17.1693 30.2585 21.5735 31.4588 26.061 32.238C26.0544 32.3525 26.0618 32.4673 26.083 32.58C24.6071 34.7133 22.5406 36.3694 20.137 37.345C19.9449 37.4218 19.7719 37.5395 19.63 37.69C19.386 37.6233 19.141 37.5543 18.895 37.483C16 35.8 13.5 33.16 11.075 30.811C11.8265 30.2242 12.45 29.4898 12.907 28.653V28.653ZM14.913 38.86C13.1537 38.5503 11.3493 38.6072 9.613 39.027C7.9 39.589 6.788 40.959 5.271 41.752C1.203 40.221 2.755 35.388 4.945 32.837C7.95987 35.3148 11.3173 37.3435 14.913 38.86Z" fill="#E5E5E5"/>
<path d="M29.033 23.448C26.2764 23.0944 23.6326 22.1336 21.292 20.635C19.837 19.706 18.492 22.021 19.942 22.944C22.4766 24.5717 25.337 25.6244 28.322 26.028C30.005 26.254 30.734 23.677 29.033 23.448Z" fill="#E5E5E5"/>
<path d="M28.435 78.029C25.7156 77.7123 23.1397 76.639 21 74.931C19.668 73.869 17.763 75.749 19.109 76.823C21.7827 78.9842 25.0213 80.3313 28.439 80.704C30.142 80.9 30.128 78.226 28.435 78.029Z" fill="#E5E5E5"/>
<path d="M23.608 80.409C21.4514 80.0717 19.4752 79.0063 18.008 77.39C16.842 76.119 14.955 78.014 16.117 79.281C17.9006 81.2395 20.2885 82.5445 22.9 82.988C24.581 83.271 25.305 80.694 23.608 80.409Z" fill="#E5E5E5"/>
<path d="M50.185 7.15402C55.9996 9.53008 62.1114 11.1009 68.351 11.823C70.057 12.023 70.042 9.35002 68.351 9.14802C62.3535 8.4224 56.4826 6.88395 50.9 4.57502C49.3 3.92202 48.611 6.50902 50.185 7.15402Z" fill="#E5E5E5"/>
<path d="M31.192 7.823C37.442 9.363 43.6537 11.041 49.827 12.857C50.1659 12.9416 50.5243 12.8904 50.8259 12.7143C51.1275 12.5382 51.3483 12.2512 51.4411 11.9145C51.5339 11.5778 51.4914 11.2182 51.3227 10.9124C51.154 10.6066 50.8723 10.379 50.538 10.278C44.364 8.46133 38.1514 6.78333 31.9 5.244C30.232 4.833 29.519 7.411 31.192 7.823Z" fill="#E5E5E5"/>
<path d="M24.966 57.31L24.379 57.879C23.141 59.079 25.033 60.97 26.27 59.771L26.857 59.202C28.1 58 26.2 56.111 24.966 57.31Z" fill="#E5E5E5"/>
<path d="M29.9 56.853L29.155 57.653C27.979 58.908 29.867 60.804 31.047 59.544L31.792 58.744C32.97 57.489 31.082 55.593 29.9 56.853Z" fill="#E5E5E5"/>
<path d="M36.193 58.42L35.615 58.034C34.178 57.077 32.838 59.393 34.265 60.344C34.457 60.4733 34.6497 60.6017 34.843 60.729C36.279 61.687 37.62 59.371 36.193 58.42Z" fill="#E5E5E5"/>
<path d="M45.558 57.739C44.772 58.891 46.458 60.439 47.643 59.367C47.8963 59.1346 48.0791 58.8356 48.1706 58.5042C48.262 58.1729 48.2583 57.8224 48.16 57.493C48.0693 57.2 47.8806 56.9472 47.6254 56.7771C47.3703 56.6069 47.0643 56.5298 46.759 56.5587C46.4537 56.5875 46.1677 56.7206 45.9489 56.9356C45.7302 57.1505 45.5922 57.4342 45.558 57.739ZM45.558 58.168L45.579 58.088C45.5791 58.1267 45.5811 58.1655 45.585 58.204L45.558 58.168ZM45.738 57.5V57.493L45.754 57.476C45.743 57.483 45.742 57.492 45.734 57.5H45.738Z" fill="#E5E5E5"/>
<path d="M62.411 58.839C62.3141 58.4987 62.0874 58.2101 61.7796 58.0354C61.4719 57.8607 61.1079 57.8138 60.766 57.905C60.4281 58.0057 60.1423 58.2331 59.9682 58.5397C59.7941 58.8463 59.7453 59.2083 59.832 59.55L60.048 60.702C60.1451 61.0422 60.3719 61.3306 60.6796 61.5053C60.9872 61.68 61.3511 61.7269 61.693 61.636C62.0309 61.5353 62.3168 61.3079 62.4908 61.0014C62.6649 60.6948 62.7137 60.3327 62.627 59.991L62.411 58.839Z" fill="#E5E5E5"/>
<path d="M54.223 59.189V59.575C54.2325 59.9234 54.3776 60.2543 54.6274 60.4974C54.8772 60.7404 55.212 60.8764 55.5605 60.8764C55.909 60.8764 56.2438 60.7404 56.4936 60.4974C56.7434 60.2543 56.8885 59.9234 56.898 59.575V59.189C56.8885 58.8406 56.7434 58.5097 56.4936 58.2666C56.2438 58.0236 55.909 57.8876 55.5605 57.8876C55.212 57.8876 54.8772 58.0236 54.6274 58.2666C54.3776 58.5097 54.2325 58.8406 54.223 59.189V59.189Z" fill="#E5E5E5"/>
<path d="M82.551 56.1C81.351 54.859 79.462 56.752 80.659 57.991L81.227 58.579C82.427 59.82 84.315 57.927 83.119 56.688L82.551 56.1Z" fill="#E5E5E5"/>
<path d="M85.353 59.172C85.0491 59.3527 84.8284 59.6458 84.7388 59.9878C84.6492 60.3299 84.6977 60.6935 84.874 61L84.88 61.008C84.865 61.3307 84.9681 61.6478 85.1701 61.9C85.3721 62.1521 85.659 62.322 85.9772 62.3778C86.2954 62.4336 86.6231 62.3715 86.8988 62.2031C87.1745 62.0347 87.3793 61.7716 87.475 61.463C87.569 61.1587 87.5916 60.8368 87.5409 60.5224C87.4903 60.2079 87.3678 59.9094 87.183 59.65C86.996 59.3525 86.7027 59.1374 86.3627 59.0486C86.0227 58.9597 85.6616 59.0039 85.353 59.172V59.172Z" fill="#E5E5E5"/>
<path d="M94.845 59.827L93.881 59.441C93.5391 59.3493 93.1748 59.3959 92.867 59.5707C92.5591 59.7455 92.3325 60.0344 92.236 60.375C92.1501 60.7168 92.1992 61.0786 92.3731 61.3852C92.5471 61.6918 92.8325 61.9195 93.17 62.021L94.134 62.406C94.4759 62.4977 94.8402 62.4511 95.148 62.2764C95.4559 62.1016 95.6825 61.8126 95.779 61.472C95.8647 61.1303 95.8154 60.7688 95.6415 60.4624C95.4676 60.1561 95.1823 59.9285 94.845 59.827V59.827Z" fill="#E5E5E5"/>
<path d="M99.482 61.52C99.229 61.2804 98.8924 61.149 98.544 61.1537C98.1955 61.1584 97.8627 61.2989 97.6162 61.5452C97.3697 61.7916 97.2291 62.1243 97.2242 62.4728C97.2193 62.8212 97.3505 63.1578 97.59 63.411L97.783 63.604C98.0372 63.838 98.3721 63.9646 98.7175 63.9574C99.0629 63.9502 99.3922 63.8098 99.6365 63.5655C99.8808 63.3212 100.021 62.9919 100.028 62.6465C100.036 62.3011 99.909 61.9662 99.675 61.712L99.482 61.52Z" fill="#E5E5E5"/>
<path d="M93.231 52.459L91.9 51.84C91.5914 51.6711 91.2298 51.6267 90.8895 51.716C90.5492 51.8052 90.256 52.0213 90.07 52.32C89.8937 52.627 89.8452 52.9909 89.935 53.3333C90.0249 53.6757 90.2457 53.9691 90.55 54.15L91.88 54.769C92.1884 54.9381 92.5499 54.9826 92.8901 54.8933C93.2303 54.804 93.5234 54.5878 93.709 54.289C93.8852 53.9822 93.9338 53.6185 93.8444 53.2762C93.755 52.9339 93.5347 52.6404 93.231 52.459V52.459Z" fill="#E5E5E5"/>
<path d="M9.80001 60.907L9.41601 60.707C9.14681 60.5733 8.84123 60.5313 8.54593 60.5874C8.25062 60.6436 7.98182 60.7949 7.78054 61.0182C7.57926 61.2414 7.45657 61.5244 7.43119 61.8239C7.40582 62.1235 7.47915 62.4231 7.64001 62.677C7.42518 62.7141 7.2219 62.8006 7.0462 62.9297C6.8705 63.0588 6.72717 63.2269 6.62751 63.4208C6.52784 63.6147 6.47457 63.8291 6.47188 64.0471C6.46919 64.2651 6.51716 64.4807 6.61201 64.677L6.99701 65.448C7.76701 66.988 10.075 65.635 9.30701 64.098C9.18201 63.847 9.05601 63.598 8.93101 63.346C10.236 63.5 11.171 61.606 9.80001 60.907Z" fill="#E5E5E5"/>
<path d="M17.02 63.886C16.8029 63.8292 16.5745 63.8324 16.359 63.895C16.4459 63.6089 16.4371 63.3022 16.3338 63.0216C16.2305 62.741 16.0384 62.5018 15.7868 62.3403C15.5351 62.1788 15.2376 62.1039 14.9395 62.127C14.6413 62.15 14.3589 62.2698 14.135 62.468C13.881 62.7022 13.6984 63.0034 13.6083 63.337C13.5182 63.6706 13.5244 64.0228 13.626 64.353C13.6686 64.519 13.7445 64.6747 13.849 64.8104C13.9536 64.9462 14.0847 65.0593 14.2344 65.1428C14.3841 65.2264 14.5491 65.2786 14.7196 65.2963C14.8901 65.3141 15.0624 65.2969 15.226 65.246L15.174 65.394C15.0831 65.7359 15.1301 66.0998 15.3047 66.4075C15.4794 66.7151 15.7678 66.9419 16.108 67.039C16.4498 67.1262 16.812 67.0776 17.1187 66.9035C17.4254 66.7294 17.6528 66.4432 17.753 66.105L17.953 65.531C18.044 65.1893 17.9972 64.8255 17.8227 64.5178C17.6482 64.2102 17.36 63.9834 17.02 63.886ZM16.212 63.726C16.205 63.696 16.212 63.672 16.206 63.642L16.226 63.674L16.212 63.726Z" fill="#E5E5E5"/>
<path d="M41.319 67.844L42.089 68.038C42.4263 68.1177 42.7813 68.0635 43.0795 67.8868C43.3776 67.7101 43.5957 67.4247 43.6877 67.0906C43.7798 66.7565 43.7388 66.3997 43.5732 66.0952C43.4076 65.7908 43.1305 65.5623 42.8 65.458L42.03 65.264C41.6927 65.1843 41.3377 65.2385 41.0395 65.4152C40.7414 65.5919 40.5233 65.8773 40.4312 66.2114C40.3392 66.5455 40.3802 66.9023 40.5458 67.2068C40.7113 67.5112 40.9885 67.7397 41.319 67.844V67.844Z" fill="#E5E5E5"/>
<path d="M37.662 68.4L38.622 68.792C38.964 68.8843 39.3285 68.8379 39.6365 68.6631C39.9444 68.4882 40.171 68.1989 40.267 67.858C40.3527 67.5163 40.3034 67.1548 40.1295 66.8484C39.9556 66.5421 39.6703 66.3145 39.333 66.213L38.373 65.82C38.0311 65.728 37.6667 65.7745 37.3588 65.9493C37.0509 66.1241 36.8242 66.4133 36.728 66.754C36.6423 67.0958 36.6915 67.4575 36.8655 67.764C37.0394 68.0705 37.3246 68.2983 37.662 68.4V68.4Z" fill="#E5E5E5"/>
<path d="M53.727 67.481C55.227 68.281 56.55 66.05 55.121 65.208V65.193C55.0236 64.853 54.7968 64.5647 54.4892 64.3901C54.1817 64.2154 53.8179 64.1684 53.476 64.259C53.138 64.3595 52.8519 64.5868 52.6778 64.8935C52.5037 65.2001 52.455 65.5623 52.542 65.904C52.6115 66.2378 52.7537 66.5522 52.9585 66.8247C53.1634 67.0973 53.4257 67.3214 53.727 67.481V67.481Z" fill="#E5E5E5"/>
<path d="M62.544 68.4C62.5773 68.6442 62.6773 68.8745 62.833 69.0656C62.9887 69.2566 63.1941 69.401 63.4266 69.4829C63.6591 69.5648 63.9096 69.5809 64.1507 69.5296C64.3918 69.4783 64.614 69.3615 64.793 69.192L64.986 69C65.145 68.836 65.2587 68.6337 65.3162 68.4127C65.3737 68.1916 65.373 67.9595 65.314 67.7388C65.2551 67.5182 65.1401 67.3166 64.9801 67.1536C64.82 66.9907 64.6205 66.8719 64.401 66.809C64.401 66.773 64.412 66.743 64.411 66.709C64.3943 66.3987 64.2709 66.1037 64.0617 65.8739C63.8525 65.6441 63.5703 65.4937 63.2629 65.448C62.9556 65.4024 62.6418 65.4644 62.3749 65.6234C62.1079 65.7825 61.9041 66.029 61.798 66.321C61.6909 66.5026 61.6251 66.7056 61.6053 66.9155C61.5854 67.1254 61.6121 67.3371 61.6833 67.5355C61.7545 67.734 61.8685 67.9143 62.0173 68.0637C62.166 68.2131 62.3459 68.328 62.544 68.4Z" fill="#E5E5E5"/>
<path d="M74.539 68.832L74.57 68.846C74.3623 69.0858 74.2553 69.3966 74.2715 69.7135C74.2878 70.0303 74.4259 70.3287 74.657 70.546L74.85 70.738C75.1037 70.9741 75.4391 71.1026 75.7856 71.0963C76.1321 71.0901 76.4626 70.9497 76.7077 70.7047C76.9527 70.4596 77.0931 70.1291 77.0994 69.7826C77.1056 69.4361 76.9771 69.1007 76.741 68.847L76.722 68.828C76.7971 68.7635 76.8642 68.6903 76.922 68.61C77.098 68.303 77.1464 67.9391 77.0566 67.5967C76.9668 67.2544 76.7461 66.9611 76.442 66.78L75.892 66.526C75.5834 66.3571 75.2218 66.3127 74.8815 66.402C74.5412 66.4912 74.248 66.7074 74.062 67.006C73.8867 67.3122 73.8385 67.675 73.9277 68.0164C74.0168 68.3578 74.2363 68.6506 74.539 68.832Z" fill="#E5E5E5"/>
<path d="M87.006 67.834H86.617C86.2686 67.8435 85.9377 67.9886 85.6946 68.2384C85.4516 68.4882 85.3156 68.823 85.3156 69.1715C85.3156 69.52 85.4516 69.8548 85.6946 70.1046C85.9377 70.3544 86.2686 70.4995 86.617 70.509H87.006C87.3544 70.4995 87.6853 70.3544 87.9284 70.1046C88.1714 69.8548 88.3074 69.52 88.3074 69.1715C88.3074 68.823 88.1714 68.4882 87.9284 68.2384C87.6853 67.9886 87.3544 67.8435 87.006 67.834V67.834Z" fill="#E5E5E5"/>
<path d="M69.858 20.679C82.671 20.459 96.323 21.44 108.558 17.004C110.164 16.422 109.471 13.837 107.847 14.425C95.9 18.756 82.387 17.789 69.858 18C69.5027 18 69.162 18.1411 68.9108 18.3923C68.6596 18.6436 68.5185 18.9843 68.5185 19.3395C68.5185 19.6948 68.6596 20.0355 68.9108 20.2867C69.162 20.5379 69.5027 20.679 69.858 20.679V20.679Z" fill="#E5E5E5"/>
<path d="M23.784 19.905C23.707 20.0385 23.6603 20.1873 23.6473 20.3408C23.6344 20.4944 23.6554 20.6489 23.709 20.7933C23.7626 20.9378 23.8473 21.0687 23.9573 21.1767C24.0672 21.2847 24.1996 21.3671 24.345 21.418C27.503 22.7834 30.9171 23.4555 34.357 23.389C34.6458 23.3731 34.9219 23.2655 35.1454 23.082C35.3688 22.8984 35.528 22.6484 35.5996 22.3682C35.6713 22.088 35.6518 21.7923 35.544 21.524C35.4362 21.2557 35.2456 21.0287 35 20.876L44.72 21.733C46.434 21.884 46.42 19.208 44.72 19.058L29.77 17.741C24.87 17.309 18.07 17.77 13.816 15.156C12.346 14.256 11.001 16.565 12.466 17.466C15.858 19.548 19.884 19.639 23.784 19.905Z" fill="#E5E5E5"/>
<path d="M105.753 74.608C101.372 80.056 94.009 80.457 87.588 81.569L66.552 85.211C64.859 85.505 65.576 88.083 67.263 87.791C76.026 86.274 84.813 84.857 93.563 83.238C99.022 82.227 104.047 80.98 107.65 76.499C108.714 75.17 106.833 73.266 105.753 74.608Z" fill="#E5E5E5"/>
</svg>
