<svg width="100" height="125" viewBox="0 0 100 125" fill="none" xmlns="http://www.w3.org/2000/svg">
<path d="M58.1 35L56.1 29.1C55.6 27.7 54.3 26.9 52.9 27C49.6 27.2 42.8 28.8 34.4 36.4C26 44.1 23.8 50.8 23.3 54.1C23.1 55.5 23.8 56.9 25.1 57.5L30.8 60L31.4 60.3V72.3C31.4 72.9 31.8 73.3 32.4 73.3C33 73.3 33.4 72.9 33.4 72.3V61.2L37.7 63.2V76.6C37.7 77.2 38.1 77.6 38.7 77.6C39.3 77.6 39.7 77.2 39.7 76.6V64.1L45.8 66.9V74.4C45.8 75 46.2 75.4 46.8 75.4C47.4 75.4 47.8 75 47.8 74.4V67.8L64.5 75.6C64.5 75.7 64.4 75.8 64.4 75.9V80.7C64.4 81.3 64.8 81.7 65.4 81.7C66 81.7 66.4 81.3 66.4 80.7V76.6L67.4 77.1C67.7 77.3 68.1 77.3 68.5 77.4V81.3C68.5 81.9 68.9 82.3 69.5 82.3C70.1 82.3 70.5 81.9 70.5 81.3V76.7L70.6 76.6C71.5 75.8 71.8 74.6 71.4 73.5L58.1 35ZM25.2 54.4C25.7 51.3 27.8 45.1 35.7 37.9C43.6 30.7 49.9 29.2 53 29C53.5 29 54 29.3 54.2 29.8L55.3 33.1C55.2 33.1 55.2 33.1 55.1 33.1C52.2 33.3 46.2 34.7 38.8 41.4C31.4 48.1 29.5 54 29 57C29 57.1 29 57.1 29 57.2L25.8 55.8C25.4 55.5 25.1 54.9 25.2 54.4ZM47.1 65.4L31.5 58.1C31.1 57.9 30.9 57.5 31 57.1C31.5 54.4 33.3 49 40.2 42.7C47.1 36.4 52.6 35.1 55.3 34.9C55.7 34.9 56.1 35.1 56.2 35.5L69.4 74C69.6 74.5 69.3 74.9 69.1 75C69 75.1 68.6 75.4 68.1 75.1L47.1 65.4Z" fill="#E5E5E5"/>
<path d="M55.1 42C53.3 40 50.1 39.8 48.1 41.7C46.1 43.5 45.9 46.7 47.8 48.7C48.8 49.8 50.1 50.3 51.5 50.3C52.7 50.3 53.9 49.9 54.8 49C56.8 47.1 56.9 44 55.1 42ZM53.4 47.5C52.8 48 52.1 48.3 51.3 48.3C50.5 48.3 49.8 47.9 49.3 47.3C48.8 46.7 48.5 46 48.5 45.2C48.5 44.4 48.9 43.7 49.5 43.2C50 42.7 50.8 42.4 51.5 42.4H51.6C52.4 42.4 53.1 42.8 53.6 43.4C54.1 44 54.4 44.7 54.4 45.5C54.4 46.2 54 47 53.4 47.5Z" fill="#E5E5E5"/>
<path d="M58.4 60.4C59.2 60.4 60.1 60.1 60.7 59.5C61.4 58.9 61.8 58.1 61.8 57.1C61.8 56.2 61.5 55.3 60.9 54.7C60.3 54 59.5 53.6 58.5 53.6C57.6 53.6 56.7 53.9 56.1 54.5C55.4 55.1 55 56 55 56.9C55 57.8 55.3 58.7 55.9 59.3C56.5 59.9 57.3 60.4 58.3 60.4C58.3 60.4 58.3 60.4 58.4 60.4ZM57 57C57 56.6 57.2 56.3 57.5 56C57.8 55.8 58.1 55.6 58.4 55.6C58.4 55.6 58.4 55.6 58.5 55.6C58.9 55.6 59.2 55.8 59.5 56.1C59.8 56.4 59.9 56.7 59.9 57.1C59.9 57.5 59.7 57.8 59.4 58.1C59.1 58.4 58.8 58.5 58.4 58.5C58 58.5 57.7 58.3 57.4 58C57.1 57.7 56.9 57.3 57 57Z" fill="#E5E5E5"/>
<path d="M43.7 47.6C42.2 46 39.6 45.8 38 47.3C36.4 48.8 36.2 51.4 37.7 53C38.5 53.9 39.6 54.3 40.7 54.3C41.7 54.3 42.7 54 43.4 53.2C45.1 51.8 45.2 49.3 43.7 47.6ZM42.1 51.9C41.7 52.3 41.2 52.5 40.6 52.4C40.1 52.4 39.6 52.1 39.2 51.7C38.4 50.9 38.5 49.6 39.3 48.8C39.7 48.4 40.2 48.3 40.7 48.3C41.3 48.3 41.8 48.5 42.2 49C43 49.8 42.9 51.1 42.1 51.9Z" fill="#E5E5E5"/>
<path d="M58.6 64.2C57.9 64.9 57.4 65.8 57.4 66.8C57.4 67.8 57.7 68.7 58.4 69.5C59.1 70.3 60.1 70.7 61.1 70.7C62 70.7 62.9 70.4 63.6 69.7C65.1 68.3 65.2 66 63.8 64.5C62.4 63 60.1 62.9 58.6 64.2ZM62.2 68.2C61.5 68.8 60.4 68.8 59.8 68.1C59.5 67.8 59.3 67.3 59.4 66.9C59.4 66.4 59.6 66 60 65.7C60.3 65.4 60.7 65.3 61.1 65.3C61.6 65.3 62 65.5 62.4 65.9C62.9 66.5 62.9 67.6 62.2 68.2Z" fill="#E5E5E5"/>
<path d="M51.2 54.8C50.3 53.8 49 53.2 47.7 53.2C46.3 53.1 45.1 53.6 44.1 54.5C42 56.4 41.9 59.6 43.8 61.6C44.7 62.6 46 63.2 47.3 63.2C47.4 63.2 47.5 63.2 47.5 63.2C48.8 63.2 50 62.7 50.9 61.9C53 60.1 53.1 56.9 51.2 54.8ZM49.5 60.5C48.9 61 48.1 61.3 47.3 61.3C46.5 61.3 45.7 60.9 45.2 60.3C44.7 59.7 44.4 58.9 44.4 58.1C44.4 57.3 44.8 56.5 45.4 56C46 55.5 46.7 55.2 47.5 55.2H47.6C48.4 55.2 49.2 55.6 49.7 56.2C50.9 57.4 50.8 59.4 49.5 60.5Z" fill="#E5E5E5"/>
<path d="M38.6 79.1C38 79.1 37.6 79.5 37.6 80.1V82.6C37.6 83.2 38 83.6 38.6 83.6C39.2 83.6 39.6 83.2 39.6 82.6V80.1C39.6 79.6 39.2 79.1 38.6 79.1Z" fill="#E5E5E5"/>
<path d="M46.6 76.6C46 76.6 45.6 77 45.6 77.6V80.1C45.6 80.7 46 81.1 46.6 81.1C47.2 81.1 47.6 80.7 47.6 80.1V77.6C47.6 77.1 47.2 76.6 46.6 76.6Z" fill="#E5E5E5"/>
<path d="M65.3 83.3C64.7 83.3 64.3 83.7 64.3 84.3V86.8C64.3 87.4 64.7 87.8 65.3 87.8C65.9 87.8 66.3 87.4 66.3 86.8V84.3C66.3 83.7 65.9 83.3 65.3 83.3Z" fill="#E5E5E5"/>
<path d="M48.2 16.1C46 16.1 44.3 17.9 44.3 20C44.3 22.1 46 24 48.2 24C48.8 24 49.2 23.6 49.2 23C49.2 22.4 48.8 22 48.2 22C47.1 22 46.3 21.1 46.3 20.1C46.3 19.1 47.2 18.2 48.2 18.2C50.4 18.2 52.1 16.4 52.1 14.3C52.1 12.2 50.3 10.4 48.2 10.4C47.6 10.4 47.2 10.8 47.2 11.4C47.2 12 47.6 12.4 48.2 12.4C49.3 12.4 50.1 13.3 50.1 14.3C50.1 15.3 49.2 16.1 48.2 16.1Z" fill="#E5E5E5"/>
<path d="M55.9 16.1C53.7 16.1 52 17.9 52 20C52 22.1 53.8 23.9 55.9 23.9C56.5 23.9 56.9 23.5 56.9 22.9C56.9 22.3 56.5 21.9 55.9 21.9C54.8 21.9 54 21 54 20C54 19 54.9 18.1 55.9 18.1C58.1 18.1 59.8 16.3 59.8 14.2C59.8 12.1 58 10.3 55.9 10.3C55.3 10.3 54.9 10.7 54.9 11.3C54.9 11.9 55.3 12.3 55.9 12.3C57 12.3 57.8 13.2 57.8 14.2C57.8 15.2 56.9 16.1 55.9 16.1Z" fill="#E5E5E5"/>
</svg>
