<svg width="121" height="79" viewBox="0 0 121 79" fill="none" xmlns="http://www.w3.org/2000/svg">
<path d="M34.363 38.09C34.508 35.776 37.638 35.669 39.316 35.61C40.816 35.558 40.816 33.225 39.316 33.278C36.143 33.389 32.27 34.254 32.03 38.09C31.937 39.589 34.27 39.584 34.363 38.09Z" fill="#E5E5E5"/>
<path d="M120.909 44.7C120.919 44.6291 120.922 44.5575 120.919 44.486V44.486C121.367 42.251 119.848 40.824 118.094 39.694C115.76 38.2219 113.204 37.1356 110.524 36.477C110.352 36.4275 110.17 36.4221 109.995 36.4612C109.821 36.5004 109.659 36.5828 109.524 36.701V35.901C109.749 35.877 109.962 35.7841 110.132 35.635C110.308 35.6842 110.492 35.6949 110.672 35.6664C110.852 35.638 111.024 35.571 111.176 35.4701C111.327 35.3692 111.456 35.2368 111.552 35.0818C111.648 34.9268 111.709 34.7529 111.732 34.572C111.932 32.75 112.522 30.554 112.257 28.738C111.984 26.869 110.057 26.546 109.557 24.685C109.236 23.463 109.246 22.193 108.14 21.436C108.204 21.2912 108.238 21.1351 108.24 20.977C108.352 16.5379 106.882 12.2035 104.093 8.74853C101.303 5.29352 97.376 2.94299 93.013 2.117C86.6358 0.875635 80.1265 0.450555 73.642 0.851997C73.4584 0.713307 73.236 0.635666 73.006 0.629997C60.932 0.364997 48.314 -1.43051e-06 36.442 2.541C25.665 4.849 11.329 10.83 9.11601 23.028C9.06948 23.2868 9.11325 23.5537 9.24001 23.784C6.68601 23.869 3.70501 24.814 3.01201 27.311C2.51201 29.123 3.16701 31.194 2.76701 33.019C2.44201 34.499 1.16701 35.154 1.00701 36.7C0.967111 36.9367 1.02058 37.1796 1.15618 37.3777C1.29177 37.5758 1.49891 37.7136 1.73401 37.762C1.93913 37.878 2.17862 37.9178 2.41024 37.8745C2.64187 37.8311 2.85073 37.7073 3.00001 37.525C3.50001 36.98 5.08801 37.235 5.72401 37.314C7.54501 37.54 7.62401 38.429 8.31001 39.96C8.39892 40.1551 8.50891 40.3398 8.63801 40.511C7.08852 41.0749 5.70597 42.0199 4.61787 43.2588C3.52977 44.4977 2.77116 45.9907 2.41201 47.6C2.40601 47.627 2.41201 47.648 2.41201 47.675C2.1946 47.7758 2.01208 47.9389 1.88765 48.1437C1.76322 48.3485 1.70251 48.5857 1.71323 48.825C1.72395 49.0644 1.80562 49.2952 1.94785 49.488C2.09009 49.6809 2.28647 49.8271 2.51201 49.908C5.11981 50.8064 7.62833 51.9705 9.99801 53.382C9.81998 53.471 9.66904 53.606 9.56089 53.7731C9.45273 53.9402 9.39131 54.1332 9.38301 54.332C9.15638 56.0895 9.48838 57.8737 10.332 59.432C10.3194 59.4738 10.3091 59.5161 10.301 59.559C10.3261 64.2905 11.997 68.8659 15.027 72.5C18.809 76.916 25.805 77.776 31.268 78.237C31.4239 78.2507 31.5809 78.2316 31.729 78.181C31.8326 78.307 31.9635 78.4079 32.1118 78.4759C32.2601 78.544 32.4219 78.5775 32.585 78.574C46.138 78.702 60.391 73.601 73.285 69.874C73.3549 69.8476 73.4219 69.8141 73.485 69.774C73.5187 69.7678 73.5521 69.7598 73.585 69.75C81.04 66.378 88.763 64.372 96.728 62.676C96.8 62.919 96.88 63.16 96.945 63.404C97.0232 63.6493 97.1796 63.8622 97.3903 64.0101C97.601 64.158 97.8544 64.2327 98.1116 64.2228C98.3688 64.213 98.6158 64.119 98.8145 63.9554C99.0133 63.7918 99.1529 63.5676 99.212 63.317C99.3489 63.3092 99.4826 63.273 99.6048 63.2109C99.727 63.1488 99.835 63.062 99.922 62.956C100.24 62.5859 100.53 62.1921 100.788 61.778C106.088 61.039 116.311 57.266 115.277 50.868C116.663 50.4031 117.907 49.5928 118.892 48.5136C119.878 47.4344 120.572 46.1219 120.909 44.7V44.7ZM92.393 4.367C96.2614 5.0555 99.754 7.10997 102.235 10.1565C104.717 13.2031 106.022 17.0393 105.913 20.967C105.919 21.0255 105.93 21.0834 105.946 21.14C105.708 21.2379 105.484 21.3689 105.282 21.529C105.075 21.4299 104.844 21.3921 104.616 21.4203C104.388 21.4485 104.174 21.5414 103.997 21.688C102.781 22.669 101.258 23.818 99.716 22.745C99.044 22.278 98.688 21.637 97.916 21.235C96.4167 20.6027 94.7724 20.3951 93.163 20.635C92.9488 20.6454 92.7419 20.7169 92.5669 20.8409C92.3919 20.9649 92.2559 21.1363 92.175 21.335C92.0597 21.2958 91.9387 21.2762 91.817 21.277C89.8427 21.3085 87.8916 21.7083 86.064 22.456C84.164 23.277 82.739 25 80.87 25.756C77.24 27.219 74.429 22.234 70.739 25.031C70.6905 25.0705 70.6444 25.1129 70.601 25.158C69.6197 24.351 68.3692 23.9454 67.101 24.023C65.931 24.186 65.078 25.045 63.901 25.253C62.368 25.524 61.075 24.873 59.578 24.64C56.459 24.154 54.856 25.759 54.328 28.083C51.9551 28.808 49.4872 29.1744 47.006 29.17C46.8231 29.1632 46.6417 29.2052 46.4804 29.2917C46.3191 29.3782 46.1837 29.506 46.088 29.662C45.2661 29.0046 44.2728 28.5971 43.226 28.488C40.773 28.031 38.067 26.788 35.558 26.935C34.725 26.983 33.776 27.616 33.03 27.635C32.7826 27.6459 32.5347 27.6406 32.288 27.619C32.3987 27.4484 32.4612 27.2512 32.469 27.048C32.953 14.064 49.159 8.248 59.749 5.436C70.4088 2.6112 81.5712 2.24566 92.393 4.367V4.367ZM53.464 4.925C43.3 8.5 31.046 14.39 30.184 26.4C29.7699 26.0909 29.2953 25.8724 28.7912 25.7587C28.2871 25.645 27.7647 25.6386 27.258 25.74C25.9847 25.9692 24.6769 25.9207 23.424 25.598C22.288 10.552 40.491 6.065 54.182 4.687C53.943 4.768 53.7 4.842 53.464 4.925ZM11.364 23.648C13.814 10.148 31.79 5.069 43.473 3.748C44.523 3.629 45.573 3.53 46.63 3.438C33.623 5.846 20.206 11.617 21.082 25.36C20.6508 25.3584 20.2207 25.4053 19.8 25.5C18.2247 25.8204 16.7831 26.61 15.665 27.765C15.614 27.725 15.572 27.678 15.518 27.64C14.788 27.129 13.775 27.134 13.118 26.588C12.768 26.296 12.096 25.48 12.157 25.028C12.1834 24.8948 12.1797 24.7573 12.1461 24.6257C12.1126 24.4941 12.0501 24.3716 11.9631 24.2673C11.8762 24.1629 11.7671 24.0793 11.6437 24.0225C11.5203 23.9657 11.3858 23.9372 11.25 23.939C11.3024 23.8482 11.3412 23.7501 11.365 23.648H11.364ZM6.98501 35.142C6.23768 34.9763 5.47694 34.8782 4.71201 34.849C4.72301 34.829 4.73901 34.809 4.74901 34.789C5.07877 33.829 5.21208 32.8125 5.14101 31.8C5.19101 30.343 4.94101 28.676 5.80301 27.512C6.72301 26.263 8.44901 26.026 9.98401 26.103C10.3589 26.991 10.9306 27.7823 11.656 28.417C12.356 29.037 13.256 28.985 14.025 29.444C14.893 29.961 15.009 31.233 15.111 32.137C15.277 33.612 17.611 33.629 17.443 32.137C17.3717 31.3266 17.2169 30.5256 16.981 29.747C17.0982 29.6631 17.1998 29.5591 17.281 29.44C19.69 25.922 24.64 28.807 27.875 27.989C29.575 27.571 30.518 30.657 32.488 30.445C34.209 30.259 35.281 29.271 37.305 29.47C38.246 29.563 44.685 31.34 44.926 31.929C45.462 33.241 47.545 32.747 47.226 31.483C49.561 31.4768 51.8854 31.1679 54.141 30.564C54.154 30.82 54.175 31.079 54.206 31.339C54.379 32.812 56.714 32.829 56.538 31.339C56.4711 30.8085 56.4504 30.2731 56.476 29.739C56.6632 29.567 56.7926 29.3412 56.8463 29.0926C56.9 28.8441 56.8755 28.585 56.776 28.351C56.9698 27.8985 57.3007 27.5182 57.7222 27.2638C58.1436 27.0094 58.6343 26.8937 59.125 26.933C60.1978 27.088 61.2577 27.3219 62.296 27.633C64.603 27.953 67.688 25.6 69.468 27.214C69.6801 27.412 69.9594 27.5222 70.2495 27.5222C70.5396 27.5222 70.819 27.412 71.031 27.214C71.1819 27.262 71.3425 27.2705 71.4976 27.2389C71.6527 27.2072 71.7971 27.1363 71.917 27.033C72.908 26.282 75.69 27.448 76.777 27.765C77.22 27.894 77.624 28.172 78.077 28.283C79.0189 28.5337 80.0124 28.5147 80.944 28.228C82.166 27.7365 83.2996 27.0488 84.3 26.192C86.4881 24.5875 89.1119 23.6857 91.824 23.606C92.0395 23.6023 92.2491 23.5354 92.4269 23.4137C92.6046 23.2919 92.7427 23.1206 92.824 22.921C92.9364 22.9553 93.0536 22.9712 93.171 22.968C94.887 22.853 96.333 22.834 97.696 23.985C98.2765 24.6361 99.0074 25.1352 99.825 25.439C101.914 26.026 103.738 24.848 105.316 23.606C105.525 23.7336 105.772 23.7858 106.015 23.7538C106.257 23.7217 106.482 23.6075 106.651 23.43C107.023 24.4201 107.328 25.4344 107.562 26.466C107.831 27.0752 108.237 27.614 108.749 28.04C109.171 28.3752 109.492 28.82 109.678 29.3257C109.864 29.8314 109.907 30.3784 109.803 30.907C109.724 31.6403 109.645 32.3737 109.565 33.107C108.754 32.472 107.743 32.1469 106.714 32.19C104.631 32.284 102.775 33.741 101.15 31.55C101.041 31.3977 100.897 31.2734 100.731 31.1873C100.564 31.1013 100.379 31.0559 100.192 31.055C100.172 30.7565 100.038 30.477 99.8182 30.2745C99.5979 30.072 99.3081 29.9622 99.009 29.9677C98.7099 29.9732 98.4243 30.0937 98.2117 30.3042C97.9991 30.5147 97.8756 30.7989 97.867 31.098L97.858 31.498C95.9 31.672 93.458 31.688 91.813 32.522C90.025 33.422 89.253 36.129 86.538 34.735C85.295 34.096 84.65 32.535 83.265 31.895C81.8575 31.2776 80.2751 31.1864 78.806 31.638L78.777 31.644L78.753 31.65C78.718 31.659 78.699 31.68 78.667 31.691C78.5593 31.7218 78.4577 31.7712 78.367 31.837C78.221 31.935 78.1039 32.0704 78.028 32.229C76.228 35.301 72.89 35.718 70.09 37.27C67.69 38.597 66.166 37.032 63.918 36.478C63.4338 36.3322 62.9221 36.3031 62.4245 36.3929C61.9269 36.4828 61.4576 36.6891 61.055 36.995C60.9081 37.0893 60.7833 37.2141 60.689 37.361C60.5143 37.3772 60.3456 37.4333 60.196 37.525C58.8117 38.3598 57.2531 38.8632 55.642 38.996C54.523 39.075 53.442 38.633 52.352 38.741C50.514 38.923 49.752 40.68 49.14 42.295C48.6065 42.2387 48.0875 42.0866 47.608 41.846C47.4395 41.7413 47.2463 41.6833 47.048 41.678C46.8497 41.6727 46.6536 41.7202 46.4798 41.8157C46.3059 41.9111 46.1606 42.0511 46.0587 42.2213C45.9568 42.3915 45.9021 42.5857 45.9 42.784C45.7118 42.7769 45.5244 42.8139 45.353 42.892C44.4823 43.2985 43.5348 43.5145 42.5739 43.5255C41.613 43.5366 40.6609 43.3424 39.781 42.956C39.2415 42.6777 38.643 42.5333 38.036 42.535C37.202 42.621 36.563 43.255 35.759 43.464C34.4573 43.7574 33.0946 43.6012 31.893 43.021C31.7572 42.9448 31.607 42.8979 31.4519 42.8834C31.2969 42.869 31.1405 42.8872 30.993 42.937C29.921 42.468 28.461 41.522 27.218 41.579C27.218 41.573 27.226 41.571 27.229 41.566C27.4731 41.1292 27.5977 40.6357 27.5903 40.1354C27.583 39.635 27.4439 39.1455 27.187 38.716C26.918 38.224 26.287 37.752 26.139 37.216C25.991 36.68 26.267 36.11 26.279 35.579C26.2776 35.089 26.178 34.6043 25.986 34.1535C25.794 33.7027 25.5136 33.295 25.1612 32.9545C24.8089 32.614 24.3918 32.3476 23.9347 32.1711C23.4776 31.9946 22.9898 31.9116 22.5 31.927C22.1965 31.9359 21.9085 32.0627 21.697 32.2805C21.4855 32.4983 21.3672 32.7899 21.3672 33.0935C21.3672 33.3971 21.4855 33.6887 21.697 33.9065C21.9085 34.1243 22.1965 34.2511 22.5 34.26C24.5 34.238 23.609 36.098 23.759 37.271C23.841 37.8105 24.0463 38.3238 24.359 38.771C24.589 39.132 25.475 39.871 25.207 40.387C25.1305 40.5313 25.0852 40.69 25.074 40.853C25.0627 41.0159 25.0858 41.1794 25.1417 41.3328C25.1976 41.4862 25.285 41.6263 25.3984 41.7438C25.5118 41.8613 25.6486 41.9537 25.8 42.015C25.4042 42.2295 24.9815 42.39 24.543 42.492C23.3756 42.6939 22.1742 42.5085 21.122 41.964C20.9828 41.8975 20.832 41.8584 20.678 41.849C21.293 40.701 19.778 39.272 18.907 40.391C17.739 41.891 16.97 39.613 16.07 39.091C15.637 38.8219 15.1203 38.7212 14.6179 38.8081C14.1155 38.8949 13.6626 39.1632 13.345 39.562C13.1856 39.5019 13.0146 39.479 12.845 39.495C11.828 39.573 10.956 39.745 10.345 38.67C10.029 38.109 10.063 37.42 9.66001 36.846C9.02265 35.953 8.06369 35.3422 6.98501 35.142V35.142ZM104.809 39.802C103.943 40.0635 103.012 40.0137 102.179 39.6612C101.346 39.3087 100.662 38.6757 100.246 37.872C100.139 37.6836 99.9769 37.532 99.782 37.437C100.38 36.7136 100.708 35.8047 100.71 34.866C100.698 34.5651 100.569 34.2807 100.352 34.0722C100.135 33.8637 99.8452 33.7473 99.544 33.7473C99.2429 33.7473 98.9534 33.8637 98.7361 34.0722C98.5188 34.2807 98.3905 34.5651 98.378 34.866C98.329 37.292 93.678 37.927 91.935 38.483C91.7406 38.5499 91.5666 38.6656 91.4298 38.8191C91.293 38.9725 91.1979 39.1585 91.1536 39.3593C91.1093 39.5601 91.1174 39.7689 91.177 39.9656C91.2366 40.1624 91.3458 40.3406 91.494 40.483C91.4361 40.6381 91.4126 40.8039 91.425 40.969C91.525 42.523 91.809 44.683 91.265 46.18C90.505 48.271 88.765 48.203 86.996 48.124C84.963 48.033 82.244 47.704 80.723 46.165C81.006 45.772 81.291 45.384 81.599 45.034C82.379 44.143 83.133 43.564 83.24 42.259C83.44 39.773 81.362 38.217 79.05 38.339C78.7613 38.3516 78.4879 38.4723 78.2841 38.6772C78.0803 38.8821 77.961 39.1562 77.95 39.445C75.5365 40.3165 73.5491 42.0802 72.397 44.373C71.732 45.714 73.743 46.897 74.411 45.551C74.8683 44.5967 75.5162 43.7462 76.315 43.052C77.1137 42.3578 78.0462 41.8347 79.055 41.515C79.2443 41.4544 79.4146 41.3455 79.549 41.199C80.4723 42.2817 80.4987 43.0953 79.628 43.64C79.3844 43.7937 79.1769 43.9984 79.02 44.24C78.6875 44.6721 78.3791 45.1221 78.096 45.588C77.7708 46.1226 77.3273 46.5756 76.7995 46.9119C76.2718 47.2482 75.674 47.459 75.052 47.528C72.8758 47.9015 70.6372 47.548 68.682 46.522C68.765 46.097 68.7959 45.6635 68.774 45.231C68.7581 44.942 68.6352 44.6693 68.4293 44.466C68.2234 44.2626 67.9492 44.1432 67.66 44.131C67.649 43.9036 67.5603 43.6869 67.4086 43.5171C67.257 43.3472 67.0517 43.2346 66.827 43.198C64.195 42.605 61.4409 42.895 58.99 44.023C58.7696 44.1036 58.5884 44.2655 58.4836 44.4754C58.3787 44.6853 58.3581 44.9274 58.426 45.152C57.5524 45.0358 56.6648 45.0798 55.807 45.282C55.6114 45.3256 55.4322 45.4237 55.29 45.565C55.1422 45.5232 54.9869 45.5154 54.8357 45.5422C54.6845 45.5691 54.5413 45.6299 54.417 45.72C51.989 47.327 52.524 50.115 52.197 52.669C52.1308 53.2041 51.9991 53.729 51.805 54.232L51.223 53.456C51.0608 53.1944 50.8043 53.0052 50.5065 52.9274C50.2087 52.8496 49.8924 52.8892 49.623 53.038C49.3579 53.1958 49.1655 53.4515 49.0873 53.7499C49.0091 54.0483 49.0513 54.3655 49.205 54.633C49.4717 54.989 49.7383 55.3447 50.005 55.7C50.1017 55.8288 50.2177 55.9418 50.349 56.035C48.425 57.135 45.396 56.142 42.764 55.64C43.864 54.245 44.786 52.54 46.293 51.781C47.634 51.105 46.454 49.092 45.116 49.767C43.56 50.552 42.946 51.621 41.952 53.001C40.279 55.323 37.867 56.608 35.299 57.752C33.41 58.594 30.84 59.673 28.855 58.407C27.093 57.284 26.705 54.358 27.255 52.554C28.064 49.882 30.689 47.676 32.801 46.034C32.9006 45.9569 32.9865 45.8636 33.055 45.758C34.5558 45.849 36.0616 45.6991 37.515 45.314C38.6771 45.2094 39.8482 45.3508 40.952 45.729C40.1707 46.394 39.3213 46.9745 38.418 47.461C37.091 48.161 35.618 48.561 34.318 49.304C32.271 50.462 30.937 52.49 31.566 54.869C31.6556 55.1588 31.8544 55.4023 32.1204 55.548C32.3864 55.6936 32.6987 55.73 32.9911 55.6494C33.2835 55.5688 33.533 55.3776 33.6868 55.1161C33.8406 54.8547 33.8866 54.5437 33.815 54.249C33.068 51.419 37.489 50.549 39.299 49.627C41.0732 48.7018 42.6808 47.4875 44.056 46.034C44.1493 45.9334 44.2238 45.8169 44.276 45.69C45.0515 45.5085 45.806 45.2464 46.527 44.908C46.675 44.8496 46.8059 44.7549 46.9076 44.6325C47.0094 44.5102 47.0786 44.3642 47.109 44.208C47.9087 44.4728 48.7373 44.6406 49.577 44.708C49.8748 44.7773 50.1879 44.7319 50.4538 44.5809C50.7196 44.4299 50.919 44.1843 51.012 43.893C51.797 41.933 51.812 41.335 53.833 41.281C54.6998 41.3144 55.5677 41.3011 56.433 41.241C58.1763 41.0164 59.8553 40.4379 61.367 39.541C61.5156 39.4542 61.6435 39.3361 61.742 39.195C61.9157 39.1684 62.0807 39.1016 62.224 39C63.066 38.45 64.864 39.486 66.424 40.118C66.4251 40.1471 66.4278 40.1762 66.432 40.205L67.578 43.378C67.6678 43.6714 67.8665 43.9193 68.1334 44.0707C68.4003 44.2221 68.7151 44.2655 69.013 44.192C69.3098 44.1077 69.5615 43.9101 69.7138 43.6418C69.8661 43.3735 69.9068 43.056 69.827 42.758L68.984 40.422C70.1905 39.9414 71.3512 39.353 72.452 38.664C75.317 37.347 77.932 36.564 79.745 33.828C83.729 33.172 84.776 38.563 88.689 37.72C90.114 37.412 90.753 36.392 91.797 35.497C93.747 33.825 96.844 33.981 99.307 33.648C99.4697 33.6187 99.6194 33.5402 99.736 33.423C100.554 34.323 101.654 34.9182 102.855 35.111C104.617 35.384 106.407 34.111 107.897 34.861C107.685 34.9363 107.503 35.0774 107.377 35.2636C107.251 35.4498 107.188 35.6714 107.197 35.896V37.519C107.155 37.4958 107.112 37.4758 107.067 37.459C106.69 37.3618 106.297 37.3424 105.912 37.4021C105.527 37.4617 105.159 37.5992 104.829 37.806C104.664 37.914 104.528 38.061 104.434 38.234C104.339 38.407 104.289 38.6005 104.287 38.7977C104.285 38.9948 104.331 39.1893 104.423 39.3642C104.514 39.539 104.646 39.6887 104.809 39.8V39.802ZM90.317 51.278C90.717 51.696 91.104 52.1293 91.478 52.578C86.83 54.41 82.078 55.965 77.394 57.692C79.3654 55.2892 80.8433 52.521 81.743 49.546C83.9479 50.3306 86.2945 50.6373 88.627 50.446C89.1092 50.4109 89.5864 50.3258 90.051 50.192C89.9899 50.3798 89.9823 50.581 90.0293 50.7729C90.0763 50.9647 90.176 51.1397 90.317 51.278V51.278ZM60.546 45.9C62.3428 45.182 64.3147 45.0238 66.203 45.446C66.2782 45.4535 66.3539 45.4535 66.429 45.446C66.429 47.263 65.006 48.527 63.208 47.775C62.272 47.2221 61.3818 46.5951 60.546 45.9ZM60.553 48.849C58.8655 49.5451 57.0924 50.0122 55.281 50.238C54.9974 50.2542 54.7303 50.3766 54.533 50.581C54.606 49.381 54.826 48.239 55.591 47.733C55.6839 47.6697 55.768 47.5944 55.841 47.509C56.0304 47.5652 56.231 47.5724 56.424 47.53C58.107 47.146 59.329 47.974 60.553 48.845V48.849ZM19.437 54.408C19.4149 54.2426 19.3504 54.0858 19.2498 53.9526C19.1493 53.8195 19.016 53.7145 18.863 53.648C15.678 52.083 19.333 48.848 21.022 47.939C23.248 46.745 25.571 45.709 27.841 44.604C27.9807 44.5369 28.105 44.4415 28.206 44.324C28.353 44.362 28.5 44.408 28.647 44.461C25.53 47.919 24.643 53.963 19.437 54.408ZM15.283 40.78C15.2582 40.8948 15.2029 41.0009 15.123 41.087C15.1914 40.9933 15.2454 40.8898 15.283 40.78V40.78ZM10.213 50.753C8.43186 49.762 6.57665 48.9105 4.66401 48.206C4.94143 46.8648 5.58012 45.6249 6.51105 44.6203C7.44198 43.6157 8.62975 42.8846 9.94601 42.506C10.1335 42.4577 10.3041 42.3586 10.4389 42.2195C10.5737 42.0805 10.6675 41.9069 10.71 41.718C11.4152 41.8481 12.1348 41.8818 12.849 41.818C13.1438 41.7981 13.4194 41.6647 13.618 41.446C13.8438 41.5697 14.1037 41.6165 14.3585 41.5794C14.6133 41.5422 14.849 41.4231 15.03 41.24C15.062 41.292 15.124 41.376 15.23 41.531C15.394 41.7806 15.5751 42.0185 15.772 42.243C16.1864 42.6847 16.7217 42.9946 17.311 43.134C18.0003 43.2916 18.722 43.2214 19.368 42.934C19.333 43.1465 19.3709 43.3645 19.4755 43.5528C19.58 43.741 19.7451 43.8884 19.944 43.971C20.5819 44.2827 21.2528 44.5219 21.944 44.684C19.7982 45.5224 17.8973 46.8865 16.416 48.651C15.8456 49.4307 15.5065 50.3553 15.4375 51.3189C15.3685 52.2825 15.5725 53.246 16.026 54.099C13.942 53.356 12.126 51.83 10.213 50.753V50.753ZM17.955 56.868C18.1475 56.8837 18.3406 56.846 18.513 56.759C20.7261 56.8142 22.8806 56.0447 24.558 54.6C24.3976 55.7744 24.613 56.9694 25.1735 58.0139C25.734 59.0583 26.6107 59.8985 27.678 60.414C30.503 62.031 33.745 61.003 36.478 59.759C37.9849 59.1147 39.4313 58.3373 40.8 57.436C40.9866 57.6208 41.23 57.7374 41.491 57.767C45.091 58.152 49.274 60.54 52.467 57.625C53.0791 57.0479 53.5523 56.3395 53.851 55.553C53.9415 55.6276 54.0426 55.6883 54.151 55.733C57.632 56.954 61.487 56.733 62.84 60.873C62.993 61.342 63.14 61.806 63.281 62.268C59.614 63.368 55.972 64.476 52.269 65.468C46.934 66.905 40.863 69.274 35.369 67.503C35.2832 67.4824 35.1952 67.4727 35.107 67.474C35.089 67.474 35.077 67.462 35.059 67.461C29.925 67.161 25.419 64.923 20.783 62.901C16.683 61.113 11.419 60.086 11.706 54.41C13.5419 55.755 15.6948 56.6018 17.955 56.868V56.868ZM32.585 76.236C32.4185 76.2324 32.2531 76.2645 32.1 76.33C31.9989 76.2043 31.8727 76.101 31.7295 76.0268C31.5862 75.9525 31.429 75.909 31.268 75.899C25.904 75.447 19.056 74.463 15.868 69.689C14.259 67.2923 13.1957 64.5716 12.753 61.719C13.995 62.4363 15.2843 63.0684 16.612 63.611C22.484 66.173 28.323 69.311 34.806 69.77C39.451 71.246 44.333 70.014 48.9 68.799C53.964 67.451 58.967 65.98 63.984 64.49C64.5093 66.2347 65.2109 67.9215 66.078 69.524C66.089 69.543 66.106 69.55 66.117 69.569C55.241 72.848 43.587 76.341 32.585 76.236V76.236ZM65.543 61.936C65.2431 60.3296 64.6346 58.7967 63.751 57.422C61.611 54.57 57.876 54.571 54.777 53.485C54.6603 53.4486 54.5382 53.432 54.416 53.436C54.456 53.098 54.477 52.716 54.485 52.289C54.5898 52.3912 54.7158 52.4692 54.854 52.5174C54.9922 52.5656 55.1394 52.5829 55.285 52.568C58.105 52.388 60.641 51.078 63.358 50.437C63.4054 50.4187 63.4515 50.3973 63.496 50.373C64.0091 50.476 64.5377 50.474 65.05 50.367C66.1209 50.1485 67.0761 49.5487 67.738 48.679C70.938 50.416 76.262 50.788 78.983 48.302C79.083 48.208 79.172 48.102 79.269 47.997C79.407 48.131 79.53 48.279 79.683 48.397C79.6501 48.4519 79.6227 48.5098 79.601 48.57C77.77 56.086 70.817 60.758 67.77 67.714C66.8127 65.8775 66.0657 63.9389 65.543 61.935V61.936ZM72.652 67.625C71.771 67.879 70.882 68.142 69.987 68.408C71.2201 65.7937 72.7934 63.3539 74.666 61.152C74.747 61.1472 74.8272 61.1331 74.905 61.11C80.586 58.872 86.425 57.063 92.105 54.825C92.3808 54.7177 92.6058 54.5102 92.735 54.244C94.0744 56.1677 95.171 58.2494 96 60.442C87.9846 62.001 80.1579 64.4086 72.652 67.624V67.625ZM98.619 60.839C97.2518 56.6593 94.9803 52.8322 91.966 49.63C91.8777 49.5473 91.7763 49.4797 91.666 49.43C93.936 47.73 93.96 44.237 93.756 40.973C93.7441 40.7811 93.6847 40.5952 93.583 40.432C95.1592 40.0535 96.6869 39.4955 98.136 38.769C98.154 38.8685 98.1856 38.9651 98.23 39.056C98.7479 40.0009 99.5017 40.7956 100.418 41.3623C101.335 41.9291 102.382 42.2487 103.459 42.29C103.337 42.4553 103.26 42.6498 103.236 42.854C103.048 44.538 103.601 46.163 103.436 47.81C103.263 49.571 102.177 50.992 101.557 52.582C100.483 55.345 100.421 58.409 98.619 60.838V60.839ZM102.008 59.173C102.639 57.349 102.995 55.424 103.736 53.498C103.896 53.0921 104.078 52.6949 104.28 52.308C104.386 52.3419 104.496 52.3597 104.607 52.361C107.435 52.3398 110.256 52.066 113.035 51.543C113.531 55.291 106.119 58.2 102.008 59.172V59.173ZM118.671 43.858C118.666 43.9226 118.666 43.9875 118.671 44.052C118.671 44.062 118.662 44.067 118.659 44.077C117.182 49.936 110.307 49.844 105.359 50.002C105.464 49.7352 105.551 49.4616 105.619 49.183C106.071 47.1 105.335 44.955 105.57 42.849C105.592 42.707 105.582 42.5618 105.539 42.4244C105.497 42.2871 105.424 42.1611 105.326 42.056C106.375 41.764 107.335 41.2139 108.117 40.456C108.261 40.3198 108.364 40.1469 108.417 39.956C108.564 39.959 108.711 39.9321 108.848 39.8769C108.984 39.8218 109.108 39.7394 109.213 39.635C109.317 39.5305 109.398 39.406 109.453 39.269C109.507 39.132 109.534 38.9854 109.53 38.838V38.538C109.643 38.6217 109.77 38.6838 109.906 38.721C111.527 39.1162 113.102 39.6796 114.606 40.402C115.709 40.942 118.981 42.312 118.671 43.857V43.858Z" fill="#E5E5E5"/>
<path d="M59.5 14.423C59.8009 14.4105 60.0853 14.2822 60.2938 14.0649C60.5023 13.8476 60.6187 13.5581 60.6187 13.257C60.6187 12.9559 60.5023 12.6664 60.2938 12.4491C60.0853 12.2318 59.8009 12.1035 59.5 12.091C59.1991 12.1035 58.9147 12.2318 58.7062 12.4491C58.4977 12.6664 58.3813 12.9559 58.3813 13.257C58.3813 13.5581 58.4977 13.8476 58.7062 14.0649C58.9147 14.2822 59.1991 14.4105 59.5 14.423V14.423Z" fill="#E5E5E5"/>
<path d="M52.123 21.8C52.4265 21.7911 52.7145 21.6643 52.926 21.4465C53.1375 21.2287 53.2559 20.9371 53.2559 20.6335C53.2559 20.3299 53.1375 20.0383 52.926 19.8205C52.7145 19.6027 52.4265 19.4759 52.123 19.467C51.8196 19.4759 51.5315 19.6027 51.32 19.8205C51.1085 20.0383 50.9902 20.3299 50.9902 20.6335C50.9902 20.9371 51.1085 21.2287 51.32 21.4465C51.5315 21.6643 51.8196 21.7911 52.123 21.8Z" fill="#E5E5E5"/>
<path d="M45.75 16.1C46.0535 16.0911 46.3415 15.9643 46.553 15.7465C46.7645 15.5287 46.8828 15.2371 46.8828 14.9335C46.8828 14.6299 46.7645 14.3383 46.553 14.1205C46.3415 13.9027 46.0535 13.7759 45.75 13.767C45.4465 13.7759 45.1585 13.9027 44.947 14.1205C44.7355 14.3383 44.6172 14.6299 44.6172 14.9335C44.6172 15.2371 44.7355 15.5287 44.947 15.7465C45.1585 15.9643 45.4465 16.0911 45.75 16.1V16.1Z" fill="#E5E5E5"/>
<path d="M70.237 9.39199C70.5405 9.3831 70.8285 9.25631 71.04 9.03852C71.2515 8.82073 71.3698 8.52908 71.3698 8.22549C71.3698 7.9219 71.2515 7.63025 71.04 7.41246C70.8285 7.19467 70.5405 7.06788 70.237 7.05899C69.9335 7.06788 69.6455 7.19467 69.434 7.41246C69.2225 7.63025 69.1042 7.9219 69.1042 8.22549C69.1042 8.52908 69.2225 8.82073 69.434 9.03852C69.6455 9.25631 69.9335 9.3831 70.237 9.39199Z" fill="#E5E5E5"/>
<path d="M80.8 11.58V11.245C80.7911 10.9415 80.6643 10.6535 80.4465 10.442C80.2287 10.2305 79.9371 10.1122 79.6335 10.1122C79.3299 10.1122 79.0383 10.2305 78.8205 10.442C78.6027 10.6535 78.4759 10.9415 78.467 11.245V11.58C78.4759 11.8835 78.6027 12.1715 78.8205 12.383C79.0383 12.5945 79.3299 12.7128 79.6335 12.7128C79.9371 12.7128 80.2287 12.5945 80.4465 12.383C80.6643 12.1715 80.7911 11.8835 80.8 11.58V11.58Z" fill="#E5E5E5"/>
<path d="M88.351 8.721C88.6545 8.71211 88.9425 8.58532 89.154 8.36753C89.3655 8.14974 89.4839 7.85809 89.4839 7.5545C89.4839 7.25091 89.3655 6.95926 89.154 6.74147C88.9425 6.52368 88.6545 6.39689 88.351 6.388C88.0476 6.39689 87.7595 6.52368 87.548 6.74147C87.3365 6.95926 87.2182 7.25091 87.2182 7.5545C87.2182 7.85809 87.3365 8.14974 87.548 8.36753C87.7595 8.58532 88.0476 8.71211 88.351 8.721V8.721Z" fill="#E5E5E5"/>
<path d="M98.078 16.772C98.3815 16.7631 98.6695 16.6363 98.881 16.4185C99.0925 16.2007 99.2108 15.9091 99.2108 15.6055C99.2108 15.3019 99.0925 15.0103 98.881 14.7925C98.6695 14.5747 98.3815 14.4479 98.078 14.439C97.7745 14.4479 97.4865 14.5747 97.275 14.7925C97.0635 15.0103 96.9452 15.3019 96.9452 15.6055C96.9452 15.9091 97.0635 16.2007 97.275 16.4185C97.4865 16.6363 97.7745 16.7631 98.078 16.772V16.772Z" fill="#E5E5E5"/>
<path d="M36.693 21.483C36.3896 21.4919 36.1015 21.6187 35.89 21.8365C35.6785 22.0543 35.5602 22.3459 35.5602 22.6495C35.5602 22.9531 35.6785 23.2447 35.89 23.4625C36.1015 23.6803 36.3896 23.8071 36.693 23.816C36.9965 23.8071 37.2845 23.6803 37.496 23.4625C37.7076 23.2447 37.8259 22.9531 37.8259 22.6495C37.8259 22.3459 37.7076 22.0543 37.496 21.8365C37.2845 21.6187 36.9965 21.4919 36.693 21.483Z" fill="#E5E5E5"/>
</svg>
