<?xml version="1.0" encoding="iso-8859-1"?>
<!-- Generator: Adobe Illustrator 19.0.0, SVG Export Plug-In . SVG Version: 6.00 Build 0)  -->
<svg version="1.1" id="Layer_1" xmlns="http://www.w3.org/2000/svg" xmlns:xlink="http://www.w3.org/1999/xlink" x="0px" y="0px"
	 viewBox="0 0 512 512" style="enable-background:new 0 0 512 512;" xml:space="preserve">
<path style="fill:#F4C064;" d="M450.021,277.558L450.021,277.558c11.906,0,21.558,9.651,21.558,21.558
	c0,7.326-3.663,13.788-9.248,17.684c5.892,10.75,9.248,23.086,9.248,36.211c0,9.391-3.012,18.072-8.108,25.153
	c5.073,6.424,8.108,14.531,8.108,23.353c0,20.836-16.891,37.726-37.726,37.726h16.168c11.906,0,21.558,9.651,21.558,21.558
	c0,23.812-19.304,43.116-43.116,43.116H83.537c-23.812,0-43.116-19.304-43.116-43.116c0-11.906,9.651-21.558,21.558-21.558h16.168
	c-20.836,0-37.726-16.891-37.726-37.726c0-8.821,3.035-16.928,8.108-23.353c-5.096-7.081-8.108-15.763-8.108-25.153
	c0-13.123,3.355-25.461,9.248-36.211c-5.586-3.896-9.248-10.357-9.248-17.684c0-11.906,9.651-21.558,21.558-21.558l0,0
	c-11.906,0-21.558-9.651-21.558-21.558h431.158C471.579,267.906,461.927,277.558,450.021,277.558z"/>
<path style="fill:#99774F;" d="M471.579,401.516L471.579,401.516c0,20.836-16.891,37.726-37.726,37.726H78.147
	c-20.836,0-37.726-16.891-37.726-37.726l0,0c0-20.836,16.891-37.726,37.726-37.726h355.705
	C454.688,363.789,471.579,380.68,471.579,401.516z"/>
<path style="fill:#91F18B;" d="M471.579,353.01L471.579,353.01c0,23.812-19.304,43.116-43.116,43.116l0,0
	c-14.133,0-26.67-6.806-34.531-17.313c-2.017-2.696-5.218-4.245-8.584-4.245l0,0c-3.367,0-6.568,1.549-8.584,4.245
	c-7.861,10.508-20.398,17.313-34.531,17.313l0,0c-14.133,0-26.67-6.806-34.531-17.313c-2.017-2.696-5.218-4.245-8.584-4.245l0,0
	c-3.367,0-6.568,1.549-8.584,4.245c-7.861,10.508-20.398,17.313-34.531,17.313l0,0c-14.133,0-26.67-6.806-34.531-17.313
	c-2.017-2.696-5.218-4.245-8.584-4.245l0,0c-3.367,0-6.568,1.549-8.584,4.245c-7.861,10.508-20.398,17.313-34.531,17.313l0,0
	c-14.133,0-26.67-6.806-34.531-17.313c-2.017-2.696-5.218-4.245-8.584-4.245l0,0c-3.367,0-6.568,1.549-8.584,4.245
	c-7.861,10.507-20.398,17.313-34.531,17.313l0,0c-23.812,0-43.116-19.304-43.116-43.116l0,0c0-41.671,33.781-75.453,75.453-75.453
	h10.779h86.232h86.232h86.232h10.779C437.798,277.558,471.579,311.339,471.579,353.01z"/>
<path style="fill:#FF8355;" d="M471.579,299.116L471.579,299.116c0,11.906-9.651,21.558-21.558,21.558H61.979
	c-11.906,0-21.558-9.651-21.558-21.558l0,0c0-11.906,9.651-21.558,21.558-21.558h388.042
	C461.927,277.558,471.579,287.209,471.579,299.116z"/>
<path style="fill:#FFE954;" d="M256,353.01L256,353.01c-13.93,0-27.418-4.884-38.119-13.801l-112.787-93.988h301.811
	l-112.787,93.988C283.418,348.127,269.93,353.01,256,353.01z"/>
<path style="fill:#F4C064;" d="M450.021,277.558H61.979c-11.906,0-21.558-9.651-21.558-21.558l0,0
	c0-83.343,67.562-150.905,150.905-150.905h129.347c83.343,0,150.905,67.562,150.905,150.905l0,0
	C471.579,267.906,461.927,277.558,450.021,277.558z"/>
<path style="fill:#F4AB53;" d="M223.663,503.916H83.537c-23.812,0-43.116-19.304-43.116-43.116l0,0
	c0-11.906,9.651-21.558,21.558-21.558h140.126c-11.906,0-21.558,9.651-21.558,21.558l0,0
	C180.547,484.612,199.851,503.916,223.663,503.916z M191.326,105.095c-83.343,0-150.905,67.562-150.905,150.905l0,0
	c0,11.906,9.651,21.558,21.558,21.558h140.126c-11.906,0-21.558-9.651-21.558-21.558l0,0c0-83.343,67.562-150.905,150.905-150.905
	H191.326z"/>
<path style="fill:#FF8355;" d="M353.01,72.758H256V18.863h97.011c5.953,0,10.779,4.826,10.779,10.779v32.337
	C363.789,67.932,358.964,72.758,353.01,72.758z"/>
<path d="M470.346,277.558c5.733-5.409,9.317-13.073,9.317-21.558c0-87.667-71.322-158.989-158.989-158.989h-32.337
	c-4.465,0-8.084,3.618-8.084,8.084c0,4.466,3.62,8.084,8.084,8.084h32.337c78.752,0,142.821,64.069,142.821,142.821
	c0,7.43-6.044,13.474-13.474,13.474H299.116c-4.465,0-8.084,3.618-8.084,8.084s3.62,8.084,8.084,8.084h46.657l-34.517,28.765
	c-0.044,0.036-0.087,0.071-0.13,0.109l-22.181,18.484c-9.23,7.691-20.929,11.927-32.944,11.927
	c-12.015,0-23.715-4.236-32.944-11.927l-22.237-18.53c-0.006-0.005-0.012-0.011-0.018-0.016l-34.572-28.811h100.55
	c4.465,0,8.084-3.618,8.084-8.084s-3.62-8.084-8.084-8.084h-122.82c-0.037,0-0.073,0-0.111,0H61.979
	c-7.43,0-13.474-6.044-13.474-13.474c0-78.752,64.069-142.821,142.821-142.821h56.589v16.168h-24.253
	c-4.465,0-8.084,3.618-8.084,8.084c0,4.466,3.62,8.084,8.084,8.084h53.895c4.465,0,8.084-3.618,8.084-8.084
	c0-4.466-3.62-8.084-8.084-8.084h-13.474V80.842h88.926c10.401,0,18.863-8.463,18.863-18.863V29.642
	c0-10.401-8.463-18.863-18.863-18.863h-88.926V8.084C264.084,3.618,260.465,0,256,0c-4.465,0-8.084,3.618-8.084,8.084v88.926
	h-56.589c-87.667,0-158.989,71.322-158.989,158.989c0,8.485,3.584,16.149,9.317,21.558c-5.733,5.409-9.317,13.073-9.317,21.558
	c0,7.479,2.785,14.322,7.373,19.543c-4.838,10.739-7.373,22.491-7.373,34.351c0,9.053,2.363,17.566,6.503,24.953
	c-4.271,7.084-6.503,15.122-6.503,23.552c0,13.292,5.69,25.279,14.762,33.655c-8.82,5.141-14.762,14.705-14.762,25.629
	c0,28.231,22.969,51.2,51.2,51.2h344.926c28.231,0,51.2-22.969,51.2-51.2c0-10.924-5.941-20.489-14.762-25.629
	c9.072-8.376,14.762-20.364,14.762-33.655c0-8.429-2.232-16.468-6.503-23.552c4.14-7.388,6.503-15.9,6.503-24.953
	c0-11.859-2.535-23.612-7.373-34.351c4.588-5.221,7.373-12.063,7.373-19.543C479.663,290.631,476.079,282.967,470.346,277.558z
	 M264.084,26.947h88.926c1.485,0,2.695,1.208,2.695,2.695v32.337c0,1.486-1.209,2.695-2.695,2.695h-88.926V26.947z M406.905,447.326
	h43.116c7.43,0,13.474,6.044,13.474,13.474c0,19.317-15.716,35.032-35.032,35.032H83.537c-19.316,0-35.032-15.715-35.032-35.032
	c0-7.43,6.044-13.474,13.474-13.474h312.589c4.465,0,8.084-3.618,8.084-8.084c0-4.466-3.62-8.084-8.084-8.084H78.147
	c-16.345,0-29.642-13.298-29.642-29.642c0-3.372,0.551-6.645,1.624-9.736c8.973,7.743,20.652,12.43,33.407,12.43
	c16.287,0,31.232-7.492,41.004-20.554c0.47-0.628,1.259-1.004,2.112-1.004s1.642,0.375,2.112,1.002
	c9.772,13.063,24.717,20.555,41.004,20.555s31.232-7.492,41.004-20.554c0.47-0.628,1.259-1.004,2.112-1.004s1.642,0.375,2.112,1.002
	c9.772,13.063,24.717,20.555,41.004,20.555s31.232-7.492,41.004-20.554c0.47-0.628,1.259-1.004,2.112-1.004s1.642,0.375,2.112,1.002
	c9.772,13.063,24.717,20.555,41.004,20.555c16.287,0,31.232-7.492,41.004-20.554c0.47-0.628,1.259-1.004,2.112-1.004
	s1.642,0.375,2.112,1.002c9.772,13.063,24.717,20.555,41.004,20.555c12.755,0,24.434-4.688,33.407-12.43
	c1.074,3.09,1.624,6.364,1.624,9.736c0,16.344-13.297,29.642-29.642,29.642h-26.947c-4.465,0-8.084,3.618-8.084,8.084
	C398.821,443.708,402.441,447.326,406.905,447.326z M417.684,328.758h32.337c2.946,0,5.794-0.431,8.481-1.235
	c3.28,8.045,4.993,16.73,4.993,25.488c0,19.317-15.716,35.032-35.032,35.032c-11.141,0-21.368-5.13-28.058-14.073
	c-3.506-4.688-9.136-7.485-15.058-7.485s-11.551,2.798-15.058,7.486c-6.689,8.942-16.916,14.072-28.058,14.072
	s-21.368-5.13-28.058-14.073c-3.506-4.688-9.136-7.485-15.058-7.485s-11.551,2.798-15.058,7.486
	c-6.689,8.942-16.916,14.072-28.058,14.072c-11.141,0-21.368-5.13-28.058-14.073c-3.506-4.688-9.136-7.485-15.058-7.485
	s-11.551,2.798-15.058,7.486c-6.689,8.942-16.916,14.072-28.058,14.072c-11.141,0-21.368-5.13-28.058-14.073
	c-3.506-4.688-9.136-7.485-15.058-7.485s-11.551,2.798-15.058,7.486c-6.689,8.942-16.916,14.072-28.058,14.072
	c-19.316,0-35.032-15.715-35.032-35.032c0-8.76,1.712-17.445,4.993-25.488c2.687,0.804,5.535,1.235,8.481,1.235h32.337
	c4.465,0,8.084-3.618,8.084-8.084s-3.62-8.084-8.084-8.084H61.979c-7.43,0-13.474-6.044-13.474-13.474s6.044-13.474,13.474-13.474
	h78.994l32.337,26.947h-46.657c-4.465,0-8.084,3.618-8.084,8.084s3.62,8.084,8.084,8.084h66.058l19.994,16.662
	c12.13,10.108,27.506,15.675,43.296,15.675c15.789,0,31.165-5.566,43.295-15.675l19.994-16.662h66.059
	c4.465,0,8.084-3.618,8.084-8.084s-3.62-8.084-8.084-8.084h-46.657l32.337-26.947h78.993c7.43,0,13.474,6.044,13.474,13.474
	s-6.044,13.474-13.474,13.474h-32.337c-4.465,0-8.084,3.618-8.084,8.084S413.22,328.758,417.684,328.758z M353.01,204.8
	c4.465,0,8.084,3.618,8.084,8.084s-3.62,8.084-8.084,8.084h-10.779c-4.465,0-8.084-3.618-8.084-8.084s3.62-8.084,8.084-8.084H353.01
	z M406.905,226.358h10.779c4.465,0,8.084,3.618,8.084,8.084s-3.62,8.084-8.084,8.084h-10.779c-4.465,0-8.084-3.618-8.084-8.084
	S402.441,226.358,406.905,226.358z M363.789,167.074c-4.465,0-8.084-3.618-8.084-8.084c0-4.466,3.62-8.084,8.084-8.084h10.779
	c4.465,0,8.084,3.618,8.084,8.084c0,4.466-3.62,8.084-8.084,8.084H363.789z M414.989,191.326c0,4.466-3.62,8.084-8.084,8.084
	h-10.779c-4.465,0-8.084-3.618-8.084-8.084s3.62-8.084,8.084-8.084h10.779C411.37,183.242,414.989,186.861,414.989,191.326z"/>
<g>
</g>
<g>
</g>
<g>
</g>
<g>
</g>
<g>
</g>
<g>
</g>
<g>
</g>
<g>
</g>
<g>
</g>
<g>
</g>
<g>
</g>
<g>
</g>
<g>
</g>
<g>
</g>
<g>
</g>
</svg>
