<?xml version="1.0" encoding="iso-8859-1"?>
<!-- Generator: Adobe Illustrator 19.0.0, SVG Export Plug-In . SVG Version: 6.00 Build 0)  -->
<svg version="1.1" id="Layer_1" xmlns="http://www.w3.org/2000/svg" xmlns:xlink="http://www.w3.org/1999/xlink" x="0px" y="0px"
	 viewBox="0 0 512 512" style="enable-background:new 0 0 512 512;" xml:space="preserve">
<path style="fill:#9BA1A8;" d="M480,460.679v16l0,0c0,13.255-10.745,24-24,24H56c-13.254,0-24-10.745-24-24l0,0v-16H480z"/>
<path style="fill:#93278F;" d="M144,300.679v-128l0,0c13.254,0,24-10.745,24-24v-80h24v80c0,13.255,10.746,24,24,24l0,0v96"/>
<polygon style="fill:#FFFFFF;" points="216,268.679 144,292.679 144,236.679 216,236.679 "/>
<rect x="199.995" y="172.685" style="fill:#9E005D;" width="16" height="64"/>
<polyline style="fill:#C7B299;" points="351.475,276.417 351.475,116.942 384,116.942 384,284.81 "/>
<path style="fill:#FBB03B;" d="M384,60.679c0,8.836-7.164,16-16,16c-8.836,0-16-7.164-16-16s16-40,16-40S384,51.843,384,60.679z"/>
<path style="fill:#FF1D25;" d="M56,316.679L56,316.679c-26.51,0-48-21.49-48-48v-16.706l96,0.706v16
	C104,295.189,82.51,316.679,56,316.679z"/>
<path style="fill:#FF777C;" d="M8.393,251.973v0.176l71.344,0.53v16c0,22.358-15.177,41.09-35.869,46.427
	c3.842,0.99,7.849,1.573,12.001,1.573c26.51,0,48-21.49,48-48v-16L8.393,251.973z"/>
<path style="fill:#C69C6D;" d="M448,460.679H64l0,0c0-106.039,85.961-192,192-192l0,0C362.039,268.679,448,354.641,448,460.679
	L448,460.679z"/>
<path style="fill:#8C6239;" d="M448,460.679H64l0,0c0-106.039,85.961-192,192-192l0,0C362.039,268.679,448,354.641,448,460.679
	L448,460.679z"/>
<path style="fill:#A67C52;" d="M256,268.679c-49.185,0-94.03,18.515-128,48.929c39.269,35.156,64,86.414,64,143.268v0.197h256
	v-0.197C448,354.837,362.039,268.679,256,268.679z"/>
<circle style="fill:#F15A24;" cx="176" cy="436.679" r="24"/>
<path style="fill:#8CC63F;" d="M152.131,461.073v-24.393c0-13.254-10.811-23.869-24.066-23.869
	c-13.255,0-24.066,10.492-24.066,24.131h-32c-13.254,0-23.935,10.811-23.935,24.066"/>
<path style="fill:#39B54A;" d="M128.066,412.679c-2.82,0-5.322,0.576-7.836,1.47c9.3,3.306,16.164,12.096,16.164,22.53v24.393
	h15.738v-24.393C152.131,423.425,141.32,412.679,128.066,412.679z"/>
<circle style="fill:#F7931E;" cx="215.995" cy="444.674" r="16"/>
<circle style="fill:#FBB03B;" cx="247.995" cy="444.674" r="16"/>
<path style="fill:#C69C6D;" d="M256,268.679c-15.147,0-29.93,1.809-44.066,5.125c84.822,19.899,147.934,96.18,147.934,187.071v0.197
	H448v-0.197C448,354.837,362.039,268.679,256,268.679z"/>
<path style="fill:#BFC2C5;" d="M399.568,460.679c13.202,19.356-0.349,40-18.72,40H456c13.255,0,24-10.745,24-24v-16H399.568z"/>
<circle style="fill:#FF1D25;" cx="435.997" cy="432.682" r="28.001"/>
<path style="fill:#FF777C;" d="M436,404.679c-4.313,0-8.35,1.056-12.001,2.798c9.433,4.504,16,14.052,16,25.202
	s-6.567,20.698-16,25.202c3.649,1.742,7.686,2.798,12.001,2.798c15.464,0,28.001-12.536,28.001-27.999
	C464,417.216,451.464,404.679,436,404.679z"/>
<path style="fill:#A67C52;" d="M362.343,409.533c-22.274,22.274-58.643,21.862-80.396-1.236
	c-21.021-22.322-18.822-57.938,2.86-79.62l32.281-32.281c21.869-21.869,57.326-21.869,79.196,0l0,0
	c21.869,21.869,21.869,57.326,0,79.196L362.343,409.533z"/>
<path style="fill:#C69C6D;" d="M396.284,296.396L396.284,296.396c-21.869-21.869-57.326-21.869-79.195,0l-20.687,20.687
	c21.87-21.869,57.326-21.869,79.196,0c21.869,21.87,21.869,57.327,0,79.196l20.686-20.686
	C418.154,353.722,418.154,318.265,396.284,296.396z"/>
<rect x="359.869" y="428.548" style="fill:#FFFFFF;" width="24.131" height="15.738"/>
<rect x="183.607" y="308.942" width="24.131" height="15.738"/>
<rect x="159.475" y="324.679" width="16.787" height="15.738"/>
<rect x="192" y="340.417" width="15.738" height="15.738"/>
<rect x="159.475" y="364.548" width="16.787" height="15.738"/>
<rect x="231.869" y="293.204" width="15.738" height="15.738"/>
<rect x="351.475" y="300.548" width="16.787" height="15.738"/>
<rect x="375.607" y="324.679" width="16.787" height="15.738"/>
<rect x="359.869" y="340.417" width="15.738" height="15.738"/>
<rect x="311.607" y="317.335" width="16.787" height="15.738"/>
<rect x="128" y="340.417" width="24.131" height="15.738"/>
<rect x="432.262" y="421.204" width="15.738" height="15.738"/>
<rect x="153.18" y="44.548" width="55.607" height="15.738"/>
<rect x="160.525" y="188.286" style="fill:#FFFFFF;" width="15.738" height="24.131"/>
<polygon points="375.607,108.548 375.607,92.81 359.869,92.81 359.869,108.548 344.131,108.548 344.131,236.548 359.869,236.548 
	359.869,124.286 375.607,124.286 375.607,269.073 391.344,269.073 391.344,108.548 "/>
<path d="M368,84.548c-13.161,0-23.869-10.708-23.869-23.869c0-9.964,12.911-35.886,16.869-43.594l7-13.633l7,13.634
	c3.957,7.708,16.869,33.63,16.869,43.594C391.869,73.841,381.161,84.548,368,84.548z M368,38.755
	c-4.532,9.954-8.088,19.054-8.131,21.929c0,4.48,3.648,8.127,8.131,8.127c4.482,0,8.13-3.647,8.131-8.129
	C376.086,57.806,372.532,48.707,368,38.755z"/>
<path d="M512,452.679H465.76c3.855-5.718,6.108-12.601,6.108-19.999c0-17.843-13.098-32.68-30.183-35.414
	c-4.754-17.873-12.159-34.84-22.067-50.545c3.1-18.37-1.839-37.845-14.813-52.7l25.608-24.947h41.717v-15.738h-32.525V220.81
	h-15.738v32.667l-30.82,30.024c-16.824-11.665-38.035-14.329-56.862-7.979c-6.874-2.941-13.883-5.428-21-7.492l7.401-7.352h37.282
	v-15.738h-32.525v-32.525h-15.738v36.987l-14.477,14.379c-10.84-1.969-21.9-2.972-33.13-2.972h-16
	c-8.196,0-16.248,0.505-24.131,1.466V164.81H216c-8.895,0-16.131-7.236-16.131-16.131v-80h-15.738v80
	c0,14.858,10.22,27.373,24,30.886v49.639h-56.262v-49.639c13.78-3.513,24-16.027,24-30.886v-80h-15.738v80
	c0,8.895-7.236,16.131-16.131,16.131h-7.869v131.853c-41.602,30.513-68.846,78.028-71.661,132.805
	c-0.156,0.039-0.315,0.07-0.47,0.111V323.967c27.029-3.893,47.869-27.198,47.869-55.288V164.811H0.131v103.869
	c0,28.18,20.975,51.54,48.131,55.321v115.268c-3.377,3.779-5.89,8.361-7.23,13.411H0v15.738h24.131v8.262
	c0,17.573,14.296,31.869,31.869,31.869h400c17.529,0,31.794-14.225,31.866-31.738h0.003v-8.393H512V452.679z M456.131,432.68
	c0,10.345-7.847,18.885-17.899,19.999h-4.464c-10.053-1.115-17.899-9.655-17.899-19.999c0-11.1,9.03-20.132,20.132-20.132
	S456.131,421.579,456.131,432.68z M356.687,287.885c12.326,0,24.65,4.692,34.034,14.075c9.09,9.091,14.097,21.178,14.097,34.034
	c0,12.857-5.007,24.943-14.097,34.034l-33.941,33.941c-9.284,9.284-21.629,14.278-34.761,14.092
	c-13.125-0.197-25.322-5.581-34.342-15.159c-17.64-18.732-16.431-49.534,2.695-68.661l32.28-32.281
	C332.035,292.577,344.361,287.885,356.687,287.885z M151.869,244.942h56.262v19.91c-20.28,4.189-39.216,11.528-56.262,21.486
	V244.942z M93.968,372.593l33.951,0.348l0.162-15.737l-26.009-0.268c7.3-12.346,16.322-23.748,26.962-33.913
	c5.33-5.092,10.98-9.785,16.899-14.083h37.674v-15.738h-11.117c23.021-10.893,48.725-16.656,75.511-16.656h16
	c18.539,0,36.569,2.954,53.81,8.789c-2.182,1.677-4.289,3.496-6.287,5.493l-32.281,32.281
	c-25.082,25.082-26.438,65.715-3.025,90.579c11.964,12.703,28.145,19.843,45.563,20.105c0.331,0.005,0.66,0.007,0.99,0.007
	c17.053,0,33.049-6.621,45.136-18.707l33.941-33.941c4.468-4.467,8.133-9.438,10.996-14.73c5.366,10.176,9.65,20.847,12.814,31.912
	c-14.751,4.451-25.528,18.159-25.528,34.343c0,7.4,2.253,14.283,6.108,19.999H270.485c0.893-2.502,1.384-5.194,1.384-8
	c0-13.161-10.708-23.869-23.869-23.869c-6.15,0-11.763,2.339-16,6.173c-4.237-3.834-9.85-6.173-16-6.173
	c-3.964,0-7.701,0.977-10.994,2.693c-5.023-11.014-16.131-18.693-29.006-18.693c-9.64,0-18.287,4.308-24.136,11.094
	c-5.814-6.863-14.44-11.225-24.061-11.225c-14.469,0-27.047,10.323-30.642,23.869H80.295
	C81.503,408.88,86.162,390.004,93.968,372.593z M256.131,444.679c0,4.002-2.907,7.329-6.719,8h-2.824
	c-3.812-0.671-6.719-3.998-6.719-8c0-4.483,3.648-8.131,8.131-8.131S256.131,440.196,256.131,444.679z M224.131,444.679
	c0,4.002-2.907,7.329-6.719,8h-2.824c-3.812-0.671-6.719-3.998-6.719-8c0-4.483,3.648-8.131,8.131-8.131
	S224.131,440.196,224.131,444.679z M192.131,436.679c0,8.231-6.2,15.028-14.172,16h-3.918c-7.973-0.972-14.172-7.769-14.172-16
	c0-8.895,7.236-16.131,16.131-16.131C184.895,420.548,192.131,427.784,192.131,436.679z M72,444.286h40.262v-7.869
	c0-8.524,7.25-16,15.738-16c8.786,0,15.738,7.295,15.738,16.262v16H57.865C60.717,447.623,66.042,444.286,72,444.286z
	 M15.869,268.679v-88.131h80.262v64.393h-72v15.738h72v8c0,22.128-18.003,40.131-40.131,40.131S15.869,290.809,15.869,268.679z
	 M472.131,476.679c0,8.895-7.236,16.131-16.131,16.131H56c-8.895,0-16.131-7.236-16.131-16.131v-8.262h133.319
	c0.927,0.082,298.943,0,298.943,0V476.679z"/>
<g>
</g>
<g>
</g>
<g>
</g>
<g>
</g>
<g>
</g>
<g>
</g>
<g>
</g>
<g>
</g>
<g>
</g>
<g>
</g>
<g>
</g>
<g>
</g>
<g>
</g>
<g>
</g>
<g>
</g>
</svg>
