<?xml version="1.0" encoding="iso-8859-1"?>
<!-- Generator: Adobe Illustrator 19.0.0, SVG Export Plug-In . SVG Version: 6.00 Build 0)  -->
<svg version="1.1" id="Layer_1" xmlns="http://www.w3.org/2000/svg" xmlns:xlink="http://www.w3.org/1999/xlink" x="0px" y="0px"
	 viewBox="0 0 512 512" style="enable-background:new 0 0 512 512;" xml:space="preserve">
<path style="fill:#E8D6BD;" d="M492.936,465.628l-6.405,22.419c-2.473,8.639-11.841,15.709-20.829,15.709H73.532
	c-8.987,0-18.356-7.07-20.829-15.709l-6.405-22.419H492.936z"/>
<path style="fill:#C8FEFF;" d="M443.915,175.476v87.149c0,96.267-78.042,174.298-174.298,174.298
	c-49.849,0-94.796-20.927-126.562-54.468H95.319c-23.28,0-45.165-9.064-61.625-25.524S8.17,318.585,8.17,295.306
	c0-23.28,9.063-45.165,25.524-61.625s38.346-25.524,61.625-25.524v-32.681H443.915z M411.234,262.625v-54.468
	c-35.404,0-35.404,15.251-70.809,15.251s-35.404-15.251-70.819-15.251c-35.393,0-35.393,15.251-70.798,15.251
	S163.404,208.157,128,208.157v54.468c0,78.085,63.532,141.617,141.617,141.617S411.234,340.71,411.234,262.625z M95.319,349.774
	h23.323c-14.837-25.633-23.323-55.405-23.323-87.149v-21.787c-14.554,0-28.225,5.665-38.52,15.948
	c-10.284,10.294-15.948,23.966-15.948,38.52c0,14.554,5.665,28.225,15.959,38.52C67.094,344.109,80.765,349.774,95.319,349.774z"/>
<path style="fill:#B75548;" d="M214.234,20.133L325.011,130.91c-21.079,21.079-62.976,13.366-93.565-17.223
	S193.144,41.212,214.234,20.133z"/>
<g>
	<path style="fill:#8E4238;" d="M307.788,37.356c30.589,30.589,38.302,72.475,17.223,93.554L214.234,20.133
		C235.313-0.957,277.188,6.756,307.788,37.356z"/>
	<path style="fill:#8E4238;" d="M411.234,208.157v54.468c0,78.085-63.532,141.617-141.617,141.617S128,340.71,128,262.625v-54.468
		c35.404,0,35.404,15.251,70.809,15.251s35.404-15.251,70.798-15.251c35.415,0,35.415,15.251,70.819,15.251
		S375.83,208.157,411.234,208.157z"/>
</g>
<g>
	<path style="fill:#700D00;" d="M95.319,390.625h44.263c34.564,35.155,80.6,54.468,130.034,54.468
		c100.612,0,182.468-81.856,182.468-182.468v-87.149c0-4.513-3.657-8.17-8.17-8.17H95.318c-4.513,0-8.17,3.657-8.17,8.17v24.853
		c-22.381,1.887-43.168,11.511-59.231,27.575C9.915,245.908,0,269.845,0,295.306c0,25.461,9.915,49.397,27.919,67.401
		C45.923,380.71,69.86,390.625,95.319,390.625z M39.472,239.459c14.914-14.917,34.747-23.132,55.846-23.132
		c4.513,0,8.17-3.657,8.17-8.17v-24.511h332.255v78.979c0,91.603-74.524,166.128-166.128,166.128
		c-46.084,0-88.926-18.437-120.633-51.916c-1.543-1.63-3.689-2.552-5.932-2.552H95.319c-21.094,0-40.927-8.215-55.846-23.133
		c-14.918-14.918-23.133-34.751-23.133-55.846C16.34,274.209,24.555,254.376,39.472,239.459z"/>
	<path style="fill:#700D00;" d="M95.319,357.944h23.322c2.921,0,5.618-1.559,7.078-4.088c1.459-2.529,1.456-5.646-0.005-8.173
		c-14.541-25.135-22.225-53.856-22.225-83.057v-21.787c0-4.513-3.657-8.17-8.17-8.17c-16.732,0-32.462,6.515-44.291,18.346
		c-11.83,11.83-18.346,27.561-18.346,44.292c0,16.73,6.515,32.461,18.347,44.292C62.858,351.429,78.589,357.944,95.319,357.944z
		 M62.582,262.567c6.786-6.786,15.309-11.206,24.566-12.846v12.904c0,27.418,6.171,54.453,17.945,78.979h-9.774
		c-12.366,0-23.992-4.816-32.736-13.56c-8.745-8.745-13.561-20.371-13.561-32.737C49.021,282.938,53.837,271.313,62.582,262.567z"/>
	<path style="fill:#700D00;" d="M269.615,412.412c34.087,0,66.228-11.206,92.949-32.409c3.534-2.804,4.126-7.944,1.321-11.479
		c-2.804-3.534-7.944-4.125-11.479-1.321c-23.801,18.885-52.431,28.868-82.792,28.868c-73.583,0-133.447-59.864-133.447-133.447
		l0.001-45.975c10.692,0.904,16.956,3.603,23.999,6.636c9.022,3.887,19.249,8.292,38.635,8.292c19.387,0,29.614-4.405,38.636-8.292
		c8.669-3.734,16.154-6.959,32.171-6.959c16.018,0,23.504,3.225,32.173,6.959c9.022,3.887,19.25,8.292,38.637,8.292
		s29.614-4.405,38.637-8.291c7.045-3.035,13.309-5.733,24.004-6.637l-0.001,45.975c0,30.362-9.983,58.99-28.868,82.791
		c-2.805,3.535-2.212,8.675,1.321,11.479c3.533,2.805,8.672,2.213,11.479-1.321c21.202-26.72,32.409-58.861,32.409-92.949
		l0.001-54.468c0-2.167-0.861-4.244-2.392-5.778c-1.533-1.532-3.61-2.392-5.778-2.392c-19.388,0-29.615,4.405-38.639,8.292
		c-8.669,3.734-16.155,6.959-32.173,6.959c-16.018,0-23.504-3.225-32.173-6.959c-9.022-3.887-19.25-8.292-38.637-8.292
		c-19.386,0-29.613,4.405-38.635,8.292c-8.669,3.734-16.155,6.959-32.172,6.959c-16.016,0-23.502-3.225-32.169-6.959
		c-9.022-3.887-19.249-8.292-38.635-8.292c-4.512,0-8.17,3.657-8.17,8.17l-0.001,54.468
		C119.828,345.217,187.023,412.412,269.615,412.412z"/>
	<path style="fill:#700D00;" d="M503.83,457.457H35.404c-4.513,0-8.17,3.657-8.17,8.17c0,4.513,3.657,8.17,8.17,8.17h4.73
		l4.713,16.491c3.466,12.133,16.066,21.637,28.685,21.637h392.17c12.619,0,25.219-9.505,28.686-21.637l4.712-16.491h4.73
		c4.513,0,8.17-3.657,8.17-8.17C512,461.114,508.343,457.457,503.83,457.457z M478.676,485.798
		c-1.464,5.121-7.648,9.786-12.974,9.786H73.532c-5.327,0-11.51-4.665-12.973-9.786l-3.428-12.001h424.975L478.676,485.798z"/>
	<path style="fill:#700D00;" d="M225.669,119.466c19.722,19.722,45.128,31.497,67.959,31.499c14.97,0,27.818-4.937,37.158-14.276
		c12.152-12.153,16.776-30.076,13.022-50.47c-3.55-19.283-14.292-38.691-30.247-54.646c-19.724-19.723-45.13-31.499-67.96-31.499
		c-14.968,0-27.816,4.936-37.155,14.275c-12.154,12.155-16.778,30.078-13.025,50.472
		C198.971,84.104,209.714,103.512,225.669,119.466z M302.006,43.128c13.638,13.637,22.775,29.99,25.732,46.048
		c2.1,11.407,0.828,21.538-3.548,29.36l-53.197-53.196c-3.192-3.19-8.364-3.19-11.555,0c-3.191,3.192-3.191,8.364,0,11.555
		l53.203,53.202c-5.335,2.978-11.774,4.526-19.007,4.526c-18.598-0.002-39.685-9.988-56.41-26.713
		c-13.638-13.637-22.775-29.99-25.731-46.048c-2.1-11.407-0.828-21.538,3.548-29.363L236.33,53.79
		c1.596,1.595,3.687,2.392,5.778,2.392c2.09,0,4.182-0.797,5.778-2.392c3.191-3.192,3.191-8.364,0-11.555l-21.294-21.294
		c5.336-2.978,11.776-4.525,19.012-4.525C264.193,16.414,285.28,26.4,302.006,43.128z"/>
</g>
<g>
</g>
<g>
</g>
<g>
</g>
<g>
</g>
<g>
</g>
<g>
</g>
<g>
</g>
<g>
</g>
<g>
</g>
<g>
</g>
<g>
</g>
<g>
</g>
<g>
</g>
<g>
</g>
<g>
</g>
</svg>
