<?xml version="1.0" encoding="iso-8859-1"?>
<!-- Generator: Adobe Illustrator 19.0.0, SVG Export Plug-In . SVG Version: 6.00 Build 0)  -->
<svg version="1.1" id="Layer_1" xmlns="http://www.w3.org/2000/svg" xmlns:xlink="http://www.w3.org/1999/xlink" x="0px" y="0px"
	 viewBox="0 0 511.999 511.999" style="enable-background:new 0 0 511.999 511.999;" xml:space="preserve">
<polyline style="fill:#F2F2F2;" points="253.668,502.113 84.595,502.113 49.747,135.82 226.334,135.82 "/>
<polygon style="fill:#E6E6E6;" points="49.747,135.82 84.595,502.112 114.156,502.112 94.659,135.82 "/>
<polygon style="fill:#F2F2F2;" points="498.669,34.845 212.199,34.845 247.061,502.12 463.808,502.12 "/>
<polygon style="fill:#E6E6E6;" points="212.199,34.845 247.061,502.12 297.033,502.12 278.246,34.845 "/>
<polygon style="fill:#F4C67D;" points="486.117,203.135 463.807,502.116 247.067,502.116 224.757,203.135 "/>
<polygon style="fill:#F97E62;" points="253.672,502.116 84.592,502.116 62.704,272.009 236.5,272.009 "/>
<polygon style="fill:#E86B56;" points="114.155,502.116 84.592,502.116 62.704,272.009 101.91,272.009 "/>
<polygon style="fill:#E0B16E;" points="297.038,502.116 247.067,502.116 224.757,203.135 285.005,203.135 "/>
<path d="M77.779,430.443c5.448-0.518,9.442-5.354,8.924-10.801L60.641,145.698h126.065c5.473,0,9.907-4.436,9.907-9.907
	s-4.434-9.907-9.907-9.907H49.747c-2.79,0-5.451,1.177-7.33,3.242c-1.877,2.065-2.796,4.825-2.532,7.603l27.094,284.79
	c0.487,5.128,4.802,8.969,9.85,8.969C77.142,430.488,77.461,430.473,77.779,430.443z"/>
<path d="M214.039,492.177H93.604l-3.889-40.867c-0.518-5.446-5.343-9.438-10.8-8.924c-5.448,0.519-9.442,5.354-8.924,10.801
	l4.742,49.836c0.483,5.086,4.754,8.969,9.862,8.969h129.444c5.473,0,9.907-4.436,9.907-9.907S219.511,492.177,214.039,492.177z"/>
<path d="M505.931,28.078c-1.874-2.02-4.506-3.168-7.261-3.168H212.199c-2.755,0-5.387,1.148-7.261,3.168s-2.824,4.729-2.618,7.476
	l34.862,467.274c0.386,5.171,4.695,9.17,9.879,9.17h216.747c5.186,0,9.495-3.998,9.879-9.17l28.234-378.447
	c0.407-5.457-3.687-10.21-9.143-10.616c-5.452-0.413-10.21,3.685-10.616,9.142l-27.548,369.277H256.256l-33.383-447.46h265.124
	l-3.09,41.402c-0.407,5.457,3.687,10.21,9.144,10.616c5.448,0.4,10.21-3.685,10.616-9.142l3.882-52.046
	C508.754,32.806,507.806,30.096,505.931,28.078z"/>
<path d="M460.44,203.102c0-5.471-4.434-9.907-9.907-9.907H260.336c-5.473,0-9.907,4.436-9.907,9.907s4.434,9.907,9.907,9.907
	h190.196C456.005,213.009,460.44,208.573,460.44,203.102z"/>
<path d="M84.584,271.977c0,5.471,4.434,9.907,9.907,9.907h102.378c5.473,0,9.907-4.436,9.907-9.907s-4.434-9.907-9.907-9.907H94.491
	C89.019,262.07,84.584,266.506,84.584,271.977z"/>
<path d="M108.952,103.464c1.095,4.537,5.15,7.583,9.622,7.583c0.77,0,1.552-0.091,2.334-0.279c5.318-1.285,8.589-6.638,7.303-11.956
	L106.176,7.581c-0.674-2.79-2.524-5.15-5.072-6.47C98.555-0.21,95.56-0.36,92.892,0.699L9.677,33.722
	C4.591,35.741,2.105,41.5,4.124,46.586c2.017,5.087,7.78,7.569,12.862,5.555l72.609-28.815L108.952,103.464z"/>
<circle cx="411.048" cy="279.02" r="9.907"/>
<circle cx="328.86" cy="344.763" r="9.907"/>
<circle cx="396.954" cy="389.384" r="9.907"/>
<g>
</g>
<g>
</g>
<g>
</g>
<g>
</g>
<g>
</g>
<g>
</g>
<g>
</g>
<g>
</g>
<g>
</g>
<g>
</g>
<g>
</g>
<g>
</g>
<g>
</g>
<g>
</g>
<g>
</g>
</svg>
