<?xml version="1.0" encoding="iso-8859-1"?>
<!-- Generator: Adobe Illustrator 19.0.0, SVG Export Plug-In . SVG Version: 6.00 Build 0)  -->
<svg version="1.1" id="Layer_1" xmlns="http://www.w3.org/2000/svg" xmlns:xlink="http://www.w3.org/1999/xlink" x="0px" y="0px"
	 viewBox="0 0 512 512" style="enable-background:new 0 0 512 512;" xml:space="preserve">
<polyline style="fill:#C0C9CC;" points="111.148,503.358 51.876,503.358 40.16,464.608 471.842,464.608 460.126,503.358 
	141.611,503.358 "/>
<g style="opacity:0.15;">
	<polygon style="fill:#202020;" points="39.491,464.608 51.208,503.358 77.955,503.358 66.239,464.608 	"/>
</g>
<path style="fill:#DCE0E2;" d="M503.949,444.677c0,11.007-8.92,19.93-19.931,19.93H27.98c-11.006,0-19.929-8.924-19.929-19.93
	v-6.643c0-11.007,8.924-19.929,19.929-19.929h456.038c11.012,0,19.931,8.922,19.931,19.929V444.677z"/>
<g style="opacity:0.15;">
	<path style="fill:#202020;" d="M33.35,444.677v-6.643c0-11.007,8.924-19.929,19.929-19.929H27.98
		c-11.006,0-19.929,8.922-19.929,19.929v6.643c0,11.007,8.924,19.93,19.929,19.93h25.298
		C42.274,464.608,33.35,455.683,33.35,444.677z"/>
</g>
<path style="fill:#FFFFFF;" d="M68.359,383.548c0-10.894,8.832-19.726,19.726-19.726h144.092c10.892,0,19.724,8.832,19.724,19.726
	v14.833c0,10.891-8.832,19.724-19.724,19.724H88.085c-10.894,0-19.726-8.833-19.726-19.724V383.548z"/>
<g style="opacity:0.15;">
	<path style="fill:#202020;" d="M93.557,398.382v-14.833c0-10.894,8.832-19.726,19.726-19.726H88.085
		c-10.894,0-19.726,8.832-19.726,19.726v14.833c0,10.891,8.832,19.724,19.726,19.724h25.199
		C102.388,418.105,93.557,409.272,93.557,398.382z"/>
</g>
<path style="fill:#9A6560;" d="M8.051,190.082c0-8.504,6.898-15.404,15.403-15.404h206.658c8.507,0,15.401,6.899,15.401,15.404
	v5.134c0,8.509-6.894,15.403-15.401,15.403H23.454c-8.504,0-15.403-6.894-15.403-15.403V190.082z"/>
<g style="opacity:0.15;">
	<path style="fill:#202020;" d="M33.282,195.217v-5.134c0-8.504,6.898-15.404,15.403-15.404H23.454
		c-8.504,0-15.403,6.899-15.403,15.404v5.134c0,8.509,6.898,15.403,15.403,15.403h25.231
		C40.181,210.619,33.282,203.725,33.282,195.217z"/>
</g>
<rect x="26.827" y="143.872" style="fill:#FBAE2E;" width="199.91" height="30.804"/>
<g style="opacity:0.15;">
	<rect x="26.827" y="143.872" style="fill:#202020;" width="25.304" height="30.804"/>
</g>
<rect x="139.32" y="118.848" style="fill:#9A6560;" width="52.358" height="25.024"/>
<path style="fill:#FFF1CE;" d="M189.875,281.692c-3.113,8.714,0.432,18.181,7.992,22.868c-8.821-1.163-17.559,3.917-20.674,12.635
	c-3.586,10.033,1.646,21.07,11.677,24.652c10.035,3.581,21.072-1.645,24.655-11.677l52.844,18.873l12.679-35.503l-52.844-18.875
	c3.586-10.032-1.646-21.07-11.677-24.653C204.496,266.429,193.459,271.657,189.875,281.692z"/>
<path style="fill:#8C5549;" d="M329.099,418.105c-7.708-7.766-13.677-17.48-17.031-28.699l-48.411-32.773l9.052-25.34
	c0.035-0.105,0.073-0.207,0.113-0.316l9.05-25.338l60.1,5.481c4.982-3.054,10.429-5.526,16.292-7.276
	c36.378-10.86,74.672,9.827,85.533,46.203c7.445,24.939,0.063,50.777-17.033,68.059H329.099z"/>
<path style="fill:#FBAE2E;" d="M188.872,341.846c-10.031-3.582-15.262-14.619-11.677-24.652
	c3.113-8.717,11.853-13.798,20.674-12.635c-7.561-4.686-11.107-14.154-7.992-22.868c3.583-10.036,14.62-15.263,24.653-11.68
	c0.73,0.261,1.426,0.572,2.105,0.909l4.604-60.302H32.322L48.17,418.103h39.915c-10.894,0-19.726-8.833-19.726-19.724v-14.833
	c0-10.894,8.832-19.726,19.726-19.726h121.454l2.301-30.107C207.184,341.375,197.645,344.977,188.872,341.846z"/>
<g style="opacity:0.15;">
	<path style="fill:#202020;" d="M67.017,398.382v-14.833c0-3.742,1.061-7.228,2.871-10.21l-12.427-162.72H30.98l15.847,207.485
		h26.479l-0.436-5.708C69.259,408.821,67.017,403.864,67.017,398.382z"/>
</g>
<path style="fill:#202020;" d="M484.018,410.054h-40.754c11.37-18.423,14.59-41.058,8.246-62.311
	c-4.825-16.162-14.546-29.965-28.11-39.917c-13.116-9.624-29.256-14.924-45.447-14.924c-7.422,0-14.822,1.085-21.993,3.227
	c-5.512,1.645-10.829,3.908-15.838,6.737l-57.52-5.246c-3.654-0.337-7.078,1.852-8.314,5.31l-0.114,0.32l-38.805-13.861
	c0.201-4.404-0.677-8.817-2.618-12.914c-1.824-3.851-4.479-7.13-7.724-9.7l3.672-48.102h1.413c12.932,0,23.452-10.521,23.452-23.454
	v-5.134c0-11.332-8.077-20.812-18.776-22.985v-23.223c0-4.446-3.604-8.051-8.051-8.051h-27.003v-16.973
	c0-4.446-3.604-8.051-8.051-8.051h-12.116l24.413-92.312L250.857,30.9c4.297,1.137,8.705-1.425,9.844-5.722
	c1.139-4.298-1.423-8.706-5.722-9.844L200.317,0.86c-2.064-0.546-4.262-0.251-6.108,0.823c-1.846,1.074-3.19,2.837-3.736,4.902
	L162.911,110.8h-23.588c-4.448,0-8.051,3.605-8.051,8.051v16.973H26.827c-4.448,0-8.051,3.605-8.051,8.051V167.1
	C8.077,169.271,0,178.752,0,190.082v5.134c0,12.933,10.521,23.454,23.454,23.454h1.408l14.617,191.383H27.98
	C12.552,410.054,0,422.605,0,438.034v6.643c0,15.429,12.552,27.982,27.98,27.982h6.203l9.987,33.029
	c1.026,3.397,4.158,5.721,7.707,5.721h59.272c4.448,0,8.051-3.604,8.051-8.051c0-4.447-3.604-8.051-8.051-8.051H57.854
	l-6.848-22.648h409.992l-6.848,22.648H141.611c-4.448,0-8.051,3.605-8.051,8.051c0,4.448,3.604,8.051,8.051,8.051h318.514
	c3.549,0,6.68-2.324,7.707-5.721l9.987-33.029h6.198c15.43,0,27.982-12.553,27.982-27.982v-6.643
	C512,422.605,499.447,410.054,484.018,410.054z M273.928,351.808c0.008-0.019,0.017-0.038,0.024-0.057l12.679-35.503
	c0.002-0.006,0.003-0.013,0.005-0.019l0.716-2.006l53.885,4.915c1.73,0.158,3.461-0.247,4.94-1.153
	c4.497-2.757,9.337-4.92,14.386-6.426c5.677-1.695,11.526-2.554,17.388-2.554c26.604,0,50.507,17.824,58.126,43.345
	c6.036,20.221,1.125,42.028-12.803,57.704h-90.7c-5.859-6.59-10.257-14.465-12.796-22.955c-0.531-1.779-1.663-3.32-3.2-4.362
	l-43.242-29.276L273.928,351.808z M232.176,355.771h-13.948l1.143-14.964l36.706,13.11l-0.002,0.006
	c-1.236,3.459,0.026,7.315,3.068,9.375l46.106,31.213c1.859,5.444,4.332,10.66,7.342,15.541h-55.22
	c1.652-3.551,2.581-7.505,2.581-11.672v-14.833C259.951,368.232,247.492,355.771,232.176,355.771z M60.349,399.874
	c0.009,0.163,0.026,0.325,0.038,0.487c0.024,0.33,0.047,0.66,0.082,0.987c0.02,0.19,0.048,0.377,0.072,0.565
	c0.038,0.297,0.076,0.594,0.123,0.888c0.032,0.198,0.07,0.392,0.105,0.587c0.052,0.282,0.104,0.564,0.164,0.843
	c0.043,0.199,0.09,0.395,0.136,0.591c0.065,0.273,0.132,0.543,0.205,0.813c0.053,0.196,0.11,0.391,0.166,0.585
	c0.078,0.266,0.161,0.531,0.247,0.794c0.062,0.191,0.127,0.38,0.193,0.569c0.092,0.263,0.19,0.524,0.291,0.784
	c0.071,0.183,0.142,0.366,0.216,0.548c0.108,0.262,0.222,0.522,0.337,0.779c0.054,0.119,0.101,0.24,0.156,0.359h-7.251
	L41.012,218.67h171.536l-3.222,42.192c-0.427-0.02-0.857-0.03-1.286-0.03c-11.523,0-21.871,7.296-25.746,18.151
	c-2.415,6.76-1.975,14.02,0.798,20.281c-6.15,3.096-11.068,8.47-13.479,15.222c-2.458,6.877-2.089,14.3,1.038,20.901
	c3.126,6.6,8.635,11.586,15.514,14.043c0.689,0.246,1.387,0.459,2.091,0.647c0.399,0.108,0.804,0.189,1.208,0.278
	c0.292,0.064,0.583,0.137,0.876,0.191c0.491,0.092,0.984,0.159,1.479,0.223c0.209,0.027,0.419,0.059,0.629,0.082
	c0.516,0.056,1.034,0.09,1.553,0.116c0.199,0.01,0.397,0.02,0.596,0.026c0.254,0.008,0.508,0.033,0.762,0.033
	c2.423,0,4.791-0.333,7.06-0.944c0.031-0.009,0.063-0.014,0.096-0.023l-0.436,5.71H88.085c-15.317,0-27.777,12.46-27.777,27.777
	v14.833C60.308,398.882,60.323,399.379,60.349,399.874z M76.41,383.548c0-6.437,5.238-11.674,11.674-11.674h121.454h22.638
	c6.436,0,11.672,5.238,11.672,11.674v14.833c0,6.436-5.237,11.672-11.672,11.672H88.105h-0.011h-0.011
	c-6.437,0-11.674-5.237-11.674-11.672v-14.833H76.41z M268.758,318.413l-3.491,9.776c-0.055,0.15-0.107,0.293-0.157,0.438
	l-3.616,10.124l-45.259-16.165c-0.895-0.319-1.809-0.47-2.707-0.47c-3.306,0-6.407,2.053-7.582,5.345
	c-0.278,0.779-0.642,1.51-1.071,2.192c-0.206,0.328-0.428,0.645-0.666,0.948c-0.077,0.098-0.158,0.192-0.238,0.288
	c-0.228,0.272-0.465,0.534-0.716,0.78c-0.061,0.06-0.121,0.12-0.184,0.179c-0.281,0.264-0.578,0.512-0.883,0.745
	c-0.07,0.054-0.14,0.108-0.211,0.161c-0.336,0.245-0.685,0.471-1.047,0.677c-0.054,0.031-0.108,0.059-0.162,0.089
	c-0.775,0.426-1.6,0.762-2.457,0.997c-0.049,0.014-0.098,0.028-0.147,0.041c-0.417,0.108-0.839,0.191-1.269,0.251
	c-0.071,0.01-0.142,0.017-0.213,0.025c-0.437,0.053-0.877,0.087-1.322,0.087c-1.282,0-2.554-0.222-3.78-0.659
	c-2.827-1.009-5.091-3.06-6.376-5.771c-1.285-2.713-1.436-5.763-0.426-8.59c1.593-4.459,5.846-7.456,10.585-7.456
	c0.484,0,0.974,0.032,1.454,0.096c0.217,0.029,0.432,0.046,0.645,0.057c0.111,0.005,0.221,0.004,0.332,0.005
	c0.1,0.001,0.201,0.006,0.301,0.005c0.02,0,0.04-0.004,0.06-0.004c0.169-0.005,0.336-0.021,0.503-0.038
	c0.524-0.049,1.033-0.149,1.522-0.295c0.02-0.006,0.042-0.011,0.063-0.017c0.206-0.063,0.407-0.135,0.605-0.214
	c0.01-0.003,0.018-0.008,0.028-0.011c2.965-1.187,5.065-4.079,5.065-7.47c0-2.384-1.046-4.515-2.691-5.989
	c-0.023-0.02-0.047-0.04-0.071-0.06c-0.307-0.268-0.632-0.512-0.977-0.732c-0.031-0.02-0.06-0.043-0.091-0.062
	c-0.189-0.117-0.366-0.246-0.545-0.372c-0.129-0.091-0.259-0.183-0.383-0.278c-0.129-0.1-0.252-0.204-0.377-0.308
	c-0.119-0.101-0.238-0.201-0.352-0.305c-0.12-0.111-0.234-0.225-0.349-0.34c-0.107-0.107-0.216-0.215-0.318-0.326
	c-0.111-0.121-0.216-0.247-0.321-0.372c-0.096-0.114-0.193-0.228-0.284-0.345c-0.102-0.132-0.196-0.267-0.292-0.404
	c-0.084-0.118-0.169-0.235-0.247-0.356c-0.092-0.143-0.177-0.289-0.263-0.435c-0.071-0.121-0.145-0.242-0.211-0.365
	c-0.082-0.152-0.155-0.308-0.23-0.464c-0.059-0.123-0.122-0.247-0.177-0.372c-0.07-0.16-0.131-0.324-0.193-0.487
	c-0.048-0.126-0.1-0.25-0.143-0.378c-0.058-0.17-0.106-0.341-0.156-0.513c-0.036-0.126-0.077-0.25-0.11-0.377
	c-0.045-0.178-0.079-0.36-0.116-0.54c-0.025-0.123-0.055-0.246-0.075-0.369c-0.031-0.186-0.05-0.374-0.073-0.56
	c-0.014-0.122-0.033-0.244-0.044-0.366c-0.016-0.193-0.02-0.388-0.027-0.582c-0.004-0.118-0.013-0.235-0.013-0.353
	c0-0.203,0.013-0.406,0.024-0.609c0.006-0.111,0.005-0.221,0.015-0.332c0.017-0.211,0.049-0.422,0.079-0.633
	c0.015-0.103,0.023-0.206,0.04-0.308c0.04-0.231,0.093-0.461,0.148-0.69c0.019-0.082,0.032-0.164,0.054-0.246
	c0.082-0.311,0.176-0.62,0.286-0.928c1.593-4.465,5.846-7.464,10.582-7.464c0.321,0,0.64,0.014,0.959,0.042
	c0.955,0.083,1.899,0.29,2.818,0.617c0.006,0.002,0.015,0.006,0.023,0.009c0.234,0.084,0.458,0.185,0.685,0.283
	c0.171,0.077,0.344,0.156,0.536,0.251c0.013,0.006,0.028,0.011,0.041,0.017c2.226,1.119,4.012,2.926,5.096,5.214
	c1.285,2.713,1.436,5.763,0.426,8.588c-0.719,2.012-0.609,4.225,0.305,6.156c0.915,1.93,2.557,3.418,4.569,4.136L268.758,318.413z
	 M147.373,126.902h36.256v8.922h-36.256V126.902z M34.878,151.926h104.443h52.358h27.003v14.702H34.878V151.926z M32.322,202.567
	h-8.869c-4.053,0-7.351-3.298-7.351-7.351v-5.134c0-4.054,3.298-7.352,7.351-7.352h3.374h199.908h3.376
	c4.051,0,7.349,3.298,7.349,7.352v5.134c0,4.054-3.297,7.351-7.349,7.351h-8.874H32.322z M495.897,444.677
	c0,6.551-5.33,11.879-11.879,11.879h-12.176H40.16H27.98c-6.549,0-11.877-5.329-11.877-11.879v-6.643
	c0-6.55,5.329-11.878,11.877-11.878h20.19h39.915h0.021h144.071h96.922h97.663h57.257c6.551,0,11.88,5.329,11.88,11.878v6.643
	H495.897z"/>
<g style="opacity:0.15;">
	<path style="fill:#202020;" d="M336.885,381.218c-0.016-0.092-0.033-0.179-0.046-0.281c-0.718-5.773-4.609-8.387-4.655-8.417
		l-38.336-25.953l9.052-25.34c0.035-0.105,0.073-0.207,0.113-0.316l4.616-12.924l-25.759-2.35l-9.05,25.338
		c-0.04,0.108-0.077,0.21-0.113,0.316l-9.052,25.34l48.411,32.773c3.355,11.219,9.323,20.934,17.031,28.699h40.263
		C352.403,413.358,339.489,398.969,336.885,381.218z"/>
</g>
<g>
</g>
<g>
</g>
<g>
</g>
<g>
</g>
<g>
</g>
<g>
</g>
<g>
</g>
<g>
</g>
<g>
</g>
<g>
</g>
<g>
</g>
<g>
</g>
<g>
</g>
<g>
</g>
<g>
</g>
</svg>
