<?xml version="1.0" encoding="iso-8859-1"?>
<!-- Generator: Adobe Illustrator 19.0.0, SVG Export Plug-In . SVG Version: 6.00 Build 0)  -->
<svg version="1.1" id="Layer_1" xmlns="http://www.w3.org/2000/svg" xmlns:xlink="http://www.w3.org/1999/xlink" x="0px" y="0px"
	 viewBox="0 0 512 512" style="enable-background:new 0 0 512 512;" xml:space="preserve">
<g>
	<g>
		<path d="M501.801,357.992h-45.896v-32.298h35.697c5.633,0,10.199-4.566,10.199-10.199c0-5.633-4.566-10.199-10.199-10.199h-35.697
			v-31.788h45.896c5.633,0,10.199-4.566,10.199-10.199c0-109.196-88.838-198.034-198.035-198.034h-115.93
			C88.838,65.275,0,154.113,0,263.31c0,5.633,4.566,10.199,10.199,10.199h45.896v31.788H21.418c-5.633,0-10.199,4.566-10.199,10.199
			c0,5.633,4.566,10.199,10.199,10.199h34.677v32.297H10.199C4.566,357.992,0,362.558,0,368.191v52.696
			c0,14.246,11.591,25.838,25.838,25.838h460.324c14.247,0,25.839-11.591,25.839-25.838v-52.696
			C512,362.558,507.434,357.992,501.801,357.992z M20.688,253.111c5.306-93.219,82.823-167.437,177.347-167.437h115.931
			c94.523,0,172.04,74.219,177.347,167.437H20.688z M76.494,305.297v-31.788h359.012v31.788H76.494z M435.506,325.694v32.298H76.494
			v-32.298H435.506z M491.602,420.887c0,3-2.441,5.439-5.439,5.439H25.838c-3,0-5.439-2.441-5.439-5.439V378.39h471.203V420.887z"/>
	</g>
</g>
<g>
	<g>
		<path d="M136.232,128.946c-3.983-3.983-10.441-3.983-14.425,0l-2.55,2.55c-3.983,3.983-3.983,10.441,0,14.425
			c1.992,1.992,4.603,2.987,7.213,2.987c2.61,0,5.221-0.995,7.212-2.987l2.55-2.55C140.215,139.388,140.215,132.93,136.232,128.946z
			"/>
	</g>
</g>
<g>
	<g>
		<path d="M371.833,117.727l-2.55-2.55c-3.983-3.983-10.441-3.983-14.425,0c-3.983,3.983-3.983,10.441,0,14.425l2.551,2.55
			c1.992,1.992,4.602,2.987,7.212,2.987s5.221-0.995,7.212-2.987C375.816,128.169,375.816,121.711,371.833,117.727z"/>
	</g>
</g>
<g>
	<g>
		<path d="M265.762,145.265c-3.983-3.983-10.441-3.983-14.425,0l-6.63,6.63c-3.983,3.983-3.983,10.441,0,14.425
			c1.992,1.992,4.603,2.987,7.213,2.987s5.221-0.995,7.212-2.987l6.629-6.63C269.744,155.707,269.744,149.249,265.762,145.265z"/>
	</g>
</g>
<g>
	<g>
		<path d="M346.335,158.524l-7.649-7.649c-3.983-3.983-10.441-3.983-14.425,0c-3.983,3.983-3.983,10.441,0,14.425l7.65,7.649
			c1.992,1.992,4.602,2.987,7.212,2.987c2.61,0,5.221-0.995,7.212-2.987C350.318,168.966,350.318,162.508,346.335,158.524z"/>
	</g>
</g>
<g>
	<g>
		<path d="M211.124,103.012h-11.219c-5.633,0-10.199,4.566-10.199,10.199c0,5.633,4.566,10.199,10.199,10.199h11.219
			c5.633,0,10.199-4.566,10.199-10.199C221.323,107.578,216.757,103.012,211.124,103.012z"/>
	</g>
</g>
<g>
	<g>
		<path d="M304.956,93.833c-5.633,0-10.199,4.566-10.199,10.199v6.12c0,5.633,4.566,10.199,10.199,10.199
			c5.633,0,10.199-4.566,10.199-10.199v-6.12C315.155,98.399,310.589,93.833,304.956,93.833z"/>
	</g>
</g>
<g>
	<g>
		<path d="M180.526,150.948h-3.06c-5.633,0-10.199,4.566-10.199,10.199c0,5.633,4.566,10.199,10.199,10.199h3.06
			c5.633,0,10.199-4.566,10.199-10.199C190.725,155.514,186.159,150.948,180.526,150.948z"/>
	</g>
</g>
<g>
	<g>
		<path d="M454.884,218.263h-12.239c-5.633,0-10.199,4.566-10.199,10.199s4.566,10.199,10.199,10.199h12.239
			c5.633,0,10.199-4.566,10.199-10.199S460.518,218.263,454.884,218.263z"/>
	</g>
</g>
<g>
	<g>
		<path d="M404.908,218.263H268.239c-5.633,0-10.199,4.566-10.199,10.199s4.566,10.199,10.199,10.199h136.669
			c5.633,0,10.199-4.566,10.199-10.199S410.541,218.263,404.908,218.263z"/>
	</g>
</g>
<g>
</g>
<g>
</g>
<g>
</g>
<g>
</g>
<g>
</g>
<g>
</g>
<g>
</g>
<g>
</g>
<g>
</g>
<g>
</g>
<g>
</g>
<g>
</g>
<g>
</g>
<g>
</g>
<g>
</g>
</svg>
