<?xml version="1.0" encoding="iso-8859-1"?>
<!-- Generator: Adobe Illustrator 18.0.0, SVG Export Plug-In . SVG Version: 6.00 Build 0)  -->
<!DOCTYPE svg PUBLIC "-//W3C//DTD SVG 1.1//EN" "http://www.w3.org/Graphics/SVG/1.1/DTD/svg11.dtd">
<svg version="1.1" id="Capa_1" xmlns="http://www.w3.org/2000/svg" xmlns:xlink="http://www.w3.org/1999/xlink" x="0px" y="0px"
	 viewBox="0 0 58 58" style="enable-background:new 0 0 58 58;" xml:space="preserve">
<g>
	<path d="M22.887,21.146c0,1.229,0.479,2.386,1.35,3.256c0.195,0.195,0.451,0.293,0.707,0.293c0.256,0,0.512-0.098,0.707-0.293
		c0.391-0.391,0.391-1.023,0-1.414c-0.492-0.492-0.764-1.146-0.764-1.842s0.271-1.35,0.764-1.842c1.795-1.795,1.795-4.717,0-6.512
		c-0.391-0.391-1.023-0.391-1.414,0s-0.391,1.023,0,1.414c1.015,1.016,1.015,2.668,0,3.684
		C23.366,18.761,22.887,19.917,22.887,21.146z"/>
	<path d="M12,21.146c0,1.229,0.479,2.386,1.35,3.256c0.195,0.195,0.451,0.293,0.707,0.293c0.256,0,0.512-0.098,0.707-0.293
		c0.391-0.391,0.391-1.023,0-1.414C14.271,22.496,14,21.842,14,21.146s0.271-1.35,0.764-1.842c1.795-1.795,1.795-4.717,0-6.512
		c-0.391-0.391-1.023-0.391-1.414,0s-0.391,1.023,0,1.414c1.015,1.016,1.015,2.668,0,3.684C12.479,18.761,12,19.917,12,21.146z"/>
	<path d="M17.887,18.146c0,1.229,0.479,2.386,1.35,3.256c0.195,0.195,0.451,0.293,0.707,0.293c0.256,0,0.512-0.098,0.707-0.293
		c0.391-0.391,0.391-1.023,0-1.414c-0.492-0.492-0.764-1.146-0.764-1.842s0.271-1.35,0.764-1.842c1.795-1.795,1.795-4.717,0-6.512
		c-0.391-0.391-1.023-0.391-1.414,0s-0.391,1.023,0,1.414c1.015,1.016,1.015,2.668,0,3.684
		C18.366,15.761,17.887,16.917,17.887,18.146z"/>
	<path d="M14,38.5c-2.243,0-4,1.317-4,3s1.757,3,4,3s4-1.317,4-3S16.243,38.5,14,38.5z M14,42.5c-1.221,0-2-0.592-2-1s0.779-1,2-1
		s2,0.592,2,1S15.221,42.5,14,42.5z"/>
	<path d="M17,30.5c-2.243,0-4,1.317-4,3s1.757,3,4,3s4-1.317,4-3S19.243,30.5,17,30.5z M17,34.5c-1.221,0-2-0.592-2-1s0.779-1,2-1
		s2,0.592,2,1S18.221,34.5,17,34.5z"/>
	<path d="M27,34.5c2.243,0,4-1.317,4-3s-1.757-3-4-3s-4,1.317-4,3S24.757,34.5,27,34.5z M27,30.5c1.221,0,2,0.592,2,1s-0.779,1-2,1
		s-2-0.592-2-1S25.779,30.5,27,30.5z"/>
	<path d="M37,35.5c2.243,0,4-1.317,4-3s-1.757-3-4-3s-4,1.317-4,3S34.757,35.5,37,35.5z M37,31.5c1.221,0,2,0.592,2,1s-0.779,1-2,1
		s-2-0.592-2-1S35.779,31.5,37,31.5z"/>
	<path d="M50,36.5c0-1.683-1.757-3-4-3s-4,1.317-4,3s1.757,3,4,3S50,38.183,50,36.5z M46,37.5c-1.221,0-2-0.592-2-1s0.779-1,2-1
		s2,0.592,2,1S47.221,37.5,46,37.5z"/>
	<path d="M40,39.5c-2.243,0-4,1.317-4,3s1.757,3,4,3s4-1.317,4-3S42.243,39.5,40,39.5z M40,43.5c-1.221,0-2-0.592-2-1s0.779-1,2-1
		s2,0.592,2,1S41.221,43.5,40,43.5z"/>
	<path d="M29,41.5c-2.243,0-4,1.317-4,3s1.757,3,4,3s4-1.317,4-3S31.243,41.5,29,41.5z M29,45.5c-1.221,0-2-0.592-2-1s0.779-1,2-1
		s2,0.592,2,1S30.221,45.5,29,45.5z"/>
	<path d="M24.206,38.768c-0.404-0.087-0.802,0.086-1.025,0.405c-0.586,0.011-1.121,0.353-1.378,0.878
		c-0.7,0.028-1.32,0.527-1.471,1.243c-0.114,0.541,0.232,1.071,0.773,1.185c0.069,0.015,0.138,0.021,0.207,0.021
		c0.329,0,0.634-0.163,0.818-0.427c0.586-0.011,1.121-0.353,1.378-0.878c0.7-0.028,1.32-0.527,1.471-1.243
		C25.092,39.411,24.746,38.881,24.206,38.768z"/>
	<path d="M33.87,39.049c-0.291-0.508-0.847-0.778-1.431-0.788c-0.144-0.24-0.35-0.438-0.604-0.574
		c-0.37-0.199-0.795-0.243-1.195-0.119c-0.529,0.16-0.828,0.718-0.667,1.246c0.119,0.396,0.461,0.662,0.847,0.705
		c0.144,0.253,0.357,0.462,0.62,0.603c0.253,0.136,0.535,0.189,0.811,0.186c0.144,0.24,0.35,0.438,0.603,0.574
		c0.231,0.124,0.484,0.188,0.739,0.188c0.153,0,0.306-0.022,0.456-0.068c0.529-0.16,0.828-0.718,0.667-1.246
		C34.597,39.358,34.255,39.092,33.87,39.049z"/>
	<path d="M27.11,36.049c-0.291-0.508-0.838-0.787-1.431-0.788c-0.144-0.24-0.35-0.438-0.604-0.574
		c-0.37-0.198-0.795-0.242-1.195-0.119c-0.529,0.16-0.828,0.718-0.667,1.246c0.119,0.396,0.461,0.662,0.847,0.705
		c0.144,0.253,0.357,0.462,0.62,0.603c0.253,0.136,0.536,0.189,0.811,0.186c0.144,0.24,0.35,0.438,0.603,0.574
		c0.231,0.124,0.484,0.188,0.739,0.188c0.153,0,0.306-0.022,0.456-0.068c0.529-0.16,0.828-0.718,0.667-1.246
		C27.838,36.358,27.496,36.092,27.11,36.049z"/>
	<path d="M57.846,47.093c0.013-0.159,0.011-0.319-0.027-0.479l-7.754-19.972l4.906-19.903c0.008-0.034-0.003-0.068,0.002-0.102
		C54.979,6.591,55,6.549,55,6.5v-3c0-0.553-0.447-1-1-1H4c-0.552,0-1,0.447-1,1v3c0,0.553,0.448,1,1,1h0.149l4.197,18.466
		c-0.174,0.176-0.32,0.382-0.394,0.632l-7.73,19.884l-0.041,0.133c-0.044,0.187-0.044,0.374-0.019,0.558
		C0.068,47.348,0,47.54,0,47.753v6.158C0,54.787,0.713,55.5,1.589,55.5h54.822c0.876,0,1.589-0.713,1.589-1.589v-6.283
		C58,47.431,57.936,47.255,57.846,47.093z M34.429,46.5h-0.031c-0.718,0-1.334,0.501-1.5,1.22c-0.03,0.13-0.08,0.251-0.126,0.375
		c-0.026,0.071-0.043,0.146-0.074,0.215c-0.044,0.097-0.104,0.185-0.157,0.277c-0.049,0.085-0.091,0.175-0.148,0.256
		c-0.041,0.058-0.093,0.108-0.137,0.163c-0.085,0.105-0.166,0.214-0.263,0.31c-0.024,0.023-0.052,0.042-0.077,0.065
		c-0.583,0.547-1.358,0.932-2.224,1.066C29.467,50.482,29.235,50.5,29,50.5s-0.467-0.018-0.692-0.053
		c-0.876-0.135-1.661-0.527-2.245-1.084c-0.017-0.017-0.038-0.03-0.055-0.047c-0.102-0.102-0.189-0.215-0.278-0.327
		c-0.04-0.05-0.087-0.095-0.123-0.147c-0.064-0.091-0.111-0.19-0.165-0.286c-0.046-0.082-0.101-0.16-0.14-0.246
		c-0.039-0.085-0.061-0.178-0.092-0.266c-0.038-0.108-0.084-0.213-0.109-0.325c-0.165-0.718-0.781-1.219-1.499-1.219h-0.031H10.773
		C7.78,44.564,6,40.952,6,38.5c0-5.963,10.533-11,23-11s23,5.037,23,11c0,2.452-1.78,6.064-4.773,8H34.429z M9.747,27.5h5.761
		c-2.833,0.928-5.264,2.145-7.152,3.579L9.747,27.5z M49.644,31.078c-1.888-1.434-4.319-2.65-7.152-3.578h5.761L49.644,31.078z
		 M53.557,41.144l2.082,5.356h-5.302C51.909,44.9,53,42.962,53.557,41.144z M5,4.5h48v1H32.93c-0.313,0-0.608,0.146-0.798,0.396
		c-0.189,0.25-0.25,0.574-0.165,0.876C31.989,6.85,32,6.924,32,7c0,0.71-1.027,1.5-2.5,1.5S27,7.71,27,7
		c0-0.076,0.011-0.15,0.033-0.228c0.085-0.302,0.024-0.626-0.165-0.876C26.679,5.646,26.384,5.5,26.07,5.5H5V4.5z M25.043,7.5
		c0.303,1.718,2.152,3,4.457,3s4.153-1.282,4.457-3h18.767l-4.437,18H10.292L6.2,7.5H25.043z M4.443,41.143
		C5,42.962,6.091,44.9,7.664,46.5H2.361L4.443,41.143z M56,53.5H2v-5h8.208h13.032c0.709,2.37,3.032,4,5.761,4
		c2.729,0,5.052-1.63,5.761-4h13.032H56V53.5z"/>
</g>
<g>
</g>
<g>
</g>
<g>
</g>
<g>
</g>
<g>
</g>
<g>
</g>
<g>
</g>
<g>
</g>
<g>
</g>
<g>
</g>
<g>
</g>
<g>
</g>
<g>
</g>
<g>
</g>
<g>
</g>
</svg>
