<?xml version="1.0" encoding="iso-8859-1"?>
<!-- Generator: Adobe Illustrator 19.0.0, SVG Export Plug-In . SVG Version: 6.00 Build 0)  -->
<svg version="1.1" id="Layer_1" xmlns="http://www.w3.org/2000/svg" xmlns:xlink="http://www.w3.org/1999/xlink" x="0px" y="0px"
	 viewBox="0 0 512 512" style="enable-background:new 0 0 512 512;" xml:space="preserve">
<g>
	<g>
		<path d="M283.673,367.703h-0.137c-5.771,0-10.449,4.678-10.449,10.449s4.679,10.449,10.449,10.449h0.137
			c5.77,0,10.449-4.678,10.449-10.449C294.122,372.381,289.443,367.703,283.673,367.703z"/>
	</g>
</g>
<g>
	<g>
		<path d="M509.781,411.392L294.925,136.674c-3.905-4.992-9.738-7.893-16.057-8.012l-28.87-36.915
			c-3.987-5.099-9.988-8.024-16.46-8.024c-0.001,0-0.001,0-0.002,0c-6.472,0-12.474,2.925-16.462,8.024L2.218,366.463
			c-3.253,4.159-2.892,10.092,0.842,13.825l44.765,44.765c0.005-0.004,0.009-0.007,0.015-0.011c1.94,2.026,4.641,3.235,7.537,3.235
			H501.55c3.996,0,7.641-2.279,9.393-5.871S512.244,414.539,509.781,411.392z M233.536,104.622l8.615,11.016
			c-0.125,0.046-0.252,0.082-0.377,0.13c-9.633,3.658-16.395,11.956-18.09,22.198l-1.558,9.41c-0.444,2.678-2.235,4.973-4.673,5.987
			l-27.847,11.595c-2.091,0.87-4.032,1.978-5.816,3.269L233.536,104.622z M174.113,180.601c-0.801,1.976-1.404,4.054-1.764,6.222
			l-4.985,30.103c-0.444,2.678-2.234,4.973-4.673,5.987l-27.766,11.561c-1.819,0.757-3.526,1.692-5.116,2.772L174.113,180.601z
			 M119.101,250.939c-0.639,1.727-1.121,3.533-1.43,5.4l-4.971,30.014c-0.444,2.678-2.234,4.972-4.672,5.986l-27.85,11.595
			c-1.499,0.625-2.918,1.377-4.264,2.224L119.101,250.939z M30.474,378.15l-6.097-6.097l39.66-50.709
			c-0.477,1.44-0.86,2.924-1.114,4.455l-4.985,30.103c-0.444,2.678-2.235,4.973-4.673,5.987l-8.716,3.629
			C38.419,368.072,33.54,372.54,30.474,378.15z M54.418,402.093l-4.282-4.282c-2.546-2.484-2.435-5.571-2.251-6.845
			c0.194-1.343,1.039-4.631,4.698-6.154l8.715-3.629c9.169-3.818,15.62-11.992,17.256-21.865l4.985-30.103
			c0.444-2.678,2.235-4.973,4.673-5.987l27.85-11.595c9.169-3.818,15.619-11.991,17.255-21.864l4.972-30.016
			c0.443-2.677,2.233-4.971,4.671-5.985l27.766-11.561c9.17-3.818,15.621-11.992,17.256-21.865l4.985-30.103
			c0.444-2.678,2.234-4.972,4.673-5.986l27.849-11.595c9.169-3.818,15.62-11.992,17.258-21.865l1.557-9.411
			c0.673-4.062,3.647-5.601,4.894-6.075c1.199-0.455,4.313-1.25,7.332,1.196c1.029,0.834,3.777,2.346,3.777,2.346L54.418,402.093z
			 M76.815,407.38l14.686-18.778h158.229c5.77,0,10.449-4.678,10.449-10.449s-4.679-10.449-10.449-10.449H107.845l170.619-218.155
			L480.113,407.38H76.815z"/>
	</g>
</g>
<g>
</g>
<g>
</g>
<g>
</g>
<g>
</g>
<g>
</g>
<g>
</g>
<g>
</g>
<g>
</g>
<g>
</g>
<g>
</g>
<g>
</g>
<g>
</g>
<g>
</g>
<g>
</g>
<g>
</g>
</svg>
